    <svg width="203" height="191" xmlns="http://www.w3.org/2000/svg" xmlns:xlink="http://www.w3.org/1999/xlink" viewBox="0 0 203 191">
        <path d="M153.99 145.653s-32.065 2.131-33.837-.558 18.047-3.49 11.6-4.646-115.013-3.279-97.612 9.033c7.712 5.457 4.029 5.4-8.217 4.835s-45.632 3.1-9.861 10.383 60.746 10.537 51.239 12.942-7.412 15.994 22.236 12.525 116.819-15.067 113.431-17.829-29.97-3-15.467-6.915-10.312-9.433-19.98-9.008-13.532-10.762-13.532-10.762z" fill="#e3e2e2" />
        <path d="M102.04 125.252l2.864 19.306 23.47 14.326 2.1-.36-6.637-22.812z" fill="#6666d8" />
        <path d="M102.799 146.544l-34.823 1.1v1.83l26.662 18.662 36.2-8.051-.364-1.644z" fill="#6666d8" />
        <path d="M162.471 0v155.377l-89.58-43.1V38.392z" fill="#4947e6" />
        <path d="M162.471 0h3.265s3.99 43.892 3.99 77.809-4.595 76.842-4.595 76.842l-2.659.967z" fill="#31319b" />
        <path d="M128.372 158.884l-14.462-7.84a.063.063 0 00-.019-.007l-11.565-6.267-2.915-19.515 11.336 5.4 10.866 5.174z" fill="#4947e6" />
        <path d="M102.799 144.703l-34.823 2.931 26.662 18.684 33.736-7.51z" fill="#4947e6" />
        <path d="M117.495 146.732c1.792-5.314-6.232-15.533-6.424-15.776l10.668 5.118 6.639 22.809-14.2-7.756c.182.096 1.622.622 3.317-4.395z" fill="#31319b" />
        <path d="M74.815 100.333V40.992l81.127-28.657v108.278z" fill="#7d7db5" />
        <path d="M162.471 122.247v33.373l-89.58-43.167V99.758z" fill="#4947e6" />
        <path d="M137.918 119.631c-.458-.263-5.267-3.191-10.013-11.916-4.735-8.7-4.562-11.62-4.543-11.82-.052.14-.417 1.341.688 4.661-.63-.321-1.913-1.327-2.755-4.088.469 2.887 1.582 4.036 2.355 4.491-1.182.754-4.338 3.189-7.2 9.133a79.028 79.028 0 00-4.562 11.458c-.7-1.094-2.643-3.373-7.383-4.883-4.374-1.39-6.995-1.037-8.407-.409a59.993 59.993 0 0111.96-26.352c.7.622 3.125 2.325 9.846 3.564a21.888 21.888 0 0014.036-2.114 44.636 44.636 0 001.6 4.335 1.476 1.476 0 001.012.82c.529.069 2.3.178 2.377.184h.049a2.278 2.278 0 001-.236c.43-.228 3.065-1.884 3.277-2.015a.823.823 0 00.392-.455.7.7 0 00-.085-.57 52.283 52.283 0 01-1.79-6.868 16.552 16.552 0 002.426-2.416 15.816 15.816 0 011.95 8.182 24.112 24.112 0 01-1.377 8.472 9.508 9.508 0 00.9-1.993 12.605 12.605 0 01.291 3.167 8.2 8.2 0 00.285-1.4 10.917 10.917 0 011.62 3.515c.71 2.739 3.7 5.47 4.746 5.78.586.173 2.862.642 3.4 4.785.014.1.025.2.036.307-.011-.1-.022-.209-.036-.307-.274-2.257-.932-3.795-2-4.656a4.158 4.158 0 012.868.718 3.113 3.113 0 00-1.563-1.1 2.247 2.247 0 01.719-.263 3.274 3.274 0 001.439-.776v13.413a.288.288 0 01-.1.222zM156.158 58.189a2.144 2.144 0 01-1.042-.178 2.547 2.547 0 002.353.611c.288-.036.581-.071.877-.1.944-.082 2.7-.233 3.378.376a.792.792 0 01.269.609.74.74 0 01-.252.548c-.935.96-4.025 1.407-5.818 1.407-1.971 0-2.147-.356-3.115-2.339l-.137-.277a3.071 3.071 0 01-.3-2.265 1.633 1.633 0 00-.392-1.7 3.577 3.577 0 01-.992-3.057 1.737 1.737 0 01.2-.51c.274-.524.587-1.121-.044-3.043a3.038 3.038 0 01.3-2.536c.88-1.511 2.961-2.7 5.714-3.252 3.436-.694 5.774-.055 6.819.773a1.307 1.307 0 01.582.88c.027.88-.285 2.07-3.318 2.2a10.1 10.1 0 00-4.206.894 11.551 11.551 0 00-2.632.946l1.13-.154c2.36-.521 6.528-.546 7.948.595a1.125 1.125 0 01.477.908c0 1.686-3.315 2.3-4.919 2.328a10.63 10.63 0 00-3.458.688l-.916.313c.005 0 1.409-.156 1.6.027a1.042 1.042 0 000 .324 3.86 3.86 0 00-1.911.79 11.891 11.891 0 013.639-.345c.633-.019 1.286-.036 2.122-.137a4.416 4.416 0 013.381.579 1.192 1.192 0 01.357 1.023c-.055.666-1.064 1.461-5.552 1.461a7.1 7.1 0 00-2.948.6l-.8.343a12.758 12.758 0 011.461-.019 1.476 1.476 0 00.145.689z" fill="#fff" />
        <path d="M150.971 84.944c0 .055-.058 1.371-1.13 1.492-1.149.131-4.815.691-5.755.836a15.147 15.147 0 00-.546-1.643l-1.53-24.032a20.96 20.96 0 006.128.99 15.178 15.178 0 002.04-.134c.461 10.928.727 18.499.793 22.491zM148.571 27.565c.041.62.469 9.309.962 20.194a13.149 13.149 0 01-8.193-1.67c-.1-1.6-1.127-16.961-1.127-17.83a.739.739 0 01.2-.562.709.709 0 01.477-.164h.028c.047-.005 4.669-.611 6.163-.716a2.345 2.345 0 011.311.186 1.059 1.059 0 01.179.562zM142.498 81.095a25.938 25.938 0 00-.121-1.53 1.236 1.236 0 00-1.1-1.086 71.78 71.78 0 00-.935-17.446c.3.112.609.222.93.332.156.052.3.1.458.145l1.489 23.369a10.347 10.347 0 00-.694-1.267 1.189 1.189 0 00.129-.809 14.189 14.189 0 01-.156-1.708z" fill="#989898" />
        <path d="M141.835 79.636c.049.389.082.949.115 1.492a13.7 13.7 0 00.17 1.8c.156.647-1.533 2.193-2.465 3.005a49.322 49.322 0 01-.587-3.776 12.565 12.565 0 002.446-2.169 3.515 3.515 0 00.29-.463.618.618 0 01.031.111zM138.978 81.237a10.029 10.029 0 002.152-2.226.878.878 0 01.508.219 2.527 2.527 0 01-.343.6 11.945 11.945 0 01-2.259 2.021 20.394 20.394 0 01-.058-.614z" fill="#83868b" />
        <path d="M139.94 28.26c0 .864.957 15.247 1.116 17.663a16.033 16.033 0 01-3.235-2.547c-2.43-2.465-4.143-2.668-4.963-2.561a3.022 3.022 0 00-.008-.834c-.134-1.261-.233-2.566-.236-2.58l-.006-.044a1 1 0 00-.683-.669 23.117 23.117 0 001.327-7.746c0-.3-.009-.6-.022-.9l6.753-.112a1.405 1.405 0 00-.043.33z" fill="#989898" />
        <path d="M134.319 82.385l4-2.226a1.082 1.082 0 01.06.406v.038a57.626 57.626 0 002.709 13.1.18.18 0 01.035.132.278.278 0 01-.123.129l-.027.014c-.028.019-2.83 1.779-3.249 2a1.794 1.794 0 01-.184.077 70.672 70.672 0 01-3.156-13.325 1.223 1.223 0 00-.065-.345z" fill="#83868b" />
        <path d="M137.782 26.988a2.4 2.4 0 01-1.469-.217c-.072-.491.68-5.613 3.438-8.524a5.812 5.812 0 014.935-1.933c6.432.592 7.583-.729 8.346-1.6a4.2 4.2 0 01.294-.318 3.9 3.9 0 012.709-1.182v3.049c-1.152 2.879-4.093 3.858-10 3.06-4.867-.655-6 4.8-6.424 6.857a6.84 6.84 0 01-.148.642 4.377 4.377 0 01-1.656.167h-.014z" fill="#fff" />
        <path d="M140.099 27.647l-6.876.115a22.883 22.883 0 00-.071-.984l2.616-.066a.8.8 0 00.016.195c.156.548 1.081.639 1.667.639.143 0 .266-.005.354-.011.515.019 1.708.019 2.07-.343.088-.088.129-.217.209-.579 3.021-.063 5.376-.1 7.016-.112a2.1 2.1 0 01.474.036 4.058 4.058 0 00-.513.005c-1.464.1-5.9.68-6.166.716a.97.97 0 00-.667.236.852.852 0 00-.129.153z" fill="#989898" />
        <path d="M132.146 82.089c1.278.06 1.656.1 1.656.1s.288.055.312.543a70.96 70.96 0 003.164 13.38 1.638 1.638 0 01-.318.027c-.019 0-1.826-.112-2.336-.179-.365-.049-.584-.5-.584-.5a42.571 42.571 0 01-3.276-12.61c-.02-.178-.03-.307-.042-.381a.527.527 0 01.052-.346 6.541 6.541 0 011.372-.034z" fill="#999b9f" />
        <path d="M131.298 81.811l4.324-2.07a7.955 7.955 0 012.5.219l-3.929 2.185a.607.607 0 00-.354-.219c-.014 0-.384-.044-1.678-.107a10.746 10.746 0 00-.863-.008zM130.846 87.099c.255 1.245.565 2.487.929 3.718a21.182 21.182 0 01-13.77 2.111c-7.4-1.362-9.467-3.3-9.725-3.57-.143-.45-1.116-3.477-1.514-4.68.655.724 2.163 1.818 5.623 3.1a23.476 23.476 0 007.976 1.22c4.279.007 8.438-.816 10.481-1.899z" fill="#83868b" />
        <path d="M152.798 60.325c-.077-.137-.151-.285-.23-.447s-.164-.329-.252-.51l-.137-.277a5.16 5.16 0 01-.261-.631c-.033-.1-.06-.192-.085-.282s-.044-.178-.057-.263a3.307 3.307 0 01-.049-.57q0-.123.008-.239c.005-.071.014-.14.022-.206.022-.154.049-.291.074-.419q.029-.148.049-.271a1.022 1.022 0 00-.047-.584 1.294 1.294 0 00-.1-.175c-.019-.03-.044-.06-.071-.1l-.041-.047-.047-.049-.066-.074a3.673 3.673 0 01-.129-.151 4.317 4.317 0 01-.176-.225c-.036-.052-.071-.1-.1-.151a4.396 4.396 0 01-.236-.4 4.079 4.079 0 01-.181-.389c-.049-.129-.093-.255-.129-.376s-.063-.244-.088-.359a3.8 3.8 0 01-.019-1.409 2.25 2.25 0 01.252-.661 2.3 2.3 0 00.113-1.974 4.659 4.659 0 00-.066-.241l-.079-.266a.493.493 0 01-.022-.069.531.531 0 00-.022-.071c-.016-.049-.03-.1-.044-.148s-.027-.1-.038-.145a13.35 13.35 0 01-2.629.266 14.729 14.729 0 01-10.479-4.658c-2.777-2.819-4.464-2.448-4.8-2.333-.019.033-.038.069-.06.1-.066.11-.145.225-.239.351q-.09.128-.206.271c-.375.474-.929 1.1-1.727 2.007-.329.376-.7.8-1.127 1.28a.451.451 0 01-.03.038l-.03.044c-.011.019-.027.038-.041.063s-.022.033-.033.052a2.819 2.819 0 00-.071.121 2.6 2.6 0 00-.123.233l-.044.091c-.017.033-.027.06-.044.093s-.033.069-.047.1-.03.071-.044.107a8.8 8.8 0 00-.3.877 10.82 10.82 0 00-.266 1.182c-.038.206-.068.411-.093.614s-.055.4-.068.595-.038.384-.047.562l-.025.5c-.014.236-.011.444-.014.609v.439s0-.027-.006-.074c0-.025-.005-.055-.008-.09l-.008-.123c-.011-.184-.038-.444-.047-.76l-.016-.507c-.005-.181 0-.37 0-.568a11.554 11.554 0 01.027-.765c.005-.156.016-.313.036-.472.025-.315.069-.631.118-.935.016-.1.036-.2.052-.3.011-.052.025-.1.036-.154a9.57 9.57 0 00-.354.8c-.025.06-.047.121-.069.181a11.1 11.1 0 00-.189.532 17.695 17.695 0 00-.239.786l-.047.175c-.014.054-.025.09-.033.129s-.014.052-.019.074l-.014.052c-.003.014 0 .016-.006.022s0 .008 0 .014v-.03a.293.293 0 01.006-.044v-.041l.019-.145c0-.033.008-.071.014-.11l.036-.266a14.456 14.456 0 01.208-1.127c.011-.047.022-.1.033-.143s.022-.1.033-.145l.049-.184c.033-.123.069-.247.1-.365.016-.058.033-.115.052-.173-.126.118-.258.236-.392.359-3.446 3.082-9.1 6.824-13.756 8.056h-.013a11.234 11.234 0 01-2.827.411c-.181 0-.356-.008-.529-.019a11.592 11.592 0 01-6.07-1.991c-.4 2.613-2.07 16.084 3.142 29.406.233.274 2.278 2.555 7.249 3.836a20.411 20.411 0 003.57.568h.008a28.211 28.211 0 0012.481-1.988 40.409 40.409 0 01-.362-2.736c0-.041-.008-.079-.011-.118-.014-.107-.025-.189-.027-.241a1 1 0 01.71-1.152l4.562-2.188a.96.96 0 01.11-.022.024.024 0 01.019 0 1 1 0 01.134-.016 7.051 7.051 0 012.81.378.848.848 0 01.192.192.283.283 0 01.03.047.744.744 0 01.038.066.511.511 0 01.033.069.786.786 0 01.027.071.9.9 0 01.033.1 1.151 1.151 0 01.038.2c.005.03.005.06.008.088a1.4 1.4 0 01.006.175 8.387 8.387 0 001.779-1.914 71.366 71.366 0 00-.965-17.847 24.8 24.8 0 01-3.309-1.6 32.77 32.77 0 01-2.917-1.338c-.359-.189-.716-.387-1.045-.581s-.63-.389-.883-.559l-.343-.239c-.1-.071-.184-.143-.255-.195-.1-.079-.173-.134-.2-.162l.03.019c.038.027.1.069.187.123s.162.11.271.17.225.134.356.211a20.147 20.147 0 002.002.965c.324.137.652.263.965.381a12.222 12.222 0 01-3.172-3.271c-.03-.052-.058-.1-.085-.14a2.223 2.223 0 01-.126-.239v-.008a.141.141 0 01.014.022 10.06 10.06 0 001.538 1.683 18.194 18.194 0 001.988 1.557c.219.151.453.3.7.455s.5.307.773.463c.153.088.313.175.474.266s.329.175.5.266a30.886 30.886 0 004.25 1.785c6.55 2.213 10.649.727 11.79.195a5.467 5.467 0 01-.453-.688zm-26.152 15.831a.874.874 0 01-.211.315c-.066.052-.822.631-1.541 1.173-.118.09-.239.178-.354.263-.074.058-.151.112-.222.164a7.7 7.7 0 01-.38.277c-.027.019-.055.038-.079.058-.074.052-.14.1-.186.126a.058.058 0 00-.022.014l-.019.014a.865.865 0 01-.074.038 2.147 2.147 0 01-.346.143c-.047.014-.09.027-.134.038a1.259 1.259 0 01-.123.027c-.077.016-.145.025-.195.033l-.1.008a78.838 78.838 0 01-8.746.59 17.942 17.942 0 01-3.795-.282l-.09-.022c-.894-.236-1.083-.694-1.119-.823-.14-.406-.282-.864-.431-1.379l-.134-.48a24.472 24.472 0 01-.137-.507c-.033-.115-.063-.236-.093-.356a42.775 42.775 0 01-.189-.749l-.1-.395q-.21-.876-.433-1.878c-.148-.666-.3-1.374-.455-2.125-.115-.559-.233-1.146-.354-1.755-.041-.2-.079-.406-.121-.614-.033-.164-.063-.332-.1-.5-.074-.387-.151-.781-.225-1.187q-.226-1.209-.461-2.522c-.019-.107-.036-.2-.052-.28-.005-.027-.008-.052-.014-.077s-.011-.06-.016-.088a7.703 7.703 0 01-.019-.107c0-.014 0-.025-.005-.036a1.389 1.389 0 01-.027-.173 1 1 0 01.461-1.05l3.027-1.692a1.158 1.158 0 01.227-.093 1.637 1.637 0 01.176-.049.961.961 0 01.09-.019c.06-.014.121-.025.178-.033.027-.005.058-.008.085-.014.082-.011.159-.019.219-.025.085-.008.145-.011.164-.014l.461-.033c.159-.011.323-.025.494-.036l.529-.041.557-.041-.315-1.3a.272.272 0 01.057-.244.285.285 0 01.228-.1 12.76 12.76 0 002.383-.118q.407-.053.855-.14c.2-.038.406-.082.614-.132s.425-.1.642-.165a.1.1 0 01.027-.005.269.269 0 01.189.033.279.279 0 01.11.123.01.01 0 000 .006.338.338 0 01.014.049l.343 1.582c3.521-.28 5.678-.45 5.922-.433a.6.6 0 01.165.033l.049.022a.526.526 0 01.148.107.565.565 0 01.055.06.959.959 0 01.123.222 1.16 1.16 0 01.055.173c.005.03.014.06.019.093s.011.063.014.093a2.064 2.064 0 01.019.411l.033.376c.036.376.074.746.112 1.116.2 1.845.45 3.608.718 5.22l.107.636c.252 1.464.515 2.788.76 3.918.033.162.069.318.1.472a77.72 77.72 0 00.417 1.799c.027.112.055.219.079.321s.055.225.082.326l.074.285c.033.134.066.252.093.351.011.036.019.066.027.1s.014.047.019.066c.014.044.025.08.033.112l.052.159a.735.735 0 01.058.217.765.765 0 01-.046.351z" fill="#fff" />
        <path d="M120.219 61.861c.356-.244 2.4-1.686 3.068-2.155a1.365 1.365 0 01.1.622v.041a88.644 88.644 0 002.753 15.436.238.238 0 01-.055.247c-.579.447-2.023 1.546-2.567 1.927a101.146 101.146 0 01-3.682-15.933 1.807 1.807 0 00.383-.185zM116.914 60.144c2.432-.195 4.933-.392 5.92-.452-.839.59-2.457 1.73-2.769 1.941a2.764 2.764 0 01-1.122.313c-5.2.633-11.359.74-12.815.757a.326.326 0 01.129-.159l3.041-1.7a2.913 2.913 0 01.908-.181c1.68-.118 4.238-.321 6.708-.519z" fill="#fff" />
        <path d="M116.544 58.373l.266 1.228c-1.382.112-2.786.222-4.047.321l-.249-1.036a15.322 15.322 0 004.03-.513z" fill="#83868b" />
        <g fill="#221f1f">
            <path d="M112.697 77.41a17.475 17.475 0 01-1.785-.082c-.236-.935-2.235-8.842-2.939-13.128h2.064c.176.965 1.453 7.9 2.621 13.051.015.052.025.107.039.159z" />
            <path d="M112.808 77.301a.572.572 0 00-.019-.08c-1.239-5.475-2.6-12.972-2.619-13.046l-.022-.112h-2.339l.025.159c.65 3.945 2.41 11.033 2.937 13.111l.03.121.093.011a17.849 17.849 0 001.8.082h.178zm-2.887-12.963c.176.96 1.44 7.82 2.6 12.933a15.668 15.668 0 01-1.5-.069c-.537-2.125-2.229-8.944-2.887-12.865z" />
        </g>
        <path d="M112.486 87.53c-4.552-1.695-5.621-3.013-5.87-3.532a.811.811 0 01.228-.422c.261.321 2.334 2.687 7.543 4.028a22.4 22.4 0 005.555.65 28.8 28.8 0 0010.734-2.046c.036.206.077.409.115.614-3.271 1.788-12.445 2.887-18.305.708z" fill="#83868b" />
        <path d="M110.543 77.777l.293-.184a16.674 16.674 0 001.925.09c.014.069.03.137.047.2a12.113 12.113 0 01-2.265-.106z" fill="#fff" />
        <path d="M109.52 49.651a4.192 4.192 0 00-1.141-2.827 3.39 3.39 0 011.349 2.843c.1 1.486-.384 2.758-1.1 3.065a3.962 3.962 0 00.892-3.081zM109.689 45.245a2.207 2.207 0 00-2.163-.965 4.002 4.002 0 00-.277.044 1.717 1.717 0 012.372.381 5.552 5.552 0 01.3.518c.847 1.588 2.838 5.305 8.354 3.052 5.9-2.41 12.231-10.457 12.286-10.534a1.149 1.149 0 01.99-.565.909.909 0 01.217.038 2.114 2.114 0 00-.641.6c-.058.082-6.7 8.535-12.868 11.052-5.421 2.213-7.3-1.308-8.209-3a5.82 5.82 0 00-.361-.621z" fill="#83868b" />
        <path d="M107.625 46.827a.556.556 0 01.093-.038.366.366 0 01.038-.014c.759.222 1.4 1.453 1.489 2.893.1 1.513-.425 2.862-1.2 3.1-.664-.192-1.234-1.157-1.431-2.355 0-.022-.005-.044-.008-.063-.008-.066-.019-.129-.027-.195-.009-.093-.02-.186-.025-.282s-.011-.192-.011-.288v-.274a3.444 3.444 0 01.789-2.284c.005 0 .008-.008.011-.011l.1-.085a.228.228 0 01.03-.022.735.735 0 01.1-.06.225.225 0 01.052-.022z" fill="#83868b" />
        <path d="M110.254 77.634c-.332-1.308-2.358-9.363-2.98-13.435h.422c.7 4.283 2.709 12.24 2.95 13.189z" fill="#fff" />
        <path d="M122.437 75.452a83.522 83.522 0 01-.724-2.654c-.112-.436-.217-.866-.321-1.289a106.838 106.838 0 01-1.674-8.384c-.008-.047-.016-.093-.022-.137-.055-.356-.1-.625-.121-.8 0-.025-.005-.049-.008-.069a2.989 2.989 0 01-.445.08.895.895 0 01-.115.011.232.232 0 01-.036 0c-5.267.644-11.518.743-12.884.76a1.438 1.438 0 00.022.2c.016.082.052.288.107.6a114.989 114.989 0 003.208 14.375l.011.038s.1.26.727.425c.494.129 3.414.727 12.448-.3a1.976 1.976 0 00.666-.178 77.91 77.91 0 01-.839-2.678zm-9.33 2.6a.13.13 0 01-.121.1c-.027 0-.31.022-.729.022a11.175 11.175 0 01-2.117-.189c-.006 0-.011-.008-.016-.008a.149.149 0 01-.036-.019.16.16 0 01-.022-.022l-.014-.014a.112.112 0 01-.011-.027v-.008a.6.6 0 00-.019-.071l-.014-.052a3.148 3.148 0 00-.033-.134l-.047-.184c-.008-.033-.019-.069-.027-.107s-.014-.058-.022-.088l-.074-.3c-.027-.108-.049-.2-.077-.3l-.041-.167c-.025-.107-.055-.219-.082-.335s-.057-.239-.09-.365c-.022-.085-.041-.17-.063-.258-.017-.069-.036-.14-.052-.211-.036-.145-.071-.3-.11-.45-.762-3.142-1.892-7.979-2.306-10.778v-.019a.139.139 0 01.036-.09.136.136 0 01.1-.047h3.038a.138.138 0 01.1.038.1.1 0 01.022.027v.011a.01.01 0 010 .008.117.117 0 01.011.027.021.021 0 000 .011c0 .014.006.036.011.069 0 .014.008.033.011.052a471.137 471.137 0 001.341 6.969c.071.339.137.68.206 1.023.1.515.211 1.036.321 1.557l.189.908c.143.68.291 1.349.433 2 .049.214.1.428.145.639l.058.258q.053.239.107.469a.157.157 0 01-.006.06z" fill="#fff" />
        <path d="M132.331 40.288a121.443 121.443 0 01-.244-2.627 1.545 1.545 0 00-.513.469c-.022.033-.987 1.259-2.514 2.917-.189.206-.389.42-.6.639l-.211.222c-.14.148-.285.3-.436.447-.148.154-.3.307-.455.461a37.089 37.089 0 01-6.569 5.363 16.627 16.627 0 01-2.322 1.19 9.022 9.022 0 01-3.389.751c-3.37 0-4.806-2.687-5.511-4a5.693 5.693 0 00-.318-.554 1.679 1.679 0 00-1.667-.743 1.7 1.7 0 00-.844.3c-.022.06-.044.126-.069.206a17.207 17.207 0 01-1.434 3.438 3.262 3.262 0 01-.247.351 2.557 2.557 0 01-.211.233.968.968 0 01-.664.321h-.063l-.049-.019-.315-.137c-.225-.1-.529-.233-.751-.345a20.577 20.577 0 01-.713-.373c.09.543.233 1.39.345 2.122a3.988 3.988 0 001.45 2.108 10.583 10.583 0 006.229 2.24c3.134.23 7.488-1.755 11.316-4.22.011-.005.019-.014.03-.019a.021.021 0 01.011-.005l.036-.022.033-.025.244-.156.071-.049a36.564 36.564 0 006.871-5.692c.425-.485.8-.91 1.132-1.286.439-.5.8-.9 1.091-1.245.082-.1.162-.186.236-.274.186-.217.337-.4.463-.565a5.49 5.49 0 00.332-.469 1.372 1.372 0 00.219-.953zM109.894 51.22l-.066.258a2.871 2.871 0 01-.126.362c-.033.077-.066.154-.1.225s-.071.137-.11.2-.079.126-.121.184-.088.112-.132.162c-.025.025-.047.049-.071.071a1.583 1.583 0 01-.145.129 1.408 1.408 0 01-.154.107 1.145 1.145 0 01-.513.159.634.634 0 01-.071 0 1.212 1.212 0 01-.6-.165 1.38 1.38 0 01-.123-.077c-.025-.016-.049-.036-.077-.058a1.403 1.403 0 01-.143-.123 3.03 3.03 0 01-.644-.968 4.633 4.633 0 01-.131-.34 1.365 1.365 0 01-.044-.14 3.787 3.787 0 01-.052-.173 5.415 5.415 0 01-.118-.551c-.005-.027-.008-.055-.014-.082a5.279 5.279 0 01-.027-.2c-.014-.1-.022-.2-.03-.3v-.014c-.005-.052-.005-.1-.008-.156s0-.107 0-.159v-.303a5.143 5.143 0 01.093-.806 4.643 4.643 0 01.17-.625c.036-.1.074-.192.115-.282a.365.365 0 01.027-.058.5.5 0 01.027-.055s0-.005.005-.008a1.7 1.7 0 01.96-.919.24.24 0 01.041-.014h.011l.016-.006h.008a.946.946 0 01.173-.027 1.36 1.36 0 011.044.447 1.833 1.833 0 01.154.17 4.582 4.582 0 01.877 2.569 5.668 5.668 0 01-.101 1.565z" fill="#83868b" />
        <path d="M96.439 131.032c-.014-.013-.052-.041-.1-.085a4.933 4.933 0 00-.3-.228 7.917 7.917 0 00-.987-.6 9.443 9.443 0 00-1.061-.474c-.1-.038-.181-.069-.258-.1.2-1.231.869-5.432 1.4-8.607.373-.318 2.561-1.93 7.338-.8 5.237 1.242 7.839 4.31 8.3 5.1a61.807 61.807 0 00-2.917 13.026c-.645 5.347-1.113 7.8-1.985 9.086a6.556 6.556 0 00-1.525-3.644c-2.668-3.74-15.244-15.261-18.093-17.079a6.554 6.554 0 00-2.229-.973c2.081-.416 5.938.48 12.185 6.967a36.58 36.58 0 00-2.175-2.5c.269.06.589.142.908.247a7.849 7.849 0 011.047.422c.137.066.252.129.329.173.065.036.106.061.123.069z" fill="#fff" />
        <path d="M102.879 144.905c1.294 1.815 1.371 2.791 1.206 3.287a.892.892 0 01-.51.567c-2.862.483-10.156-.595-17.175-8.469-5.363-6.013-5.552-9.879-5.19-11.648a4.779 4.779 0 01.386-1.129 1.015 1.015 0 01.587-.384c.463-.123 1.316-.077 2.756.842 2.827 1.804 15.295 13.226 17.94 16.934zM103.635 53.438a63.512 63.512 0 00.7 21.844c-7.663 9.141-17.734 6.2-20 5.377a7.624 7.624 0 003.351-5.248 8.715 8.715 0 00-.178-4.864 11.143 11.143 0 0010.5-3.9 21.361 21.361 0 004.743-10.3 19.34 19.34 0 01.817-2.967z" fill="#fff" />
        <path d="M94.804 119.983a22.261 22.261 0 01.455-2.427c.014-.028 1.834-2.671 9.078-.365 5.536 1.76 7.115 4.636 7.343 5.114l-.006.03.074.1a1.446 1.446 0 01.123 1.086l-.014.066c-.167.834-.288 1.253-.63 1.341-.7-1.179-3.638-4.138-8.631-5.322-4.708-1.116-7.039.293-7.71.82a.656.656 0 01-.082-.443zM83.538 80.477c-.373.05-.463.061-.962-.356a3.879 3.879 0 01-.568-.6 5.079 5.079 0 003.732-4.023 10.974 10.974 0 00-.464-6.021c.049.017.1.036.165.061l.153.063c.4.159 1 .4 1.121.661l.052.11.036.011c.176.247.938 1.538.345 4.935a7.028 7.028 0 01-3.605 5.16z" fill="#83868b" />
        <path d="M85.198 71.208c-.019-.1-.041-.2-.063-.291l-.066-.271a4.715 4.715 0 00-.069-.25l-.1-.332c-.031-.102-.06-.178-.088-.255s-.052-.148-.077-.208a4.29 4.29 0 00-.107-.26l-.348-.274a31.706 31.706 0 01-3.817-3.378 4.572 4.572 0 00-1.072-.9 5.562 5.562 0 00-.461-.247 4.621 4.621 0 00-.708-.263 4.722 4.722 0 00-2.031-.14l-.28.044c-1.146.178-3.529.548-4.187 1.727a1.61 1.61 0 00.013 1.478 1.514 1.514 0 00.987.927c1.782.551 6.084-1.615 6.117-1.637l-.9.642c-.047.03-.461.3-1.064.6a4.306 4.306 0 011.119 2.2.942.942 0 01-.228.735c-.537.6-1.944.625-4.491.674l-.461.008a5.513 5.513 0 00-4.486 2.276 1.651 1.651 0 00-.274 1.513 1.287 1.287 0 00.211.329.633.633 0 00.057.063 1.579 1.579 0 00.724.409 2.876 2.876 0 001.006.085 2.43 2.43 0 00.26-.03c.044-.006.09-.014.131-.022a2.641 2.641 0 00.373-.09c.123-.036.241-.077.351-.121a2.62 2.62 0 00.3-.145c.063-.036.121-.071.175-.107a5.131 5.131 0 012.454-1.023c.757-.151 1.19.184 1.272.557a.635.635 0 01-.516.757 5.687 5.687 0 00-2.52 2.676 4.02 4.02 0 00-.392 3.222 1.221 1.221 0 00.735.746 1.11 1.11 0 00.943-.063 1.472 1.472 0 00.557-1.015 7.94 7.94 0 01.869-2.6c.444-.9.984-1.108 1.267-1.149a.857.857 0 01.759.239.712.712 0 01.055.9 8.471 8.471 0 00-.5 1.185q-.058.181-.107.354a6.25 6.25 0 00-.08.337 2.929 2.929 0 00.123 1.927.725.725 0 00.535.42c.17.019.37-.175.573-.507.036-.058.071-.118.107-.184.072-.129.14-.274.211-.428.033-.08.068-.159.1-.241.052-.126.1-.255.148-.389s.1-.271.14-.411l.044-.143a9.06 9.06 0 00.162-.576c.025-.1.049-.195.071-.291.011-.052.025-.1.039-.151s.022-.069.033-.1c.025-.063.049-.123.074-.175l.041-.077c.014-.025.038-.06.057-.088a.772.772 0 01.121-.14.66.66 0 01.548-.2 7.443 7.443 0 001.371.033c.093 0 .178-.008.255-.014.027 0 .052-.005.074-.005l.121-.008h.047a.1.1 0 01.028 0h.046a3.95 3.95 0 00.436-.094c.069-.019.143-.044.225-.069l.124-.044.269-.107a4.479 4.479 0 002.629-3.37 10.447 10.447 0 00.006-4.18zm-2.4 2.27l.017-.019zm.658-1.083a1.093 1.093 0 00-.088-.071l-.079-.058a2.477 2.477 0 00-.2-.134 1.681 1.681 0 00-.165-.1c-.027-.016-.058-.033-.085-.052l-.033-.019c-.181-.1-.376-.211-.57-.31a.264.264 0 00-.041-.019 11.59 11.59 0 00-.526-.241c-.077-.03-.148-.06-.217-.082-.1-.036-.187-.063-.266-.088-.047-.011-.09-.019-.129-.027a4.341 4.341 0 00-3.243 1.176c-.063.052-.123.1-.181.156a.173.173 0 01-.025.022q-.074.07-.14.14c-.041.047-.082.09-.121.137a2.279 2.279 0 00-.26.395.33.33 0 00-.033.071.358.358 0 00-.039.088.121.121 0 00-.016.044.693.693 0 00-.033.1 1.267 1.267 0 00-.06.411 1.213 1.213 0 00.11.488l.033.066a.141.141 0 00.016.027l.041.066a.518.518 0 00.058.077.527.527 0 00.074.082 1.263 1.263 0 00.11.1 2.551 2.551 0 001.4.151l.2-.016a9.179 9.179 0 00.982-.156 7.53 7.53 0 00.472-.115c.079-.019.159-.044.239-.066.156-.049.313-.1.466-.156a4.88 4.88 0 001.689-.987h.006l-.79.869a2.493 2.493 0 01-.2.184 3.713 3.713 0 01-.414.321c-.071.047-.143.09-.217.137a1.906 1.906 0 00-.036.208.847.847 0 00.093.485c.022.038.049.088.085.143.022.038.047.077.071.121.09.151.2.329.31.477q.037.053.074.1c.027.036.055.069.079.1a1.864 1.864 0 01-.642-.219.714.714 0 01-.107-.069s-.005 0-.008-.006a.616.616 0 01-.068-.052.741.741 0 01-.085-.077 1.23 1.23 0 01-.184-.241c-.017-.027-.03-.055-.044-.082a.9.9 0 01-.068-.178 1.341 1.341 0 01-.022-.091l-.016-.088-.008-.074a1.09 1.09 0 01-.008-.162 5.042 5.042 0 01-1.922.389 2.906 2.906 0 01-1.651-.406 1.68 1.68 0 01-.658-1.333 1.505 1.505 0 01.006-.159 1.028 1.028 0 01.014-.129c.005-.041.014-.085.022-.126a2.134 2.134 0 01.228-.609 2.84 2.84 0 01.077-.126 2.161 2.161 0 01.123-.184c.022-.03.044-.06.071-.093a2.612 2.612 0 01.206-.233c.035-.038.074-.077.115-.115a3.36 3.36 0 01.255-.222 4.857 4.857 0 013.68-1.289 1.505 1.505 0 01.337.11c.027.014.057.025.085.041a3.77 3.77 0 01.628.4c.063.047.129.1.192.151.039.03.077.063.113.1l.17.148a11.925 11.925 0 01.9.908l-.041-.038c-.013-.013-.063-.066-.093-.091zM85.232 127.508a4.538 4.538 0 00-2.986-.946c.047-.049.1-.093.143-.137.351-.258 1.4-.716 3.57.669 2.827 1.8 15.3 13.227 17.943 16.936 1.357 1.908 1.508 3.011 1.393 3.6a1 1 0 01-.32.6 3.8 3.8 0 01-.406.219l.033-.069c.307-.9-.121-2.18-1.275-3.8-2.666-3.735-15.241-15.251-18.095-17.072zM111.913 7.191c11.463 0 20.791 9.758 20.791 21.751a22.535 22.535 0 01-1.341 7.694 1.708 1.708 0 00-1.25.787c-.055.074-6.276 7.99-12.045 10.345-5.062 2.065-6.822-1.223-7.666-2.8a4.924 4.924 0 00-.337-.581 2.109 2.109 0 00-2.04-.913 1.971 1.971 0 00-1.752 1.322l-.005.005-.025.071v.005l-.1.288c-1.089 3.285-1.706 3.91-1.993 3.962-.17-.071-.667-.285-.979-.441-.293-.145-.831-.433-1.072-.562a21.861 21.861 0 01-10.981-19.179c.001-11.996 9.329-21.754 20.795-21.754z" fill="#fff" />
        <path d="M85.667 72.206s.318-.979.945-.933 1.047.876 1.047.876a13.855 13.855 0 00-.717-2.1c-.273-.444-1.991-.808-1.991-.808a9.648 9.648 0 01.716 2.965z" fill="#999b9f" />
        <path d="M86.093 138.671l7.652-2.049a201.476 201.476 0 00-4.256-3.874l-6.327 1.572a23.837 23.837 0 002.931 4.351zM96.495 146.762l5.62-1.5a37.8 37.8 0 00-3-3.383l-7.748 1.926a22.869 22.869 0 005.128 2.957zM88.677 132.036a46.874 46.874 0 00-4.181-3.37 3.824 3.824 0 00-1.906-.763.785.785 0 00-.2.022.348.348 0 00-.1.044 3.992 3.992 0 00-.275.839 7.961 7.961 0 00.806 4.8zM90.613 143.203l7.772-2.081a160.984 160.984 0 00-3.847-3.754l-7.887 1.96c.119.138.239.275.364.416a31.242 31.242 0 003.598 3.459zM97.833 147.253a14.7 14.7 0 004.441.783 7.412 7.412 0 001.013-.063.212.212 0 00.017-.038c.02-.061.147-.575-.65-1.88zM110.646 55.57s9.007-.01 12.345-2.837 3.084-1.591 3.16.983-5.352 5.207-6.511 5.328-2.039.241-2.208-.41-.458-.844-.809-.7l.654 1.906 6-.421-3.285 2.392-.3.178s.683 4.744 1.9 9.711a57.672 57.672 0 001.874 6.6 39.527 39.527 0 01-7.688.891c-3.119-.1-6.221-.315-6.6-.754 0 0 1.389 2.036 7.73 1.72s6.443 1.524 7.094 3.706-4.676 4.2-8.328 3.84c0 0 8.942 1.092 15.045-1.774 0 0-.708-3.986.2-4.422s4.7-1.985 4.7-1.985l2.411.056.505.517.207.826a10.281 10.281 0 001.734-1.7 3.136 3.136 0 00.517-1.01s.33-4.091.241-5.013-1-10.836-1-10.836l-.257-1.765a16.216 16.216 0 008.191 1.662c4.445-.372 5.438-1.231 5.438-1.231s-1.7-2.686-1.7-3.912.525-1.191-.181-2.114a3.787 3.787 0 01-.779-3.89 4.26 4.26 0 00-.156-3.255 11.449 11.449 0 01-6.75-.37 18.877 18.877 0 01-7.54-4.924 4.648 4.648 0 00-3.959-1.416 44.674 44.674 0 01-8.705 8.627c-5.493 4.127-10.125 5.545-13.19 5.796zM87.521 74.99a6.767 6.767 0 01-.149 3.634c-.628 2.056 6.729 2.189 10.933-1.214s3.934-12.359 5.006-15.786c0 0-.134 9.346 1.3 13.726a20.6 20.6 0 01-7.27 5.421c-4.432 1.873-9.619 1.028-11.127.731a5.883 5.883 0 01-2.239-.846s3.25-2.32 3.546-5.666zM136.657 24.041a1.393 1.393 0 001.51 1.289c1.378-.111 1.441-7.42 7.729-7s9.636-.608 10.37-3.607l.111 1.688s-1.7 3.029-4.658 3.3-6.021-.444-6.976-.178a5.112 5.112 0 00-4.177 3.91 27.771 27.771 0 00-.844 3.556s-.533.071-1.8.135-2.192.094-1.907-.632a22.023 22.023 0 00.642-2.461z" fill="silver" />
        <path d="M96.334 137.518s1.812 1.882 2.554 1.454-1.488-1.852-1.488-1.852 3.963.634 5.456-5.653.668-10.367-.865-10.881a30.4 30.4 0 00-5.658-.632s6.34-1.28 10.3 1.425 4.361 3.958 4.361 3.958a116.2 116.2 0 00-3.1 14.224c-.97 6.93-1.43 7.683-2.358 8.252l-1.381.9s.949-1.022-1.016-3.89a60.3 60.3 0 00-6.805-7.305zM100.666 115.801a23.029 23.029 0 017.246.18c3.209.76 8.149-10.412 11.442-13.173s1.14-5.4 1.52-6.967c0 0 1.042 4.048 3.2 5.02a18.464 18.464 0 00-4.8 4.724c-2.038 2.984-5.422 10.81-7.355 16.407a15.882 15.882 0 00-11.253-6.191z" fill="silver" />
        <path d="M155.907 121.785c-.034-1.017-.172-13.969-.172-13.969a3.56 3.56 0 01-1.816 1.334c-1.062.24-1.028.548-2.262.548s-2.056-.72-3.976-2.879-1.753-2.673-1.8-3.616a6.3 6.3 0 00-1.2-2.455 2.9 2.9 0 00-.68-.5 5.391 5.391 0 01-.111-2.748 36.771 36.771 0 00.485-7.312 25.129 25.129 0 00-1.24-4.837l-1-1.6-2.649 2.785s1.2 4.888 1.649 5.984.508 1.312.184 1.545-3.845 2.192-3.845 2.192a10.892 10.892 0 01-1.833.108c-.7-.054-1.851-.126-1.994-.808s-1.654-4.51-1.654-4.51-3.267 3.5-15.011 2.058c0 0 2.289 1.489 7.467 1.356s7.178-.531 8.222 1.69 2.678 11.254 9.807 16.566 3.976 6.615 2.331 7.06-6.889 0-6.889 0z" fill="silver" />
        <path d="M119.832 48.5s2.706-1.142 3.441 0-1.72 2.556-1.72 2.556 5.72-3.174 8.05-6.149 3.007-3.549 3.1-4.483a14.2 14.2 0 00-.531-3.249l-3.775 4.169s-5.019 5.411-8.565 7.156z" fill="#6f7276" />
        <path d="M118.951 47.558a3.61 3.61 0 011.671-.22c.462.2-.352.791-.352.791a35.536 35.536 0 006.243-4.755c2.1-2.267 5.22-5.713 5.22-5.713l.341-.711a1.925 1.925 0 00-1.824.848c-.791 1.055-5.562 6.924-11.299 9.76zM120.239 88.981s4.29.531 4.6 2.436-4.6 1.979-4.6 1.979 6.5-.111 9.332-1.25 2.354-1.222 2.326-1.7-1.1-4.629-1.1-4.629a34.1 34.1 0 01-9.292 2.1s2.046.031 2.3.451-3.566.613-3.566.613zM141.835 79.636c.049.389.082.949.115 1.492a13.7 13.7 0 00.17 1.8c.156.647-1.533 2.193-2.465 3.005a49.322 49.322 0 01-.587-3.776 12.565 12.565 0 002.446-2.169 3.515 3.515 0 00.29-.463.618.618 0 01.031.111zM138.978 81.237a10.029 10.029 0 002.152-2.226.878.878 0 01.508.219 2.527 2.527 0 01-.343.6 11.945 11.945 0 01-2.259 2.021 20.394 20.394 0 01-.058-.614zM134.319 82.385l4-2.226a1.082 1.082 0 01.06.406v.038a57.626 57.626 0 002.709 13.1.18.18 0 01.035.132.278.278 0 01-.123.129l-.027.014c-.028.019-2.83 1.779-3.249 2a1.794 1.794 0 01-.184.077 70.672 70.672 0 01-3.156-13.325 1.223 1.223 0 00-.065-.345z" fill="#6f7276" />
        <path d="M157.976 61.598s2.428-.648 2.479-1.881-2.479-1.412-2.479-1.412 3.7-.534 4.173.879-2.633 2.192-4.173 2.414zM159.629 56.851s3.362-.816 3.283-2.169-2.129-1.333-2.129-1.333 2.646-.577 3.2.776-.569 2.601-4.354 2.726zM159.629 52.037s2.626-.875 2.686-2.566-2.686-1.969-2.686-1.969 4.2.2 4.636 1.572-1.854 2.849-4.636 2.963zM159.55 46.784s2.547-.438 2.785-2.208a2.614 2.614 0 00-1.552-2.566s3.5.1 3.959 1.969-1.034 2.526-5.192 2.805z" fill="silver" />
        <g>
            <path d="M108.378 46.967s-.691-.123-1 1.236.009 4.055.768 4.656a2.62 2.62 0 01-1.6-2.428c-.24-2.05.252-3.069.7-3.467a.763.763 0 011.132.003z" fill="#acafb4" />
        </g>
        <g>
            <path d="M110.971 91.179a4.061 4.061 0 01-1.646-2.716c-.337-1.923 1.388-1.527 1.388-1.527s-.764-.467-.833-.782.872 0 .872 0-1.705-1.042-2.419-1.577-1.566-1.289-1.566-1.289-.517.218 0 1.9 1.428 4.41 1.428 4.41a8.6 8.6 0 002.776 1.581z" fill="#999b9f" />
        </g>
        <g>
            <path d="M103.976 49.282s-.862.378-.623 1.869a6.15 6.15 0 001.106 2.581s-2-1.755-2.1-2.518-.369-2.784-.369-2.784z" fill="#999b9f" />
        </g>
        <g>
            <path d="M110.004 49.649a4.58 4.58 0 00-.877-2.569 2.267 2.267 0 00-.154-.17 1.36 1.36 0 00-1.044-.447.946.946 0 00-.173.027h-.008l-.016.005h-.011a.242.242 0 00-.041.014 1.7 1.7 0 00-.96.919s0 .005-.005.008a.521.521 0 00-.027.055.363.363 0 00-.03.058 2.868 2.868 0 00-.113.282 3.95 3.95 0 00-.17.625 5.143 5.143 0 00-.093.806v.236a.7.7 0 000 .071c0 .052 0 .1.005.159s0 .1.008.156v.014c.005.1.016.2.027.3.008.071.019.137.03.206 0 .027.006.055.011.082a4.748 4.748 0 00.121.551c.017.058.033.115.052.173a1.4 1.4 0 00.044.14c.041.118.085.233.132.34a3.032 3.032 0 00.644.968c.047.044.094.085.143.123.028.022.052.041.077.058.041.027.082.055.123.077a1.212 1.212 0 00.6.165.644.644 0 00.071 0 1.146 1.146 0 00.513-.159c.052-.033.1-.069.154-.107a1.583 1.583 0 00.145-.129c.025-.022.047-.047.071-.071.044-.049.088-.1.132-.162s.082-.118.121-.184.074-.132.11-.2.069-.145.1-.225.06-.154.088-.236c.011-.041.025-.082.038-.126l.066-.258a5.673 5.673 0 00.096-1.575zm-1.522 2.849a.949.949 0 01-.1.088.548.548 0 01-.115.082.556.556 0 01-.088.049.065.065 0 00-.019.011.038.038 0 01-.017.005.534.534 0 01-.093.036h-.005a.606.606 0 01-.112-.038 1 1 0 01-.121-.063 1.122 1.122 0 01-.118-.079 1.191 1.191 0 01-.115-.1 1.859 1.859 0 01-.212-.232 2.853 2.853 0 00-.077-.1 1.456 1.456 0 01-.085-.126c-.022-.036-.044-.071-.066-.11a2.4 2.4 0 01-.148-.288 4.658 4.658 0 01-.143-.346l-.033-.1-.055-.175c0-.014-.008-.03-.011-.044-.025-.085-.044-.17-.063-.258s-.041-.189-.057-.288c0-.022-.006-.044-.008-.063-.011-.066-.019-.129-.028-.195a5.094 5.094 0 01-.036-.57v-.278c0-.063.005-.123.011-.184s.008-.121.016-.181.011-.121.019-.178l.041-.247c0-.008 0-.014.006-.022.014-.066.027-.129.044-.192.006-.03.014-.058.022-.088l.049-.167c.016-.055.03-.09.047-.134.025-.071.052-.143.082-.208a.4.4 0 01.022-.049.845.845 0 01.049-.1c.022-.047.047-.091.071-.134a2.531 2.531 0 01.148-.217c.025-.033.052-.066.08-.1s.055-.058.082-.085l.011-.011c.033-.03.069-.058.1-.085a.191.191 0 01.027-.022.9.9 0 01.1-.06l.041-.025a.353.353 0 01.049-.019c.016-.005.03-.014.047-.019a.334.334 0 00.038-.014.759.759 0 01.071.027.263.263 0 01.071.03.388.388 0 01.069.033 1.2 1.2 0 01.192.132.723.723 0 01.071.063c.033.03.066.063.1.1a1.031 1.031 0 01.071.08.62.62 0 01.038.049c.025.03.049.063.074.1s.05.069.074.107l.014.022q.041.066.082.14a4.312 4.312 0 01.153.304 3.45 3.45 0 01.132.34c.019.058.033.1.052.151a.048.048 0 00.006.019c0 .008.005.016.008.027l.011.044a4.618 4.618 0 01.118.513c.011.066.019.112.027.17s.019.121.025.184a4.755 4.755 0 01.033.754v.1c0 .031-.005.1-.008.148-.005.082-.011.162-.022.241s-.019.159-.033.236-.028.154-.044.228l-.025.11c-.008.036-.022.082-.033.121s-.027.1-.041.143q-.045.14-.1.271a2.239 2.239 0 01-.112.244 2.473 2.473 0 01-.24.372 1.153 1.153 0 01-.106.119zm.143.236c.036-.033.069-.066.1-.1a2.354 2.354 0 00.189-.236 3.125 3.125 0 00.31-.589 5.226 5.226 0 00.167-.529v-.005a5.536 5.536 0 00.129-1.609v-.011c-.005-.082-.014-.162-.022-.241a5.996 5.996 0 00-.115-.694 5.208 5.208 0 00-.1-.359 4.384 4.384 0 00-.3-.727 4.446 4.446 0 00-.184-.313 2.51 2.51 0 00-.425-.491 3.39 3.39 0 011.349 2.843c.103 1.481-.377 2.753-1.098 3.06zM81.154 70.647a4.867 4.867 0 00-3.681 1.289 2.594 2.594 0 00-1.115 2 1.682 1.682 0 00.658 1.332 2.918 2.918 0 001.652.405 5.041 5.041 0 001.92-.389 1.316 1.316 0 00.166.675 1.457 1.457 0 001.094.663 7.232 7.232 0 01-.618-.935.969.969 0 01-.06-.693 4.307 4.307 0 00.831-.642l.812-.891c-1.43 1.424-4.893 1.8-5.467 1.369a1.135 1.135 0 01-.44-.9 2.067 2.067 0 01.909-1.561 4.338 4.338 0 013.242-1.178 7.077 7.077 0 012.568 1.366c-.151-.181-1.546-1.743-2.471-1.91z" fill="#221f1f" />
            <path d="M163.051 42.161v-.008a9.775 9.775 0 00-4.069-.472l-.125.008-.347.027-.077.016c-.442.049-.9.121-1.39.217q-.522.107-1.012.239l-.3.09-.245.066a7.715 7.715 0 00-4.519 3.115 3.654 3.654 0 00-.515 2.144c-.123.027-.25.049-.376.071-.491-10.863-.916-19.527-.957-20.15a1.564 1.564 0 00-.524-1.116 2.32 2.32 0 00-1.522-.458 547.2 547.2 0 00-6.877.11c.461-2.2 1.546-6.77 5.766-6.2 4.724.636 8.439.2 10.071-2.4v-1.209c-1.151 2.879-4.094 3.858-10 3.06-4.867-.655-6 4.8-6.424 6.857a7.182 7.182 0 01-.148.642 4.436 4.436 0 01-1.656.167h-.028a2.4 2.4 0 01-1.469-.217 2.752 2.752 0 01.027-.526c.005-.033.008-.069.014-.1s.011-.08.016-.121.014-.093.022-.143.014-.1.025-.151c.025-.134.049-.28.08-.436l.025-.129.016-.074.047-.214c.025-.118.055-.236.082-.359l.025-.1c.011-.033.016-.063.025-.1.019-.074.038-.151.06-.228.025-.1.052-.192.079-.291.014-.052.03-.107.047-.162.038-.132.08-.266.121-.4a18.458 18.458 0 01.757-1.968l.079-.165q.074-.16.156-.321c.055-.107.11-.217.17-.324s.113-.211.173-.315.123-.211.189-.315c.03-.052.063-.1.1-.154s.063-.1.1-.154.063-.1.1-.148c.066-.1.137-.2.208-.293.071-.1.143-.192.219-.285s.154-.189.233-.28a3.51 3.51 0 01.165-.184.463.463 0 01.036-.041l.038-.041c.077-.082.156-.159.236-.236q.222-.214.453-.4.094-.078.189-.148c.1-.074.195-.143.291-.208q.09-.062.181-.115c.025-.016.049-.033.077-.049a6.526 6.526 0 01.516-.274l.165-.074c.03-.011.057-.025.088-.036.074-.03.148-.06.222-.085s.17-.06.258-.085l.022-.008a5.833 5.833 0 01.666-.156c.071-.014.132-.022.2-.03s.143-.019.217-.025.176-.014.263-.019.2-.008.3-.008c.195 0 .395.008.595.027a30.146 30.146 0 003.12.145h.219c.071 0 .145 0 .214-.005l.206-.008a14.695 14.695 0 001.318-.117c.063-.011.156-.022.23-.036l.192-.033c.146-.027.282-.058.411-.088.049-.014.1-.025.143-.038a5.234 5.234 0 00.625-.2 1.013 1.013 0 00.1-.038l.077-.033a1.335 1.335 0 00.143-.066.8.8 0 00.085-.041l.093-.049q.062-.033.115-.066a.896.896 0 00.1-.063 1.547 1.547 0 00.132-.088 3.29 3.29 0 00.34-.269c.027-.025.055-.049.079-.074q.078-.074.148-.148c.044-.049.088-.1.132-.143a.789.789 0 01.063-.071c.019-.025.038-.047.058-.069l.077-.088.074-.082.074-.077c.025-.025.047-.049.071-.071a4.779 4.779 0 012.385-1.22 1.274 1.274 0 01.324.038v-.565c-1.02-.175-2.468.781-3.079 1.343a4.24 4.24 0 00-.337.362c-.688.79-1.73 1.982-7.883 1.418a6.438 6.438 0 00-5.78 2.55 16.66 16.66 0 00-3.148 7.847c-1.292.03-2.281.055-2.717.066-1.286-11.019-10.29-19.588-21.178-19.588a20.406 20.406 0 00-6.43 1.036l-.11.038-.132.044-.027.008c-.112.038-.222.077-.334.118l-.044.016a22.475 22.475 0 00-1.414.589l-.167.077c-.178.08-.351.167-.526.255l-.085.041a20.675 20.675 0 00-.803.425 9.512 9.512 0 00-.518.3.029.029 0 00-.014.008.008.008 0 01-.005 0 22.79 22.79 0 00.3 38.86c.063.365.255 1.494.406 2.459v.033c.143.307.386.842.548 1.289v-.016a5.473 5.473 0 00.595.743 11.252 11.252 0 00-.595 1.821v-.063l-.06.335-.488 2.084a17.21 17.21 0 01-.121.5l-.016.071a19.555 19.555 0 01-4.275 8.566 10.58 10.58 0 01-10.452 3.622 2.971 2.971 0 00-1.344-.82l-.151-.06a1.644 1.644 0 00-.727-.154l-.31-.244a31.086 31.086 0 01-3.74-3.307 5.271 5.271 0 00-4.776-1.733l-.274.041c-1.228.192-3.792.59-4.582 2a2.159 2.159 0 00-.014 1.958 2.062 2.062 0 001.332 1.239 6.018 6.018 0 003.885-.707 4.544 4.544 0 011 2.043.388.388 0 01-.091.321c-.378.419-1.936.452-4.094.494l-.461.008a6.092 6.092 0 00-4.941 2.533 2.145 2.145 0 00-.307 2.032 2.014 2.014 0 001.344 1.1 4 4 0 003.057-.5 4.562 4.562 0 012.254-.94c.433-.088.611.055.631.14.014.066-.079.093-.11.1a6.077 6.077 0 00-2.871 2.945 4.59 4.59 0 00-.419 3.693 1.717 1.717 0 001.083 1.067 1.629 1.629 0 001.4-.126 2.049 2.049 0 00.806-1.4 7.527 7.527 0 01.82-2.432c.244-.5.554-.806.853-.847a.316.316 0 01.274.069.16.16 0 01.008.217l-.027.044c-.883 1.738-1.091 3.359-.559 4.332a1.249 1.249 0 00.96.7.619.619 0 00.071.005c1.19 0 1.936-2.989 2.076-3.6.093-.417.247-.51.277-.515a9.523 9.523 0 001.93.016 4.513 4.513 0 00.82.916c.655.546.9.543 1.382.48.036 0 .071-.008.112-.014a19.3 19.3 0 007.142 1.335 17.385 17.385 0 0011.146-3.976v19.6a61.083 61.083 0 00-6.517 18.628 1.879 1.879 0 00-.743.776 21.376 21.376 0 00-.485 2.542 1.144 1.144 0 00.318 1.006c-.51 3.035-1.141 6.978-1.363 8.382-5.377-5.215-8.99-4.48-10.427-3.808a3.134 3.134 0 00-.82.576.946.946 0 00-.143.143 4.166 4.166 0 00-.716 1.053.187.187 0 00-.03.052 5.333 5.333 0 00-.411 1.22c-.469 2.284.071 6.238 5.317 12.122 6.238 7 12.763 8.733 16.333 8.733a8.585 8.585 0 001.4-.107v.005a.21.21 0 01.033-.011 3.935 3.935 0 00.77-.208c2.278-.919 2.893-2.624 3.871-10.732.189-1.566.42-3.027.669-4.36h.005l.107-.551h-.008a54.911 54.911 0 012.1-7.943c.79-.123.965-1 1.121-1.785l.014-.066a2.094 2.094 0 00-.148-1.4c.132-.48.8-2.742 2.037-5.895l.058-.178a97.994 97.994 0 012.588-5.832c3.157-6.56 6.739-8.772 7.335-9.106a50.266 50.266 0 003.14 6.751c3.734 6.86 7.441 10.156 9.21 11.458l1.231.162.954.126-1.009-.159-.055-.033a.086.086 0 01-.019-.014c-.033-.019-.071-.044-.115-.074s-.115-.074-.184-.121c-1.056-.7-4.006-2.945-7.315-7.932a26.072 26.072 0 01-.439-.672c-.066-.1-.132-.206-.2-.31-.154-.244-.307-.5-.464-.754a41.36 41.36 0 01-.441-.749 46.945 46.945 0 01-.669-1.19c-4.735-8.7-4.562-11.62-4.543-11.82a2.744 2.744 0 00-.1 1c0 .06.005.126.008.195s.011.167.022.258c.005.06.014.123.019.189s.016.132.027.2l.028.189.025.14c.019.115.041.233.069.359.016.085.036.17.055.261.041.175.088.362.137.559.055.2.112.4.175.622s.14.447.219.688a.586.586 0 01-.058-.03c-.052-.03-.107-.06-.167-.1a.863.863 0 01-.091-.06 3.194 3.194 0 01-.343-.266 2.418 2.418 0 01-.176-.159l-.181-.186a6.86 6.86 0 01-1.132-1.714q-.095-.193-.181-.4a6.92 6.92 0 01-.175-.439c-.03-.074-.058-.154-.085-.233s-.058-.162-.082-.247c-.005-.014-.008-.025-.014-.038a3.302 3.302 0 01-.06-.184v-.005c.041.263.093.51.145.746.016.08.036.159.055.236.033.129.066.25.1.367s0 0 0 .006a7.712 7.712 0 00.222.669c.047.123.093.244.145.356.025.058.049.112.077.167s.049.107.077.156.049.1.077.151c.055.1.107.192.162.28a4.632 4.632 0 00.5.672q.082.09.165.173a4.112 4.112 0 00.323.282l.079.058.115.079.11.069a9.09 9.09 0 00-.381.258q-.074.049-.148.107c-.057.041-.115.085-.175.132s-.1.077-.151.115-.115.093-.178.143-.1.088-.159.132l-.219.189c-.076.066-.135.118-.2.181s-.137.123-.208.192-.132.123-.2.189-.159.154-.241.236c-.1.1-.208.211-.315.326s-.217.23-.329.354c-.019.022-.041.044-.06.069-.08.091-.162.184-.244.28a.336.336 0 00-.03.033q-.173.2-.345.411-.456.555-.935 1.223c-.079.112-.162.225-.241.343s-.178.26-.269.395a31.393 31.393 0 00-2.166 3.828q-.387.806-.738 1.568t-.666 1.483a81.253 81.253 0 00-1.739 4.245c-.019.047-.036.09-.052.134-.074.2-.142.389-.211.573q-.066.173-.123.337c-.079.219-.156.428-.225.631s-.137.395-.2.579-.121.359-.176.524-.1.324-.151.469c-.025.074-.047.145-.069.214-.044.137-.082.263-.118.381s-.068.225-.1.321a7.383 7.383 0 00-.606-.812 7.753 7.753 0 00-.258-.288c-.044-.049-.09-.1-.137-.145l-.145-.145a8.81 8.81 0 00-.516-.477c-.027-.022-.055-.044-.082-.069l-.082-.069c-.063-.052-.129-.107-.195-.159a12.314 12.314 0 00-.423-.321c-.148-.11-.3-.217-.469-.324-.082-.055-.164-.11-.252-.162s-.173-.11-.26-.162c-.181-.11-.368-.217-.562-.324-.1-.055-.2-.107-.3-.159l-.178-.09-.047-.025c-.123-.063-.25-.123-.381-.184s-.244-.115-.37-.17-.233-.1-.354-.151l-.3-.123-.107-.044c-.115-.044-.233-.09-.354-.134s-.217-.08-.326-.118l-.022-.008c-.011 0-.022-.008-.03-.011a.011.011 0 00-.008 0l-.047-.016a19.98 19.98 0 00-.981-.318c-.077-.025-.154-.047-.23-.069l-.2-.058a13.156 13.156 0 00-.26-.071l-.156-.041a7.329 7.329 0 00-.324-.082c-.123-.033-.247-.06-.367-.088s-.233-.052-.345-.077a.118.118 0 00-.03-.005 17.777 17.777 0 00-1.261-.219h-.008l-.025-.005h-.014c-.071-.008-.14-.019-.208-.025a15.008 15.008 0 00-.474-.049l-.074-.005c-.066-.005-.129-.011-.192-.014-.085-.005-.173-.011-.255-.014a7.919 7.919 0 00-3.573.54c.014-.085.03-.184.049-.288l.063-.345c.022-.126.049-.255.077-.4s.06-.291.093-.45.068-.324.107-.5l.123-.546c.043-.19.088-.389.14-.592.025-.1.049-.208.077-.313l.06-.241c.06-.244.126-.5.2-.759.06-.233.126-.472.195-.716s.14-.5.217-.751.154-.518.239-.787c.162-.526.337-1.075.529-1.64.052-.154.1-.307.159-.463.208-.611.439-1.239.686-1.886.049-.129.1-.258.151-.387q.2-.526.428-1.069c.077-.189.156-.381.239-.573.052-.126.107-.255.165-.384s.107-.252.165-.381c.071-.165.145-.329.219-.5s.148-.329.225-.5.154-.335.233-.5c.1-.222.211-.447.323-.672q.325-.679.683-1.368c.178-.343.359-.685.548-1.031q.424-.777.883-1.563c.2-.348.411-.7.625-1.045.162-.263.326-.524.494-.787l.041-.063c.126-.195.252-.392.384-.587q.473-.72.982-1.437c.153-.219.313-.439.474-.658.186-.255.378-.513.573-.768.173-.228.351-.458.529-.683l.033-.041c.181-.23.367-.461.554-.688.066.058.145.126.244.2.033.025.066.052.1.08a7.667 7.667 0 00.641.425l.219.129.184.1c.148.08.31.164.485.25.079.041.162.079.247.118a12.079 12.079 0 00.541.243l.214.09c.345.143.727.291 1.146.436l.307.107q.218.074.453.148c.115.036.23.074.351.11.737.225 1.574.452 2.517.669.134.03.274.063.414.093l.022.005c.271.06.551.118.839.175h.011c.195.041.392.079.595.118l.31.058a21.888 21.888 0 0014.036-2.114 44.582 44.582 0 001.6 4.335 1.83 1.83 0 00.26.389c.022.025.044.047.069.071a1.535 1.535 0 00.156.137 1 1 0 00.088.06.887.887 0 00.1.055.538.538 0 00.082.036.242.242 0 00.047.019.57.57 0 00.09.027.849.849 0 00.121.025c.529.069 2.3.178 2.377.184h.049a2.28 2.28 0 001-.236c.431-.228 3.065-1.884 3.277-2.015a.822.822 0 00.392-.455.671.671 0 00.022-.269l-.016-.08c-.005-.028-.016-.055-.027-.085a.543.543 0 00-.036-.082s0-.008-.006-.011a.319.319 0 00-.022-.044l-.014-.025c-.006-.009 0-.006-.006-.011s-.016-.041-.027-.066-.014-.033-.019-.052a13.306 13.306 0 01-.23-.694c-.033-.1-.066-.217-.1-.337l-.11-.381a87.891 87.891 0 01-.2-.71l-.118-.433-.008-.033q-.057-.23-.123-.477c-.025-.1-.049-.2-.077-.3-.038-.148-.074-.3-.112-.455-.005-.025-.014-.049-.019-.074-.068-.288-.14-.587-.211-.894s-.14-.622-.211-.943-.137-.647-.206-.979a31.499 31.499 0 001.289-1.168c.082-.08.162-.156.236-.23s.143-.145.208-.214c.044-.047.088-.09.129-.137s.082-.088.121-.132c.115-.129.219-.25.31-.362.049-.06.093-.118.134-.173a9.257 9.257 0 01.359.66c.058.115.118.239.178.373l.08.175c.057.134.118.274.178.425.022.055.044.107.063.165s.055.14.08.211c.022.055.041.11.06.165s.033.09.049.14l.055.165c.036.1.069.211.1.321.041.132.082.266.118.406a.928.928 0 01.027.1l.066.252c.022.085.044.17.063.258s.047.195.066.293c.022.082.038.167.055.252l.022.112c.016.085.033.17.047.255.055.3.1.617.143.946l.041.34a18.894 18.894 0 01.09 1.428c0 .085.006.173.006.26v.482a32.885 32.885 0 01-.228 3.512l-.049.378c-.033.244-.069.483-.1.71s-.074.439-.113.647v.008c-.019.1-.038.206-.06.3l-.016.085a9.255 9.255 0 01-.105.483 17.855 17.855 0 01-.428 1.593l-.115.343c-.082.233-.14.37-.156.409a9.279 9.279 0 00.9-1.993 12.6 12.6 0 01.291 3.167c.055-.186.1-.37.143-.548.027-.118.049-.236.069-.351.033-.173.055-.34.074-.5.069.1.145.208.222.332.055.082.11.167.165.26q.049.078.1.165c.036.063.074.129.11.195l.112.206a9.396 9.396 0 01.439.943 10.877 10.877 0 01.389 1.11c.03.1.058.2.085.3.014.052.027.1.044.156a.034.034 0 000 .016c0 .011.005.019.008.027.019.063.038.126.06.189s.041.126.066.186.049.129.074.192a6.911 6.911 0 00.357.757c.033.063.069.126.1.189l.107.181c.071.123.148.244.225.362.1.159.214.315.324.466.041.058.082.115.126.17s.088.112.129.17a13.19 13.19 0 00.872 1.003c.1.1.195.2.293.3a7.756 7.756 0 00.314.293c.074.069.148.132.219.195a9.675 9.675 0 00.54.428l.173.123.164.107.132.08c.058.033.113.063.165.088l.118.055.027.011.1.036.063.016c.041.014.091.027.143.044.027.006.055.016.085.025l.093.03.1.036a.837.837 0 01.107.041.75.75 0 01.113.047 1.023 1.023 0 01.115.052 2.9 2.9 0 01.373.208 1.49 1.49 0 01.129.085 1.31 1.31 0 01.132.1 1.125 1.125 0 01.132.107 3.157 3.157 0 01.269.247c.052.052.1.11.156.17a3.557 3.557 0 01.23.291c.044.058.085.118.126.181s.085.129.123.2.082.137.121.211.077.148.112.228.074.154.107.236.074.178.107.271c.068.178.129.37.186.576a9.525 9.525 0 01.277 1.387c-.274-2.257-.932-3.795-2-4.656l.181-.008a6.78 6.78 0 01.779.021c.079.008.132.011.2.022.036 0 .068.008.1.014.068.008.14.022.208.036a.042.042 0 01.019 0c.077.014.153.033.23.052l.027.008c.079.019.159.044.239.071a.48.48 0 01.088.033c.074.027.146.058.217.088a2.374 2.374 0 01.233.126 1.169 1.169 0 01.145.093.2.2 0 01.03.022 1.971 1.971 0 01.17.137 3.8 3.8 0 00-.178-.211c-.03-.033-.06-.066-.093-.1a1.57 1.57 0 00-.121-.115.712.712 0 00-.069-.06 2.138 2.138 0 00-.151-.123l-.129-.093a.243.243 0 00-.036-.022 1.756 1.756 0 00-.162-.1l-.044-.025c-.052-.03-.1-.055-.156-.079a3.183 3.183 0 00-.425-.167 2.242 2.242 0 01.718-.263 3.268 3.268 0 001.439-.776l.354 8.651.195 4.763V62.014a17.234 17.234 0 002.4-.2 10.653 10.653 0 003.165-.978 1.729 1.729 0 00.868-1.375c.059-1-1.05-1.5-1.567-1.5-.989 0-2.466.008-2.466.008v.005l-.14.014c-.3.025-.6.06-.894.1-.2.025-.395.049-.589.069a.22.22 0 01-.041-.033.159.159 0 01-.03-.03.158.158 0 01-.019-.022.537.537 0 01-.041-.058.487.487 0 01-.027-.055.332.332 0 01-.027-.063l-.017-.047a.643.643 0 01-.025-.11c0-.019-.005-.041-.008-.063a1.534 1.534 0 010-.335 7.163 7.163 0 011.722-.208h.134s4.113-.033 5.166-.82a1.042 1.042 0 01.167-.107l.005-.005a1.392 1.392 0 00.631-1.031 1.767 1.767 0 00-.524-1.461 2.258 2.258 0 00-.28-.222v-2.325a2 2 0 00.9-1.623 1.657 1.657 0 00-.683-1.333 2.6 2.6 0 00-.219-.156v-1.62a2.266 2.266 0 001.5-2.309 1.816 1.816 0 00-.787-1.291 3.934 3.934 0 00-.713-.441m-59.517 105.8a.9.9 0 01-.06.145.951.951 0 01-.115.173.6.6 0 01-.08.085.881.881 0 01-.208.143.335.335 0 01-.036.016h-.011q-.276.045-.6.074c-.11.008-.222.014-.34.019-.1 0-.2.005-.3.005h-.318a13.062 13.062 0 01-1.568-.137l-.247-.038q-.168-.025-.337-.058c-.085-.016-.173-.033-.26-.052s-.165-.033-.247-.052a10.82 10.82 0 01-.318-.074 7.739 7.739 0 01-.263-.063q-.2-.049-.395-.107c-.1-.027-.2-.055-.3-.085a.381.381 0 01-.044-.014 16.625 16.625 0 01-1.043-.348c-.118-.044-.239-.088-.359-.134-.079-.03-.162-.06-.241-.1a1.177 1.177 0 01-.126-.049c-.1-.041-.2-.082-.3-.126-.2-.085-.409-.175-.614-.271-.17-.077-.34-.159-.513-.244s-.359-.181-.543-.277-.354-.189-.532-.291h-.005c-.178-.1-.359-.2-.54-.313-.145-.085-.288-.175-.433-.263l-.455-.291c-.071-.047-.145-.093-.217-.145q-.14-.09-.28-.189c-.093-.063-.186-.129-.28-.195-.2-.14-.4-.288-.606-.439q-.247-.185-.494-.378a30.445 30.445 0 01-2.9-2.6 30.242 30.242 0 01-.861-.91c-.1-.1-.192-.211-.288-.318-5.363-6.013-5.555-9.879-5.19-11.647a3.51 3.51 0 01.077-.31 2.734 2.734 0 01.085-.277c0-.011.008-.022.011-.033.03-.088.066-.173.1-.255s.074-.173.115-.255a1.018 1.018 0 01.587-.384c.464-.123 1.316-.077 2.756.842 2.827 1.8 15.3 13.227 17.94 16.934 1.315 1.818 1.391 2.794 1.227 3.29zm1.209-.562a1.232 1.232 0 01-.03.123c0 .008-.006.019-.008.027a.974.974 0 01-.036.1.814.814 0 01-.044.1.492.492 0 01-.038.063.391.391 0 01-.036.055.677.677 0 01-.129.14 3.833 3.833 0 01-.406.219c0-.006.005-.008.005-.014a.08.08 0 00.011-.022.171.171 0 00.014-.033c.016-.047.03-.1.044-.145a1.362 1.362 0 00.03-.151 2 2 0 00.025-.321c0-.052 0-.1-.006-.156s-.011-.112-.019-.173a2.9 2.9 0 00-.058-.326.017.017 0 010-.011c-.017-.06-.03-.121-.049-.181a3.498 3.498 0 00-.077-.241c-.016-.044-.033-.091-.052-.137l-.079-.2q-.058-.132-.123-.271a.64.64 0 00-.033-.06 1.88 1.88 0 00-.055-.11c-.03-.058-.06-.118-.093-.178s-.082-.145-.126-.219a8.56 8.56 0 00-.277-.45 13.254 13.254 0 00-.933-1.256c-.118-.145-.247-.3-.384-.455l-.208-.241c-.23-.263-.48-.537-.746-.825l-.2-.219q-.255-.276-.535-.568c-.09-.1-.184-.195-.28-.293-.7-.732-1.483-1.516-2.309-2.328-.441-.436-.9-.88-1.363-1.327l-.411-.395c-.282-.269-.565-.54-.853-.812a210.582 210.582 0 00-3.345-3.095l-.57-.515q-.584-.526-1.149-1.023c-.148-.129-.293-.258-.436-.384-1.344-1.179-2.544-2.191-3.458-2.909a19.258 19.258 0 00-.872-.656c-.044-.033-.085-.06-.126-.09s-.063-.044-.1-.063c-.049-.036-.1-.066-.14-.093a4.541 4.541 0 00-2.986-.946c.047-.049.1-.093.143-.137.351-.258 1.4-.716 3.57.669.088.058.187.123.293.2.052.036.107.074.164.118.088.066.184.134.283.208s.175.132.269.2l.044.033c.134.1.274.217.422.335s.315.252.483.389l.5.411c1 .831 2.18 1.856 3.441 2.986.222.2.444.4.672.6 1.6 1.439 3.285 3.013 4.875 4.546h.006l.417.4c.222.217.444.433.661.647.186.184.37.365.551.546.137.134.271.271.406.406l.4.4a68.176 68.176 0 011.478 1.522c.115.121.228.239.337.356.3.315.576.62.831.9.077.085.151.167.219.249.049.052.093.1.137.156s.088.1.129.148l.14.164a24.083 24.083 0 01.434.535c.032.044.052.066.077.1l.112.145c.058.077.113.154.165.225.132.184.249.362.359.532q.082.127.156.247a8.116 8.116 0 01.299.524l.082.162c.036.069.068.14.1.206l.047.1c.014.031.027.066.041.1.025.055.047.107.069.162s.041.1.058.154.044.123.06.184c.011.033.022.066.03.1a.079.079 0 01.006.025c.008.03.019.063.025.093s.016.058.022.088c.014.066.027.129.036.189a.724.724 0 01.014.1c.005.025.008.052.011.074s0 .014 0 .022a2.143 2.143 0 01.006.55zm5.448-22.3c-.005.016-.014.036-.019.055-.014.036-.027.077-.041.121a.564.564 0 00-.027.074c-.016.049-.036.1-.055.159-.038.112-.082.241-.129.387-.025.071-.049.148-.074.228l-.079.25a19.678 19.678 0 01-.129.414 50.69 50.69 0 00-.39 1.333c-.036.126-.071.252-.1.384s-.071.266-.107.4c-.019.069-.038.137-.055.208-.036.132-.068.269-.1.406-.077.3-.153.617-.23.943-.038.159-.074.321-.112.485s-.074.332-.112.5-.074.343-.112.518q-.169.794-.329 1.662l-.107.584c-.071.395-.137.8-.2 1.217s-.132.839-.192 1.275-.118.877-.173 1.33c-.082.669-.159 1.291-.236 1.873-.038.291-.077.57-.112.842s-.077.529-.112.779c-.019.126-.036.25-.055.37-.057.362-.112.7-.167 1.023l-.055.315c-.038.206-.077.4-.112.587-.057.285-.115.551-.175.8-.011.055-.025.107-.038.159a11.744 11.744 0 01-.206.743c-.025.088-.052.17-.082.252s-.058.165-.085.241-.047.123-.071.184c-.049.121-.1.236-.151.343s-.1.211-.159.307-.11.186-.167.271v-.069c0-.069 0-.14-.008-.208 0-.052-.008-.1-.016-.159s-.016-.126-.03-.192-.025-.132-.041-.2c-.011-.044-.022-.088-.036-.134s-.019-.069-.03-.1v-.011a1.583 1.583 0 00-.041-.129v-.008a4.606 4.606 0 00-.175-.463 3.784 3.784 0 00-.093-.211q-.111-.239-.247-.485a14.862 14.862 0 00-.285-.491c-.038-.063-.08-.126-.121-.189s-.082-.129-.126-.192l-.132-.2-.14-.2a9.321 9.321 0 00-.277-.373c-.153-.2-.326-.411-.518-.639a50.942 50.942 0 00-1.618-1.799l-.272-.285q-.415-.436-.864-.894l-.3-.31c-.052-.052-.1-.1-.153-.156l-.156-.156-.356-.356-.181-.181q-.09-.086-.181-.181l-.746-.738c-.115-.11-.23-.222-.345-.335a8.822 8.822 0 00-.17-.164.462.462 0 01-.036-.036 2.646 2.646 0 01-.132-.129l-.526-.5q-.35-.337-.707-.674l-.356-.337c-.474-.45-.954-.9-1.434-1.344l-.359-.332-.373-.343a49.97 49.97 0 00-.7-.642 31.38 31.38 0 00-.351-.321l-.351-.318c-.351-.315-.694-.625-1.034-.927-.112-.1-.225-.2-.334-.3s-.222-.2-.332-.293-.219-.195-.326-.288-.214-.189-.321-.28c-.211-.184-.42-.365-.622-.537s-.4-.345-.592-.507l-.562-.472a44.32 44.32 0 00-1.856-1.481c-.06-.047-.121-.09-.178-.132s-.123-.088-.181-.129-.1-.066-.143-.1-.1-.066-.14-.093a6.544 6.544 0 00-2.229-.973c.068-.014.14-.025.211-.036a4.916 4.916 0 01.8-.049c.068 0 .143 0 .217.008s.148.008.225.016c.115.011.233.025.354.044.08.014.162.027.244.044s.17.036.258.052.17.041.26.066c.091.025.178.049.271.077l.28.088a1.52 1.52 0 00.145.049 9.298 9.298 0 01.444.17c.1.038.2.082.307.129s.208.093.315.143.217.1.326.159.222.112.335.175l.173.093c.115.063.23.129.348.2l.359.217c.241.148.491.31.746.483.129.088.258.175.387.269l.4.288c.137.099.271.2.409.307l.417.326a32.568 32.568 0 011.423 1.206c.112.1.228.2.343.31q1.041.95 2.185 2.136a36.582 36.582 0 00-2.174-2.5c.269.06.589.143.908.247l.288.1c.143.052.28.107.409.162s.244.11.348.162l.189.093.142.079c.042.024.079.047.1.058a.1.1 0 01.016.008c-.014-.014-.052-.041-.1-.085a4.933 4.933 0 00-.3-.228 7.72 7.72 0 00-.984-.6c-.14-.074-.282-.143-.42-.208l-.14-.06c-.09-.041-.178-.077-.263-.112l-.123-.049-.115-.047-.137-.049-.12-.044c.005-.038.014-.08.019-.123.016-.088.03-.189.049-.3.008-.055.016-.112.027-.173l.06-.387c.022-.138.047-.282.071-.439l.077-.485.041-.258c.058-.351.118-.727.181-1.119.047-.293.1-.6.148-.908l.008-.058c.23-1.431.488-2.991.718-4.362a3.169 3.169 0 01.483-.335c.027-.016.055-.033.085-.049s.057-.033.09-.049c.063-.033.132-.069.2-.1l.112-.049a6.745 6.745 0 01.584-.225q.2-.066.42-.123l.063-.016h.005c.074-.019.148-.036.225-.052s.156-.033.236-.047a7.925 7.925 0 011.075-.128c.1-.008.2-.011.3-.014s.206-.005.31-.005a13.62 13.62 0 013.148.4c5.237 1.242 7.839 4.31 8.305 5.1a.318.318 0 01-.027.086zm-6.4-8.141c5.536 1.76 7.115 4.636 7.343 5.114l-.006.03.074.1a1.278 1.278 0 01.162.768 2.466 2.466 0 01-.041.318l-.011.066c-.167.834-.288 1.253-.63 1.341-.7-1.179-3.639-4.137-8.631-5.322-4.708-1.116-7.038.293-7.71.82a.655.655 0 01-.082-.447 22.166 22.166 0 01.455-2.427c.038-.019 1.859-2.662 9.103-.356zm44.234-89.625c.041.62.469 9.309.962 20.194a13.149 13.149 0 01-8.193-1.67c-.1-1.6-1.127-16.961-1.127-17.83v-.09a1.476 1.476 0 01.025-.165.831.831 0 01.049-.14.486.486 0 01.052-.09.923.923 0 01.069-.077.709.709 0 01.477-.165h.028c.046-.005 4.669-.611 6.164-.716a2.35 2.35 0 011.311.186 1.077 1.077 0 01.209.568zm-12.8-.853a1 1 0 00.014.195c.156.548 1.08.639 1.67.639.143 0 .266-.005.354-.011.151.005.359.008.59 0l.2-.008a6.24 6.24 0 00.406-.036c.052-.005.1-.014.153-.022h.019c.022-.005.047-.008.069-.014.066-.014.129-.027.189-.044s.107-.033.156-.052a.516.516 0 00.068-.027.39.39 0 00.082-.041.5.5 0 00.134-.1.191.191 0 00.03-.036 1.406 1.406 0 00.178-.543c3.022-.063 5.377-.1 7.016-.112a2.083 2.083 0 01.472.036 4.018 4.018 0 00-.51.005c-1.464.1-5.9.68-6.166.716a.969.969 0 00-.666.236.847.847 0 00-.129.154l-6.877.115a22.883 22.883 0 00-.071-.984zm-2.939 6.66q.049-.243.09-.485a23.3 23.3 0 00.334-3.945c0-.3-.011-.6-.022-.9l6.753-.112a1.336 1.336 0 00-.041.244v.09c0 .074.008.247.019.507.005.118.014.252.022.4.005.1.011.2.019.315 0 .047.006.093.008.143l.008.151c.008.148.016.3.028.472q.029.5.066 1.086l.036.6c.011.2.027.422.041.642l.041.669.022.345c.025.348.047.7.069 1.067.011.181.022.362.036.548s.022.367.036.554.022.373.036.559q.053.847.11 1.694l.049.749.036.554c.011.184.025.367.036.548.016.241.033.48.047.716s.033.466.047.694.027.45.044.669.027.43.041.636c.011.156.022.307.03.455s.019.293.03.436l.052.792c.011.167.019.324.03.472s.019.285.027.414l.016.23c0 .044.006.085.008.126l.027.417a16.045 16.045 0 01-3.235-2.547c-2.432-2.465-4.143-2.668-4.963-2.561a2.429 2.429 0 00.016-.57c-.005-.082-.016-.17-.025-.263l-.049-.472c-.016-.157-.03-.313-.044-.461-.011-.112-.022-.222-.03-.329-.005-.052-.011-.107-.014-.156s-.008-.1-.014-.151l-.016-.189c-.005-.06-.011-.121-.014-.178s-.011-.1-.014-.154c-.005-.077-.014-.143-.016-.2 0-.03-.006-.058-.006-.082a.077.077 0 010-.025c0-.041-.005-.074-.008-.1a.035.035 0 000-.016.086.086 0 000-.027.276.276 0 010-.036l-.005-.044a.116.116 0 00-.008-.027.122.122 0 00-.011-.027.478.478 0 00-.03-.077c-.014-.027-.03-.06-.052-.1s-.047-.069-.077-.107a.246.246 0 01-.025-.027c0-.005-.008-.008-.011-.014l-.068-.069a.944.944 0 00-.1-.077.589.589 0 00-.082-.052.324.324 0 00-.068-.036.826.826 0 00-.151-.06c.164-.466.315-.932.447-1.407.09-.315.173-.631.249-.949.036-.159.074-.321.107-.48s.077-.318.108-.477zm-31.249 14.444l-.008-.005c-.093-.052-.184-.11-.274-.167a7.832 7.832 0 01-.373-.239 2.143 2.143 0 01-.107-.069l-.025-.016a16.408 16.408 0 01-.529-.359c-.156-.112-.31-.222-.464-.34-.019-.014-.041-.027-.06-.044l-.134-.1c-.14-.1-.274-.211-.408-.321-.044-.033-.085-.069-.129-.1-.167-.137-.332-.277-.5-.42s-.34-.3-.507-.458a.158.158 0 01-.022-.022 9.445 9.445 0 01-.367-.354q-.16-.152-.313-.313a3.016 3.016 0 01-.137-.14c-.022-.025-.047-.047-.066-.071a7.822 7.822 0 01-.2-.208l-.008-.011q-.218-.234-.428-.477a17.546 17.546 0 01-.43-.51q-.181-.218-.354-.444a.224.224 0 01-.022-.03l-.14-.181-.058-.077a5.775 5.775 0 01-.176-.244l-.016-.022c-.063-.082-.121-.162-.176-.244s-.11-.156-.162-.233c-.008-.014-.019-.027-.027-.041-.063-.09-.123-.181-.184-.271a.04.04 0 01-.008-.011 24.826 24.826 0 01-.625-1.014.06.06 0 01-.011-.016c-.082-.14-.162-.28-.241-.422a.293.293 0 00-.022-.041c-.093-.17-.184-.34-.271-.513l-.041-.08c-.074-.148-.148-.293-.219-.444q-.127-.259-.247-.526c-.079-.178-.156-.356-.233-.537s-.148-.359-.219-.543-.134-.356-.2-.537a.288.288 0 00-.019-.052 29.78 29.78 0 01-.162-.477c0-.005 0-.011-.005-.016-.022-.063-.041-.129-.063-.195a22.236 22.236 0 01-.427-1.525c0-.008-.005-.019-.008-.03-.044-.184-.085-.37-.126-.557a7.683 7.683 0 01-.1-.524 26.894 26.894 0 01-.197-1.215.7.7 0 01-.011-.074 16.437 16.437 0 01-.104-.963c-.005-.047-.011-.1-.014-.145a6.51 6.51 0 01-.019-.25q-.016-.2-.025-.4-.017-.3-.025-.609c-.005-.2-.008-.406-.008-.611 0-11.993 9.328-21.751 20.794-21.751q.267 0 .535.008a18.192 18.192 0 011.13.06l.433.041a28.552 28.552 0 01.546.065c.173.022.345.049.515.077.151.022.3.049.45.077.038.005.08.014.118.022.154.03.3.06.455.093a.421.421 0 01.063.014 31.718 31.718 0 01.943.229c.17.044.329.093.494.143.145.041.288.085.43.132.047.016.1.03.143.047.118.038.233.08.348.121.132.047.261.093.392.143.085.03.167.063.252.1.228.088.452.181.677.28.09.038.184.08.274.121l.025.011c.107.047.217.1.321.148.153.074.307.148.458.225q.152.074.3.156c.074.038.148.077.222.118l.37.206c.225.126.444.258.661.395.052.03.1.06.151.093s.1.063.154.1c.1.066.208.134.313.2l.047.033.016.011c.126.082.25.167.373.258.14.1.277.195.411.3l.154.115.063.049c.1.071.195.145.288.222s.189.151.282.228c.044.036.085.071.129.11a21.303 21.303 0 011.395 1.268c.066.066.129.132.192.2.1.1.195.2.285.3a1.239 1.239 0 01.1.107c.093.1.181.195.269.3.06.066.121.132.178.2.165.189.326.378.48.573.118.14.227.282.337.425q.144.181.28.37c.036.044.066.088.1.132.085.118.173.239.255.359.03.041.058.08.082.121.118.167.23.337.34.507.093.145.186.291.277.439s.178.293.263.444c.176.3.343.6.5.91.085.162.167.326.247.491.058.115.112.228.165.345q.1.21.2.428c.038.088.077.175.115.266l.132.315c.014.03.025.063.038.1q.07.169.131.337v.005a24.71 24.71 0 01.392 1.108q.165.5.3 1.02c.047.173.09.345.134.518.085.348.162.7.233 1.05l.1.535a20.123 20.123 0 01.23 1.761c.022.228.038.455.052.683v.011l.016.271q.012.21.016.419c0 .1.005.2.008.3v.4c0 .165 0 .332-.005.5s-.008.329-.016.494c-.005.148-.014.3-.022.441 0 .055-.008.11-.011.165-.008.126-.019.252-.03.378-.014.159-.027.318-.044.474-.016.129-.03.258-.047.384-.019.156-.041.31-.063.463-.011.093-.027.186-.041.28a.494.494 0 01-.011.063c-.027.17-.058.34-.088.507a16.474 16.474 0 01-.2.96c-.038.17-.08.34-.124.507a.081.081 0 01-.005.025c-.057.222-.118.444-.181.664q-.2.7-.452 1.393a1.378 1.378 0 00-.143.022.432.432 0 00-.077.016c-.03.005-.063.016-.093.025h-.011l-.066.025a1.82 1.82 0 00-.159.069l-.074.041-.079.049a.991.991 0 00-.1.074 1.408 1.408 0 00-.126.1 2.157 2.157 0 00-.315.356.021.021 0 01-.008.008c0 .005-.008.011-.014.022a.289.289 0 00-.025.03l-.036.044c-.038.047-.088.107-.148.184-.044.049-.091.11-.14.173s-.11.132-.17.206l-.1.115a56.869 56.869 0 01-2.289 2.558c-.1.1-.2.208-.3.313a58.51 58.51 0 01-1.089 1.1c-.3.288-.6.581-.918.872-.08.074-.159.148-.239.219q-.481.44-.982.866l-.252.214c-.34.282-.683.559-1.031.828-.088.069-.176.134-.263.2-.022.016-.044.036-.069.052-.129.1-.26.192-.392.288-.2.145-.4.285-.6.419l-.225.151a18.24 18.24 0 01-.771.482l-.258.151c-.178.1-.354.2-.532.293q-.119.066-.238.123c-.085.044-.173.085-.258.126a9.406 9.406 0 01-.7.312c-5.061 2.065-6.822-1.223-7.666-2.8-.016-.033-.033-.063-.049-.093s-.03-.058-.047-.085-.03-.055-.044-.082c-.057-.1-.11-.192-.159-.269-.014-.019-.025-.038-.038-.055-.038-.049-.074-.1-.113-.14a2.167 2.167 0 00-.23-.241l-.118-.1c-.038-.031-.08-.06-.118-.088s-.079-.052-.118-.077a1.822 1.822 0 00-.23-.118 1.635 1.635 0 00-.228-.082c-.055-.016-.11-.027-.162-.038a.8.8 0 00-.079-.014.683.683 0 00-.074-.011c-.044-.005-.085-.008-.123-.011a2.345 2.345 0 00-.441.011 1.971 1.971 0 00-1.752 1.322l-.005.005-.027.071v.005l-.1.288c-1.089 3.285-1.706 3.91-1.993 3.962-.17-.071-.666-.285-.979-.441-.293-.145-.831-.433-1.072-.562-.156-.127-.331-.232-.501-.336zm30.188-10.6a2.121 2.121 0 00-.642.6l-.025.033c-.014.019-.036.044-.063.077-.014.016-.027.036-.044.055-.03.041-.068.09-.115.145l-.151.181-.085.107-.1.112-.214.255a54.443 54.443 0 01-1.87 2.106c-.129.137-.26.28-.4.425s-.274.291-.419.436l-.217.225c-.145.148-.293.3-.447.452l-.23.23c-.165.162-.335.326-.5.491-.151.145-.3.291-.461.439l-.252.233c-.337.31-.683.622-1.036.929l-.436.37c-.381.321-.773.636-1.168.943-.2.151-.395.3-.595.45-.143.1-.282.206-.425.307l-.428.3a23.75 23.75 0 01-.576.378c-.036.022-.074.047-.11.066a14.378 14.378 0 01-.831.493l-.365.2c-.124.068-.241.126-.362.186s-.244.118-.365.175c-.192.09-.384.173-.576.252-5.418 2.213-7.3-1.308-8.206-3a5.879 5.879 0 00-.359-.62 2.207 2.207 0 00-2.163-.965c-.1.008-.186.027-.277.044a1.717 1.717 0 012.372.381 1.48 1.48 0 01.1.151c.036.06.074.132.115.208.027.049.055.1.085.159l.033.06a.32.32 0 00.033.06c.022.038.047.082.069.126.047.085.1.175.151.269.025.047.052.1.082.143s.055.1.085.148.06.1.093.148l.1.154c.066.1.137.206.214.31q.054.078.115.156c.038.055.079.107.121.159a5.811 5.811 0 001.08 1.056l.115.082a4.292 4.292 0 00.417.266c.069.036.137.074.206.107s.143.069.214.1.165.071.25.1a4.278 4.278 0 00.414.132c.058.016.115.03.173.044a.332.332 0 00.049.014l.123.025a4.66 4.66 0 00.417.065l.082.008c.082.008.165.014.249.016s.189.008.288.008a8.435 8.435 0 003.183-.707c.162-.066.326-.137.491-.214a12.98 12.98 0 001.233-.638 5.74 5.74 0 00.236-.137h.005c.134-.08.269-.159.4-.244s.269-.167.4-.255a.01.01 0 00.005 0c.132-.088.263-.175.392-.263a25.95 25.95 0 001.763-1.308c.277-.219.551-.447.82-.677l.214-.186c.217-.186.433-.376.644-.568l.329-.3a53.133 53.133 0 001.399-1.34c.436-.436.847-.861 1.226-1.264.063-.069.126-.134.186-.2s.123-.132.181-.2.121-.129.178-.192c.115-.126.228-.25.334-.37l.159-.175c.17-.189.326-.37.474-.54.055-.063.11-.126.162-.189l.3-.345c.074-.085.14-.167.2-.241.033-.038.063-.074.09-.11l.159-.192.126-.156c.074-.09.126-.156.151-.189a.09.09 0 00.016-.022l.008-.008a1.148 1.148 0 01.99-.565c.041 0 .082.008.118.014a.864.864 0 01.118.019zm-29.206 13.709c-.112-.732-.255-1.579-.346-2.122a16.295 16.295 0 001.464.718l.315.137.049.019h.063a.986.986 0 00.666-.318 2.541 2.541 0 00.211-.233c.082-.1.165-.222.247-.351a17.213 17.213 0 001.434-3.438c.025-.08.047-.145.069-.206a1.7 1.7 0 01.844-.3 1.679 1.679 0 011.667.743 5.7 5.7 0 01.318.554c.7 1.316 2.141 4 5.511 4a9.023 9.023 0 003.389-.751 16.632 16.632 0 002.322-1.19 37.094 37.094 0 006.57-5.363c.153-.156.3-.31.455-.461l.436-.447.211-.222.6-.639c1.527-1.659 2.492-2.884 2.514-2.917a1.545 1.545 0 01.513-.469c.036.425.118 1.412.219 2.377.011.09.019.173.025.25a1.371 1.371 0 01-.222.957 5.635 5.635 0 01-.332.469 15.3 15.3 0 01-.463.565c-.071.088-.151.178-.236.274-.291.34-.653.746-1.091 1.245-.332.376-.707.8-1.132 1.286a36.555 36.555 0 01-6.871 5.692 1.455 1.455 0 00-.071.049l-.244.156-.033.025c-.011.005-.022.014-.036.022a.021.021 0 00-.011.005c-.011.005-.019.014-.03.019-3.828 2.465-8.182 4.45-11.316 4.22a10.583 10.583 0 01-6.229-2.24 3.988 3.988 0 01-1.428-2.112zM81.7 79.03c-.11.022-.184.03-.2.033l-.047.006a.1.1 0 00-.027 0h-.047l-.121.008c-.022 0-.047 0-.074.005-.074 0-.162.008-.255.014a7.438 7.438 0 01-1.371-.033.66.66 0 00-.548.2.786.786 0 00-.121.14c-.019.027-.038.058-.057.088s-.027.049-.041.077a2.805 2.805 0 00-.074.175l-.033.1c-.011.034-.027.1-.041.151a7.76 7.76 0 01-.069.291c-.049.195-.1.387-.162.576l-.044.143q-.066.21-.14.411c-.047.134-.1.263-.148.389l-.1.241c-.071.154-.14.3-.211.428a3.754 3.754 0 01-.107.184c-.2.332-.4.526-.573.507a.725.725 0 01-.535-.419 2.929 2.929 0 01-.123-1.928 6.008 6.008 0 01.186-.691 8.457 8.457 0 01.5-1.184.711.711 0 00-.055-.9.857.857 0 00-.76-.239c-.282.041-.822.244-1.267 1.149a7.939 7.939 0 00-.869 2.6 1.473 1.473 0 01-.557 1.015 1.11 1.11 0 01-.943.063 1.221 1.221 0 01-.735-.746 4.02 4.02 0 01.392-3.222 5.686 5.686 0 012.52-2.676.635.635 0 00.516-.757c-.082-.373-.516-.707-1.272-.557a5.132 5.132 0 00-2.454 1.023 3.36 3.36 0 01-.175.107 2.609 2.609 0 01-.3.145c-.11.044-.228.085-.351.121a2.646 2.646 0 01-.373.09 2.42 2.42 0 01-.132.022 2.48 2.48 0 01-.261.03 2.876 2.876 0 01-1.006-.085 1.577 1.577 0 01-.724-.409.632.632 0 01-.058-.063 1.3 1.3 0 01-.211-.329 1.652 1.652 0 01.274-1.514 5.513 5.513 0 014.486-2.276l.461-.008c2.547-.049 3.954-.077 4.491-.674a.942.942 0 00.228-.735 4.306 4.306 0 00-1.119-2.2c.6-.307 1.017-.573 1.064-.6l.9-.642c-.033.022-4.335 2.188-6.117 1.637a1.513 1.513 0 01-.987-.927 1.61 1.61 0 01-.014-1.478c.658-1.179 3.041-1.549 4.187-1.727l.28-.044a4.723 4.723 0 012.032.14 4.62 4.62 0 01.708.263 4.158 4.158 0 01.461.247 4.57 4.57 0 011.072.9 31.7 31.7 0 003.817 3.378l.348.274.11.26c.022.06.049.129.077.208s.058.162.088.255.066.214.1.332c.025.08.047.162.069.25s.044.175.066.271.044.189.063.291a10.453 10.453 0 01.005 4.179 4.479 4.479 0 01-2.629 3.37 16.53 16.53 0 01-.269.107l-.124.044c-.082.025-.156.049-.225.069a2.14 2.14 0 01-.223.059zm1.823 1.445h-.005c-.376.049-.463.06-.962-.356a3.885 3.885 0 01-.568-.6 5.079 5.079 0 003.732-4.025 10.562 10.562 0 00.231-2.614c0-.1-.008-.189-.014-.28 0-.063-.006-.123-.011-.184a10.208 10.208 0 00-.068-.622l-.016-.121c-.011-.063-.019-.123-.03-.184-.014-.09-.03-.178-.047-.263s-.033-.178-.052-.263a8.02 8.02 0 00-.1-.422c-.025-.1-.052-.186-.077-.274v-.014c-.014-.052-.03-.1-.044-.145l-.055-.181a5.824 5.824 0 00-.11-.315 2.466 2.466 0 00-.049-.134c.049.016.1.036.165.06l.154.063c.4.159 1 .4 1.121.661l.052.11.036.011a.761.761 0 01.06.1.944.944 0 01.052.093c.019.036.041.077.06.121.011.022.019.047.03.071l.033.077c.022.055.041.115.063.178l.033.1c.019.071.041.145.06.228s.033.143.049.222a.14.14 0 00.005.033c.016.091.033.186.049.291.005.049.014.1.019.148l.016.159c0 .019 0 .041.005.063q.016.2.025.419a12.684 12.684 0 01-.217 2.629 7.037 7.037 0 01-3.603 5.165zm20.523 14q-.8 1.254-1.511 2.5V77.901a20.526 20.526 0 001.511-1.475zM84.318 80.659c.088-.058.184-.121.285-.192a6.861 6.861 0 00.691-.565c.079-.074.162-.154.244-.236a7.134 7.134 0 00.494-.554 1.755 1.755 0 00.123-.156 1.88 1.88 0 00.123-.167c.041-.055.08-.11.118-.167s.08-.115.118-.175a8.385 8.385 0 00.325-.564c.031-.063.077-.145.112-.222s.068-.145.1-.217l.1-.225c.034-.077.052-.126.077-.192.036-.093.071-.186.1-.282a9.583 9.583 0 00.238-.839c.016-.071.033-.137.047-.208 0-.014.008-.03.011-.047v-.005c.016-.077.03-.154.044-.233a8.722 8.722 0 00-.178-4.864c.219.038.493.077.809.11a11.185 11.185 0 001.8.027c.1-.005.195-.014.3-.022.121-.011.241-.025.365-.038a12.33 12.33 0 001.036-.178c.176-.038.354-.08.532-.129.09-.025.184-.049.274-.08.063-.016.123-.036.184-.058s.107-.03.159-.049l.022-.008a25.373 25.373 0 00.556-.206c.011-.005.025-.008.036-.014.052-.022.107-.044.162-.069.1-.038.189-.082.285-.126l.214-.1c.071-.034.115-.058.173-.085 0 0 .008 0 .011-.005s.008 0 .011-.006c.107-.055.211-.112.318-.17s.23-.132.343-.2a9.686 9.686 0 00.658-.428c.189-.134.381-.277.57-.428a9.61 9.61 0 00.7-.614c.071-.066.143-.132.214-.2s.142-.137.211-.211c.186-.192.37-.392.551-.6a21.361 21.361 0 004.743-10.3 19.272 19.272 0 01.817-2.967l.066.058a57.893 57.893 0 00-.622 9.421c0 .263.005.529.014.8 0 .244.011.491.019.738.005.2.014.4.022.609.011.244.022.494.036.743.011.217.022.436.038.658.008.151.019.3.03.452l.033.474v.047c.016.181.03.365.047.546.019.214.038.428.06.644.022.241.047.488.074.735v.005a58.063 58.063 0 00.189 1.554c.03.219.06.439.093.661l.06.42c.041.263.082.529.129.8.041.247.082.5.129.749.052.3.11.592.167.891s.121.6.184.9c-7.634 9.124-17.704 6.18-19.972 5.359zm19.791-26.829a11.591 11.591 0 006.07 1.991c.173.011.348.019.529.019a11.232 11.232 0 002.827-.411h.013c4.656-1.231 10.309-4.974 13.756-8.056.134-.121.266-.239.392-.356l-.055.175a5.728 5.728 0 00-.1.365c-.016.06-.033.121-.047.184s-.025.1-.036.145l-.033.143c-.066.285-.118.565-.159.814q-.029.169-.049.313l-.036.266c-.005.038-.011.077-.014.11l-.019.145v.041a.323.323 0 00-.005.044.033.033 0 000 .016c0-.006 0-.014.005-.022s.008-.033.014-.052.011-.047.019-.074.019-.08.033-.129l.047-.175c.014-.047.028-.1.044-.151.025-.093.055-.195.088-.3l.107-.335a11.1 11.1 0 01.189-.532c.022-.06.044-.121.069-.181.11-.282.233-.554.354-.8l-.033.154-.055.3c-.049.3-.093.62-.118.935-.019.159-.03.315-.036.472a1.489 1.489 0 00-.008.156c-.014.208-.022.411-.019.609s-.008.387 0 .568.011.351.016.507c.008.315.036.576.047.759 0 .047.005.088.008.123l.008.09a.45.45 0 00.005.074v-.439c0-.165 0-.373.014-.609l.025-.5c.009-.176.03-.367.047-.562s.038-.395.069-.595.052-.409.093-.614a10.849 10.849 0 01.266-1.182 8.858 8.858 0 01.3-.877c.016-.036.03-.071.047-.107s.03-.071.044-.1l.044-.093.044-.09c.044-.088.085-.165.123-.233l.074-.121c.011-.019.022-.036.03-.052s.03-.044.041-.063.025-.033.033-.044a.376.376 0 00.03-.038c.422-.483.8-.9 1.127-1.28.8-.908 1.352-1.533 1.727-2.007q.115-.144.206-.271c.093-.126.173-.241.239-.351l.063-.1c.334-.115 2.021-.485 4.8 2.333a14.729 14.729 0 0010.479 4.658 13.346 13.346 0 002.629-.266c.011.047.025.1.038.145l.041.148a.973.973 0 00.025.071.492.492 0 00.022.069c.027.093.055.181.079.266s.047.165.066.241a2.3 2.3 0 01-.112 1.974 2.243 2.243 0 00-.252.661 3.8 3.8 0 00.019 1.409c.025.115.052.236.088.359s.079.247.129.376.112.258.181.389.148.263.236.4c.033.049.068.1.1.151.055.074.112.151.175.225l.129.151.068.074.044.049a.612.612 0 01.041.047c.027.036.052.066.071.1a.882.882 0 01.1.175 1.021 1.021 0 01.047.584c-.014.082-.03.173-.049.271-.025.129-.052.266-.074.419a2.993 2.993 0 00-.03.445 3.307 3.307 0 00.049.57q.025.128.057.263c.025.09.052.186.085.282a5.158 5.158 0 00.26.631l.137.277c.088.181.173.351.252.51s.156.31.23.447a5.48 5.48 0 00.441.713c-1.141.532-5.24 2.018-11.79-.195a30.89 30.89 0 01-4.25-1.785c-.17-.09-.337-.178-.5-.266s-.321-.178-.474-.266c-.269-.156-.526-.31-.773-.463s-.477-.307-.7-.455a18.209 18.209 0 01-1.988-1.557 10.064 10.064 0 01-1.538-1.683.049.049 0 00-.011-.014 2.206 2.206 0 00.126.239c.027.041.055.088.085.14a12.224 12.224 0 003.172 3.271 26.317 26.317 0 01-.965-.381c-.373-.159-.74-.324-1.083-.488s-.652-.332-.918-.477c-.132-.077-.25-.148-.356-.211s-.195-.123-.271-.17-.148-.1-.186-.123l-.03-.019c.03.027.1.082.2.162.071.052.154.123.255.195l.343.239c.252.17.551.365.883.559s.685.392 1.045.581a32.77 32.77 0 002.917 1.338 24.793 24.793 0 003.309 1.6 71.381 71.381 0 01.965 17.847 8.388 8.388 0 01-1.779 1.914 1.443 1.443 0 00-.005-.176c0-.027 0-.058-.008-.088a1.127 1.127 0 00-.038-.2.88.88 0 00-.033-.1.708.708 0 00-.027-.071.509.509 0 00-.033-.069c-.011-.022-.025-.044-.038-.066a.269.269 0 00-.03-.047.85.85 0 00-.192-.192 7.051 7.051 0 00-2.81-.378 1.009 1.009 0 00-.134.016.024.024 0 00-.019 0 .532.532 0 00-.107.019l-4.562 2.188a1 1 0 00-.71 1.152c.006.052.017.134.027.241 0 .038.008.077.011.118.088.913.211 1.826.362 2.736a28.212 28.212 0 01-12.481 1.988h-.008a20.413 20.413 0 01-3.57-.568c-4.971-1.28-7.016-3.562-7.25-3.836-5.186-13.348-3.514-26.819-3.116-29.432zm36.905 25.324l.052-.077a1.26 1.26 0 01.044-.066.879.879 0 01.507.219 1.97 1.97 0 01-.041.1 1.778 1.778 0 01-.091.17l-.036.06-.041.066c-.038.06-.085.129-.137.2a.4.4 0 00-.025.036.088.088 0 00-.014.019 1.388 1.388 0 00-.055.069 5.852 5.852 0 01-.5.535 1.781 1.781 0 01-.148.14 15.139 15.139 0 01-1.264 1.04c-.044.033-.088.063-.129.093l-.118.085a28.467 28.467 0 01-.058-.611c.1-.077.187-.154.277-.23l.2-.173c.019-.014.036-.03.055-.047.126-.112.244-.219.354-.324l.09-.085c.09-.085.173-.17.252-.25.156-.159.291-.307.406-.439.038-.044.077-.088.11-.129s.066-.08.1-.118.06-.071.085-.107c.062-.061.111-.121.147-.176zm-2.917.806l-3.926 2.185a.608.608 0 00-.354-.219c-.014 0-.384-.044-1.678-.107a10.692 10.692 0 00-.861-.008l4.321-2.07a7.955 7.955 0 012.52.219zm-7.441 6.249c.036.206.077.409.115.614-.123.069-.258.134-.4.2s-.288.129-.444.192l-.208.082c-.047.016-.088.036-.134.052h-.006q-.148.058-.3.107c-.066.025-.129.044-.2.069h-.011l-.052.016-.214.066-.247.074c-.17.049-.34.1-.518.143-.2.052-.408.1-.622.154-.107.025-.214.047-.323.071a32.94 32.94 0 01-1.363.258c-.471.077-.957.143-1.456.2h-.005c-.25.027-.5.055-.757.077s-.005 0-.005 0c-.762.071-1.546.118-2.339.14h-.005c-.521.014-1.047.014-1.574 0-.129 0-.26-.005-.389-.011q-.275-.008-.551-.025c-.027 0-.055-.005-.082-.005-.176-.008-.348-.022-.524-.036h-.019l-.055-.005c-.148-.011-.3-.025-.45-.038a2.363 2.363 0 00-.121-.011c-.173-.019-.348-.036-.521-.058q-.284-.033-.568-.074c-.189-.027-.376-.058-.562-.088-.293-.049-.581-.1-.866-.164-.11-.022-.219-.047-.326-.071a1.3 1.3 0 01-.14-.033c-.09-.019-.184-.044-.274-.066l-.022-.005c-.039-.008-.077-.019-.115-.03a7.699 7.699 0 01-.291-.077l-.049-.014a.524.524 0 01-.06-.019 17.53 17.53 0 01-1.13-.365c-.217-.08-.425-.162-.628-.241-.1-.038-.2-.077-.3-.118-.121-.049-.239-.1-.354-.145s-.228-.1-.337-.143a21.976 21.976 0 01-1.459-.686c-.175-.088-.34-.178-.494-.266-.077-.041-.153-.085-.225-.126s-.143-.085-.208-.126a11.017 11.017 0 01-.704-.468c-.049-.038-.115-.085-.167-.126s-.1-.082-.151-.121a3.98 3.98 0 01-.622-.617.804.804 0 01-.044-.058 2.159 2.159 0 01-.14-.211c-.016-.03-.03-.055-.041-.079a.813.813 0 01.228-.422c.033.041.093.112.187.211.044.049.1.1.159.164.033.033.068.066.107.1l.184.173c.066.061.118.1.181.156q.07.062.148.123c.1.088.217.178.34.269s.241.181.376.274.3.206.469.31c.08.052.162.1.247.154.195.118.4.236.622.356.09.052.186.1.282.151h.006c.011.005.016.011.027.016a18.69 18.69 0 001.99.877c.266.1.546.195.833.291.145.047.293.093.444.137s.288.085.436.126c.164.047.332.093.5.137a22.4 22.4 0 005.555.65c.247 0 .5 0 .743-.011.494-.014.987-.041 1.481-.077.329-.027.655-.058.982-.093h.005l.472-.055c.211-.027.422-.055.63-.085s.417-.063.623-.1c.167-.027.334-.058.5-.088.063-.011.126-.022.189-.036.178-.033.354-.069.526-.1.455-.1.9-.2 1.335-.313a18.952 18.952 0 00.954-.269c.4-.118.79-.244 1.16-.378l.321-.115c.304-.103.576-.21.836-.323zm-26.061 7.43V76.502a51.4 51.4 0 002 6.542 1.3 1.3 0 00-.491 1.434c.228.672 1.368 4.211 1.609 4.963a51.374 51.374 0 00-3.097 4.198zm27.158-2.819l-.082.047c-.093.052-.211.118-.354.189l-.318.159c-.058.03-.121.058-.184.088-.126.06-.263.123-.411.186s-.307.134-.477.2c-.085.036-.17.069-.26.1-.178.071-.365.14-.562.211s-.4.143-.617.211a23.668 23.668 0 01-2.163.585c-.1.022-.208.044-.315.063l-.162.033c-.208.041-.422.077-.642.112s-.436.066-.664.1-.43.052-.65.071c-.112.011-.222.022-.334.03-.337.027-.68.047-1.031.06-.269.011-.546.014-.828.011h-.008q-.239 0-.485-.008h-.112c-.093 0-.186-.005-.277-.011-.189-.008-.378-.022-.57-.036a.077.077 0 01-.025 0 12.517 12.517 0 01-.334-.027q-.93-.082-1.9-.26c-.025-.005-.052-.008-.077-.014l-.6-.115a12.456 12.456 0 01-.376-.077l-.077-.016a13.257 13.257 0 01-.507-.107c-.11-.025-.219-.047-.323-.071-.3-.066-.578-.134-.853-.2a.08.08 0 01-.025-.006 31.842 31.842 0 01-1.321-.354c-.315-.09-.614-.184-.9-.274l-.252-.082c-.2-.066-.389-.132-.573-.2a.236.236 0 01-.041-.014 20.841 20.841 0 01-1.206-.48l-.156-.069c-.1-.044-.2-.09-.293-.134-.17-.079-.329-.156-.474-.233l-.137-.071a.213.213 0 00-.033-.019c-.057-.03-.11-.058-.162-.088s-.1-.058-.151-.085l-.14-.082a10.415 10.415 0 01-.334-.211c-.066-.044-.126-.088-.184-.126-.027-.019-.055-.038-.08-.058a4.024 4.024 0 01-.2-.156 2.811 2.811 0 01-.252-.225 820.795 820.795 0 00-1.513-4.678c.082.09.178.189.293.293.055.049.112.1.173.151.03.027.066.055.1.082s.069.055.1.082q.16.128.354.263l.165.11.219.143c.036.022.071.047.11.069.077.049.159.1.244.148l.17.1c.118.069.241.134.37.2l.173.093a23.335 23.335 0 001.012.494h.005c.3.14.636.282.99.43l.5.2q.156.062.321.123c.1.041.211.08.318.121.291.11.589.208.9.3s.62.175.938.255.644.148.976.211c.17.033.34.063.513.09.1.019.2.036.307.049s.219.033.329.047c.176.025.351.047.526.069s.354.041.535.058.357.033.535.047q.23.021.461.033l.079.005c.189.011.379.022.568.027.074 0 .145.008.219.008s.145.005.219.005c.115.006.233.008.351.008.173.006.348.006.524.006h.041c.167 0 .332 0 .5-.006s.329-.005.5-.011c.255-.008.51-.016.762-.033.195-.008.389-.019.581-.033a.1.1 0 01.027 0c.121-.008.241-.016.362-.027l.384-.033c.129-.011.258-.025.384-.038q.374-.037.74-.082a.016.016 0 00.011 0c.247-.03.491-.066.732-.1.121-.016.241-.036.359-.055.178-.027.354-.06.526-.09s.346-.063.513-.1c.112-.022.222-.044.332-.069s.219-.047.326-.071l.318-.074.386-.1.28-.074c.178-.049.354-.1.521-.151.093-.03.184-.058.274-.088q.271-.09.518-.181t.477-.189l.167-.074q.164-.074.313-.148l.148-.077c.06.3.126.609.195.91 0 .016.008.033.011.049.069.3.14.6.217.9s.156.62.241.93l.132.461c.044.156.088.31.134.463zm5.188 5.327c-.019 0-1.826-.112-2.336-.178-.365-.049-.584-.5-.584-.5-.088-.206-.176-.411-.258-.617-.022-.049-.041-.1-.06-.148a.014.014 0 01-.006-.011c-.1-.236-.189-.472-.282-.707l-.049-.132c-.09-.233-.178-.469-.263-.7-.1-.26-.186-.518-.274-.779a25.57 25.57 0 01-.241-.724c-.025-.079-.052-.159-.077-.241-.058-.178-.112-.359-.167-.537l-.049-.165-.2-.683c-.074-.26-.145-.521-.211-.784a.079.079 0 01-.008-.027c-.066-.25-.129-.5-.187-.749-.049-.206-.1-.409-.143-.614q-.037-.148-.066-.3l-.063-.3c-.008-.036-.016-.071-.022-.11-.033-.148-.063-.3-.091-.447l-.008-.041c-.041-.211-.079-.419-.118-.631-.047-.255-.088-.51-.129-.765q-.128-.8-.222-1.6c-.033-.266-.06-.532-.088-.8 0-.044-.008-.085-.011-.123l-.011-.107-.008-.082-.008-.069a.526.526 0 01.052-.345 6.509 6.509 0 011.371-.041c1.278.06 1.653.1 1.656.1s.288.055.313.543a70.909 70.909 0 003.164 13.38 1.621 1.621 0 01-.295.035zm2.86-6.866c.016.077.036.154.055.23.036.145.071.285.1.422.008.027.017.055.022.082l.077.3a.917.917 0 01.019.08l.055.208c.017.068.038.14.055.206l.085.31q.1.378.2.716l.071.247c0 .008 0 .014.005.019.027.1.057.195.085.288l.044.148q.037.115.066.222c.005.014.008.027.014.038l.069.217c.077.236.14.417.186.537a.5.5 0 00.019.049.683.683 0 00.044.1.181.181 0 01.036.132.282.282 0 01-.124.129l-.027.014c-.027.019-2.83 1.779-3.249 2a1.729 1.729 0 01-.184.077 73.262 73.262 0 01-.754-2.399q-.127-.428-.247-.847c-.044-.156-.088-.31-.129-.461s-.085-.3-.126-.452l-.239-.883c-.2-.77-.381-1.5-.543-2.188a64.35 64.35 0 01-.208-.916c-.164-.749-.3-1.434-.422-2.043-.025-.132-.047-.258-.071-.381-.027-.154-.055-.3-.079-.444-.014-.071-.025-.143-.036-.211s-.025-.134-.036-.2c-.022-.132-.044-.255-.063-.376a32.405 32.405 0 01-.118-.8c-.011-.069-.019-.134-.028-.195l-.016-.126a.837.837 0 00-.011-.088c-.005-.06-.014-.118-.016-.164s-.005-.06-.008-.085-.005-.049-.005-.069a1.218 1.218 0 00-.068-.34l4-2.226a.739.739 0 01.041.154.155.155 0 01.008.049.311.311 0 01.005.047.26.26 0 010 .047v.038a.31.31 0 010 .071v.038c.011.162.022.324.036.485.014.186.03.373.047.562s.036.356.055.535a34.82 34.82 0 00.214 1.629c.025.184.055.365.085.546s.057.365.09.546.063.362.1.543l.049.269c.03.17.063.337.1.5s.066.332.1.5c.134.658.274 1.3.417 1.908q.049.214.1.419c.035.082.054.161.073.236zm-.165-3.348c-.03-.156-.06-.313-.088-.469-.058-.315-.112-.631-.167-.946l-.077-.477q-.074-.473-.14-.946t-.115-.938a12.574 12.574 0 002.446-2.169c.033-.047.063-.088.091-.132s.055-.082.077-.121.047-.074.066-.11l.055-.1a.628.628 0 01.03.11c.049.389.082.949.115 1.492l.033.546c.005.071.011.14.014.208l.033.409c.011.127.022.217.033.313a3.105 3.105 0 00.058.326c.178.651-1.511 2.194-2.443 3.005zm2.868-2.322a1.892 1.892 0 00.1-.244 1.463 1.463 0 00.038-.148.728.728 0 00.014-.107.642.642 0 00.005-.1 1.012 1.012 0 00-.025-.208 5.7 5.7 0 01-.09-.713c-.027-.3-.049-.65-.069-1a57.52 57.52 0 00-.082-1.195 8.055 8.055 0 00-.036-.335.222.222 0 01-.008-.041v-.005a1.536 1.536 0 00-.047-.208c-.014-.038-.027-.077-.044-.112l-.049-.1c-.016-.031-.036-.058-.052-.085a1.06 1.06 0 00-.143-.167 1.187 1.187 0 00-.159-.132.889.889 0 00-.085-.052 1.797 1.797 0 00-.164-.083 1.617 1.617 0 00-.345-.1 50.765 50.765 0 00.2-5.226c0-.184 0-.365-.008-.543q-.012-.851-.049-1.675c-.005-.151-.014-.3-.022-.45l-.033-.628a70.383 70.383 0 00-.214-2.813c-.014-.154-.027-.307-.044-.458-.03-.3-.06-.587-.093-.869a74.825 74.825 0 00-.423-3.241c-.014-.1-.03-.189-.044-.277-.027-.181-.055-.348-.079-.5a1.244 1.244 0 00-.019-.112l-.06-.359c-.019-.11-.033-.208-.049-.293.3.112.609.222.93.332.156.052.3.1.458.145l1.507 23.371a9.886 9.886 0 00-.696-1.268zm1.563 3.66c-.022-.077-.041-.154-.063-.23a14.862 14.862 0 00-.48-1.415l-1.53-24.029a20.96 20.96 0 006.128.99 15.137 15.137 0 002.037-.134l.025.606c.022.474.041.943.058 1.4.022.513.044 1.017.063 1.516.016.376.033.749.047 1.119.008.184.016.367.022.548.033.814.066 1.6.093 2.372.005.06.005.123.008.184q.066 1.649.121 3.153c.008.249.019.5.027.74l.055 1.489c0 .107.008.214.011.318.011.282.022.562.03.836s.019.543.027.806c.005.132.011.263.014.392s.008.26.014.387c.011.321.022.633.03.94s.019.606.027.9c.014.389.025.762.033 1.124s.022.707.03 1.039c0 .085.005.17.005.252.005.162.008.318.014.474 0 .077 0 .154.006.23.005.3.014.6.019.875s.008.54.014.79a.876.876 0 01-.005.093c0 .027-.008.06-.014.1l-.016.1c-.005.037-.017.074-.025.112a1.816 1.816 0 01-.285.639c-.016.022-.03.041-.046.06s-.036.038-.055.058-.06.06-.093.088a1.189 1.189 0 01-.112.079.76.76 0 01-.079.047 1.147 1.147 0 01-.395.115c-1.133.134-4.793.693-5.739.838zm11.4 20.523a3.173 3.173 0 01-1.549 1.012 2.158 2.158 0 00-1.286.658 4.129 4.129 0 00-1.346.074 3.756 3.756 0 00-.532-.206 10.18 10.18 0 01-4.37-5.393 10.938 10.938 0 00-2.106-4.22 6.145 6.145 0 00-.3-1.963 21.834 21.834 0 00.7-5.432 18.575 18.575 0 00-.477-4.519c1.012-.156 4.563-.7 5.681-.825a2 2 0 001.618-2.034c-.066-4.017-.335-11.612-.8-22.576a10.285 10.285 0 002.909-.91 2.917 2.917 0 001.853.546zm7.376-61.68c-.06.016-.121.033-.186.047a3.993 3.993 0 01-.274.058 8.347 8.347 0 01-.408.058 5.663 5.663 0 01-.236.027q-.247.021-.518.033c-.074 0-.145.005-.214.011s-.14.008-.208.014h-.049c-.126.008-.25.019-.367.03-.1.008-.189.019-.28.027s-.2.025-.3.038l-.178.025c-.049.008-.1.014-.145.022s-.1.014-.14.022a.418.418 0 01-.058.011c-.055.011-.11.019-.162.03s-.107.019-.156.03l-.274.058a.167.167 0 01-.019.005c-.186.044-.356.088-.513.132a5.835 5.835 0 00-.324.1l-.1.033-.033.011-.181.066c-.066.027-.129.049-.184.074l-.06.027c-.121.052-.208.1-.263.126a11.557 11.557 0 00-2.632.946l1.13-.154c.12-.027.247-.052.378-.077q.292-.053.609-.1c.074-.008.145-.019.219-.027l.436-.049h.005l.45-.041c.156-.011.315-.019.472-.027s.31-.014.466-.019.321-.005.483-.005h.011c.132 0 .261 0 .392.005l.266.008c.112 0 .222.008.334.016.055 0 .11.005.165.011.11.005.219.014.326.025l.219.025h.014a10.81 10.81 0 01.625.087c.082.014.162.027.239.044q.14.025.271.058a5.94 5.94 0 01.433.116 4.45 4.45 0 01.458.162c.036.014.068.027.1.044s.077.036.115.055a2.113 2.113 0 01.291.165.585.585 0 01.085.058.966.966 0 01.085.063 1.27 1.27 0 01.11.1 1.16 1.16 0 01.1.1 1.073 1.073 0 01.148.214 1.09 1.09 0 01.088.233 1 1 0 01.033.258.881.881 0 01-.011.148v.016a.816.816 0 01-.03.143.85.85 0 01-.044.143 1.472 1.472 0 01-.233.392 1.091 1.091 0 01-.107.118 1.464 1.464 0 01-.115.11l-.027.025a3 3 0 01-.252.189 1.824 1.824 0 01-.153.1 1.56 1.56 0 01-.162.09.365.365 0 01-.055.03l-.052.025c-.03.016-.06.03-.09.044-.049.025-.1.047-.151.069a6.646 6.646 0 01-.776.277c-.09.027-.181.052-.274.077s-.181.047-.274.066-.173.041-.26.058h-.016c-.09.019-.181.036-.274.052l-.266.044-.178.025c-.06.008-.118.016-.176.022s-.115.014-.17.019l-.165.016-.112.008-.11.008c-.033 0-.063.005-.093.005a.265.265 0 01-.047 0 4.122 4.122 0 01-.241.008 10.606 10.606 0 00-3.457.688l-.916.31h.025l.071-.008a3.928 3.928 0 011.505.038 1.137 1.137 0 00.005.324c-.06.008-.126.016-.192.03l-.044.008c-.074.014-.151.03-.228.049l-.025.005c-.066.016-.129.036-.195.055a3.89 3.89 0 00-.151.052 3.127 3.127 0 00-.335.132c-.06.027-.121.055-.181.085a2.65 2.65 0 00-.46.288c-.017.014-.033.03-.049.041l-.047.041c.052-.016.107-.03.156-.044l.154-.041.082-.019c.1-.022.189-.044.282-.063.214-.044.414-.077.609-.1.126-.016.252-.03.373-.041h.049c.06-.005.118-.008.176-.011h.038l.211-.008c.206-.008.406-.008.6-.008.3 0 .6 0 .9-.005l.238-.005c.14 0 .282-.008.428-.014.274-.011.559-.027.869-.055.09-.008.184-.016.28-.027s.2-.019.307-.033h.025c.17-.022.335-.036.5-.044a.112.112 0 01.03 0 7.746 7.746 0 01.859-.006c.041.005.082.005.123.008h.008a.01.01 0 01.008 0c.049 0 .1.005.145.011s.093.008.14.014c.1.014.192.027.285.044h.019c.082.016.159.033.236.052.006 0 .014 0 .022.005q.1.025.2.058a1.772 1.772 0 01.181.066.777.777 0 01.085.036l.121.058.11.058c0 .005.005.005.008.005a1 1 0 01.088.06c.036.025.068.047.1.074l.09.079a.358.358 0 01.044.047.316.316 0 01.041.044 1.023 1.023 0 01.085.115.546.546 0 01.06.1.617.617 0 01.041.088.955.955 0 01.036.093 1.044 1.044 0 01.033.14 1.222 1.222 0 01.016.154 1.171 1.171 0 010 .241c0 .022-.005.041-.008.063s-.008.041-.014.063a.6.6 0 01-.022.066c-.005.016-.014.036-.022.055 0 0 0 .005-.005.008a.483.483 0 01-.033.063.927.927 0 01-.1.129.428.428 0 01-.06.063 1.528 1.528 0 01-.137.115q-.078.058-.173.115c-.033.016-.066.036-.1.055s-.071.036-.11.052-.08.036-.121.052-.085.036-.132.052l-.118.041c-.071.025-.151.049-.233.071s-.167.047-.261.069l-.192.041c-.17.036-.354.069-.557.1-.063.008-.129.019-.195.027l-.419.049c-.173.016-.354.033-.546.047-.1.008-.192.014-.293.019l-.31.016c-.11.005-.214.011-.326.014l-.34.008c-.233.005-.474.008-.729.008a7.093 7.093 0 00-2.945.6l-.8.343a12.679 12.679 0 011.459-.019v.14c0 .047.005.063.008.1a.867.867 0 00.011.088c.005.038.014.074.022.11a1.256 1.256 0 00.038.123.557.557 0 00.027.071.686.686 0 00.03.066c-.1 0-.2 0-.3-.005-.066 0-.132-.008-.192-.016h-.005a1.631 1.631 0 01-.167-.025l-.027-.008a1.339 1.339 0 01-.151-.038.618.618 0 01-.077-.027.835.835 0 01-.123-.055 1.241 1.241 0 00.14.156 1.615 1.615 0 00.126.1c.014.008.028.019.044.03a1.225 1.225 0 00.129.077c.044.025.09.047.137.069s.1.041.145.058.1.033.159.049.11.027.165.038l.137.025h.019a1.078 1.078 0 00.131.016.005.005 0 00.008 0 .713.713 0 00.08.008l.077.005c.08.005.162.008.244.008a5.17 5.17 0 00.606-.038c.288-.036.581-.071.877-.1l.181-.016.211-.016.241-.016c.063-.005.126-.008.192-.011l.121-.008h.022a3.778 3.778 0 012.407.444.752.752 0 01.2.269.886.886 0 01.071.34.091.091 0 010 .027.288.288 0 010 .069.584.584 0 01-.033.132.56.56 0 01-.063.129.9.9 0 01-.091.126l-.058.063a1.225 1.225 0 01-.2.173 1.952 1.952 0 01-.241.162 2.758 2.758 0 01-.282.151 4.913 4.913 0 01-.5.2c-.055.022-.113.041-.173.06s-.107.036-.162.052l-.219.066a10.09 10.09 0 01-.747.184c-.091.019-.181.038-.271.055l-.052.011-.159.027c-.1.019-.211.036-.318.055l-.321.047c-.11.016-.217.03-.324.041-.082.011-.164.022-.247.027-.162.019-.321.033-.477.047q-.2.016-.395.025a.181.181 0 01-.038 0 .168.168 0 00-.038 0c-.085 0-.164.008-.244.008a.181.181 0 01-.038 0c-.126 0-.249.005-.367.005-1.971 0-2.147-.356-3.117-2.339l-.134-.277a3.073 3.073 0 01-.3-2.265c.008-.052.019-.1.03-.156.017-.1.033-.192.041-.288a1.732 1.732 0 00.008-.239.5.5 0 000-.063c0-.036-.008-.074-.014-.112s-.016-.074-.025-.112-.019-.066-.03-.1a1.238 1.238 0 00-.107-.234c-.019-.034-.041-.069-.063-.1s-.066-.1-.1-.143-.08-.1-.126-.148-.08-.088-.118-.132a4.387 4.387 0 01-.411-.573 3.8 3.8 0 01-.181-.343 3.321 3.321 0 01-.17-.444 3.745 3.745 0 01-.118-.51.264.264 0 01-.005-.047l-.016-.126a2.363 2.363 0 01-.011-.121 3.131 3.131 0 01-.005-.315v-.102q.008-.107.016-.189c0-.019.006-.036.008-.055.005-.041.011-.074.016-.1a1.067 1.067 0 01.033-.134 1.739 1.739 0 01.1-.247l.066-.126c.022-.044.039-.074.055-.112a.431.431 0 00.03-.06.6.6 0 00.03-.06c.019-.038.038-.082.055-.123a1.1 1.1 0 00.049-.134.574.574 0 00.022-.074 1.348 1.348 0 00.038-.156 2.34 2.34 0 00.027-.17 5.21 5.21 0 00-.351-2.147 3.644 3.644 0 01-.058-.2l-.016-.069a2.568 2.568 0 01-.066-.4v-.036a2.96 2.96 0 01-.005-.348v-.043c.005-.047.008-.093.014-.14s.011-.1.019-.154.016-.1.027-.151.025-.115.041-.173l.014-.047.041-.134a.19.19 0 01.008-.022c.011-.03.019-.058.03-.085.022-.055.044-.11.069-.164s.047-.107.074-.162l.014-.025q.045-.09.1-.181c.88-1.511 2.961-2.7 5.714-3.252a12.67 12.67 0 014.058-.219l.112.016c.08.008.156.022.233.036l.208.036c.112.025.225.047.332.071.06.016.121.033.178.047s.112.03.164.047l.162.049c.052.016.1.033.151.052s.1.033.148.052c.069.027.134.052.2.082a3.921 3.921 0 01.48.241c.038.022.074.041.107.063a3.016 3.016 0 01.285.2 2.067 2.067 0 01.34.332.721.721 0 01.082.112.974.974 0 01.066.11.7.7 0 01.041.093c0 .005 0 .011.005.016a.952.952 0 01.033.11.662.662 0 01.008.071.165.165 0 010 .036 2.651 2.651 0 01-.019.439l-.016.085a1.179 1.179 0 01-.038.164.008.008 0 000 .005 1.312 1.312 0 01-.06.165.01.01 0 010 .006 1.287 1.287 0 01-.08.162 1.723 1.723 0 01-.118.17 1.789 1.789 0 01-.14.156 2.273 2.273 0 01-.143.123l-.077.058a.809.809 0 01-.079.055c-.044.027-.088.055-.134.08l-.148.077c-.048.025-.107.049-.162.071s-.115.047-.178.069a2.919 2.919 0 01-.283.087zm.192.507v1.127a10.529 10.529 0 00-3.882-.625 13.75 13.75 0 012.092-.239h.014c.129-.005.255-.014.376-.025s.236-.019.348-.033l.033-.006c.1-.011.2-.025.3-.041.022 0 .041-.008.063-.011l.263-.049.038-.008.025-.005c.134-.026.246-.054.346-.084zm0 6.572a6.452 6.452 0 00-3-.228c-.389.047-.74.077-1.069.1v-.658h.063a10.088 10.088 0 004-.91m-4.617.946v.65l-.452.014c-.192.005-.384.008-.578.016s-.387.019-.587.036a.607.607 0 01.022-.348.8.8 0 01.033-.1 10.5 10.5 0 011.588-.274zm-2.95 69.544v-.071m0 .071v-.071m0 .071v-.071m0 .071v-.071m0 .071v-.071m0 .071v-.071m0 .071v-.071m0 .071v-.071m0 .071v-.071m0 .071v-.071m0 .071v-.071m0 .071v-.071m0 .071v-.071" />
            <path d="M126.639 75.591a3.574 3.574 0 01-.049-.159 1.602 1.602 0 01-.033-.112c-.005-.019-.014-.044-.019-.066l-.027-.1c-.027-.1-.06-.217-.093-.351-.025-.088-.049-.184-.074-.285s-.055-.211-.082-.326-.052-.208-.079-.321-.058-.228-.085-.351c-.1-.425-.214-.91-.332-1.448-.033-.154-.068-.31-.1-.472a96.584 96.584 0 01-.76-3.918l-.107-.636a89.713 89.713 0 01-.866-6.712 2.3 2.3 0 00-.016-.411c0-.03-.008-.063-.014-.093s-.014-.063-.019-.093a2.512 2.512 0 00-.055-.173.96.96 0 00-.123-.222.558.558 0 00-.055-.06.523.523 0 00-.148-.107l-.049-.022a.6.6 0 00-.164-.033c-.244-.016-2.4.154-5.922.433l-.343-1.582a.311.311 0 00-.014-.049.01.01 0 010-.006.35.35 0 00-.066-.09.259.259 0 00-.044-.033.269.269 0 00-.189-.033.092.092 0 00-.027 0 16.057 16.057 0 01-1.256.299c-.3.058-.584.1-.855.14a12.755 12.755 0 01-2.383.118.286.286 0 00-.228.1.272.272 0 00-.057.244l.315 1.3-.557.044-.529.041c-.17.011-.334.025-.494.036l-.461.033a4.646 4.646 0 00-.383.039c-.027.005-.057.008-.085.014a1.974 1.974 0 00-.178.033c-.03.005-.06.011-.091.019a1.643 1.643 0 00-.175.049 1.153 1.153 0 00-.228.093l-3.027 1.692a1 1 0 00-.461 1.05 1.363 1.363 0 00.025.173c0 .011.005.022.008.036l.019.107c.006.027.011.055.016.088l.014.077.049.28q.234 1.312.464 2.522c.074.406.151.8.225 1.187.033.17.063.337.1.5.041.208.08.414.121.614.121.609.239 1.2.354 1.755a121.862 121.862 0 00.888 4.003c.03.134.063.266.1.395.063.258.126.51.189.749.03.121.06.241.093.356.044.173.09.343.137.507s.09.324.134.48c.148.515.291.973.431 1.379.036.129.225.587 1.119.823l.09.022a17.942 17.942 0 003.795.282 78.838 78.838 0 008.746-.589l.1-.008c.049-.008.118-.016.195-.033.038-.008.079-.016.123-.027s.088-.025.134-.038a2.14 2.14 0 00.346-.143l.071-.041a.083.083 0 01.022-.011.059.059 0 01.022-.014c.047-.03.112-.074.187-.126l.079-.058c.085-.06.178-.129.28-.2l.1-.077c.071-.052.148-.107.222-.165l.354-.263a266.91 266.91 0 001.541-1.173.876.876 0 00.211-.315.693.693 0 00-.008-.565zm-14.123-16.706a15.305 15.305 0 004.031-.513l.266 1.228-.518.041-1.552.123c-.68.055-1.346.107-1.977.156l-.252-1.036zm-6.367 3.778a.207.207 0 01.019-.033c.005-.008.014-.016.019-.025a.064.064 0 01.019-.019.039.039 0 01.016-.019.1.1 0 01.027-.019s0-.005.005-.005l3.041-1.7a2.93 2.93 0 01.91-.181 841.4 841.4 0 006.709-.518c2.432-.195 4.93-.392 5.917-.452-.836.589-2.454 1.73-2.766 1.941a.732.732 0 01-.077.047c-.055.03-.113.055-.17.079a2.4 2.4 0 01-.373.11.537.537 0 01-.09.019c-.088.016-.167.03-.233.038l-.052.008-.091.008a.243.243 0 00-.036 0l-.491.058c-.165.019-.329.038-.494.055s-.332.036-.5.052l-.378.038c-.263.025-.526.049-.79.071-.354.03-.707.06-1.058.088l-.779.058c-.269.019-.535.036-.8.052-.14.011-.277.016-.414.027h-.052l-.326.019-.642.036-.178.008c-.151.008-.3.016-.447.022s-.313.016-.463.022l-.439.019c-.145.005-.288.014-.428.019l-.208.008-.408.014c-.132.005-.263.011-.392.014l-.376.014c-.063 0-.123 0-.184.006-.178.005-.354.008-.521.014l-.324.008-.3.008-.417.008-.25.005c-.132 0-.25 0-.359.005h-.392a.155.155 0 01.015-.025zm.066 1.1c-.055-.307-.09-.513-.107-.595a.925.925 0 01-.022-.2c1.365-.016 7.617-.115 12.884-.759a.227.227 0 00.036 0l.115-.011a9.1 9.1 0 00.228-.033l.217-.047c0 .019.005.044.011.069l.121.8c.005.044.014.09.022.137l.074.463c.28 1.714.806 4.628 1.6 7.921.1.422.208.855.321 1.289s.228.877.348 1.319.247.888.375 1.335c.26.891.54 1.788.836 2.676a1.977 1.977 0 01-.666.178c-9.034 1.028-11.954.43-12.448.3-.622-.165-.727-.425-.727-.425l-.011-.038a115.011 115.011 0 01-3.208-14.377zM126.115 76a.171.171 0 01-.025.033.1.1 0 01-.011.014c-.181.14-.447.343-.743.568-.236.178-.493.373-.74.562l-.365.271c-.293.217-.551.406-.721.526-.148-.444-.293-.894-.433-1.343s-.274-.9-.4-1.346-.255-.9-.376-1.341-.238-.886-.345-1.322a8.399 8.399 0 01-.1-.409 88.697 88.697 0 01-.647-2.752c-.091-.4-.176-.8-.252-1.176a113.283 113.283 0 01-.68-3.529c-.052-.282-.1-.548-.137-.8a28.43 28.43 0 01-.112-.681l-.047-.293c-.014-.093-.03-.178-.041-.26a18.353 18.353 0 01-.1-.685 2.154 2.154 0 00.2-.082 1.729 1.729 0 00.187-.107l.085-.058c.052-.038.118-.082.195-.134l.164-.115.189-.132c.033-.025.066-.047.1-.071l.217-.154.23-.159.239-.167c.121-.085.244-.17.362-.255.079-.058.159-.112.236-.167.118-.082.233-.165.34-.241.071-.052.143-.1.211-.148l.5-.351a.357.357 0 01.036.085 1 1 0 01.03.123c.006.022.008.047.014.071a1.765 1.765 0 01.014.343v.041c.022.258.047.513.071.765l.049.472c0 .038.008.08.011.118.019.181.038.362.06.543.033.313.071.622.11.927l.115.91q.045.362.1.716l.049.351c.069.469.137.927.208 1.374.03.175.057.348.085.521l.025.14c.036.219.071.436.11.647a119.8 119.8 0 00.324 1.772c.115.6.23 1.165.343 1.694.036.17.071.337.107.5s.068.324.1.477.069.3.1.45l.049.217c.033.14.066.277.1.409s.063.26.09.384l.044.178c.014.057.027.118.044.173l.08.324c.025.105.052.2.074.291l.1.376c.031.113.057.214.082.3.016.058.033.11.044.156s.025.085.036.121a.133.133 0 00.011.036.417.417 0 00.016.047c0 .011.005.019.008.027a.152.152 0 00.005.019c.005.014.008.027.014.041a.252.252 0 01-.036.17z" fill="#221f1f" />
            <path d="M113.003 77.517c-.019-.085-.038-.173-.06-.258-.049-.211-.1-.425-.142-.639-.146-.647-.291-1.316-.433-2-.063-.3-.126-.6-.189-.908-.11-.521-.216-1.042-.321-1.557-.068-.343-.14-.685-.206-1.023s-.135-.669-.2-1a491.401 491.401 0 01-1.141-5.969c0-.019-.008-.038-.011-.052a.656.656 0 01-.011-.069.02.02 0 010-.011.111.111 0 00-.011-.027.01.01 0 000-.008c0-.005 0-.008-.005-.011a.234.234 0 00-.019-.027.139.139 0 00-.1-.038h-3.038a.136.136 0 00-.1.047.151.151 0 00-.033.09v.019c.414 2.8 1.544 7.636 2.306 10.778l.11.45c.016.071.036.143.052.211.022.088.041.173.063.258.033.126.06.247.09.365s.058.228.082.335l.041.167c.027.107.052.211.077.3s.049.208.074.3l.022.088.027.107c.016.069.033.129.047.184l.033.134c.005.019.008.036.014.052a.364.364 0 00.016.071s.005.006.005.008.005.022.011.03l.014.014a.161.161 0 00.022.022.147.147 0 00.036.019c.005 0 .011.005.016.008a11.178 11.178 0 002.117.189c.419 0 .7-.019.729-.022a.145.145 0 00.1-.055.142.142 0 00.019-.041.157.157 0 000-.071l-.103-.46zm-.307-.107a17.3 17.3 0 01-1.782-.082 5.366 5.366 0 01-.027-.107l-.017-.069c-.027-.1-.057-.222-.093-.367l-.126-.5-.074-.3a84.192 84.192 0 00-.123-.5c-.014-.06-.03-.118-.044-.181-.03-.121-.06-.247-.093-.376s-.063-.263-.1-.4-.069-.277-.1-.419-.071-.288-.107-.439c-.126-.521-.258-1.075-.392-1.651-.077-.329-.156-.664-.233-1s-.159-.683-.236-1.025-.156-.691-.23-1.036c-.038-.173-.077-.345-.113-.515-.1-.472-.2-.938-.3-1.393l-.025-.123c-.036-.164-.069-.326-.1-.488s-.066-.321-.1-.477q-.095-.473-.173-.913c-.027-.148-.055-.291-.077-.433s-.049-.277-.071-.411h2.067c.175.965 1.453 7.894 2.621 13.051a.625.625 0 01.047.154zm-2.443.225c0-.016-.008-.03-.011-.049a.035.035 0 010-.016.513.513 0 01-.019-.077l-.022-.085-.025-.093c-.052-.2-.115-.45-.187-.746-.025-.1-.052-.2-.077-.31l-.041-.165c-.036-.143-.074-.291-.11-.444s-.079-.313-.118-.48c-.082-.332-.167-.688-.258-1.061-.036-.148-.071-.3-.11-.455-.17-.71-.348-1.475-.529-2.259l-.063-.269c-.014-.063-.03-.126-.044-.192-.038-.173-.08-.345-.118-.518a19.816 19.816 0 00-.058-.26c-.041-.173-.079-.348-.118-.521s-.077-.345-.112-.518l-.228-1.061c-.027-.118-.049-.233-.074-.348-.008-.044-.019-.085-.027-.126-.03-.151-.06-.3-.091-.447a56.218 56.218 0 01-.156-.776c-.047-.236-.09-.469-.132-.694l-.041-.222a37.477 37.477 0 01-.211-1.242h.422c.022.134.044.271.071.411s.049.285.077.433l.082.447c.058.3.118.62.184.943.03.162.066.326.1.491s.068.332.1.5.071.337.107.507c.074.34.148.685.225 1.031.052.25.107.5.164.743.06.274.121.546.184.814l.057.252c.052.236.107.469.162.7a.352.352 0 00.016.069c.524 2.27 1.028 4.3 1.281 5.294l.071.285a.811.811 0 00.022.085c.014.049.025.093.033.129a.025.025 0 000 .014c0 .014.005.025.008.036l-.389.244zm1.629.258a10.47 10.47 0 01-1.338-.115l.293-.184a16.654 16.654 0 001.922.09l.047.2c-.185.012-.519.02-.925.009z" fill="#221f1f" />
        </g>
        <path d="M118.057 111.146l44.413 11.1v33.373l-47.092-22.6M159.984 8.143v15.743h-4.042V8.143z" fill="#4947e6" />
        <path d="M156.037 42.188V10.333h-1.4v32.315a8.331 8.331 0 011.4-.46zM157.071 61.969v69.991h-2.435V61.91a7.678 7.678 0 002.435.059z" fill="#4947e6" />
        <path d="M163.658 53.511a2.518 2.518 0 00-.6-.317c-.323-.257-.3-1.282-.108-1.649a4.021 4.021 0 00.719-.445zM163.659 48.071a2.486 2.486 0 00-.606-.322.888.888 0 01-.068-1.108 5.3 5.3 0 00.681-.238z" fill="#5556a4" />
        <path d="M159.097 53.056l-.695.033-.022-.648.648-.038z" fill="#535da8" />
        <path d="M101.372 78.864A21.839 21.839 0 00104.523 76c.236 1.106.236 1.106.352 1.553s.138 6.63.138 6.63l-.217 9.1-.034.14a55.65 55.65 0 00-3.026 5.047l-.994-1.847z" fill="#7d7db5" />
    </svg>