<svg xmlns="http://www.w3.org/2000/svg" width="60.875" height="24.233">
      <path d="M26.614 12.248c.5-1.127.864-2.2 1.418-3.175A17 17 0 0140.386.284a16.814 16.814 0 0114.962 4.448 17.408 17.408 0 015.332 10.69 22.789 22.789 0 01-.413 8.147c-.062.274-.159.371-.443.364-.769-.019-1.539-.006-2.294-.006.192-1.031.433-2.015.551-3.013a16.966 16.966 0 00-2.277-11.538 14.164 14.164 0 00-9.383-6.43 14.443 14.443 0 00-10.737 1.818 13.875 13.875 0 00-6.064 7.156c-.048.129-.2.311-.3.314-.849.027-1.696.014-2.706.014z" fill="#00a1f2"/>
      <path d="M12.254 16.145h-1.67v-2.183h1.655c-.061-2 .191-3.834 2.27-4.7a5.015 5.015 0 014.161.251l-.869 1.987c-.757-.212-1.518-.551-2.2.064-.709.637-.45 1.508-.511 2.339h4.316c.018-.335.045-.678.052-1.021a3.783 3.783 0 014.565-3.9c.617.087 1.217.285 1.89.448l-.9 2.056c-.344-.087-.657-.186-.977-.244a1.315 1.315 0 00-1.657 1.131 14.7 14.7 0 00-.112 1.536h2.605v2.218h-2.567v7.769h-2.861V16.18h-4.337v7.7h-2.853z"/>
      <path d="M42.847 23.9h-2.838v-9.931h2.718v1.288a3.675 3.675 0 013.137-1.6 3.328 3.328 0 013.029 1.732 4.206 4.206 0 012.524-1.67 3.2 3.2 0 014.037 2.993c.071 2.357.022 4.718.024 7.077a.448.448 0 01-.039.11H52.6v-.5-5.263a3.741 3.741 0 00-.1-.94 1.5 1.5 0 00-2.522-.7 2.913 2.913 0 00-.8 2.239c-.014 1.527 0 3.055 0 4.583v.573h-2.86v-.459-5.172a6 6 0 00-.085-.945 1.375 1.375 0 00-1-1.175 1.5 1.5 0 00-1.584.4 2.757 2.757 0 00-.773 2.02c-.024 1.6-.012 3.206-.015 4.809-.014.168-.014.332-.014.531z"/>
      <path d="M9.272 23.909H6.658v-1.342l-.1-.05-.26.315a4.079 4.079 0 01-5.067.875 2.793 2.793 0 01.107-4.7 9.245 9.245 0 013.434-1.07c.313-.051.628-.1.936-.174.4-.1.746-.262.768-.756a.9.9 0 00-.683-1 5.483 5.483 0 00-1.7-.109 5.311 5.311 0 00-2.752 1.309l-.939-1.962a8.169 8.169 0 013.577-1.5 5.683 5.683 0 013.5.428 2.975 2.975 0 011.773 2.7c.062 2.332.02 4.659.02 7.036zm-2.84-4.494a7.335 7.335 0 00-2.952.71 1.181 1.181 0 00-.562 1.394c.148.445.592.665 1.232.609a2.556 2.556 0 002.282-2.713z"/>
      <path d="M38.328 16.499a2.4 2.4 0 00-1.829-.245 2.506 2.506 0 00-1.743 2.534c-.023 1.526-.008 3.052-.01 4.577v.527h-2.852v-9.921h2.632v1.415c1.039-1.672 2.5-2.006 4.319-1.532z"/>
      <path d="M26.629 23.905v-9.927h2.817v9.927z"/>
</svg>