<svg width="20" height="21" viewBox="0 0 20 21" fill="none" xmlns="http://www.w3.org/2000/svg">
<g clip-path="url(#clip0_834_6658)">
<path d="M20 2.79172C20 1.52753 18.9725 0.5 17.7083 0.5H2.29172C1.02753 0.5 0 1.52753 0 2.79172V18.2083C0 19.4725 1.02753 20.5 2.29172 20.5H17.7083C18.9725 20.5 20 19.4725 20 18.2083V2.79172Z" fill="#4E4CF7"/>
<path d="M15.0682 7.20258C15.394 7.52835 15.394 8.05493 15.0682 8.38086L9.65152 13.7974C9.48901 13.9599 9.2757 14.0417 9.06238 14.0417C8.84906 14.0417 8.63574 13.9599 8.47324 13.7974L5.76495 11.0891C5.43903 10.7634 5.43903 10.2366 5.76495 9.91086C6.09073 9.58493 6.61731 9.58493 6.94324 9.91086L9.06238 12.03L13.89 7.20258C14.2157 6.87665 14.7423 6.87665 15.0682 7.20258Z" fill="#FAFAFA"/>
</g>
<defs>
<clipPath id="clip0_834_6658">
<rect width="20" height="20" fill="white" transform="translate(0 0.5)"/>
</clipPath>
</defs>
</svg>
