<svg xmlns="http://www.w3.org/2000/svg" viewBox="0 0 295 241.45"><title>Asset 3</title><g id="Layer_2" data-name="Layer 2"><g id="Layer_1-2" data-name="Layer 1"><path d="M30.87,159.83l111.76,80.51a5.9,5.9,0,0,0,9.34-4.79V5.9a5.89,5.89,0,0,0-9.34-4.78L30.87,81.65H5.9A5.9,5.9,0,0,0,0,87.55v66.37a5.9,5.9,0,0,0,5.9,5.91ZM140.17,224,38.68,150.91V90.57L140.17,17.43ZM11.8,93.45H26.88V148H11.8Z"/><path d="M177.22,50.21a5.9,5.9,0,0,0,0,8.35,87.93,87.93,0,0,1,0,124.34,5.9,5.9,0,1,0,8.34,8.34,99.72,99.72,0,0,0,0-141A5.9,5.9,0,0,0,177.22,50.21Z"/><path d="M210,199.49a5.9,5.9,0,0,0,8.35,8.34,123.32,123.32,0,0,0,0-174.21A5.9,5.9,0,1,0,210,42,111.51,111.51,0,0,1,210,199.49Z"/><path d="M250.34,12.89A5.9,5.9,0,0,0,242,21.24a140.7,140.7,0,0,1,0,199,5.9,5.9,0,0,0,8.35,8.34,152.52,152.52,0,0,0,0-215.67Z"/></g></g></svg>