<svg xmlns="http://www.w3.org/2000/svg" width="64.795" height="64.795" viewBox="0 0 64.795 64.795">
  <g fill="none" stroke="#fff" stroke-linecap="round" stroke-linejoin="round" stroke-width="2">
    <path d="M20.243 39.487a19.1 19.1 0 01-10.468-3.11L1 39.487l3.106-8.778a19.239 19.239 0 1135.381-10.466"/>
    <path d="M26.32 20.243c0 3.917-2.721 7.09-6.077 7.09s-6.076-3.174-6.076-7.09 2.721-7.089 6.076-7.089 6.077 3.17 6.077 7.089zM21.255 27.536l4.052.81"/>
    <g>
      <path d="M60.685 55.019a19.274 19.274 0 10-5.667 5.667l8.776 3.11zM44.551 37.461l-5.064 14.18M44.551 37.461l5.064 14.18M41.513 46.577h6.077"/>
    </g>
  </g>
</svg>