<svg width="29" height="29" viewBox="0 0 29 29" fill="none" xmlns="http://www.w3.org/2000/svg">
	<g clip-path="url(#clip0_536_3320)">
		<path d="M14.5001 8.45825C14.4264 8.45825 14.3527 8.44496 14.2826 8.41837L6.42842 5.39754C6.19521 5.30813 6.04175 5.08338 6.04175 4.83325C6.04175 4.58313 6.19521 4.35838 6.42842 4.26896L14.2826 1.24813C14.4228 1.19496 14.5762 1.19496 14.7164 1.24813L22.5706 4.26896C22.805 4.35838 22.9584 4.58313 22.9584 4.83325C22.9584 5.08338 22.805 5.30813 22.5718 5.39754L14.7176 8.41837C14.6475 8.44496 14.5738 8.45825 14.5001 8.45825ZM8.32912 4.83325L14.5001 7.20642L20.6711 4.83325L14.5001 2.46008L8.32912 4.83325Z" fill="white" />
		<path d="M14.5001 18.1251C14.4264 18.1251 14.3527 18.1118 14.2826 18.0852L6.42842 15.0644C6.19521 14.975 6.04175 14.7502 6.04175 14.5001V4.83342C6.04175 4.49991 6.31241 4.22925 6.64592 4.22925C6.97942 4.22925 7.25008 4.49991 7.25008 4.83342V14.0856L14.5001 16.8745L21.7501 14.0856V4.83342C21.7501 4.49991 22.0208 4.22925 22.3543 4.22925C22.6878 4.22925 22.9584 4.49991 22.9584 4.83342V14.5001C22.9584 14.7502 22.805 14.975 22.5718 15.0644L14.7176 18.0852C14.6475 18.1118 14.5738 18.1251 14.5001 18.1251Z" fill="white" />
		<path d="M14.4999 18.125C14.1664 18.125 13.8958 17.8543 13.8958 17.5208V7.85417C13.8958 7.52067 14.1664 7.25 14.4999 7.25C14.8334 7.25 15.1041 7.52067 15.1041 7.85417V17.5208C15.1041 17.8543 14.8334 18.125 14.4999 18.125Z" fill="white" />
		<path d="M12.6874 26.5833C12.5037 26.5833 12.3225 26.4999 12.2041 26.3416C12.0035 26.0746 12.0579 25.6964 12.3249 25.4958L14.0963 24.1666L12.3249 22.8375C12.0579 22.6369 12.0035 22.2587 12.2041 21.9916C12.4047 21.7246 12.7829 21.6714 13.0499 21.8708L15.4666 23.6833C15.6188 23.7969 15.7082 23.9769 15.7082 24.1666C15.7082 24.3563 15.6188 24.5364 15.4666 24.65L13.0499 26.4625C12.9412 26.5434 12.8143 26.5833 12.6874 26.5833Z" fill="white" />
		<path d="M14.5 24.7709C12.673 24.7709 10.9439 24.6839 9.35974 24.5136C7.16783 24.2924 0 23.3523 0 20.5418C0 19.3951 1.18296 18.4368 3.51383 17.6949C3.89687 17.5765 4.30771 17.875 4.30771 18.2713C4.30771 18.5637 4.10471 18.8078 3.82921 18.8634C1.89587 19.4857 1.20833 20.1563 1.20833 20.5418C1.20833 21.3465 3.77604 22.7361 9.48541 23.3113C11.0297 23.478 12.7153 23.5626 14.5 23.5626C14.8335 23.5626 15.1042 23.8333 15.1042 24.1668C15.1042 24.5003 14.8335 24.7709 14.5 24.7709Z" fill="white" />
		<path d="M18.717 24.5895C18.4052 24.5895 18.1406 24.3502 18.1152 24.0349C18.0887 23.7026 18.3364 23.4102 18.6687 23.3836C24.8916 22.8749 27.7916 21.3874 27.7916 20.5416C27.7916 20.1525 27.092 19.4746 25.1187 18.8463C24.801 18.7448 24.6257 18.4052 24.726 18.0875C24.8275 17.7697 25.1659 17.5945 25.4849 17.6947C27.817 18.4367 28.9999 19.3949 28.9999 20.5416C28.9999 23.5201 21.1675 24.3913 18.7665 24.5883C18.7496 24.5895 18.7327 24.5895 18.717 24.5895Z" fill="white" />
	</g>
	<defs>
		<clipPath id="clip0_536_3320">
			<rect width="29" height="29" fill="white" />
		</clipPath>
	</defs>
</svg>
