<svg width="16" height="20" viewBox="0 0 16 20" fill="none" xmlns="http://www.w3.org/2000/svg">
<path d="M14.9964 6.66378H13.6637C13.5501 6.6647 13.4374 6.68498 13.3306 6.72375V3.99852C13.285 1.74966 11.4284 -0.0383944 9.17944 0.000626707H6.66743C4.4835 -0.0234439 2.69361 1.72751 2.66953 3.9114C2.6692 3.94042 2.6692 3.96945 2.66953 3.99852V6.72375C2.56272 6.68498 2.45003 6.6647 2.33638 6.66378H1.00375C0.451745 6.66378 0.00427246 7.11125 0.00427246 7.66325C0.00427246 8.21525 0.451745 8.66273 1.00375 8.66273H1.3369V10.7116C1.33874 11.2353 1.76276 11.6593 2.2864 11.6611H2.71618C2.86768 12.248 3.39611 12.6587 4.00217 12.6606H6.33427V13.6601C6.33427 13.8441 6.48344 13.9933 6.66743 13.9933H7.00059V14.9927C7.00096 15.0241 6.97831 15.0511 6.94728 15.056L4.18873 15.5158C3.50634 15.6296 2.9653 16.1534 2.82945 16.8318L2.69619 17.4981C2.05053 17.8514 1.81353 18.6612 2.16684 19.3068C2.52015 19.9525 3.32994 20.1895 3.9756 19.8362C4.40587 19.6007 4.67206 19.148 4.66848 18.6575C4.66802 18.5713 4.65911 18.4853 4.64183 18.4009L4.91835 17.2915L6.98393 17.0317V17.7813C6.4971 18.3333 6.54995 19.1754 7.10195 19.6622C7.65395 20.149 8.49605 20.0962 8.98287 19.5442C9.4271 19.0405 9.4271 18.2849 8.98287 17.7813V17.035L11.0485 17.2948L11.3316 18.4043C11.3235 18.4885 11.3235 18.5733 11.3316 18.6575C11.3281 19.3934 11.9219 19.9929 12.6579 19.9964C13.3939 19.9999 13.9934 19.4061 13.9969 18.6702C13.9992 18.1808 13.7332 17.7296 13.3039 17.4947L13.1707 16.8284C13.0348 16.1501 12.4938 15.6263 11.8114 15.5125L9.05284 15.0527C9.02306 15.0479 9.00074 15.0229 8.99953 14.9927V13.9933H9.33269C9.51668 13.9933 9.66585 13.8441 9.66585 13.6601V12.6606H11.998C12.604 12.6587 13.1324 12.248 13.2839 11.6611H13.7137C14.2374 11.6593 14.6614 11.2353 14.6632 10.7116V8.66273H14.9964C15.5484 8.66273 15.9958 8.21525 15.9958 7.66325C15.9958 7.11125 15.5483 6.66378 14.9964 6.66378ZM2.66953 10.9948H2.2864C2.13003 10.9948 2.00322 10.8681 2.00322 10.7116V8.66273H2.33638C2.45003 8.66181 2.56272 8.64153 2.66953 8.60276V10.9948ZM2.33638 7.99641H1.00375C0.819759 7.99641 0.670588 7.84724 0.670588 7.66325C0.670588 7.47927 0.819759 7.3301 1.00375 7.3301H2.33638C2.52036 7.3301 2.66953 7.47927 2.66953 7.66325C2.66953 7.84724 2.52036 7.99641 2.33638 7.99641ZM3.33585 19.3238C2.96784 19.3238 2.66953 19.0255 2.66953 18.6575C2.66953 18.2894 2.96784 17.9911 3.33585 17.9911C3.70386 17.9911 4.00217 18.2894 4.00217 18.6575C4.00217 19.0255 3.70382 19.3238 3.33585 19.3238ZM8.00006 19.3238C7.63204 19.3238 7.33374 19.0255 7.33374 18.6575C7.33374 18.2894 7.63204 17.9911 8.00006 17.9911C8.36807 17.9911 8.66637 18.2894 8.66637 18.6575C8.66637 19.0255 8.36803 19.3238 8.00006 19.3238ZM13.3306 18.6575C13.3306 19.0255 13.0323 19.3238 12.6643 19.3238C12.2963 19.3238 11.998 19.0255 11.998 18.6575C11.998 18.2894 12.2963 17.9911 12.6643 17.9911C13.0323 17.9911 13.3306 18.2894 13.3306 18.6575ZM11.7014 16.1688C12.1111 16.2368 12.4361 16.5512 12.5177 16.9584L12.591 17.3248C12.3145 17.3416 12.0502 17.4441 11.8347 17.618L11.6648 16.9117C11.6313 16.7778 11.5187 16.6784 11.3816 16.6618L8.71635 16.3287C8.62231 16.3172 8.52778 16.3463 8.45648 16.4086C8.38086 16.4699 8.33584 16.5612 8.33322 16.6585V17.3715C8.11546 17.3093 7.88466 17.3093 7.6669 17.3715V16.6585C7.66678 16.5628 7.62551 16.4718 7.55363 16.4086C7.48233 16.3463 7.3878 16.3172 7.29376 16.3287L4.6285 16.6618C4.49145 16.6784 4.37884 16.7778 4.34532 16.9117L4.16541 17.6247C3.95073 17.4483 3.68633 17.3435 3.40914 17.3248L3.48244 16.9517C3.56406 16.5445 3.88897 16.2302 4.29868 16.1621L7.05722 15.7024C7.40604 15.6456 7.66336 15.3461 7.6669 14.9927V13.9933H8.33322V14.9927C8.33351 15.3486 8.59162 15.6519 8.94289 15.709L11.7014 16.1688ZM8.99953 13.3269H7.00059V12.6606H8.99953V13.3269ZM11.7581 11.9943H9.33269H4.24204C3.78378 12.0013 3.39353 11.6627 3.33585 11.2081C3.39444 10.8875 3.67634 10.6563 4.00217 10.6617H11.998C12.3238 10.6563 12.6057 10.8875 12.6643 11.2081C12.6066 11.6627 12.2163 12.0013 11.7581 11.9943ZM12.6643 10.1819C12.463 10.0608 12.2328 9.99636 11.998 9.99536H4.00217C3.76729 9.99636 3.53708 10.0608 3.33585 10.1819V3.99852C3.31549 2.17889 4.77409 0.687306 6.59372 0.666942C6.61829 0.666651 6.64286 0.666651 6.66743 0.666942H9.17944C11.0605 0.627838 12.6188 2.11764 12.6643 3.99852V10.1819V10.1819ZM13.9969 10.7116C13.9969 10.868 13.8701 10.9948 13.7137 10.9948H13.3306V8.60276C13.4374 8.64153 13.5501 8.66181 13.6637 8.66273H13.9969V10.7116ZM14.9964 7.99641H13.6637C13.4798 7.99641 13.3306 7.84724 13.3306 7.66325C13.3306 7.47927 13.4798 7.3301 13.6637 7.3301H14.9964C15.1804 7.3301 15.3295 7.47927 15.3295 7.66325C15.3295 7.84724 15.1804 7.99641 14.9964 7.99641Z" fill="white"/>
</svg>
