<?xml version="1.0" encoding="utf-8"?>
<!-- Generator: Adobe Illustrator 25.0.0, SVG Export Plug-In . SVG Version: 6.00 Build 0)  -->
<svg version="1.1" id="Layer_1" xmlns="http://www.w3.org/2000/svg" xmlns:xlink="http://www.w3.org/1999/xlink" x="0px" y="0px"
	 viewBox="0 0 82 15" style="enable-background:new 0 0 82 15;" xml:space="preserve">
<style type="text/css">
	.st0{fill-rule:evenodd;clip-rule:evenodd;fill:none;stroke:#FCC153;stroke-width:0.5;stroke-miterlimit:10;}
</style>
<g>
	<path class="st0" d="M72.9,11.9L69,14.3c-0.5,0.3-0.8,0.1-0.6-0.4l1.1-4.5l-3.5-3c-0.4-0.4-0.3-0.7,0.2-0.7l4.6-0.4l1.8-4.3
		c0.2-0.5,0.6-0.5,0.8,0l1.8,4.3l4.6,0.4c0.6,0,0.7,0.4,0.2,0.7l-3.5,3l1.1,4.5c0.1,0.5-0.1,0.7-0.6,0.4L72.9,11.9L72.9,11.9z
		 M57,11.9l-3.9,2.4c-0.5,0.3-0.8,0.1-0.6-0.4l1.1-4.5l-3.5-3c-0.4-0.4-0.3-0.7,0.2-0.7l4.6-0.4l1.8-4.3c0.2-0.5,0.5-0.5,0.8,0
		l1.8,4.3l4.6,0.4c0.6,0,0.7,0.4,0.2,0.7l-3.5,3l1.1,4.5c0.1,0.5-0.1,0.7-0.6,0.4L57,11.9L57,11.9z M41.1,11.9l-3.9,2.4
		c-0.5,0.3-0.8,0.1-0.6-0.4l1.1-4.5l-3.5-3c-0.4-0.4-0.3-0.7,0.2-0.7l4.6-0.4l1.8-4.3c0.2-0.5,0.5-0.5,0.8,0l1.8,4.3l4.6,0.4
		c0.6,0,0.7,0.4,0.2,0.7l-3.5,3l1.1,4.5c0.1,0.5-0.1,0.7-0.6,0.4L41.1,11.9L41.1,11.9z M25,11.9l-3.9,2.4c-0.5,0.3-0.8,0.1-0.6-0.4
		l1.1-4.5l-3.5-3c-0.4-0.4-0.3-0.7,0.2-0.7l4.6-0.4l1.8-4.3c0.2-0.5,0.5-0.5,0.8,0l1.8,4.3l4.6,0.4c0.6,0,0.7,0.4,0.2,0.7l-3.5,3
		l1.1,4.5c0.1,0.5-0.1,0.7-0.6,0.4L25,11.9L25,11.9z M9.1,11.9l-3.9,2.4c-0.5,0.3-0.8,0.1-0.6-0.4l1.1-4.5l-3.5-3
		C1.6,6,1.7,5.6,2.3,5.6l4.6-0.4l1.8-4.3c0.2-0.5,0.6-0.5,0.8,0l1.8,4.3l4.6,0.4c0.6,0,0.7,0.4,0.2,0.7l-3.5,3l1.1,4.5
		c0.1,0.5-0.1,0.7-0.6,0.4L9.1,11.9L9.1,11.9z"/>
</g>
</svg>
