<svg width="21" height="21" viewBox="0 0 21 21" fill="none" xmlns="http://www.w3.org/2000/svg">
<g clip-path="url(#clip0_1515_8798)">
<path d="M17.8481 5.97816C17.696 5.82598 17.4786 5.71729 17.2394 5.71729H15.0655V5.32598C15.0655 2.7825 12.9786 0.717285 10.5438 0.717285H10.4568C8.02204 0.717285 5.93508 2.7825 5.93508 5.32598V5.71729H3.76117C3.28291 5.71729 2.8916 6.13033 2.8916 6.63033V19.4129C2.8916 19.8912 3.28291 20.2825 3.76117 20.2825H17.2394C17.7177 20.2825 18.109 19.8912 18.109 19.4129V6.60859C18.109 6.3912 18.022 6.15207 17.8481 5.97816ZM7.67421 5.32598C7.67421 3.73902 8.97856 2.45642 10.4568 2.45642H10.5438C12.022 2.45642 13.3264 3.73902 13.3264 5.32598V5.71729H7.67421V5.32598ZM16.3699 18.5434H4.63073V7.45642H5.93508V8.95642C5.93508 9.43468 6.32638 9.82598 6.80465 9.82598C7.28291 9.82598 7.67421 9.43468 7.67421 8.95642V7.45642H13.3264V8.95642C13.3264 9.43468 13.7177 9.82598 14.1959 9.82598C14.6742 9.82598 15.0655 9.43468 15.0655 8.95642V7.45642H16.3699V18.5434Z" fill="white"/>
</g>
<defs>
<clipPath id="clip0_1515_8798">
<rect width="20" height="20" fill="white" transform="translate(0.5 0.5)"/>
</clipPath>
</defs>
</svg>
