<svg width="21" height="22" viewBox="0 0 21 22" fill="none" xmlns="http://www.w3.org/2000/svg">
<path d="M2.57765 21.8501C2.19098 21.8495 1.81116 21.7546 1.47554 21.5748C0.719812 21.1738 0.25 20.3954 0.25 19.5504V2.44997C0.25 1.60261 0.719812 0.826603 1.47554 0.425627C1.81915 0.240727 2.20949 0.145643 2.60577 0.15031C3.00205 0.154978 3.38972 0.259228 3.72825 0.452162L19.3372 9.20052C19.6625 9.39151 19.9307 9.65673 20.1166 9.9713C20.3025 10.2859 20.4 10.6395 20.4 10.999C20.4 11.3585 20.3025 11.7122 20.1166 12.0267C19.9307 12.3413 19.6625 12.6065 19.3372 12.7975L3.72573 21.5482C3.37929 21.7443 2.98248 21.8487 2.57765 21.8501Z" fill="#080808"/>
</svg>
