<svg width="20" height="21" viewBox="0 0 20 21" fill="none" xmlns="http://www.w3.org/2000/svg">
	<path d="M17.395 2.85303H14.3698C14.3029 2.85303 14.2388 2.8782 14.1915 2.92302C14.1442 2.96784 14.1177 3.02862 14.1177 3.092V17.9082C14.1177 17.9716 14.1442 18.0323 14.1915 18.0772C14.2388 18.122 14.3029 18.1471 14.3698 18.1471H17.395C17.4618 18.1471 17.526 18.122 17.5732 18.0772C17.6205 18.0323 17.6471 17.9716 17.6471 17.9082V3.092C17.6471 3.02862 17.6205 2.96784 17.5732 2.92302C17.526 2.8782 17.4618 2.85303 17.395 2.85303V2.85303ZM17.1429 17.6692H14.6219V15.9964H15.3782C15.445 15.9964 15.5092 15.9712 15.5564 15.9264C15.6037 15.8816 15.6303 15.8208 15.6303 15.7574C15.6303 15.6941 15.6037 15.6333 15.5564 15.5885C15.5092 15.5436 15.445 15.5185 15.3782 15.5185H14.6219V13.8457H15.3782C15.445 13.8457 15.5092 13.8205 15.5564 13.7757C15.6037 13.7309 15.6303 13.6701 15.6303 13.6067C15.6303 13.5433 15.6037 13.4825 15.5564 13.4377C15.5092 13.3929 15.445 13.3677 15.3782 13.3677H14.6219V11.8144H15.3782C15.445 11.8144 15.5092 11.7892 15.5564 11.7444C15.6037 11.6996 15.6303 11.6388 15.6303 11.5755C15.6303 11.5121 15.6037 11.4513 15.5564 11.4065C15.5092 11.3617 15.445 11.3365 15.3782 11.3365H14.6219V9.66369H15.3782C15.445 9.66369 15.5092 9.63851 15.5564 9.5937C15.6037 9.54888 15.6303 9.4881 15.6303 9.42472C15.6303 9.36134 15.6037 9.30056 15.5564 9.25574C15.5092 9.21093 15.445 9.18575 15.3782 9.18575H14.6219V7.63244H15.3782C15.445 7.63244 15.5092 7.60726 15.5564 7.56245C15.6037 7.51763 15.6303 7.45685 15.6303 7.39347C15.6303 7.33009 15.6037 7.26931 15.5564 7.22449C15.5092 7.17968 15.445 7.1545 15.3782 7.1545H14.6219V5.4817H15.3782C15.445 5.4817 15.5092 5.45653 15.5564 5.41171C15.6037 5.3669 15.6303 5.30611 15.6303 5.24273C15.6303 5.17935 15.6037 5.11857 15.5564 5.07376C15.5092 5.02894 15.445 5.00376 15.3782 5.00376H14.6219V3.33097H17.1429V17.6692Z" fill="white" />
	<path d="M13.1026 5.27135C13.1259 5.29355 13.1534 5.31116 13.1837 5.32318C13.2141 5.33519 13.2466 5.34137 13.2794 5.34137C13.3122 5.34137 13.3447 5.33519 13.3751 5.32318C13.4054 5.31116 13.4329 5.29355 13.4562 5.27135C13.4794 5.24915 13.4978 5.22279 13.5103 5.19379C13.5229 5.16478 13.5294 5.13369 13.5294 5.1023C13.5294 5.0709 13.5229 5.03981 13.5103 5.0108C13.4978 4.9818 13.4794 4.95544 13.4562 4.93324L11.3526 2.92251C11.3058 2.87801 11.2424 2.85303 11.1764 2.85303C11.1104 2.85303 11.0471 2.87801 11.0003 2.92251L8.8967 4.93324C8.84982 4.97808 8.82349 5.03889 8.82349 5.1023C8.82349 5.1657 8.84982 5.22651 8.8967 5.27135C8.94358 5.31619 9.00716 5.34137 9.07346 5.34137C9.13976 5.34137 9.20334 5.31619 9.25022 5.27135L10.9266 3.66802V17.331L9.25022 15.7276C9.227 15.7054 9.19945 15.6878 9.16912 15.6758C9.13879 15.6638 9.10629 15.6576 9.07346 15.6576C9.04063 15.6576 9.00813 15.6638 8.9778 15.6758C8.94747 15.6878 8.91991 15.7054 8.8967 15.7276C8.87349 15.7498 8.85508 15.7762 8.84251 15.8052C8.82995 15.8342 8.82349 15.8653 8.82349 15.8967C8.82349 15.9281 8.82995 15.9592 8.84251 15.9882C8.85508 16.0172 8.87349 16.0435 8.8967 16.0657L10.999 18.0765C11.0223 18.0989 11.0499 18.1166 11.0803 18.1288C11.1108 18.1409 11.1434 18.1471 11.1764 18.1471C11.2094 18.1471 11.2421 18.1409 11.2725 18.1288C11.303 18.1166 11.3306 18.0989 11.3538 18.0765L13.4562 16.0657C13.4794 16.0435 13.4978 16.0172 13.5103 15.9882C13.5229 15.9592 13.5294 15.9281 13.5294 15.8967C13.5294 15.8653 13.5229 15.8342 13.5103 15.8052C13.4978 15.7762 13.4794 15.7498 13.4562 15.7276C13.4329 15.7054 13.4054 15.6878 13.3751 15.6758C13.3447 15.6638 13.3122 15.6576 13.2794 15.6576C13.2466 15.6576 13.2141 15.6638 13.1837 15.6758C13.1534 15.6878 13.1259 15.7054 13.1026 15.7276L11.4263 17.331V3.66802L13.1026 5.27135Z" fill="white" />
	<path d="M7.02618 6.61884H6.95669C7.30415 6.34394 7.5562 5.97001 7.67809 5.54859C7.79997 5.12716 7.7857 4.679 7.63722 4.26587C7.48875 3.85275 7.2134 3.49501 6.84911 3.24196C6.48483 2.98892 6.04956 2.85303 5.6033 2.85303C5.15704 2.85303 4.72177 2.98892 4.35749 3.24196C3.9932 3.49501 3.71785 3.85275 3.56938 4.26587C3.4209 4.679 3.40663 5.12716 3.52851 5.54859C3.6504 5.97001 3.90245 6.34394 4.24991 6.61884H4.15046C3.91372 6.61632 3.67885 6.66024 3.45963 6.74801C3.24041 6.83579 3.04125 6.96566 2.87384 7.13C2.70643 7.29435 2.57413 7.48986 2.48472 7.70506C2.3953 7.92026 2.35057 8.15083 2.35313 8.38323V12.6178C2.35313 12.6802 2.37838 12.74 2.42332 12.7841C2.46826 12.8282 2.52922 12.853 2.59278 12.853C2.65633 12.853 2.71729 12.8282 2.76223 12.7841C2.80717 12.74 2.83242 12.6802 2.83242 12.6178V8.38323C2.83049 8.21279 2.86327 8.04369 2.92883 7.88586C2.99438 7.72802 3.0914 7.58463 3.21417 7.4641C3.33695 7.34358 3.48302 7.24834 3.6438 7.18399C3.80458 7.11963 3.97684 7.08746 4.15046 7.08935H7.02618C7.19981 7.08746 7.37206 7.11963 7.53285 7.18399C7.69363 7.24834 7.83969 7.34358 7.96247 7.4641C8.08525 7.58463 8.18226 7.72802 8.24782 7.88586C8.31337 8.04369 8.34615 8.21279 8.34422 8.38323V12.6178C8.34422 12.6802 8.36947 12.74 8.41441 12.7841C8.45936 12.8282 8.52031 12.853 8.58387 12.853C8.64742 12.853 8.70838 12.8282 8.75332 12.7841C8.79826 12.74 8.82351 12.6802 8.82351 12.6178V8.38323C8.82608 8.15083 8.78134 7.92026 8.69193 7.70506C8.60251 7.48986 8.47022 7.29435 8.30281 7.13C8.13539 6.96566 7.93624 6.83579 7.71702 6.74801C7.49779 6.66024 7.26292 6.61632 7.02618 6.61884ZM3.92519 4.97207C3.92519 4.64637 4.02358 4.32799 4.2079 4.05718C4.39223 3.78637 4.65422 3.5753 4.96075 3.45066C5.26727 3.32602 5.60456 3.29341 5.92997 3.35695C6.25537 3.42049 6.55427 3.57733 6.78888 3.80763C7.02348 4.03794 7.18325 4.33136 7.24797 4.65081C7.3127 4.97025 7.27948 5.30136 7.15251 5.60226C7.02555 5.90317 6.81054 6.16036 6.53467 6.34131C6.25881 6.52226 5.93448 6.61884 5.6027 6.61884H5.59431C5.15087 6.61666 4.72634 6.44221 4.41356 6.13361C4.10077 5.82502 3.92519 5.4074 3.92519 4.97207Z" fill="white" />
	<path d="M3.82341 8.73535C3.74541 8.73535 3.6706 8.76078 3.61544 8.80603C3.56028 8.85129 3.5293 8.91267 3.5293 8.97668V17.9058C3.5293 17.9698 3.56028 18.0312 3.61544 18.0764C3.6706 18.1217 3.74541 18.1471 3.82341 18.1471C3.90142 18.1471 3.97623 18.1217 4.03139 18.0764C4.08654 18.0312 4.11753 17.9698 4.11753 17.9058V8.97668C4.11753 8.91267 4.08654 8.85129 4.03139 8.80603C3.97623 8.76078 3.90142 8.73535 3.82341 8.73535Z" fill="white" />
	<path d="M7.35296 8.73535C7.27495 8.73535 7.20014 8.76078 7.14498 8.80603C7.08982 8.85129 7.05884 8.91267 7.05884 8.97668V17.9058C7.05884 17.9698 7.08982 18.0312 7.14498 18.0764C7.20014 18.1217 7.27495 18.1471 7.35296 18.1471C7.43096 18.1471 7.50577 18.1217 7.56093 18.0764C7.61609 18.0312 7.64707 17.9698 7.64707 17.9058V8.97668C7.64707 8.91267 7.61609 8.85129 7.56093 8.80603C7.50577 8.76078 7.43096 8.73535 7.35296 8.73535Z" fill="white" />
	<path d="M5.58831 11.6765C5.5103 11.6765 5.43549 11.7027 5.38033 11.7494C5.32518 11.7961 5.29419 11.8594 5.29419 11.9254V17.8982C5.29419 17.9642 5.32518 18.0275 5.38033 18.0742C5.43549 18.1209 5.5103 18.1471 5.58831 18.1471C5.66631 18.1471 5.74112 18.1209 5.79628 18.0742C5.85144 18.0275 5.88242 17.9642 5.88242 17.8982V11.9254C5.88242 11.8594 5.85144 11.7961 5.79628 11.7494C5.74112 11.7027 5.66631 11.6765 5.58831 11.6765Z" fill="white" />
</svg>
