<svg width="50" height="50" viewBox="0 0 50 50" fill="none" xmlns="http://www.w3.org/2000/svg">
	<path d="M0 4C0 1.79086 1.79086 0 4 0H46C48.2091 0 50 1.79086 50 4V46C50 48.2091 48.2091 50 46 50H4C1.79086 50 0 48.2091 0 46V4Z" fill="black" />
	<path d="M15.3421 15.416C15.3421 16.296 14.8621 16.824 13.8381 16.824H12.1421V14.04H13.8381C14.8621 14.04 15.3421 14.584 15.3421 15.416ZM9.40606 11.768V23H12.1421V18.76H12.7981L15.1341 23H18.2221L15.6301 18.552C17.3581 18.04 18.1261 16.712 18.1261 15.304C18.1261 13.352 16.7501 11.768 13.9981 11.768H9.40606ZM25.0916 11.64C21.7316 11.64 19.3796 14.008 19.3796 17.368C19.3796 20.728 21.7476 23.08 25.1076 23.08C28.0676 23.08 29.9396 21.144 30.5156 19.208V16.664H24.5636V18.68H28.0356C27.6196 19.944 26.6756 20.664 25.3156 20.664C23.3476 20.664 22.1636 19.448 22.1636 17.368C22.1636 15.416 23.3316 14.168 25.0916 14.168C26.1156 14.168 26.8836 14.568 27.2996 15.32H30.3236C29.7316 13.016 27.7796 11.64 25.0916 11.64ZM38.2231 19.576C38.2231 20.376 37.6951 20.792 36.7831 20.792H34.7671V18.312H36.7511C37.6631 18.312 38.2231 18.776 38.2231 19.576ZM37.9511 15.144C37.9511 15.912 37.4551 16.312 36.5591 16.312H34.7671V13.96H36.5591C37.4551 13.96 37.9511 14.376 37.9511 15.144ZM40.9911 19.944C40.9911 18.664 40.1431 17.512 38.8311 17.24C39.9191 16.92 40.7351 16.04 40.7351 14.68C40.7351 12.904 39.3751 11.768 37.0871 11.768H32.0311V23H37.2631C39.6311 23 40.9911 21.8 40.9911 19.944ZM12.0389 27.768V39H18.3589V36.888H14.7749V27.768H12.0389ZM26.5439 27.768H19.6639V39H26.5439V36.808H22.3999V34.344H26.0639V32.232H22.3999V29.96H26.5439V27.768ZM32.5281 27.768H28.3201V39H32.5281C36.1121 39 38.4161 36.712 38.4161 33.384C38.4161 30.04 36.1121 27.768 32.5281 27.768ZM31.0561 36.632V30.104H32.3521C34.4161 30.104 35.6321 31.32 35.6321 33.384C35.6321 35.448 34.4161 36.632 32.3521 36.632H31.0561Z" fill="white" />
	<path d="M4 2H46V-2H4V2ZM48 4V46H52V4H48ZM46 48H4V52H46V48ZM2 46V4H-2V46H2ZM4 48C2.89543 48 2 47.1046 2 46H-2C-2 49.3137 0.68629 52 4 52V48ZM48 46C48 47.1046 47.1046 48 46 48V52C49.3137 52 52 49.3137 52 46H48ZM46 2C47.1046 2 48 2.89543 48 4H52C52 0.686292 49.3137 -2 46 -2V2ZM4 -2C0.686292 -2 -2 0.68629 -2 4H2C2 2.89543 2.89543 2 4 2V-2Z" fill="url(#paint0_linear_1678_674)" />
	<defs>
		<linearGradient id="paint0_linear_1678_674" x1="-7.98514e-07" y1="4.46429" x2="47.7679" y2="50" gradientUnits="userSpaceOnUse">
			<stop stop-color="#469CD2" />
			<stop offset="0.166667" stop-color="#37328C" />
			<stop offset="0.307292" stop-color="#B42E87" />
			<stop offset="0.442708" stop-color="#D7395C" />
			<stop offset="0.588542" stop-color="#E48842" />
			<stop offset="0.723958" stop-color="#F8E457" />
			<stop offset="0.875" stop-color="#82BD55" />
			<stop offset="1" stop-color="#4EA359" />
		</linearGradient>
	</defs>
</svg>
