<svg width="20" height="20" viewBox="0 0 20 20" fill="none" xmlns="http://www.w3.org/2000/svg">
<g clip-path="url(#clip0_1258_7289)">
<path d="M20 2.29172C20 1.02753 18.9725 0 17.7083 0H2.29172C1.02753 0 0 1.02753 0 2.29172V17.7083C0 18.9725 1.02753 20 2.29172 20H17.7083C18.9725 20 20 18.9725 20 17.7083V2.29172Z" fill="#4E4CF7"/>
<path d="M15.0684 6.70245C15.3941 7.02823 15.3941 7.55481 15.0684 7.88074L9.65164 13.2973C9.48914 13.4598 9.27582 13.5416 9.0625 13.5416C8.84918 13.5416 8.63586 13.4598 8.47336 13.2973L5.76508 10.589C5.43915 10.2632 5.43915 9.73651 5.76508 9.41074C6.09085 9.08481 6.61743 9.08481 6.94336 9.41074L9.0625 11.5299L13.8901 6.70245C14.2159 6.37653 14.7424 6.37653 15.0684 6.70245Z" fill="#FAFAFA"/>
</g>
<defs>
<clipPath id="clip0_1258_7289">
<rect width="20" height="20" fill="white"/>
</clipPath>
</defs>
</svg>
