<svg width="20" height="19" viewBox="0 0 20 19" fill="none" xmlns="http://www.w3.org/2000/svg">
<path d="M10 0.125C8.1458 0.125 6.33324 0.674834 4.79153 1.70497C3.24982 2.73511 2.04821 4.19929 1.33863 5.91234C0.629062 7.6254 0.443406 9.5104 0.805142 11.329C1.16688 13.1475 2.05976 14.818 3.37088 16.1291C4.68199 17.4402 6.35246 18.3331 8.17103 18.6949C9.9896 19.0566 11.8746 18.8709 13.5877 18.1614C15.3007 17.4518 16.7649 16.2502 17.795 14.7085C18.8252 13.1668 19.375 11.3542 19.375 9.5C19.375 7.0136 18.3873 4.62903 16.6291 2.87087C14.871 1.11272 12.4864 0.125 10 0.125ZM15 10.125H5V8.875H15V10.125Z" fill="#EA2D3F"/>
</svg>
