<svg width="16" height="17" viewBox="0 0 16 17" fill="none" xmlns="http://www.w3.org/2000/svg">
	<path d="M7.99989 0.583252C9.51157 0.583252 10.8352 1.38827 11.5656 2.59299C12.3849 2.73328 13.2599 2.91744 14.1902 3.14516C15.1703 3.38509 15.8755 4.3132 15.7671 5.38311L14.819 14.5476C14.7124 15.5783 13.8367 16.4166 12.7467 16.4166H3.25304C2.21685 16.4166 1.32044 15.6643 1.18077 14.5476L0.232712 5.38311C0.125634 4.34798 0.488807 3.46848 1.80964 3.14516C2.69019 2.92961 3.56506 2.74555 4.43424 2.59299C5.16456 1.38827 6.48821 0.583252 7.99989 0.583252ZM4.0194 3.51459C3.08828 3.70757 2.41774 3.85424 2.00778 3.95459C1.42555 4.09711 1.017 4.62742 1.06162 5.29737L2.00968 14.4619C2.07305 15.0745 2.60746 15.5832 3.25304 15.5832H12.7467C13.3627 15.5832 13.9106 15.1026 13.9901 14.4619L14.9382 5.29737C15.0024 4.67629 14.5985 4.10305 13.992 3.95459C13.4432 3.82024 12.7727 3.67371 11.9805 3.51501C12.1045 3.90196 12.1666 4.3136 12.1666 4.74992C12.1666 7.0511 10.3011 8.91658 7.99989 8.91658C5.69871 8.91658 3.83323 7.0511 3.83323 4.74992C3.83323 4.31109 3.89528 3.89931 4.0194 3.51459ZM7.99989 1.41658C6.17373 1.41658 4.66656 2.90897 4.66656 4.74992C4.66656 6.59086 6.15894 8.08325 7.99989 8.08325C9.84084 8.08325 11.3332 6.59086 11.3332 4.74992C11.3332 2.90897 9.82606 1.41658 7.99989 1.41658ZM7.99989 2.24992C8.21358 2.24992 8.41656 2.43617 8.41656 2.66658V4.74992C8.41656 4.98003 8.23001 5.16658 7.99989 5.16658C7.78621 5.16658 7.58323 5.00603 7.58323 4.74992V2.66658C7.58323 2.43647 7.76978 2.24992 7.99989 2.24992Z" fill="white" />
</svg>