<svg width="50" height="50" viewBox="0 0 50 50" fill="none" xmlns="http://www.w3.org/2000/svg">
<path d="M0 4C0 1.79086 1.79086 0 4 0H46C48.2091 0 50 1.79086 50 4V46C50 48.2091 48.2091 50 46 50H4C1.79086 50 0 48.2091 0 46V4Z" fill="black"/>
<path d="M22.6293 18.4023H22.6396C22.7785 18.402 22.8954 18.3474 22.9968 18.2356C23.4907 17.691 23.452 16.0297 23.3954 15.4356C23.3949 15.4305 23.3946 15.4252 23.3946 15.4201L23.386 14.3943C23.3762 13.237 22.4268 12.2954 21.2694 12.2954C20.1023 12.2954 19.1528 13.2449 19.1528 14.412V15.4186C19.1528 15.7663 19.2583 16.3522 19.5555 16.8594C20.0969 17.7831 21.3312 18.4023 22.6293 18.4023Z" fill="white"/>
<path d="M34.1906 30.3129L32.5961 30.3072C32.5943 30.3072 32.5926 30.3081 32.5908 30.3081C32.5878 30.3081 32.5849 30.3073 32.582 30.3071L29.734 30.2969C29.6018 30.2964 29.4944 30.4034 29.4944 30.5356V32.2945C29.4944 32.4166 29.5887 32.5179 29.7105 32.5266L30.9928 32.6186C31.6066 32.6626 32.1758 32.9552 32.5688 33.4286L32.7863 33.6905C33.1458 34.1235 33.3306 34.6751 33.3047 35.2373L33.2442 36.5496C33.238 36.6822 33.3439 36.793 33.4767 36.793H34.1891C34.4198 36.793 34.6068 36.606 34.6068 36.3753V30.7307C34.6068 30.5005 34.4207 30.3137 34.1906 30.3129Z" fill="white"/>
<path d="M32.2933 33.6573C31.9643 33.261 31.4809 33.0126 30.9671 32.9757L24.8889 32.5398C24.6634 32.5266 24.4749 32.4372 24.346 32.2814C24.1741 32.0737 24.1104 31.7554 24.1618 31.3608C24.1751 31.2579 24.1868 31.1595 24.1972 31.0606C24.2122 30.9185 24.0952 30.7967 23.9526 30.8053C22.8789 30.8693 21.875 30.7964 21.1854 30.3954C20.9732 30.272 20.7943 30.1196 20.6537 29.9424C20.5922 29.865 20.6051 29.7524 20.6826 29.6909C20.76 29.6295 20.8727 29.6423 20.9341 29.7198C21.0469 29.8619 21.192 29.9851 21.3654 30.0859C22.5245 30.7602 24.7887 30.4007 26.6078 30.1119C27.863 29.9127 28.861 29.7543 29.3502 29.9374L31.9187 29.9467C32.0244 29.947 32.0791 29.819 32.0047 29.7439C31.1572 28.8884 30.6214 28.9325 29.5435 29.023C29.3844 29.0363 29.2148 29.0505 29.0323 29.0628C27.9224 29.1378 27.0036 28.9943 25.7317 28.7957C24.5498 28.6112 23.7584 28.5977 23.2347 28.5887C22.5322 28.5768 22.1451 28.5701 22.1451 27.9991C21.9747 22.5953 21.1664 21.5763 20.778 21.0865C20.7166 21.009 20.7296 20.8964 20.807 20.835C20.8845 20.7734 20.997 20.7864 21.0585 20.864C21.4709 21.3839 22.3288 22.4657 22.5031 27.9935C22.5032 28.1974 22.5032 28.2181 23.2409 28.2307C23.4724 28.2347 23.7559 28.2397 24.1008 28.2593C24.226 28.2665 24.3356 28.1727 24.3468 28.0478C24.4652 26.7267 24.5239 25.5251 24.3312 23.9026C24.1963 22.7652 24.0988 22.2187 23.2023 21.1838C22.9801 20.9272 22.789 20.7194 22.6205 20.5361C22.0656 19.9328 21.7871 19.6299 21.7871 19.0513V18.6818C21.231 18.578 20.7142 18.3733 20.2752 18.0882C20.1957 18.0366 20.0913 18.093 20.0913 18.1877V18.72C20.0913 19.2404 19.9132 19.689 19.707 20.2085C19.4055 20.9679 19.0638 21.8286 19.1092 23.2662C19.1509 24.5797 19.4058 25.2146 19.6758 25.8869C19.96 26.5945 20.2538 27.3263 20.2538 28.8563C20.2538 29.6571 19.8667 30.3257 19.4568 31.0335C18.9775 31.8611 18.4819 32.7168 18.4819 33.9254C18.4819 34.2902 18.5486 34.6558 18.683 34.9952C18.8283 35.3625 19.0541 35.6957 19.3448 35.9636C19.6859 36.2779 20.1061 36.4937 20.5499 36.6227C20.9462 36.7378 21.3456 36.7752 21.7492 36.7873C21.966 36.7938 22.184 36.793 22.4035 36.793H28.8428C28.9417 36.793 29.0219 36.8732 29.0219 36.9721V38.2155C29.0219 38.4857 29.2409 38.7048 29.5112 38.7048H32.3101C32.5703 38.7048 32.785 38.5012 32.7987 38.2414L32.8666 36.9628L32.947 35.2207C32.9688 34.7477 32.8133 34.2836 32.5108 33.9193L32.2933 33.6573Z" fill="white"/>
<path d="M18.0768 26.1244C18.1329 26.2642 18.189 26.4037 18.2423 26.5503C18.2936 26.6913 18.4288 26.786 18.5788 26.786C18.6205 26.786 18.6617 26.7787 18.7012 26.7644C18.791 26.7317 18.8628 26.666 18.9033 26.5793C18.9437 26.4927 18.9479 26.3954 18.9153 26.3055C18.8588 26.15 18.799 26.001 18.7389 25.8514C18.6564 25.6461 18.5711 25.4337 18.4962 25.2029C18.4483 25.0549 18.3113 24.9553 18.1554 24.9553C18.1181 24.9553 18.0811 24.9612 18.0452 24.9727C17.9543 25.0022 17.8802 25.0654 17.8367 25.1506C17.7932 25.2358 17.7855 25.3328 17.815 25.4238C17.8974 25.6776 17.9874 25.9017 18.0768 26.1244Z" fill="white"/>
<path d="M17.9243 31.2114C17.9785 31.2425 18.04 31.2589 18.1022 31.2589C18.2301 31.2589 18.3492 31.19 18.4128 31.0793L18.5189 30.8955C18.6817 30.6144 18.8355 30.349 18.967 30.0694C19.0509 29.8907 18.9739 29.677 18.7954 29.593C18.7472 29.5704 18.6958 29.5588 18.6429 29.5588C18.5049 29.5588 18.3777 29.6397 18.3189 29.7647C18.2009 30.0156 18.0545 30.2684 17.8991 30.5367L17.7918 30.7226C17.7442 30.8055 17.7317 30.902 17.7567 30.9944C17.7817 31.0867 17.8412 31.1638 17.9243 31.2114Z" fill="white"/>
<path d="M18.9385 29.1295H18.9421C19.1366 29.1295 19.2972 28.9714 19.3001 28.776L19.3004 28.7366C19.3004 28.29 19.2753 27.8959 19.2236 27.5318C19.1987 27.3562 19.0467 27.2239 18.87 27.2239C18.853 27.2239 18.8358 27.2251 18.8189 27.2275C18.7242 27.2409 18.6404 27.2904 18.5829 27.3669C18.5254 27.4433 18.5012 27.5376 18.5146 27.6323C18.5615 27.9631 18.5843 28.3244 18.5843 28.7354L18.584 28.766C18.581 28.9634 18.7392 29.1264 18.9385 29.1295Z" fill="white"/>
<path d="M27.9683 37.3505H17.4486C17.3932 37.3505 17.3481 37.3054 17.3481 37.2501V18.6007C17.3481 18.3375 17.134 18.1233 16.8707 18.1233C16.6075 18.1233 16.3933 18.3375 16.3933 18.6007V37.2501C16.3933 37.8319 16.8667 38.3053 17.4486 38.3053H27.9683C28.0829 38.3053 28.1943 38.2632 28.2818 38.1866C28.3859 38.0955 28.4457 37.9648 28.4457 37.8279C28.4457 37.6887 28.3843 37.5565 28.2771 37.4652C28.1903 37.3912 28.0806 37.3505 27.9683 37.3505Z" fill="white"/>
<path d="M4 2H46V-2H4V2ZM48 4V46H52V4H48ZM46 48H4V52H46V48ZM2 46V4H-2V46H2ZM4 48C2.89543 48 2 47.1046 2 46H-2C-2 49.3137 0.68629 52 4 52V48ZM48 46C48 47.1046 47.1046 48 46 48V52C49.3137 52 52 49.3137 52 46H48ZM46 2C47.1046 2 48 2.89543 48 4H52C52 0.686292 49.3137 -2 46 -2V2ZM4 -2C0.686292 -2 -2 0.68629 -2 4H2C2 2.89543 2.89543 2 4 2V-2Z" fill="#4E4CF7"/>
</svg>
