<svg width="17" height="23" viewBox="0 0 17 23" fill="none" xmlns="http://www.w3.org/2000/svg">
<path d="M8.5 22.2999C10.505 22.2999 12.428 21.5035 13.8457 20.0857C15.2635 18.6679 16.06 16.745 16.06 14.74V8.25995C16.06 6.25491 15.2635 4.332 13.8457 2.91422C12.428 1.49645 10.505 0.699951 8.5 0.699951C6.49497 0.699951 4.57205 1.49645 3.15428 2.91422C1.7365 4.332 0.940002 6.25491 0.940002 8.25995V14.74C0.940002 16.745 1.7365 18.6679 3.15428 20.0857C4.57205 21.5035 6.49497 22.2999 8.5 22.2999ZM2.02 8.25995C2.02 6.54135 2.70272 4.89313 3.91795 3.6779C5.13319 2.46266 6.7814 1.77995 8.5 1.77995C10.2186 1.77995 11.8668 2.46266 13.0821 3.6779C14.2973 4.89313 14.98 6.54135 14.98 8.25995V14.74C14.98 16.4586 14.2973 18.1068 13.0821 19.322C11.8668 20.5372 10.2186 21.2199 8.5 21.2199C6.7814 21.2199 5.13319 20.5372 3.91795 19.322C2.70272 18.1068 2.02 16.4586 2.02 14.74V8.25995Z" fill="white"/>
<path d="M7.95999 11.2299H8.00859L8.11659 11.3433C8.16679 11.394 8.22651 11.4341 8.29232 11.4615C8.35812 11.489 8.4287 11.5031 8.49999 11.5031C8.57127 11.5031 8.64185 11.489 8.70766 11.4615C8.77346 11.4341 8.83319 11.394 8.88339 11.3433L8.99139 11.2299H9.03999V11.1813L12.1234 8.10334L11.3566 7.33654L9.03999 9.65854V3.93994H7.95999V9.65854L5.64339 7.33654L4.87659 8.10334L7.95999 11.1813V11.2299Z" fill="white"/>
</svg>
