<svg width="34" height="34" viewBox="0 0 34 34" fill="none" xmlns="http://www.w3.org/2000/svg">
    <path fill-rule="evenodd" clip-rule="evenodd" d="M9.52546 3.75C8.71617 3.75 7.92638 3.99641 7.26495 4.45587C6.60347 4.91536 6.1027 5.56553 5.83252 6.31729C5.56233 7.06911 5.53632 7.88488 5.75817 8.65191C5.92271 9.22083 6.21747 9.74175 6.6163 10.1766C6.33268 10.2115 6.05426 10.2829 5.78829 10.3894C5.38514 10.5508 5.01858 10.7898 4.71024 11.0925C4.40189 11.3952 4.15796 11.7555 3.99301 12.1525C3.82823 12.5491 3.74564 12.9742 3.75018 13.4027V20.6001C3.75018 20.774 3.82058 20.9398 3.94437 21.0613C4.06799 21.1826 4.2347 21.25 4.40757 21.25C4.58045 21.25 4.74715 21.1826 4.87078 21.0613C4.99456 20.9398 5.06497 20.774 5.06497 20.6001L5.06498 13.4014L5.06495 13.3985C5.06206 13.1427 5.11124 12.8888 5.20974 12.6517C5.30823 12.4146 5.45412 12.1988 5.63908 12.0172C5.82405 11.8357 6.04436 11.6919 6.28721 11.5947C6.53006 11.4975 6.7904 11.4489 7.05291 11.4517L11.9444 11.4518L11.9471 11.4517C12.2096 11.4489 12.4699 11.4975 12.7128 11.5947C12.9556 11.6919 13.1759 11.8357 13.3609 12.0172C13.5459 12.1988 13.6918 12.4146 13.7903 12.6517C13.8888 12.8888 13.9379 13.1427 13.935 13.3985V20.6001C13.935 20.774 14.0054 20.9398 14.1292 21.0613C14.2528 21.1826 14.4196 21.25 14.5924 21.25C14.7653 21.25 14.932 21.1826 15.0556 21.0613C15.1794 20.9398 15.2498 20.774 15.2498 20.6001V13.4027C15.2544 12.9741 15.1718 12.5491 15.007 12.1525C14.842 11.7555 14.5981 11.3952 14.2898 11.0925C13.9814 10.7898 13.6149 10.5508 13.2117 10.3894C12.96 10.2886 12.6971 10.2193 12.4292 10.1825C12.8308 9.74648 13.1275 9.22341 13.2928 8.65191C13.5146 7.88488 13.4886 7.06911 13.2184 6.31729C12.9482 5.56553 12.4475 4.91536 11.786 4.45587C11.1245 3.99641 10.3348 3.75 9.52546 3.75ZM8.52729 5.24756C9.00327 5.05402 9.52729 5.00331 10.0329 5.10203C10.5385 5.20076 11.0022 5.44432 11.3658 5.80124C11.7293 6.1581 11.9764 6.61221 12.0764 7.10587C12.1764 7.59951 12.1251 8.11122 11.9288 8.57651C11.7324 9.04186 11.3996 9.44034 10.9717 9.72104C10.5437 10.0018 10.04 10.1519 9.52444 10.1519H9.51075C8.82175 10.1483 8.16309 9.87715 7.67848 9.39903C7.19386 8.92091 6.92268 8.27485 6.92268 7.60238C6.92268 7.09918 7.07466 6.60688 7.35996 6.18773C7.6453 5.76852 8.05135 5.44109 8.52729 5.24756ZM19 3.75C18.8252 3.75 18.6555 3.81604 18.5283 3.93694L14.9517 7.35569C14.8239 7.47785 14.75 7.64597 14.75 7.82376C14.75 8.00154 14.8239 8.16966 14.9517 8.29182C15.079 8.41361 15.2494 8.48019 15.425 8.48019C15.6005 8.48019 15.7709 8.41361 15.8982 8.29182L18.3253 5.97053V28.0274L15.8982 25.7062C15.8351 25.6458 15.7607 25.5984 15.6797 25.5663C15.5986 25.5342 15.5121 25.5178 15.425 25.5178C15.3378 25.5178 15.2513 25.5342 15.1703 25.5663C15.0892 25.5984 15.0148 25.6458 14.9517 25.7062C14.8885 25.7666 14.8378 25.8389 14.8029 25.9193C14.7681 25.9998 14.75 26.0864 14.75 26.1742C14.75 26.262 14.7681 26.3486 14.8029 26.4291C14.8378 26.5095 14.8885 26.5819 14.9517 26.6423L18.5254 30.0602C18.5885 30.121 18.6629 30.1686 18.7441 30.201C18.8255 30.2334 18.9124 30.25 19 30.25C19.0876 30.25 19.1745 30.2334 19.2559 30.201C19.3371 30.1686 19.412 30.1206 19.4751 30.0598L23.0483 26.6423C23.1115 26.5819 23.1622 26.5095 23.1971 26.4291C23.2319 26.3486 23.25 26.262 23.25 26.1742C23.25 26.0864 23.2319 25.9998 23.1971 25.9193C23.1622 25.8389 23.1115 25.7666 23.0483 25.7062C22.9852 25.6458 22.9108 25.5984 22.8297 25.5663C22.7487 25.5342 22.6622 25.5178 22.575 25.5178C22.4879 25.5178 22.4014 25.5342 22.3203 25.5663C22.2393 25.5984 22.1649 25.6458 22.1018 25.7062L19.6747 28.0274V5.97053L22.1018 8.29182C22.1649 8.35221 22.2393 8.39956 22.3203 8.43168C22.4014 8.46379 22.4879 8.48019 22.575 8.48019C22.6622 8.48019 22.7487 8.46379 22.8297 8.43168C22.9108 8.39956 22.9852 8.35221 23.0483 8.29182C23.1115 8.2314 23.1622 8.15907 23.1971 8.07865C23.2319 7.99819 23.25 7.91155 23.25 7.82376C23.25 7.73596 23.2319 7.64932 23.1971 7.56887C23.1622 7.48844 23.1114 7.41606 23.0483 7.35564L19.4717 3.93694C19.3445 3.81604 19.1748 3.75 19 3.75ZM24.4286 3.75C24.2528 3.75 24.0817 3.81607 23.9535 3.93755C23.8249 4.05946 23.75 4.22776 23.75 4.40625V29.5938C23.75 29.7722 23.8249 29.9405 23.9535 30.0625C24.0817 30.1839 24.2528 30.25 24.4286 30.25H29.5714C29.7472 30.25 29.9183 30.1839 30.0465 30.0625C30.1751 29.9405 30.25 29.7722 30.25 29.5938V4.40625C30.25 4.22776 30.1751 4.05946 30.0465 3.93755C29.9183 3.81607 29.7472 3.75 29.5714 3.75H24.4286ZM25.1071 7.40625V5.0625H28.8929V28.9375H25.1071V26.5938H26.1429C26.3186 26.5938 26.4897 26.5277 26.6179 26.4062C26.7465 26.2843 26.8214 26.116 26.8214 25.9375C26.8214 25.759 26.7465 25.5907 26.6179 25.4688C26.4897 25.3473 26.3186 25.2812 26.1429 25.2812H25.1071V22.9375H26.1429C26.3186 22.9375 26.4897 22.8714 26.6179 22.75C26.7465 22.628 26.8214 22.4597 26.8214 22.2812C26.8214 22.1028 26.7465 21.9345 26.6179 21.8125C26.4897 21.6911 26.3186 21.625 26.1429 21.625H25.1071V19.4844H26.1429C26.3186 19.4844 26.4897 19.4183 26.6179 19.2968C26.7465 19.1749 26.8214 19.0066 26.8214 18.8281C26.8214 18.6496 26.7465 18.4813 26.6179 18.3594C26.4897 18.2379 26.3186 18.1719 26.1429 18.1719H25.1071V15.8281H26.1429C26.3186 15.8281 26.4897 15.7621 26.6179 15.6406C26.7465 15.5187 26.8214 15.3504 26.8214 15.1719C26.8214 14.9934 26.7465 14.8251 26.6179 14.7032C26.4897 14.5817 26.3186 14.5156 26.1429 14.5156H25.1071V12.375H26.1429C26.3186 12.375 26.4897 12.3089 26.6179 12.1875C26.7465 12.0655 26.8214 11.8972 26.8214 11.7188C26.8214 11.5403 26.7465 11.372 26.6179 11.25C26.4897 11.1286 26.3186 11.0625 26.1429 11.0625H25.1071V8.71875H26.1429C26.3186 8.71875 26.4897 8.65268 26.6179 8.5312C26.7465 8.40929 26.8214 8.24099 26.8214 8.0625C26.8214 7.88401 26.7465 7.71571 26.6179 7.5938C26.4897 7.47232 26.3186 7.40625 26.1429 7.40625H25.1071ZM6.5 13.75C6.31533 13.75 6.13061 13.8098 5.98787 13.9269C5.84374 14.0452 5.75 14.2174 5.75 14.4103V29.5897C5.75 29.7826 5.84374 29.9548 5.98787 30.0731C6.13061 30.1902 6.31533 30.25 6.5 30.25C6.68467 30.25 6.86939 30.1902 7.01213 30.0731C7.15626 29.9548 7.25 29.7826 7.25 29.5897V14.4103C7.25 14.2174 7.15626 14.0452 7.01213 13.9269C6.86939 13.8098 6.68467 13.75 6.5 13.75ZM12.5 13.75C12.3153 13.75 12.1306 13.8098 11.9879 13.9269C11.8437 14.0452 11.75 14.2174 11.75 14.4103V29.5897C11.75 29.7826 11.8437 29.9548 11.9879 30.0731C12.1306 30.1902 12.3153 30.25 12.5 30.25C12.6847 30.25 12.8694 30.1902 13.0121 30.0731C13.1563 29.9548 13.25 29.7826 13.25 29.5897V14.4103C13.25 14.2174 13.1563 14.0452 13.0121 13.9269C12.8694 13.8098 12.6847 13.75 12.5 13.75ZM9.5 18.75C9.31333 18.75 9.12759 18.8124 8.98496 18.9331C8.84107 19.0548 8.75 19.2298 8.75 19.4231V29.5769C8.75 29.7702 8.84107 29.9452 8.98496 30.0669C9.12759 30.1876 9.31333 30.25 9.5 30.25C9.68667 30.25 9.87241 30.1876 10.015 30.0669C10.1589 29.9452 10.25 29.7702 10.25 29.5769V19.4231C10.25 19.2298 10.1589 19.0548 10.015 18.9331C9.87241 18.8124 9.68667 18.75 9.5 18.75Z" fill="#4E4CF7"/>
    </svg>
    