<svg width="152" height="45" viewBox="0 0 152 45" fill="none" xmlns="http://www.w3.org/2000/svg">
<g filter="url(#filter0_b_3460_15675)">
<rect x="0.000488281" y="0.5" width="151.999" height="44" rx="22" fill="#393939" fill-opacity="0.7"/>
<g clip-path="url(#clip0_3460_15675)">
<path d="M32.5625 16.1143C34.1128 16.1143 35.3696 14.8575 35.3696 13.3071C35.3696 11.7568 34.1128 10.5 32.5625 10.5C31.0122 10.5 29.7554 11.7568 29.7554 13.3071C29.7554 14.8575 31.0122 16.1143 32.5625 16.1143Z" fill="white"/>
<path d="M32.5625 34.5C33.4926 34.5 34.2466 33.746 34.2466 32.8159C34.2466 31.8858 33.4926 31.1318 32.5625 31.1318C31.6324 31.1318 30.8784 31.8858 30.8784 32.8159C30.8784 33.746 31.6324 34.5 32.5625 34.5Z" fill="white"/>
<path d="M25.6648 18.6899C27.0602 18.6899 28.1914 17.5587 28.1914 16.1633C28.1914 14.7679 27.0602 13.6367 25.6648 13.6367C24.2694 13.6367 23.1382 14.7679 23.1382 16.1633C23.1382 17.5587 24.2694 18.6899 25.6648 18.6899Z" fill="white"/>
<path d="M39.4602 31.3613C40.2354 31.3613 40.8638 30.7329 40.8638 29.9578C40.8638 29.1826 40.2354 28.5542 39.4602 28.5542C38.685 28.5542 38.0566 29.1826 38.0566 29.9578C38.0566 30.7329 38.685 31.3613 39.4602 31.3613Z" fill="white"/>
<path d="M22.8077 25.3072C24.0476 25.3072 25.0528 24.302 25.0528 23.0621C25.0528 21.8221 24.0476 20.8169 22.8077 20.8169C21.5677 20.8169 20.5625 21.8221 20.5625 23.0621C20.5625 24.302 21.5677 25.3072 22.8077 25.3072Z" fill="white"/>
<path d="M42.3165 24.1832C42.9362 24.1832 43.4386 23.6808 43.4386 23.0611C43.4386 22.4414 42.9362 21.939 42.3165 21.939C41.6967 21.939 41.1943 22.4414 41.1943 23.0611C41.1943 23.6808 41.6967 24.1832 42.3165 24.1832Z" fill="white"/>
<path d="M24.2761 28.5705C23.5082 29.3383 23.5082 30.5807 24.2761 31.3485C25.043 32.1163 26.2871 32.1163 27.054 31.3485C27.8219 30.5807 27.8219 29.3383 27.054 28.5705C26.2871 27.8018 25.0439 27.7945 24.2761 28.5705Z" fill="white"/>
<path d="M39.4593 17.005C39.9241 17.005 40.3009 16.6282 40.3009 16.1634C40.3009 15.6986 39.9241 15.3218 39.4593 15.3218C38.9945 15.3218 38.6177 15.6986 38.6177 16.1634C38.6177 16.6282 38.9945 17.005 39.4593 17.005Z" fill="white"/>
</g>
<path d="M55.1035 17.332V28.5H61.0235V26.724H57.3435V17.332H55.1035ZM71.0073 24.068C71.0073 21.268 69.0073 19.492 66.4473 19.492C63.8873 19.492 61.8873 21.268 61.8873 24.068C61.8873 26.852 63.8233 28.644 66.3833 28.644C68.9593 28.644 71.0073 26.852 71.0073 24.068ZM64.1593 24.068C64.1593 22.292 65.2313 21.444 66.4153 21.444C67.5993 21.444 68.7033 22.292 68.7033 24.068C68.7033 25.828 67.5673 26.692 66.3833 26.692C65.1833 26.692 64.1593 25.828 64.1593 24.068ZM72.0744 24.036C72.0744 26.804 73.8664 28.644 76.1064 28.644C77.5144 28.644 78.5224 27.972 79.0504 27.204V28.5H81.3064V19.636H79.0504V20.9C78.5224 20.164 77.5464 19.492 76.1224 19.492C73.8664 19.492 72.0744 21.268 72.0744 24.036ZM79.0504 24.068C79.0504 25.748 77.9304 26.676 76.6984 26.676C75.4984 26.676 74.3624 25.716 74.3624 24.036C74.3624 22.356 75.4984 21.46 76.6984 21.46C77.9304 21.46 79.0504 22.388 79.0504 24.068ZM82.9181 24.036C82.9181 26.804 84.7101 28.644 86.9661 28.644C88.3581 28.644 89.3501 28.004 89.8781 27.188V28.5H92.1501V16.66H89.8781V20.868C89.2701 20.036 88.1501 19.492 86.9821 19.492C84.7101 19.492 82.9181 21.268 82.9181 24.036ZM89.8941 24.068C89.8941 25.748 88.7741 26.676 87.5421 26.676C86.3421 26.676 85.2061 25.716 85.2061 24.036C85.2061 22.356 86.3421 21.46 87.5421 21.46C88.7741 21.46 89.8941 22.388 89.8941 24.068ZM94.3379 28.5H96.5779V19.636H94.3379V28.5ZM95.4739 18.58C96.2579 18.58 96.8499 18.004 96.8499 17.268C96.8499 16.532 96.2579 15.956 95.4739 15.956C94.6739 15.956 94.0979 16.532 94.0979 17.268C94.0979 18.004 94.6739 18.58 95.4739 18.58ZM104.999 28.5H107.239V23.3C107.239 20.852 105.767 19.508 103.703 19.508C102.567 19.508 101.607 19.988 101.031 20.74V19.636H98.791V28.5H101.031V23.604C101.031 22.18 101.815 21.412 103.031 21.412C104.215 21.412 104.999 22.18 104.999 23.604V28.5ZM108.793 24.036C108.793 26.804 110.585 28.644 112.841 28.644C114.233 28.644 115.241 27.956 115.769 27.188V28.564C115.769 30.212 114.809 30.916 113.577 30.916C112.457 30.916 111.625 30.388 111.401 29.588H109.177C109.401 31.62 111.145 32.868 113.641 32.868C116.553 32.868 118.025 30.964 118.025 28.564V19.636H115.769V20.9C115.241 20.132 114.233 19.492 112.841 19.492C110.585 19.492 108.793 21.268 108.793 24.036ZM115.769 24.068C115.769 25.748 114.649 26.676 113.417 26.676C112.217 26.676 111.081 25.716 111.081 24.036C111.081 22.356 112.217 21.46 113.417 21.46C114.649 21.46 115.769 22.388 115.769 24.068ZM122.565 27.3C122.565 26.564 121.989 25.988 121.205 25.988C120.389 25.988 119.813 26.564 119.813 27.3C119.813 28.036 120.389 28.612 121.205 28.612C121.989 28.612 122.565 28.036 122.565 27.3ZM126.721 27.3C126.721 26.564 126.145 25.988 125.361 25.988C124.545 25.988 123.969 26.564 123.969 27.3C123.969 28.036 124.545 28.612 125.361 28.612C126.145 28.612 126.721 28.036 126.721 27.3ZM130.877 27.3C130.877 26.564 130.301 25.988 129.517 25.988C128.701 25.988 128.125 26.564 128.125 27.3C128.125 28.036 128.701 28.612 129.517 28.612C130.301 28.612 130.877 28.036 130.877 27.3Z" fill="white"/>
</g>
<defs>
<filter id="filter0_b_3460_15675" x="-20.9995" y="-20.5" width="193.999" height="86" filterUnits="userSpaceOnUse" color-interpolation-filters="sRGB">
<feFlood flood-opacity="0" result="BackgroundImageFix"/>
<feGaussianBlur in="BackgroundImage" stdDeviation="10.5"/>
<feComposite in2="SourceAlpha" operator="in" result="effect1_backgroundBlur_3460_15675"/>
<feBlend mode="normal" in="SourceGraphic" in2="effect1_backgroundBlur_3460_15675" result="shape"/>
</filter>
<clipPath id="clip0_3460_15675">
<rect width="23.9991" height="24" fill="white" transform="translate(20.0005 10.5)"/>
</clipPath>
</defs>
</svg>
