<svg width="30" height="30" viewBox="0 0 30 30" fill="none" xmlns="http://www.w3.org/2000/svg">
<path d="M16.6573 15L29.6567 2.00058C30.1144 1.5429 30.1144 0.800873 29.6567 0.343256C29.199 -0.11436 28.457 -0.114419 27.9994 0.343256L14.9999 13.3427L2.00052 0.343256C1.54284 -0.114419 0.800811 -0.114419 0.343195 0.343256C-0.114421 0.800931 -0.11448 1.54296 0.343195 2.00058L13.3426 15L0.343195 27.9995C-0.11448 28.4571 -0.11448 29.1992 0.343195 29.6568C0.572003 29.8856 0.871944 30 1.17188 30C1.47183 30 1.77171 29.8856 2.00057 29.6568L14.9999 16.6574L27.9993 29.6568C28.2281 29.8856 28.5281 30 28.828 30C29.128 30 29.4278 29.8856 29.6567 29.6568C30.1144 29.1991 30.1144 28.4571 29.6567 27.9995L16.6573 15Z" fill="white"/>
</svg>
