<svg xmlns="http://www.w3.org/2000/svg" width="73.963" height="73.964" viewBox="0 0 73.963 73.964">
  <g fill="none" stroke="#fff" stroke-linecap="round" stroke-linejoin="round" stroke-width="2">
    <path d="M39.303 67.16h0a5.8 5.8 0 005.8 5.8h5.8a5.8 5.8 0 005.8-5.8h0M48.589 1v2.321M68.221 11.14l1.707-1.641M59.213 5.354l.924-2.145M37.964 5.354l-.924-2.145M39.303 57.874s-.911-4.813-2.749-7.227c-4.215-5.54-8.858-12.335-8.858-19.468a20.892 20.892 0 0141.785 0l3.482 10.446h-5.8v6.966a4.643 4.643 0 01-4.643 4.643h-1.924a3.482 3.482 0 00-3.378 2.637h0a16.809 16.809 0 00-.5 4.073v2.575H39.303"/>
    <path d="M45.107 50.91c0-6.964 0-13.928-4.643-18.571h16.25c-4.643 4.643-4.643 11.607-4.643 18.571"/>
    <g>
      <path d="M32.339 10.286h-3.482a2.321 2.321 0 00-2.321 2.321v.974a2.323 2.323 0 01-1.434 2.145l-5.96 2.468a2.321 2.321 0 01-2.53-.5l-.689-.689a2.32 2.32 0 00-3.282 0L7.716 21.93a2.32 2.32 0 000 3.282l1.238 1.238a1.162 1.162 0 01.251 1.265L6.44 34.391a2.323 2.323 0 01-2.145 1.434H3.32a2.321 2.321 0 00-2.321 2.321v6.964a2.321 2.321 0 002.321 2.321h.975a2.321 2.321 0 012.145 1.434l2.468 5.958a2.321 2.321 0 01-.5 2.53l-.689.689a2.321 2.321 0 000 3.283l4.925 4.925a2.32 2.32 0 003.282 0l.689-.689a2.32 2.32 0 012.53-.5l5.96 2.468a2.323 2.323 0 011.434 2.145v.975a2.321 2.321 0 002.321 2.321h4.643"/>
      <path d="M20.163 32.339A16.251 16.251 0 0033.5 57.874h5.8"/>
    </g>
  </g>
</svg>