<svg xmlns="http://www.w3.org/2000/svg" viewBox="0 0 337.95 233.05"><defs><style>.cls-1{fill:#fff;}</style></defs><title>Asset 2</title><g id="Layer_2" data-name="Layer 2"><g id="Layer_1-2" data-name="Layer 1"><path d="M239.24,3.17C223,7.45,210.53,15.43,202,26.94H135.94c-8.52-11.51-21-19.49-37.23-23.77C73.58-3.45,28.46-3.3,8.63,72-6.6,129.79-2.51,220.69,38.56,231.52a31.16,31.16,0,0,0,7.89,1c30,0,62.55-41.92,82.35-85.3h80.35c21.55,47.21,58.21,92.69,90.24,84.29C340.46,220.7,344.55,129.79,329.31,72,309.49-3.3,264.39-3.43,239.24,3.17ZM296,218.49c-20.54,5.42-54.09-30-76.25-80.69a6.74,6.74,0,0,0-6.18-4H124.43a6.72,6.72,0,0,0-6.17,4C96.09,188.48,62.53,223.92,42,218.49c-25.86-6.82-36.5-81.71-20.34-143.1C32.43,34.51,51.58,13.91,78.71,13.91A65.51,65.51,0,0,1,95.27,16.2c14.27,3.76,24.86,10.87,31.48,21.13a6.74,6.74,0,0,0,5.66,3.09h73.13a6.74,6.74,0,0,0,5.66-3.09C217.82,27.07,228.41,20,242.67,16.2c36-9.43,60.77,10.44,73.61,59.19C332.45,136.78,321.81,211.67,296,218.49Z"/><path class="cls-1" d="M46.45,233.05a31.73,31.73,0,0,1-8-1C-2.95,221.11-7.15,129.86,8.14,71.83,16.89,38.61,31.46,16.59,51.45,6.4,68.78-2.43,86.79-.5,98.84,2.68,115.05,7,127.62,14.94,136.2,26.42h65.55C210.33,14.94,222.89,7,239.11,2.68h0c25.32-6.66,70.77-6.52,90.7,69.15,15.29,58,11.09,149.29-30.29,160.19-14.89,3.9-32-3.5-49.55-21.43-15-15.36-29.62-37.66-41.15-62.84H129.13c-10.45,22.82-23.69,43.67-37.3,58.74C76.13,223.87,60.44,233.05,46.45,233.05ZM79,1A59.11,59.11,0,0,0,51.92,7.32C32.2,17.37,17.81,39.16,9.13,72.09-6,129.71-2.08,220.28,38.69,231a30.64,30.64,0,0,0,7.76,1c29.77,0,62.57-42.69,81.88-85l.14-.3h81l.14.3c11.5,25.2,26.09,47.52,41.09,62.85,17.25,17.65,34,25,48.55,21.15C340,220.28,344,129.72,328.82,72.09,320.36,40,297.49-11.6,239.37,3.67h0c-16.08,4.24-28.51,12.17-37,23.57l-.15.21H135.68l-.15-.21c-8.44-11.4-20.87-19.33-36.95-23.57A77.69,77.69,0,0,0,79,1ZM46.32,219.55a17.31,17.31,0,0,1-4.46-.56c-26.09-6.88-36.92-82.1-20.69-143.73C32,34.21,51.34,13.39,78.71,13.39A65.85,65.85,0,0,1,95.4,15.71c14.4,3.79,25.09,11,31.78,21.34a6.21,6.21,0,0,0,5.23,2.85h73.13a6.21,6.21,0,0,0,5.23-2.85c6.69-10.37,17.38-17.55,31.77-21.34,36.34-9.53,61.32,10.5,74.24,59.55,16.23,61.63,5.4,136.85-20.7,143.73-20.83,5.5-54.59-30.07-76.86-81a6.22,6.22,0,0,0-5.7-3.73H124.43a6.23,6.23,0,0,0-5.7,3.73C98,185.43,67.27,219.55,46.32,219.55ZM78.71,14.42c-26.84,0-45.87,20.56-56.55,61.1-16.1,61.15-5.65,135.72,20,142.47,20.36,5.38,53.58-29.93,75.65-80.4a7.27,7.27,0,0,1,6.65-4.35h89.09a7.27,7.27,0,0,1,6.65,4.35c20.58,47,50.86,80.94,71.36,80.94a16.38,16.38,0,0,0,4.29-.54h0c25.62-6.75,36.07-81.32,20-142.47C303,27.14,278.48,7.34,242.8,16.7c-14.13,3.73-24.62,10.76-31.16,20.91a7.25,7.25,0,0,1-6.1,3.32H132.41a7.24,7.24,0,0,1-6.1-3.32c-6.54-10.15-17-17.18-31.17-20.91A65.2,65.2,0,0,0,78.71,14.42Z"/><path d="M104,83.69H79.73V59.42a7,7,0,0,0-14,0V83.69H41.42a7,7,0,0,0,0,14H65.69V122a7,7,0,0,0,14,0V97.73H104a7,7,0,0,0,0-14Z"/><path d="M189.83,83.69H146.12a7,7,0,0,0,0,14h43.71a7,7,0,0,0,0-14Z"/><path d="M263.31,56.43a7,7,0,0,0-7,7v6.48a7,7,0,1,0,14,0V63.44A7,7,0,0,0,263.31,56.43Z"/><path d="M242.52,83.69h-6.47a7,7,0,0,0,0,14h6.47a7,7,0,0,0,0-14Z"/><path d="M263.31,104.49a7,7,0,0,0-7,7V118a7,7,0,1,0,14,0V111.5A7,7,0,0,0,263.31,104.49Z"/><path d="M290.59,83.69h-6.48a7,7,0,0,0,0,14h6.48a7,7,0,1,0,0-14Z"/></g></g></svg>