<svg width="66" height="66" viewBox="0 0 66 66" fill="none" xmlns="http://www.w3.org/2000/svg">
<path d="M45.4704 37.5731H11.4439L40.9093 18.8386C40.9951 18.7841 41.0692 18.7133 41.1276 18.6301C41.1859 18.547 41.2273 18.4531 41.2494 18.354C41.2715 18.2548 41.2738 18.1522 41.2562 18.0522C41.2387 17.9521 41.2016 17.8565 41.147 17.7708L38.2277 13.1794C37.5619 12.1348 36.509 11.3969 35.2999 11.1277C34.0907 10.8585 32.8242 11.0799 31.7781 11.7434L27.6319 14.3796L27.9603 12.8081C28.0898 12.24 28.1057 11.6518 28.0072 11.0775C27.9086 10.5032 27.6976 9.95395 27.3862 9.46142C27.0747 8.96889 26.6691 8.54276 26.1924 8.2075C25.7158 7.87223 25.1776 7.63445 24.6088 7.50781C24.04 7.38118 23.4518 7.36818 22.878 7.46956C22.3041 7.57095 21.756 7.78473 21.265 8.09861C20.774 8.41249 20.3499 8.82029 20.017 9.29857C19.6842 9.77686 19.4491 10.3162 19.3253 10.8856L17.1712 20.5606L9.9588 18.9552C8.88321 18.7155 7.75687 18.8858 6.80031 19.433C5.84375 19.9801 5.12586 20.8646 4.7872 21.9133C4.44854 22.9619 4.5135 24.0992 4.96936 25.1025C5.42521 26.1058 6.23914 26.9028 7.25177 27.3374L2.80992 30.1618C1.76535 30.8275 1.02752 31.8805 0.758304 33.0895C0.489091 34.2986 0.710481 35.5651 1.3739 36.6112L4.29324 41.2027C4.34773 41.2884 4.41857 41.3626 4.50172 41.421C4.58487 41.4793 4.67869 41.5207 4.77784 41.5428C4.877 41.5649 4.97953 41.5672 5.07958 41.5497C5.17963 41.5321 5.27525 41.495 5.36097 41.4405L8.07832 39.7132V59.2925C8.07972 60.5312 8.57244 61.7188 9.44837 62.5947C10.3243 63.4706 11.5119 63.9633 12.7507 63.9646H41.572C42.8107 63.9632 43.9983 63.4705 44.8741 62.5946C45.75 61.7188 46.2427 60.5312 46.2441 59.2925V38.3465C46.2441 38.2449 46.2241 38.1444 46.1852 38.0505C46.1463 37.9566 46.0893 37.8714 46.0175 37.7995C45.9456 37.7277 45.8603 37.6708 45.7665 37.6319C45.6726 37.5931 45.572 37.5731 45.4704 37.5731ZM32.6081 13.0489C33.107 12.7299 33.6867 12.5602 34.2789 12.5599C34.5094 12.56 34.7392 12.5854 34.9642 12.6355C35.3652 12.7237 35.7447 12.8906 36.0808 13.1264C36.4169 13.3622 36.7029 13.6623 36.9223 14.0094L39.4266 17.9482L27.245 25.6936L23.0638 19.1176L32.6081 13.0489ZM20.8351 11.222C21.0022 10.4776 21.4582 9.8301 22.1027 9.42191C22.7472 9.01372 23.5274 8.87828 24.2718 9.04537C25.0161 9.21247 25.6636 9.66841 26.0718 10.3129C26.48 10.9574 26.6155 11.7377 26.4484 12.482L25.8134 15.5196L18.8954 19.9345L20.8351 11.222ZM21.7581 19.9476L25.9393 26.5236L18.8804 31.0116L14.6993 24.4356L21.7581 19.9476ZM6.57024 24.8162C6.26497 24.3361 6.10892 23.7763 6.12182 23.2075C6.13472 22.6387 6.316 22.0865 6.64273 21.6208C6.96945 21.1551 7.42695 20.7967 7.95737 20.5909C8.48779 20.3852 9.0673 20.3414 9.62261 20.465L15.8726 21.8565L8.93464 26.2056L8.37235 26.0803C8.00331 25.9992 7.65401 25.8457 7.34468 25.6287C7.03535 25.4117 6.77213 25.1355 6.57024 24.8162ZM5.18386 39.7202L2.67959 35.7813C2.23582 35.0816 2.08771 34.2344 2.26775 33.4257C2.44778 32.6169 2.94127 31.9126 3.63995 31.4672L13.3939 25.2656L17.575 31.8417L5.18386 39.7202ZM20.1825 62.4177H12.7507C11.9221 62.4168 11.1277 62.0872 10.5419 61.5013C9.95597 60.9154 9.62641 60.1211 9.62545 59.2925V39.12H20.1829L20.1825 62.4177ZM30.0134 62.4177H21.7294V39.12H30.0134V62.4177ZM44.697 59.2925C44.696 60.121 44.3665 60.9154 43.7807 61.5012C43.1948 62.0871 42.4006 62.4167 41.572 62.4177H31.5603V39.12H44.697V59.2925Z" fill="#4E4CF7"/>
<path d="M54.1191 30.547L54.4891 28.3898C54.5134 28.2476 54.4975 28.1014 54.4432 27.9678C54.3888 27.8342 54.2981 27.7184 54.1814 27.6336C54.0647 27.5488 53.9266 27.4983 53.7828 27.4879C53.6389 27.4774 53.4949 27.5074 53.3672 27.5745L51.43 28.5928L49.4927 27.5745C49.3649 27.5073 49.2209 27.4772 49.077 27.4876C48.933 27.498 48.7949 27.5485 48.6781 27.6333C48.5613 27.7181 48.4706 27.8339 48.4163 27.9676C48.3619 28.1013 48.346 28.2475 48.3704 28.3898L48.7404 30.547L47.1731 32.0746C47.0697 32.1753 46.9966 32.303 46.962 32.4431C46.9274 32.5832 46.9327 32.7302 46.9773 32.8675C47.0219 33.0048 47.104 33.1268 47.2144 33.2199C47.3247 33.3129 47.4589 33.3732 47.6017 33.3939L49.7674 33.7087L50.736 35.6713C50.7998 35.8008 50.8986 35.9098 51.0212 35.986C51.1438 36.0622 51.2853 36.1026 51.4296 36.1026C51.574 36.1026 51.7154 36.0622 51.838 35.986C51.9606 35.9098 52.0594 35.8008 52.1233 35.6713L53.0917 33.7087L55.2574 33.3939C55.4002 33.3732 55.5344 33.3129 55.6447 33.2199C55.7551 33.1268 55.8372 33.0048 55.8818 32.8675C55.9264 32.7302 55.9317 32.5832 55.8971 32.4431C55.8625 32.303 55.7893 32.1753 55.686 32.0746L54.1191 30.547ZM52.4669 32.2357C52.3428 32.2537 52.225 32.3017 52.1235 32.3754C52.022 32.4491 51.94 32.5463 51.8845 32.6588L51.4296 33.5807L50.9746 32.6588C50.9191 32.5463 50.8371 32.4491 50.7356 32.3754C50.6342 32.3017 50.5164 32.2538 50.3923 32.2357L49.3747 32.0879L50.111 31.3702C50.2008 31.2827 50.268 31.1747 50.3068 31.0554C50.3455 30.9361 50.3547 30.8092 50.3335 30.6856L50.1596 29.6722L51.0697 30.1505C51.1807 30.2089 51.3042 30.2395 51.4296 30.2395C51.555 30.2395 51.6785 30.2089 51.7895 30.1505L52.6995 29.6722L52.5257 30.6856C52.5045 30.8092 52.5136 30.9361 52.5524 31.0554C52.5911 31.1746 52.6583 31.2827 52.7481 31.3702L53.4844 32.0879L52.4669 32.2357Z" fill="#4E4CF7"/>
<path d="M63.0144 19.8903L60.8875 19.3733L60.1074 17.3285C60.056 17.1936 59.9679 17.0758 59.853 16.9884C59.7382 16.901 59.6011 16.8475 59.4574 16.8339C59.3137 16.8204 59.1691 16.8473 59.0399 16.9116C58.9107 16.976 58.8021 17.0752 58.7263 17.198L57.5777 19.0611L55.3918 19.1711C55.2477 19.1783 55.1084 19.2258 54.9899 19.308C54.8713 19.3903 54.7781 19.504 54.7208 19.6365C54.6635 19.7689 54.6444 19.9148 54.6657 20.0575C54.6869 20.2002 54.7477 20.3342 54.8411 20.4442L56.2579 22.1123L55.6872 24.2251C55.6496 24.3644 55.6517 24.5115 55.6932 24.6497C55.7348 24.7879 55.8142 24.9117 55.9225 25.0072C56.0308 25.1026 56.1636 25.1658 56.3059 25.1897C56.4482 25.2136 56.5944 25.1971 56.7279 25.1423L58.7517 24.3103L60.5857 25.5062C60.7065 25.585 60.8471 25.6285 60.9913 25.6316C61.1356 25.6348 61.2779 25.5975 61.4021 25.5241C61.5263 25.4506 61.6274 25.3438 61.6941 25.2158C61.7608 25.0879 61.7904 24.9438 61.7795 24.7999L61.6138 22.6175L63.3171 21.2438C63.4294 21.1532 63.5141 21.033 63.5617 20.8968C63.6093 20.7606 63.6178 20.6138 63.5863 20.473C63.5548 20.3322 63.4846 20.203 63.3835 20.1C63.2824 19.997 63.1546 19.9244 63.0144 19.8903ZM60.3259 21.6692C60.2283 21.7479 60.1513 21.8491 60.1016 21.9642C60.0518 22.0793 60.0308 22.2048 60.0403 22.3298L60.1176 23.355L59.2564 22.7931C59.1514 22.7246 59.0313 22.6827 58.9064 22.6709C58.7816 22.6591 58.6558 22.6779 58.5398 22.7255L57.589 23.1164L57.8571 22.1238C57.8898 22.0028 57.8926 21.8756 57.8652 21.7532C57.8379 21.6309 57.7812 21.517 57.7 21.4214L57.0344 20.6378L58.0613 20.5862C58.1866 20.58 58.3084 20.5433 58.4164 20.4795C58.5243 20.4157 58.6151 20.3266 58.681 20.2199L59.2204 19.3447L59.5868 20.3053C59.6315 20.4225 59.704 20.527 59.7981 20.6099C59.8921 20.6927 60.0049 20.7515 60.1268 20.7811L61.1259 21.024L60.3259 21.6692Z" fill="#4E4CF7"/>
<path d="M51.6394 7.31707L51.0685 9.42985C51.0308 9.56918 51.0328 9.71627 51.0744 9.85449C51.116 9.99272 51.1954 10.1166 51.3037 10.212C51.4119 10.3074 51.5448 10.3707 51.6871 10.3946C51.8295 10.4184 51.9756 10.402 52.1091 10.3471L54.133 9.51505L55.9661 10.7112C56.087 10.79 56.2275 10.8335 56.3718 10.8366C56.5161 10.8398 56.6584 10.8025 56.7826 10.729C56.9068 10.6555 57.008 10.5487 57.0747 10.4208C57.1413 10.2928 57.1709 10.1487 57.1599 10.0048L56.9943 7.82239L58.6979 6.4485C58.8102 6.35792 58.895 6.23773 58.9425 6.10152C58.9901 5.96531 58.9986 5.81851 58.9671 5.6777C58.9357 5.5369 58.8654 5.40771 58.7644 5.30474C58.6633 5.20176 58.5354 5.12911 58.3953 5.09499L56.2683 4.5782L55.4884 2.53324C55.437 2.39838 55.3488 2.2806 55.234 2.19322C55.1191 2.10585 54.982 2.05236 54.8383 2.03881C54.6946 2.02527 54.55 2.0522 54.4208 2.11657C54.2916 2.18094 54.183 2.28017 54.1073 2.40304L52.9588 4.26599L50.7728 4.37582C50.6286 4.38305 50.4894 4.43047 50.3708 4.5127C50.2522 4.59494 50.159 4.70871 50.1017 4.84116C50.0444 4.97361 50.0253 5.11946 50.0465 5.2622C50.0678 5.40494 50.1285 5.53889 50.222 5.6489L51.6394 7.31707ZM53.4429 5.79031C53.5682 5.78402 53.69 5.74737 53.7979 5.68353C53.9059 5.61969 53.9966 5.53056 54.0625 5.42383L54.6021 4.54868L54.9684 5.50929C55.0131 5.62645 55.0856 5.73099 55.1797 5.8139C55.2737 5.89681 55.3866 5.9556 55.5084 5.98522L56.5074 6.22795L55.7072 6.87325C55.6095 6.95195 55.5325 7.05321 55.4827 7.1683C55.433 7.28339 55.4119 7.40886 55.4214 7.5339L55.4987 8.55922L54.6375 7.99731C54.5325 7.92881 54.4124 7.88687 54.2875 7.8751C54.1627 7.86334 54.0369 7.8821 53.9209 7.92977L52.9701 8.32061L53.2382 7.32803C53.271 7.20696 53.2738 7.07975 53.2464 6.95737C53.219 6.83498 53.1623 6.72108 53.0811 6.62549L52.4156 5.84174L53.4429 5.79031Z" fill="#4E4CF7"/>
<path d="M37.6075 30.6584C35.8614 31.7574 35.0083 33.089 34.9728 33.1452C34.863 33.3184 34.8264 33.5282 34.8712 33.7284C34.916 33.9285 35.0385 34.1027 35.2117 34.2126C35.385 34.3225 35.5948 34.359 35.7949 34.3142C35.9951 34.2694 36.1693 34.1469 36.2792 33.9737C36.3952 33.7932 39.1936 29.5631 45.2845 31.0698C45.4829 31.1169 45.6919 31.0839 45.866 30.9777C46.04 30.8716 46.1652 30.7011 46.2142 30.5031C46.2632 30.3052 46.232 30.096 46.1275 29.9209C46.023 29.7458 45.8536 29.6191 45.6562 29.5683C41.9086 28.6411 39.2107 29.6492 37.6075 30.6584Z" fill="#4E4CF7"/>
<path d="M52.2842 22.4675C52.4736 22.5461 52.6866 22.5463 52.8762 22.4679C53.0657 22.3895 53.2164 22.239 53.295 22.0496C53.3737 21.8601 53.3738 21.6471 53.2955 21.4576C53.2171 21.268 53.0666 21.1173 52.8771 21.0387C47.371 18.7536 43.3691 20.4648 40.9817 22.303C39.3977 23.5348 38.0867 25.0819 37.1315 26.8464C37.0863 26.9374 37.0595 27.0364 37.0526 27.1377C37.0457 27.239 37.0588 27.3408 37.0912 27.437C37.1235 27.5333 37.1746 27.6222 37.2413 27.6988C37.3081 27.7753 37.3893 27.838 37.4802 27.8832C37.5712 27.9283 37.6702 27.9551 37.7715 27.9621C37.8729 27.969 37.9746 27.9559 38.0708 27.9235C38.1671 27.8911 38.2561 27.8401 38.3326 27.7733C38.4091 27.7066 38.4718 27.6254 38.517 27.5344C39.3693 25.9816 40.529 24.6186 41.9253 23.5286C44.9272 21.218 48.4125 20.8607 52.2842 22.4675Z" fill="#4E4CF7"/>
<path d="M43.5932 16.7377C43.5301 16.9329 43.5471 17.1451 43.6404 17.3278C43.7338 17.5104 43.8959 17.6485 44.091 17.7116C45.1558 18.0253 46.2601 18.1849 47.3701 18.1855C48.6636 18.1855 50.1575 17.952 51.4971 17.158C53.2502 16.1192 54.3743 14.3495 54.8401 11.8986C54.8595 11.7986 54.8589 11.6959 54.8385 11.5961C54.818 11.4964 54.7781 11.4017 54.721 11.3174C54.6638 11.2332 54.5906 11.161 54.5056 11.1051C54.4205 11.0492 54.3252 11.0106 54.2252 10.9916C54.1252 10.9726 54.0224 10.9735 53.9227 10.9944C53.8231 11.0152 53.7285 11.0554 53.6445 11.1129C53.5604 11.1703 53.4885 11.2438 53.4329 11.3291C53.3773 11.4143 53.3391 11.5098 53.3205 11.6098C52.9417 13.6029 52.0652 15.0207 50.7151 15.8238C48.1472 17.3517 44.6221 16.2578 44.5663 16.24C44.3713 16.1771 44.1592 16.1942 43.9768 16.2875C43.7943 16.3809 43.6564 16.5428 43.5932 16.7377Z" fill="#4E4CF7"/>
<path d="M33.3694 36.7219C33.6449 36.7219 33.9142 36.6403 34.1433 36.4872C34.3724 36.3342 34.551 36.1166 34.6564 35.8621C34.7619 35.6076 34.7895 35.3275 34.7357 35.0573C34.682 34.787 34.5493 34.5388 34.3545 34.344C34.1597 34.1492 33.9115 34.0165 33.6413 33.9627C33.3711 33.909 33.091 33.9366 32.8365 34.042C32.582 34.1474 32.3644 34.326 32.2113 34.555C32.0583 34.7841 31.9766 35.0534 31.9766 35.3289C31.977 35.6982 32.1239 36.0523 32.385 36.3134C32.6461 36.5745 33.0001 36.7214 33.3694 36.7219ZM33.3694 35.175C33.3999 35.175 33.4297 35.184 33.455 35.2009C33.4804 35.2178 33.5001 35.2419 33.5118 35.2701C33.5235 35.2982 33.5266 35.3292 33.5206 35.3591C33.5147 35.389 33.5 35.4164 33.4784 35.438C33.4569 35.4595 33.4294 35.4742 33.3995 35.4802C33.3697 35.4861 33.3387 35.483 33.3105 35.4714C33.2824 35.4597 33.2583 35.4399 33.2414 35.4146C33.2245 35.3892 33.2155 35.3594 33.2155 35.3289C33.2157 35.2882 33.232 35.2492 33.2608 35.2203C33.2896 35.1915 33.3286 35.1752 33.3694 35.175Z" fill="#4E4CF7"/>
<path d="M44.3295 11.4563C44.605 11.4563 44.8743 11.3746 45.1034 11.2215C45.3324 11.0685 45.511 10.8509 45.6164 10.5964C45.7218 10.3418 45.7494 10.0618 45.6957 9.79156C45.6419 9.52135 45.5093 9.27315 45.3145 9.07834C45.1197 8.88353 44.8714 8.75086 44.6012 8.69712C44.331 8.64337 44.051 8.67095 43.7964 8.77638C43.5419 8.88181 43.3243 9.06035 43.1713 9.28942C43.0182 9.51849 42.9365 9.78781 42.9365 10.0633C42.9369 10.4326 43.0838 10.7867 43.345 11.0478C43.6061 11.309 43.9602 11.4559 44.3295 11.4563ZM44.3295 9.9094C44.36 9.9094 44.3897 9.91843 44.4151 9.93537C44.4404 9.9523 44.4602 9.97636 44.4718 10.0045C44.4835 10.0327 44.4865 10.0637 44.4806 10.0935C44.4746 10.1234 44.4599 10.1509 44.4384 10.1724C44.4168 10.1939 44.3893 10.2086 44.3595 10.2145C44.3296 10.2205 44.2986 10.2174 44.2704 10.2057C44.2423 10.194 44.2183 10.1743 44.2013 10.1489C44.1844 10.1236 44.1754 10.0938 44.1754 10.0633C44.1756 10.0225 44.1919 9.98348 44.2208 9.95466C44.2496 9.92583 44.2887 9.90957 44.3295 9.9094Z" fill="#4E4CF7"/>
<path d="M63.9623 10.3941C63.6868 10.3941 63.4175 10.4758 63.1884 10.6289C62.9593 10.7819 62.7808 10.9995 62.6754 11.254C62.5699 11.5086 62.5424 11.7887 62.5961 12.0589C62.6499 12.3291 62.7825 12.5773 62.9774 12.7721C63.1722 12.9669 63.4204 13.0995 63.6906 13.1533C63.9608 13.207 64.2409 13.1794 64.4955 13.074C64.75 12.9685 64.9675 12.7899 65.1206 12.5609C65.2736 12.3318 65.3553 12.0624 65.3553 11.7869C65.3549 11.4176 65.208 11.0636 64.9468 10.8025C64.6857 10.5413 64.3316 10.3945 63.9623 10.3941ZM63.9623 11.941C63.9318 11.941 63.9021 11.9319 63.8767 11.915C63.8514 11.8981 63.8316 11.874 63.82 11.8459C63.8083 11.8177 63.8053 11.7868 63.8112 11.7569C63.8172 11.727 63.8318 11.6996 63.8534 11.678C63.8749 11.6565 63.9024 11.6418 63.9323 11.6359C63.9621 11.6299 63.9931 11.633 64.0213 11.6446C64.0494 11.6563 64.0735 11.676 64.0904 11.7014C64.1073 11.7267 64.1164 11.7565 64.1164 11.7869C64.1162 11.8277 64.0999 11.8668 64.071 11.8957C64.0422 11.9245 64.0031 11.9408 63.9623 11.941Z" fill="#4E4CF7"/>
<path d="M32.7996 28.8785C32.7996 28.603 32.7179 28.3336 32.5648 28.1045C32.4117 27.8754 32.1941 27.6969 31.9395 27.5915C31.6849 27.4861 31.4048 27.4585 31.1346 27.5124C30.8644 27.5662 30.6162 27.6989 30.4214 27.8938C30.2266 28.0887 30.094 28.337 30.0403 28.6072C29.9867 28.8775 30.0144 29.1576 30.1199 29.4121C30.2255 29.6666 30.4041 29.8841 30.6333 30.0371C30.8625 30.19 31.1319 30.2716 31.4074 30.2715C31.7766 30.2709 32.1305 30.1239 32.3915 29.8628C32.6524 29.6016 32.7992 29.2477 32.7996 28.8785ZM31.4074 29.0332C31.377 29.0332 31.3472 29.0242 31.3219 29.0073C31.2965 28.9904 31.2768 28.9664 31.2651 28.9383C31.2534 28.9102 31.2503 28.8793 31.2561 28.8494C31.262 28.8195 31.2766 28.7921 31.2981 28.7705C31.3196 28.7489 31.3469 28.7342 31.3768 28.7281C31.4066 28.7221 31.4376 28.7251 31.4658 28.7366C31.4939 28.7482 31.518 28.7678 31.535 28.7931C31.552 28.8183 31.5612 28.848 31.5613 28.8785C31.5612 28.9194 31.5448 28.9585 31.5158 28.9874C31.4869 29.0163 31.4477 29.0325 31.4068 29.0325L31.4074 29.0332Z" fill="#4E4CF7"/>
<path d="M61.6683 29.7531C61.3928 29.7531 61.1235 29.8348 60.8945 29.9879C60.6654 30.1409 60.4869 30.3585 60.3814 30.613C60.276 30.8675 60.2484 31.1476 60.3022 31.4178C60.3559 31.688 60.4886 31.9362 60.6834 32.131C60.8782 32.3259 61.1264 32.4585 61.3966 32.5123C61.6668 32.566 61.9469 32.5384 62.2014 32.433C62.4559 32.3276 62.6735 32.149 62.8266 31.92C62.9796 31.6909 63.0613 31.4216 63.0613 31.1461C63.0609 30.7768 62.914 30.4227 62.6529 30.1616C62.3917 29.9004 62.0377 29.7535 61.6683 29.7531ZM61.6683 31.3C61.6379 31.3 61.6082 31.2909 61.5829 31.274C61.5576 31.2571 61.5379 31.233 61.5262 31.2049C61.5146 31.1768 61.5116 31.1458 61.5175 31.116C61.5235 31.0861 61.5382 31.0587 61.5597 31.0372C61.5812 31.0157 61.6086 31.001 61.6385 30.9951C61.6684 30.9892 61.6993 30.9922 61.7274 31.0039C61.7555 31.0155 61.7796 31.0353 61.7965 31.0606C61.8134 31.0859 61.8224 31.1156 61.8224 31.1461C61.8222 31.1869 61.8059 31.2259 61.777 31.2547C61.7482 31.2836 61.7091 31.2998 61.6683 31.3Z" fill="#4E4CF7"/>
</svg>
