<svg width="66" height="66" viewBox="0 0 66 66" fill="none" xmlns="http://www.w3.org/2000/svg">
<path d="M10.5721 22.5601C9.93178 22.5601 9.41211 22.0405 9.41211 21.4002V20.2402C9.41211 19.5999 9.93178 19.0802 10.5721 19.0802C11.2124 19.0802 11.7321 19.5999 11.7321 20.2402V21.4002C11.7321 22.0405 11.2124 22.5601 10.5721 22.5601Z" fill="#4E4CF7"/>
<path d="M56.4267 47.1041C56.1355 47.1041 55.8455 46.9962 55.6205 46.7781L42.2448 33.8339C41.7843 33.3885 41.7727 32.6542 42.2181 32.1937C42.6647 31.7332 43.399 31.7216 43.8583 32.1671L57.234 45.1101C57.6946 45.5555 57.7062 46.2898 57.2607 46.7503C57.0334 46.9858 56.7306 47.1041 56.4267 47.1041Z" fill="#4E4CF7"/>
<path d="M35.7045 36.7012C33.2778 36.7012 30.8511 36.011 28.7342 34.6295C28.1983 34.2803 28.0463 33.5612 28.3966 33.0241C28.7458 32.4882 29.4649 32.3362 30.002 32.6865C33.4657 34.9462 37.9432 34.9462 41.4081 32.6865C41.9417 32.3351 42.6608 32.487 43.0135 33.0253C43.3638 33.5623 43.2118 34.2815 42.6748 34.6307C40.5578 36.011 38.1311 36.7012 35.7045 36.7012Z" fill="#4E4CF7"/>
<path d="M42.0426 34.8188C41.6633 34.8188 41.2933 34.6332 41.0694 34.2922C40.7191 33.7551 40.871 33.0359 41.4081 32.6867L60.2044 20.4281C60.7391 20.0766 61.4583 20.2286 61.8098 20.7657C62.1601 21.3027 62.0082 22.0219 61.4711 22.3711L42.6748 34.6297C42.4799 34.7585 42.2595 34.8188 42.0426 34.8188Z" fill="#4E4CF7"/>
<path d="M29.3679 34.8188C29.1498 34.8188 28.9317 34.7585 28.7357 34.6297L9.93826 22.3711C9.40235 22.0219 9.2504 21.3027 9.60071 20.7657C9.94986 20.2286 10.669 20.0766 11.2061 20.4281L30.0024 32.6867C30.5383 33.0359 30.6903 33.7551 30.3399 34.2922C30.1184 34.6332 29.746 34.8188 29.3679 34.8188Z" fill="#4E4CF7"/>
<path d="M14.5293 30.68H5.159C4.51869 30.68 3.99902 30.1603 3.99902 29.52C3.99902 28.8797 4.51869 28.36 5.159 28.36H14.5293C15.1696 28.36 15.6893 28.8797 15.6893 29.52C15.6893 30.1603 15.1696 30.68 14.5293 30.68Z" fill="#4E4CF7"/>
<path d="M25.2006 37.6397H9.79962C9.15932 37.6397 8.63965 37.12 8.63965 36.4797C8.63965 35.8394 9.15932 35.3197 9.79962 35.3197H25.2006C25.8409 35.3197 26.3606 35.8394 26.3606 36.4797C26.3606 37.12 25.8421 37.6397 25.2006 37.6397Z" fill="#4E4CF7"/>
<path d="M35.8733 44.5997H14.4393C13.799 44.5997 13.2793 44.0801 13.2793 43.4398C13.2793 42.7995 13.799 42.2798 14.4393 42.2798H35.8733C36.5148 42.2798 37.0333 42.7995 37.0333 43.4398C37.0333 44.0801 36.5136 44.5997 35.8733 44.5997Z" fill="#4E4CF7"/>
<path d="M56.1991 51.5595H19.0799C18.4396 51.5595 17.9199 51.0398 17.9199 50.3995C17.9199 49.7592 18.4396 49.2395 19.0799 49.2395H56.1991C56.8406 49.2395 57.3591 49.7592 57.3591 50.3995C57.3591 51.0398 56.8406 51.5595 56.1991 51.5595Z" fill="#4E4CF7"/>
<path d="M60.8377 46.9196C60.1962 46.9196 59.6777 46.4 59.6777 45.7597V20.2402C59.6777 19.5999 60.1962 19.0802 60.8377 19.0802C61.4792 19.0802 61.9977 19.5999 61.9977 20.2402V45.7597C61.9977 46.4 61.4792 46.9196 60.8377 46.9196Z" fill="#4E4CF7"/>
<path d="M56.1982 16.7603H15.2127C14.5724 16.7603 14.0527 16.2407 14.0527 15.6003C14.0527 14.96 14.5724 14.4404 15.2127 14.4404H56.1982C56.8396 14.4404 57.3581 14.96 57.3581 15.6003C57.3581 16.2407 56.8396 16.7603 56.1982 16.7603Z" fill="#4E4CF7"/>
<path d="M56.2 51.5594C55.5585 51.5594 55.04 51.0397 55.04 50.3994C55.04 49.7591 55.5585 49.2395 56.2 49.2395C58.1186 49.2395 59.6799 47.6781 59.6799 45.7595C59.6799 45.1192 60.1985 44.5995 60.8399 44.5995C61.4814 44.5995 61.9999 45.1192 61.9999 45.7595C61.9999 48.9576 59.3981 51.5594 56.2 51.5594Z" fill="#4E4CF7"/>
<path d="M60.8399 21.4001C60.1985 21.4001 59.6799 20.8804 59.6799 20.2401C59.6799 18.3215 58.1186 16.7602 56.2 16.7602C55.5585 16.7602 55.04 16.2405 55.04 15.6002C55.04 14.9599 55.5585 14.4402 56.2 14.4402C59.3981 14.4402 61.9999 17.0421 61.9999 20.2401C61.9999 20.8804 61.4814 21.4001 60.8399 21.4001Z" fill="#4E4CF7"/>
<path d="M10.5721 21.4001C9.93178 21.4001 9.41211 20.8804 9.41211 20.2401C9.41211 17.0421 12.0139 14.4402 15.212 14.4402C15.8523 14.4402 16.372 14.9599 16.372 15.6002C16.372 16.2405 15.8523 16.7602 15.212 16.7602C13.2934 16.7602 11.7321 18.3215 11.7321 20.2401C11.7321 20.8804 11.2124 21.4001 10.5721 21.4001Z" fill="#4E4CF7"/>
</svg>
