<svg width="66" height="66" viewBox="0 0 66 66" fill="none" xmlns="http://www.w3.org/2000/svg">
<path d="M31.2393 13.9293C31.3351 14.0251 31.4488 14.101 31.5739 14.1529C31.699 14.2047 31.8331 14.2314 31.9685 14.2314C32.104 14.2314 32.2381 14.2047 32.3632 14.1529C32.4883 14.101 32.602 14.0251 32.6978 13.9293L38.1162 8.51047C38.4557 8.17096 38.7251 7.7679 38.9088 7.32429C39.0926 6.88069 39.1872 6.40524 39.1872 5.92509C39.1872 5.44493 39.0926 4.96948 38.9089 4.52587C38.7252 4.08226 38.4558 3.67918 38.1163 3.33965C37.7768 3.00012 37.3738 2.73079 36.9302 2.54703C36.4866 2.36327 36.0111 2.26869 35.531 2.26868C35.0508 2.26866 34.5753 2.36323 34.1317 2.54696C33.6881 2.7307 33.2851 3.00001 32.9455 3.33952L31.9685 4.3165L30.9916 3.33952C30.3045 2.66036 29.3766 2.2807 28.4105 2.2835C27.4444 2.2863 26.5187 2.67133 25.8356 3.35446C25.1524 4.0376 24.7674 4.96333 24.7647 5.92941C24.7619 6.8955 25.1416 7.82342 25.8207 8.51047L31.2393 13.9293ZM28.4062 4.3312C28.6156 4.33064 28.823 4.37162 29.0165 4.45176C29.21 4.5319 29.3856 4.64962 29.5332 4.7981L31.2393 6.50417C31.3351 6.59994 31.4488 6.67591 31.5739 6.72773C31.699 6.77956 31.8331 6.80624 31.9685 6.80624C32.104 6.80624 32.2381 6.77956 32.3632 6.72773C32.4883 6.67591 32.602 6.59994 32.6978 6.50417L34.4038 4.7981C34.7027 4.49918 35.1081 4.33123 35.5308 4.3312C35.9536 4.33118 36.359 4.49908 36.6579 4.79797C36.9568 5.09686 37.1248 5.50225 37.1248 5.92497C37.1248 6.34769 36.9569 6.7531 36.658 7.05202L31.9685 11.7416L27.2791 7.05202C27.0561 6.82912 26.9043 6.54511 26.8428 6.23592C26.7813 5.92673 26.8129 5.60625 26.9336 5.31501C27.0542 5.02376 27.2585 4.77484 27.5207 4.59972C27.7828 4.4246 28.091 4.33116 28.4062 4.3312Z" fill="#00AEEF"/>
<path d="M20.6511 41.0201C20.675 41.581 20.8097 42.1316 21.0476 42.6401C21.2855 43.1486 21.6218 43.605 22.0371 43.9828L29.2255 50.4755C30.1056 51.2724 31.1393 51.881 32.2631 52.2641L37.9914 54.2242L48.5488 63.7597C48.7383 63.9309 48.9846 64.0257 49.24 64.0257C49.2574 64.0257 49.2749 64.0257 49.2925 64.0243C49.5656 64.0104 49.8221 63.8886 50.0055 63.6857L63.1385 49.1449C63.2293 49.0444 63.2994 48.927 63.3448 48.7994C63.3903 48.6718 63.4101 48.5365 63.4032 48.4013C63.3963 48.266 63.3629 48.1334 63.3047 48.0111C63.2466 47.8888 63.165 47.7791 63.0644 47.6883L52.4745 38.1235L49.965 33.6832C49.5017 32.8629 48.9089 32.1229 48.2095 31.4918L39.6583 23.7682L39.8348 22.5734C40.0063 21.4081 40.3773 20.281 40.9317 19.2418C41.1789 18.777 41.3312 18.2677 41.3796 17.7435C41.428 17.2193 41.3717 16.6907 41.2138 16.1885C41.056 15.6863 40.7998 15.2205 40.4602 14.8182C40.1205 14.416 39.7043 14.0854 39.2357 13.8456C38.767 13.6058 38.2553 13.4616 37.7304 13.4215C37.2055 13.3813 36.6779 13.446 36.1783 13.6118C35.6786 13.7776 35.2169 14.0411 34.8201 14.387C34.4233 14.733 34.0993 15.1544 33.8669 15.6268L32.877 17.6432L30.7739 15.7437C29.97 15.0244 28.9173 14.6469 27.8395 14.6913C26.7617 14.7357 25.7437 15.1986 25.0016 15.9815C24.6301 16.3779 24.342 16.845 24.1544 17.3549C23.9668 17.8648 23.8837 18.4073 23.9098 18.95C23.9337 19.5108 24.0685 20.0614 24.3064 20.5699C24.5442 21.0784 24.8805 21.5348 25.2957 21.9126L29.4851 25.6968C28.6299 25.9664 27.888 26.5115 27.3751 27.2471C26.8623 27.9827 26.6073 28.8673 26.6501 29.763C26.6653 30.121 26.7259 30.4757 26.8306 30.8185C25.8858 30.9384 25.0123 31.3835 24.3601 32.0774C23.9885 32.4738 23.7005 32.9409 23.5129 33.4509C23.3254 33.9608 23.2422 34.5032 23.2684 35.046C23.2958 35.6856 23.4671 36.3108 23.7697 36.875C22.8482 37.094 22.0322 37.6282 21.4627 38.3851C20.8933 39.1419 20.6062 40.074 20.6511 41.0201ZM35.7184 16.5355C35.8302 16.3089 35.9859 16.1068 36.1765 15.941C36.367 15.7751 36.5887 15.6488 36.8285 15.5693C37.0684 15.4899 37.3216 15.459 37.5736 15.4783C37.8255 15.4976 38.071 15.5668 38.296 15.6819C38.5209 15.797 38.7207 15.9557 38.8837 16.1487C39.0468 16.3417 39.1698 16.5652 39.2457 16.8062C39.3216 17.0472 39.3489 17.3008 39.3258 17.5524C39.3028 17.8041 39.23 18.0486 39.1116 18.2718C38.4722 19.4702 38.0357 20.7663 37.8197 22.1074L35.5331 20.0423L34.4689 19.081L35.7184 16.5355ZM23.247 39.4628C23.618 39.0714 24.127 38.8401 24.6658 38.8179C25.2047 38.7958 25.7309 38.9846 26.1328 39.3442L29.9592 42.8003C30.0595 42.8927 30.177 42.9644 30.3051 43.0111C30.4332 43.0578 30.5692 43.0786 30.7054 43.0724C30.8416 43.0662 30.9752 43.0331 31.0985 42.9749C31.2218 42.9167 31.3323 42.8346 31.4237 42.7335C31.5151 42.6323 31.5855 42.514 31.6309 42.3855C31.6762 42.2569 31.6957 42.1206 31.688 41.9845C31.6804 41.8484 31.6459 41.7152 31.5864 41.5925C31.5269 41.4698 31.4437 41.3601 31.3416 41.2698L27.5152 37.8137L27.5135 37.812L26.0364 36.4778C25.8241 36.2842 25.6522 36.0505 25.5307 35.7901C25.4093 35.5297 25.3406 35.2478 25.3287 34.9607C25.3148 34.692 25.355 34.4232 25.4469 34.1704C25.5388 33.9175 25.6806 33.6856 25.8638 33.4885C26.2344 33.0978 26.7425 32.8667 27.2806 32.8441C27.8186 32.8216 28.3443 33.0093 28.7464 33.3676L28.7479 33.3689L31.8102 36.1348C31.9107 36.2257 32.0281 36.2958 32.1557 36.3413C32.2833 36.3867 32.4186 36.4066 32.5539 36.3998C32.6892 36.393 32.8218 36.3596 32.9442 36.3015C33.0666 36.2434 33.1763 36.1618 33.2672 36.0613C33.358 35.9608 33.4282 35.8434 33.4736 35.7158C33.5191 35.5882 33.539 35.4529 33.5321 35.3176C33.5253 35.1823 33.4919 35.0497 33.4338 34.9273C33.3757 34.8049 33.2941 34.6952 33.1936 34.6043L30.1322 31.8398L30.1304 31.8381L29.4185 31.1953C29.2062 31.0017 29.0343 30.7679 28.9128 30.5075C28.7914 30.2471 28.7227 29.9653 28.7108 29.6782C28.6968 29.4094 28.737 29.1407 28.8289 28.8878C28.9208 28.6348 29.0626 28.403 29.2459 28.2059C29.6165 27.815 30.1249 27.5837 30.6631 27.5612C31.2014 27.5387 31.7272 27.7267 32.1292 28.0853L32.1317 28.0875L34.4274 30.1611C34.5279 30.2519 34.6454 30.322 34.773 30.3674C34.9006 30.4128 35.0359 30.4327 35.1712 30.4258C35.3065 30.4189 35.4391 30.3855 35.5615 30.3274C35.6839 30.2692 35.7936 30.1876 35.8844 30.0871C35.9752 29.9865 36.0454 29.8691 36.0908 29.7415C36.1362 29.6138 36.1561 29.4785 36.1492 29.3432C36.1423 29.2079 36.1089 29.0753 36.0507 28.9529C35.9926 28.8306 35.911 28.7208 35.8104 28.63L33.5146 26.557L31.9836 25.1741L26.6783 20.3822C26.466 20.1886 26.2942 19.9548 26.1727 19.6944C26.0512 19.434 25.9825 19.1521 25.9706 18.865C25.9567 18.5963 25.9969 18.3275 26.0888 18.0746C26.1808 17.8217 26.3226 17.5898 26.5058 17.3928C26.8769 17.0017 27.3857 16.7706 27.9243 16.7485C28.4629 16.7263 28.989 16.9149 29.3909 17.2742L46.827 33.0225C47.3618 33.5052 47.8152 34.0711 48.1696 34.6983L50.7606 39.2836C50.815 39.3801 50.8847 39.4671 50.9668 39.5414L60.9157 48.5275L49.1651 61.5379L39.2163 52.5518C39.1126 52.4581 38.9911 52.3865 38.8589 52.3413L32.9308 50.3121C32.0714 50.0191 31.281 49.5537 30.6079 48.9444L23.4196 42.4516C23.2073 42.258 23.0354 42.0242 22.9139 41.7638C22.7925 41.5034 22.7238 41.2215 22.7119 40.9344C22.698 40.6658 22.7382 40.3971 22.8301 40.1443C22.922 39.8915 23.0638 39.6597 23.247 39.4628Z" fill="#00AEEF"/>
</svg>
