<svg width="66" height="66" viewBox="0 0 66 66" fill="none" xmlns="http://www.w3.org/2000/svg">
<path d="M13.0625 23.7188C12.4933 23.7188 12.0312 23.2567 12.0312 22.6875V21.6562C12.0312 21.087 12.4933 20.625 13.0625 20.625C13.6317 20.625 14.0938 21.087 14.0938 21.6562V22.6875C14.0938 23.2567 13.6317 23.7188 13.0625 23.7188Z" fill="#00AEEF"/>
<path d="M53.8283 45.5389C53.5695 45.5389 53.3117 45.443 53.1116 45.2492L41.2203 33.7414C40.8109 33.3454 40.8006 32.6927 41.1966 32.2833C41.5936 31.8739 42.2464 31.8635 42.6547 32.2595L54.5461 43.7662C54.9555 44.1622 54.9658 44.815 54.5698 45.2244C54.3677 45.4338 54.0985 45.5389 53.8283 45.5389Z" fill="#00AEEF"/>
<path d="M35.4058 36.2907C33.2484 36.2907 31.091 35.6771 29.209 34.4489C28.7325 34.1385 28.5974 33.4991 28.9089 33.0217C29.2193 32.5452 29.8587 32.4101 30.3361 32.7216C33.4154 34.7304 37.3961 34.7304 40.4764 32.7216C40.9508 32.4091 41.5902 32.5442 41.9037 33.0227C42.2151 33.5002 42.08 34.1395 41.6026 34.4499C39.7205 35.6771 37.5631 36.2907 35.4058 36.2907Z" fill="#00AEEF"/>
<path d="M41.0407 34.617C40.7034 34.617 40.3745 34.452 40.1754 34.1488C39.864 33.6713 39.9991 33.032 40.4766 32.7215L57.1869 21.8233C57.6624 21.5108 58.3017 21.6459 58.6142 22.1234C58.9256 22.6009 58.7905 23.2402 58.3131 23.5506L41.6027 34.4489C41.4294 34.5634 41.2335 34.617 41.0407 34.617Z" fill="#00AEEF"/>
<path d="M29.7725 34.617C29.5786 34.617 29.3847 34.5634 29.2104 34.4489L12.499 23.5506C12.0226 23.2402 11.8875 22.6009 12.1989 22.1234C12.5093 21.6459 13.1487 21.5108 13.6262 21.8233L30.3366 32.7215C30.813 33.032 30.9481 33.6713 30.6366 34.1488C30.4397 34.452 30.1086 34.617 29.7725 34.617Z" fill="#00AEEF"/>
<path d="M16.5804 30.9375H8.25C7.68075 30.9375 7.21875 30.4755 7.21875 29.9062C7.21875 29.337 7.68075 28.875 8.25 28.875H16.5804C17.1497 28.875 17.6117 29.337 17.6117 29.9062C17.6117 30.4755 17.1497 30.9375 16.5804 30.9375Z" fill="#00AEEF"/>
<path d="M26.0669 37.125H12.375C11.8058 37.125 11.3438 36.663 11.3438 36.0938C11.3438 35.5245 11.8058 35.0625 12.375 35.0625H26.0669C26.6362 35.0625 27.0982 35.5245 27.0982 36.0938C27.0982 36.663 26.6372 37.125 26.0669 37.125Z" fill="#00AEEF"/>
<path d="M35.5554 43.3125H16.5C15.9308 43.3125 15.4688 42.8505 15.4688 42.2812C15.4688 41.712 15.9308 41.25 16.5 41.25H35.5554C36.1257 41.25 36.5867 41.712 36.5867 42.2812C36.5867 42.8505 36.1247 43.3125 35.5554 43.3125Z" fill="#00AEEF"/>
<path d="M53.625 49.5H20.625C20.0558 49.5 19.5938 49.038 19.5938 48.4688C19.5938 47.8995 20.0558 47.4375 20.625 47.4375H53.625C54.1953 47.4375 54.6562 47.8995 54.6562 48.4688C54.6562 49.038 54.1953 49.5 53.625 49.5Z" fill="#00AEEF"/>
<path d="M57.75 45.375C57.1797 45.375 56.7188 44.913 56.7188 44.3438V21.6562C56.7188 21.087 57.1797 20.625 57.75 20.625C58.3203 20.625 58.7812 21.087 58.7812 21.6562V44.3438C58.7812 44.913 58.3203 45.375 57.75 45.375Z" fill="#00AEEF"/>
<path d="M53.6247 18.5625H17.1875C16.6183 18.5625 16.1562 18.1005 16.1562 17.5312C16.1562 16.962 16.6183 16.5 17.1875 16.5H53.6247C54.1949 16.5 54.6559 16.962 54.6559 17.5312C54.6559 18.1005 54.1949 18.5625 53.6247 18.5625Z" fill="#00AEEF"/>
<path d="M53.625 49.5C53.0547 49.5 52.5938 49.038 52.5938 48.4688C52.5938 47.8995 53.0547 47.4375 53.625 47.4375C55.3307 47.4375 56.7188 46.0494 56.7188 44.3438C56.7188 43.7745 57.1797 43.3125 57.75 43.3125C58.3203 43.3125 58.7812 43.7745 58.7812 44.3438C58.7812 47.1869 56.4682 49.5 53.625 49.5Z" fill="#00AEEF"/>
<path d="M57.75 22.6875C57.1797 22.6875 56.7188 22.2255 56.7188 21.6562C56.7188 19.9506 55.3307 18.5625 53.625 18.5625C53.0547 18.5625 52.5938 18.1005 52.5938 17.5312C52.5938 16.962 53.0547 16.5 53.625 16.5C56.4682 16.5 58.7812 18.8131 58.7812 21.6562C58.7812 22.2255 58.3203 22.6875 57.75 22.6875Z" fill="#00AEEF"/>
<path d="M13.0625 22.6875C12.4933 22.6875 12.0312 22.2255 12.0312 21.6562C12.0312 18.8131 14.3443 16.5 17.1875 16.5C17.7568 16.5 18.2188 16.962 18.2188 17.5312C18.2188 18.1005 17.7568 18.5625 17.1875 18.5625C15.4818 18.5625 14.0938 19.9506 14.0938 21.6562C14.0938 22.2255 13.6317 22.6875 13.0625 22.6875Z" fill="#00AEEF"/>
</svg>
