<svg width="54" height="62" viewBox="0 0 54 62" fill="none" xmlns="http://www.w3.org/2000/svg">
<path d="M27 61.25C26.7889 61.25 26.5786 61.2019 26.3847 61.1049L16.836 56.3309C6.991 51.4084 0.875 41.5119 0.875 30.5036V14.5C0.875 14.1116 1.03931 13.741 1.32737 13.4811C1.61544 13.2199 1.99975 13.0906 2.38681 13.1319C2.91344 13.1821 15.56 14.2229 25.9261 1.26631C26.4472 0.613868 27.5521 0.613868 28.0732 1.26631C38.4407 14.2243 51.0859 13.1814 51.6166 13.1319C52.0078 13.0961 52.3873 13.2233 52.6733 13.4832C52.96 13.7431 53.125 14.1129 53.125 14.5V30.5036C53.125 41.5119 47.009 51.4077 37.1633 56.3302L27.6146 61.1042C27.4214 61.2019 27.2111 61.25 27 61.25ZM3.625 15.9176V30.5043C3.625 40.4634 9.15869 49.4174 18.0666 53.8711L27 58.3377L35.9334 53.8711C44.8413 49.4167 50.375 40.4634 50.375 30.5036V15.9176C46.5215 15.8764 36.0771 14.7172 27 4.27274C17.9236 14.7159 7.47912 15.8764 3.625 15.9176ZM28.375 31H25.625C24.8667 31 24.25 30.3833 24.25 29.625C24.25 28.8667 24.8667 28.25 25.625 28.25H30.4375C31.1965 28.25 31.8125 27.634 31.8125 26.875C31.8125 26.116 31.1965 25.5 30.4375 25.5H28.375V23.4375C28.375 22.6785 27.759 22.0625 27 22.0625C26.241 22.0625 25.625 22.6785 25.625 23.4375V25.5C23.3501 25.5 21.5 27.3501 21.5 29.625C21.5 31.8999 23.3501 33.75 25.625 33.75H28.375C29.1333 33.75 29.75 34.3667 29.75 35.125C29.75 35.8833 29.1333 36.5 28.375 36.5H23.5625C22.8035 36.5 22.1875 37.116 22.1875 37.875C22.1875 38.634 22.8035 39.25 23.5625 39.25H25.625V41.3125C25.625 42.0715 26.241 42.6875 27 42.6875C27.759 42.6875 28.375 42.0715 28.375 41.3125V39.25C30.6499 39.25 32.5 37.3999 32.5 35.125C32.5 32.8501 30.6499 31 28.375 31ZM27 48.1875C18.2804 48.1875 11.1875 41.0946 11.1875 32.375C11.1875 23.6554 18.2804 16.5625 27 16.5625C35.7196 16.5625 42.8125 23.6554 42.8125 32.375C42.8125 41.0946 35.7196 48.1875 27 48.1875ZM27 19.3125C19.7971 19.3125 13.9375 25.1721 13.9375 32.375C13.9375 39.5779 19.7971 45.4375 27 45.4375C34.2029 45.4375 40.0625 39.5779 40.0625 32.375C40.0625 25.1721 34.2029 19.3125 27 19.3125Z" fill="#4E4CF7"/>
</svg>
