<svg width="66" height="66" viewBox="0 0 66 66" fill="none" xmlns="http://www.w3.org/2000/svg">
<path d="M22.5928 13.9293C22.6886 14.0251 22.8023 14.101 22.9274 14.1529C23.0525 14.2047 23.1866 14.2314 23.3221 14.2314C23.4575 14.2314 23.5916 14.2047 23.7167 14.1529C23.8418 14.101 23.9555 14.0251 24.0513 13.9293L29.4697 8.51047C29.8093 8.17096 30.0786 7.7679 30.2623 7.32429C30.4461 6.88069 30.5407 6.40524 30.5407 5.92509C30.5407 5.44493 30.4461 4.96948 30.2624 4.52587C30.0787 4.08226 29.8094 3.67918 29.4698 3.33965C29.1303 3.00012 28.7273 2.73079 28.2837 2.54703C27.8401 2.36327 27.3646 2.26869 26.8845 2.26868C26.4043 2.26866 25.9289 2.36323 25.4853 2.54696C25.0416 2.7307 24.6386 3.00001 24.299 3.33952L23.3221 4.3165L22.3451 3.33952C21.658 2.66036 20.7301 2.2807 19.764 2.2835C18.7979 2.2863 17.8722 2.67133 17.1891 3.35446C16.506 4.0376 16.121 4.96333 16.1182 5.92941C16.1154 6.8955 16.4951 7.82342 17.1743 8.51047L22.5928 13.9293ZM19.7597 4.3312C19.9691 4.33064 20.1766 4.37162 20.37 4.45176C20.5635 4.5319 20.7391 4.64962 20.8868 4.7981L22.5928 6.50417C22.6886 6.59994 22.8023 6.67591 22.9274 6.72773C23.0525 6.77956 23.1866 6.80624 23.3221 6.80624C23.4575 6.80624 23.5916 6.77956 23.7167 6.72773C23.8418 6.67591 23.9555 6.59994 24.0513 6.50417L25.7574 4.7981C26.0562 4.49917 26.4616 4.33123 26.8844 4.3312C27.3071 4.33118 27.7125 4.49908 28.0114 4.79797C28.3103 5.09686 28.4783 5.50225 28.4783 5.92497C28.4783 6.34769 28.3104 6.7531 28.0115 7.05202L23.3221 11.7416L18.6326 7.05202C18.4097 6.82912 18.2578 6.54511 18.1963 6.23592C18.1348 5.92673 18.1664 5.60625 18.2871 5.31501C18.4077 5.02376 18.612 4.77484 18.8742 4.59972C19.1363 4.4246 19.4445 4.33116 19.7597 4.3312V4.3312Z" fill="#4E4CF7"/>
<path d="M12.0046 41.0201C12.0285 41.581 12.1633 42.1316 12.4011 42.6401C12.639 43.1486 12.9753 43.605 13.3906 43.9828L20.579 50.4755C21.4592 51.2724 22.4928 51.881 23.6166 52.2641L29.3449 54.2242L39.9023 63.7597C40.0918 63.9309 40.3381 64.0257 40.5935 64.0257C40.6109 64.0257 40.6285 64.0257 40.646 64.0243C40.9191 64.0104 41.1756 63.8886 41.359 63.6857L54.4921 49.1449C54.5829 49.0444 54.653 48.927 54.6984 48.7994C54.7438 48.6718 54.7636 48.5365 54.7567 48.4013C54.7498 48.266 54.7164 48.1334 54.6582 48.0111C54.6001 47.8888 54.5185 47.7791 54.4179 47.6883L43.828 38.1235L41.3185 33.6832C40.8552 32.8629 40.2624 32.1229 39.563 31.4918L31.0118 23.7682L31.1883 22.5734C31.3598 21.4081 31.7309 20.281 32.2853 19.2418C32.5324 18.777 32.6847 18.2677 32.7331 17.7435C32.7815 17.2193 32.7252 16.6907 32.5673 16.1885C32.4095 15.6863 32.1533 15.2205 31.8137 14.8182C31.4741 14.416 31.0578 14.0854 30.5892 13.8456C30.1205 13.6058 29.6089 13.4616 29.084 13.4215C28.5591 13.3813 28.0314 13.446 27.5318 13.6118C27.0321 13.7776 26.5704 14.0411 26.1736 14.387C25.7768 14.733 25.4528 15.1544 25.2204 15.6268L24.2306 17.6432L22.1274 15.7437C21.3235 15.0244 20.2708 14.6469 19.193 14.6913C18.1152 14.7357 17.0972 15.1986 16.3552 15.9815C15.9836 16.3779 15.6955 16.845 15.5079 17.3549C15.3204 17.8648 15.2372 18.4073 15.2633 18.95C15.2872 19.5108 15.422 20.0614 15.6599 20.5699C15.8977 21.0784 16.234 21.5348 16.6492 21.9126L20.8386 25.6968C19.9834 25.9664 19.2415 26.5115 18.7287 27.2471C18.2158 27.9827 17.9609 28.8673 18.0036 29.763C18.0188 30.121 18.0794 30.4757 18.1841 30.8185C17.2393 30.9384 16.3659 31.3835 15.7136 32.0774C15.3421 32.4738 15.054 32.9409 14.8664 33.4509C14.6789 33.9608 14.5957 34.5032 14.6219 35.046C14.6493 35.6856 14.8206 36.3108 15.1232 36.875C14.2017 37.094 13.3857 37.6282 12.8162 38.3851C12.2468 39.1419 11.9597 40.074 12.0046 41.0201V41.0201ZM27.0719 16.5355C27.1837 16.3089 27.3394 16.1068 27.53 15.941C27.7206 15.7751 27.9422 15.6488 28.1821 15.5693C28.4219 15.4899 28.6752 15.459 28.9271 15.4783C29.179 15.4976 29.4246 15.5668 29.6495 15.6819C29.8744 15.797 30.0742 15.9557 30.2372 16.1487C30.4003 16.3417 30.5233 16.5652 30.5992 16.8062C30.6751 17.0472 30.7024 17.3008 30.6793 17.5524C30.6563 17.8041 30.5835 18.0486 30.4651 18.2718C29.8257 19.4702 29.3892 20.7663 29.1732 22.1074L26.8867 20.0423L25.8224 19.081L27.0719 16.5355ZM14.6005 39.4628C14.9715 39.0714 15.4805 38.8401 16.0193 38.8179C16.5582 38.7958 17.0844 38.9846 17.4863 39.3442L21.3128 42.8003C21.413 42.8927 21.5305 42.9644 21.6586 43.0111C21.7867 43.0578 21.9227 43.0786 22.0589 43.0724C22.1951 43.0662 22.3287 43.0331 22.452 42.9749C22.5753 42.9167 22.6858 42.8346 22.7772 42.7335C22.8686 42.6323 22.939 42.514 22.9844 42.3855C23.0297 42.2569 23.0492 42.1206 23.0415 41.9845C23.0339 41.8484 22.9994 41.7152 22.9399 41.5925C22.8805 41.4698 22.7973 41.3601 22.6951 41.2698L18.8687 37.8137L18.867 37.812L17.3899 36.4778C17.1776 36.2842 17.0057 36.0505 16.8842 35.7901C16.7628 35.5297 16.6941 35.2478 16.6822 34.9607C16.6683 34.692 16.7085 34.4232 16.8004 34.1704C16.8923 33.9175 17.0341 33.6856 17.2173 33.4885C17.5879 33.0978 18.096 32.8667 18.6341 32.8441C19.1721 32.8216 19.6978 33.0093 20.0999 33.3676L20.1014 33.3689L23.1637 36.1348C23.2642 36.2257 23.3816 36.2958 23.5092 36.3413C23.6368 36.3867 23.7721 36.4066 23.9074 36.3998C24.0427 36.393 24.1753 36.3596 24.2977 36.3015C24.4201 36.2434 24.5298 36.1618 24.6207 36.0613C24.7115 35.9608 24.7817 35.8434 24.8271 35.7158C24.8726 35.5882 24.8925 35.4529 24.8857 35.3176C24.8788 35.1823 24.8454 35.0497 24.7873 34.9273C24.7293 34.8049 24.6476 34.6952 24.5471 34.6043L21.4858 31.8398L21.4839 31.8381L20.772 31.1953C20.5597 31.0017 20.3878 30.7679 20.2664 30.5075C20.1449 30.2471 20.0762 29.9653 20.0643 29.6782C20.0503 29.4094 20.0905 29.1407 20.1824 28.8878C20.2744 28.6348 20.4161 28.403 20.5994 28.2059C20.97 27.815 21.4784 27.5837 22.0166 27.5612C22.5549 27.5387 23.0808 27.7267 23.4828 28.0853L23.4852 28.0875L25.7809 30.1611C25.8814 30.2519 25.9989 30.322 26.1265 30.3674C26.2541 30.4128 26.3894 30.4327 26.5247 30.4258C26.66 30.4189 26.7927 30.3855 26.915 30.3274C27.0374 30.2692 27.1471 30.1876 27.2379 30.0871C27.3287 29.9865 27.3989 29.8691 27.4443 29.7415C27.4897 29.6138 27.5096 29.4785 27.5027 29.3432C27.4958 29.2079 27.4624 29.0753 27.4043 28.9529C27.3461 28.8306 27.2645 28.7208 27.1639 28.63L24.8681 26.557L23.3371 25.1741L18.0318 20.3822C17.8195 20.1886 17.6477 19.9548 17.5262 19.6944C17.4047 19.434 17.3361 19.1521 17.3241 18.865C17.3102 18.5963 17.3504 18.3275 17.4424 18.0746C17.5343 17.8217 17.6761 17.5898 17.8594 17.3928C18.2304 17.0017 18.7392 16.7706 19.2778 16.7485C19.8165 16.7263 20.3425 16.9149 20.7444 17.2742L38.1805 33.0225C38.7153 33.5052 39.1687 34.0711 39.5231 34.6983L42.1141 39.2836C42.1686 39.3801 42.2382 39.4671 42.3204 39.5414L52.2692 48.5275L40.5186 61.5379L30.5698 52.5518C30.4662 52.4581 30.3446 52.3865 30.2124 52.3413L24.2843 50.3121C23.425 50.0191 22.6345 49.5537 21.9614 48.9444L14.7731 42.4516C14.5608 42.258 14.3889 42.0242 14.2675 41.7638C14.146 41.5034 14.0773 41.2215 14.0654 40.9344C14.0515 40.6658 14.0917 40.3971 14.1836 40.1443C14.2755 39.8915 14.4173 39.6597 14.6005 39.4628V39.4628Z" fill="#4E4CF7"/>
</svg>
