<svg width="66" height="66" viewBox="0 0 66 66" fill="none" xmlns="http://www.w3.org/2000/svg">
<path d="M56.375 11H9.625C5.83413 11 2.75 14.0841 2.75 17.875V48.125C2.75 51.9159 5.83413 55 9.625 55H56.375C60.1659 55 63.25 51.9159 63.25 48.125V17.875C63.25 14.0841 60.1659 11 56.375 11ZM60.5 17.875V28.1875H38.5V23.375C38.5 22.9405 38.2944 22.5307 37.9459 22.2722C37.5959 22.0131 37.1456 21.934 36.7297 22.0577L28.1531 24.6304C27.2291 23.7346 26.0576 23.0924 24.7493 22.8257V13.75H56.3743C58.65 13.75 60.5 15.6001 60.5 17.875ZM33.7191 41.9375H29.8059L27.1514 35.3011C27.511 35.0639 27.8458 34.793 28.1538 34.4946L31.0949 35.3767L33.7191 41.9375ZM23.375 25.4375C25.6499 25.4375 27.5 27.2876 27.5 29.5625C27.5 31.8374 25.6499 33.6875 23.375 33.6875C21.1001 33.6875 19.25 31.8374 19.25 29.5625C19.25 27.2876 21.1001 25.4375 23.375 25.4375ZM16.9929 32.1042L11 33.902V25.223L16.9929 27.0208C16.6781 27.808 16.5 28.6646 16.5 29.5625C16.5 30.4604 16.6781 31.317 16.9929 32.1042ZM15.6551 35.3767L18.5962 34.4946C18.9042 34.793 19.239 35.0639 19.5986 35.3011L16.9441 41.9375H13.0309L15.6551 35.3767ZM29.7571 32.1042C30.0719 31.317 30.25 30.4604 30.25 29.5625C30.25 28.6646 30.0719 27.808 29.7571 27.0208L35.75 25.223V33.9013L29.7571 32.1042ZM9.625 13.75H22V22.8264C20.6917 23.0931 19.5202 23.7352 18.5962 24.6311L10.0203 22.0584C9.60506 21.934 9.15269 22.0137 8.80413 22.2729C8.45556 22.5307 8.25 22.9405 8.25 23.375V28.1875H5.5V17.875C5.5 15.6001 7.35006 13.75 9.625 13.75ZM5.5 48.125V30.9375H8.25V35.75C8.25 36.1845 8.45556 36.5942 8.80413 36.8527C9.04406 37.0315 9.33281 37.125 9.625 37.125C9.757 37.125 9.89038 37.1064 10.0203 37.0672L12.2898 36.3866L9.724 42.8017C9.55419 43.2252 9.60644 43.7051 9.86219 44.0832C10.1179 44.4613 10.5435 44.6875 11 44.6875H17.875C18.4374 44.6875 18.9427 44.3451 19.1517 43.8233L22 36.7022V52.25H9.625C7.35006 52.25 5.5 50.3999 5.5 48.125ZM56.375 52.25H24.75V36.7022L27.5983 43.8233C27.8073 44.3451 28.3126 44.6875 28.875 44.6875H35.75C36.2065 44.6875 36.6328 44.4613 36.8885 44.0832C37.1443 43.7051 37.1958 43.2252 37.0267 42.8017L34.4603 36.3866L36.7297 37.0672C36.8596 37.1064 36.993 37.125 37.125 37.125C37.4172 37.125 37.7059 37.0315 37.9459 36.8527C38.2944 36.5942 38.5 36.1845 38.5 35.75V30.9375H60.5V48.125C60.5 50.3999 58.65 52.25 56.375 52.25Z" fill="#00AEEF"/>
</svg>
