<?xml version="1.0" encoding="utf-8"?>
<!-- Generator: Adobe Illustrator 18.1.1, SVG Export Plug-In . SVG Version: 6.00 Build 0)  -->
<svg version="1.1" id="Layer_1" xmlns="http://www.w3.org/2000/svg" xmlns:xlink="http://www.w3.org/1999/xlink" x="0px" y="0px"
	 viewBox="0 0 200 41" enable-background="new 0 0 200 41" xml:space="preserve">
<path fill="#FFFFFF" d="M68.111,15.856c-0.548,0.467-1.08,0.919-1.611,1.375c-0.674,0.576-1.346,1.154-2.023,1.725
	c-0.6,0.508-1.213,1.004-1.813,1.516c-0.652,0.559-1.298,1.135-1.947,1.703c-0.427,0.373-0.849,0.755-1.281,1.116
	c-0.057,0.048-0.186,0.036-0.244-0.015c-0.689-0.59-1.372-1.192-2.056-1.79c-0.741-0.647-1.483-1.294-2.226-1.939
	c-0.746-0.645-1.492-1.287-2.238-1.933c-0.655-0.57-1.31-1.142-1.966-1.713c-0.044-0.037-0.093-0.06-0.172-0.106
	c-0.13,0.43-0.27,0.843-0.375,1.269c-0.017,0.063,0.107,0.207,0.186,0.278c0.693,0.61,1.386,1.22,2.089,1.816
	c0.659,0.571,1.329,1.121,1.995,1.692c0.65,0.561,1.29,1.141,1.941,1.702c0.5,0.434,1.01,0.847,1.511,1.278
	c0.383,0.328,0.754,0.672,1.132,1.007c0.139,0.124,0.275,0.182,0.437,0.037c0.647-0.573,1.295-1.144,1.947-1.706
	c0.566-0.489,1.145-0.956,1.711-1.446c0.648-0.558,1.28-1.132,1.921-1.697c0.364-0.32,0.727-0.637,1.098-0.944
	c0.559-0.466,1.123-0.919,1.689-1.38c0.099-0.079,0.201-0.161,0.298-0.243c0.327-0.272,0.331-0.272,0.223-0.738
	C68.265,16.429,68.187,16.15,68.111,15.856z"/>
<g>
	<path fill="#FFFFFF" d="M87.456,15.949h1.583v3.564h4.665v-3.564h1.583v8.76h-1.583v-3.972h-4.665v3.972h-1.583V15.949z"/>
	<path fill="#FFFFFF" d="M104.144,15.949h1.583v8.76h-1.583V15.949z"/>
	<path fill="#FFFFFF" d="M114.629,15.949h2.536c3.67,0,5.309,1.736,5.309,4.261c0,2.526-1.667,4.499-5.379,4.499h-2.466V15.949z
		 M117.221,23.513c2.367,0,3.586-1.118,3.586-3.25c0-2.157-1.163-3.117-3.656-3.117h-0.938v6.367H117.221z"/>
	<path fill="#FFFFFF" d="M130.645,15.949h5.113v1.236h-3.544v2.341h3.124v1.184h-3.124v2.762h3.642v1.236h-5.211V15.949z"/>
</g>
</svg>
