<svg width="20" height="21" viewBox="0 0 20 21" fill="none" xmlns="http://www.w3.org/2000/svg">
<path d="M9.99958 0.5C4.47746 0.5 0 4.97746 0 10.4996C0 16.0217 4.47746 20.5 9.99958 20.5C15.5217 20.5 20 16.0217 20 10.4996C20 4.97746 15.5217 0.5 9.99958 0.5ZM12.0813 15.998C11.5666 16.2012 11.1568 16.3552 10.8495 16.4619C10.5431 16.5686 10.1867 16.6219 9.78116 16.6219C9.1581 16.6219 8.67302 16.4695 8.32762 16.1656C7.98222 15.8617 7.81037 15.4765 7.81037 15.0084C7.81037 14.8263 7.82307 14.6401 7.84847 14.4505C7.87471 14.2608 7.91619 14.0475 7.97291 13.8079L8.61714 11.5324C8.67386 11.314 8.72296 11.1066 8.7619 10.9135C8.80085 10.7188 8.81947 10.5402 8.81947 10.3777C8.81947 10.0881 8.75937 9.88497 8.64 9.77069C8.51894 9.6564 8.29122 9.60053 7.95175 9.60053C7.78582 9.60053 7.61481 9.62508 7.43958 9.67672C7.26603 9.73005 7.11534 9.77831 6.99175 9.82571L7.1619 9.12476C7.58349 8.95291 7.9873 8.80561 8.37249 8.6837C8.75767 8.56011 9.12169 8.49915 9.46455 8.49915C10.0834 8.49915 10.5608 8.64984 10.8969 8.94783C11.2313 9.24667 11.3998 9.63524 11.3998 10.1127C11.3998 10.2117 11.3879 10.3861 11.3651 10.635C11.3422 10.8848 11.299 11.1125 11.2364 11.3216L10.5956 13.5904C10.5431 13.7724 10.4965 13.9806 10.4542 14.2134C10.4127 14.4462 10.3924 14.624 10.3924 14.7434C10.3924 15.0448 10.4593 15.2505 10.5947 15.3597C10.7285 15.4689 10.963 15.5239 11.2948 15.5239C11.4514 15.5239 11.6267 15.496 11.8248 15.4418C12.0212 15.3876 12.1634 15.3394 12.2531 15.2979L12.0813 15.998ZM11.9678 6.7891C11.669 7.06677 11.3092 7.20561 10.8885 7.20561C10.4686 7.20561 10.1062 7.06677 9.80487 6.7891C9.50519 6.51143 9.35365 6.17365 9.35365 5.77915C9.35365 5.3855 9.50603 5.04688 9.80487 4.76667C10.1062 4.48561 10.4686 4.34593 10.8885 4.34593C11.3092 4.34593 11.6698 4.48561 11.9678 4.76667C12.2667 5.04688 12.4165 5.3855 12.4165 5.77915C12.4165 6.1745 12.2667 6.51143 11.9678 6.7891Z" fill="#4E4CF7"/>
</svg>
