<svg width="66" height="66" viewBox="0 0 66 66" fill="none" xmlns="http://www.w3.org/2000/svg">
<g clip-path="url(#clip0_1515_8869)">
<path d="M54.4229 32.7791V13.2926C54.2909 13.2679 54.1837 13.2514 54.0764 13.2349C52.0222 12.9544 49.9927 12.5336 48.0044 11.9644C45.8759 11.3621 43.7969 10.6196 41.7757 9.73689C39.7509 8.85579 37.7786 7.85864 35.8687 6.75039C35.1014 6.31314 34.3342 5.85939 33.5587 5.43039C33.486 5.39774 33.4073 5.38086 33.3277 5.38086C33.248 5.38086 33.1693 5.39774 33.0967 5.43039C32.6512 5.65314 32.2222 5.93364 31.7849 6.17289C30.3082 6.98964 28.8479 7.83114 27.3464 8.59014C25.4551 9.54686 23.5008 10.3738 21.4972 11.0651C19.6574 11.7251 17.7764 12.2531 15.8707 12.6574C14.6744 12.9049 13.4699 13.1111 12.2324 13.3421H12.2407V33.8929C12.2407 35.2129 12.2242 36.5411 12.2407 37.8611C12.2242 38.5294 12.2572 39.1976 12.3314 39.8659C12.7109 42.0686 13.5112 44.1724 14.6992 46.0699C15.8697 47.9921 17.2626 49.7699 18.8489 51.3664C20.6969 53.2556 22.7182 54.9634 24.8962 56.4649C26.4637 57.5374 28.0724 58.5521 29.6977 59.5421C30.8032 60.2104 31.9582 60.7879 33.0884 61.4066C33.2287 61.4974 33.4102 61.5056 33.5504 61.4149C33.9712 61.1839 34.4084 60.9694 34.8292 60.7384C37.0402 59.5586 39.1769 58.2551 41.2394 56.8361C43.8629 55.0624 46.2802 52.9999 48.4499 50.6899C50.6957 48.3634 52.4494 45.608 53.6062 42.5884C54.0847 41.3756 54.3569 40.0886 54.4147 38.7851C54.4477 36.7886 54.4229 34.7839 54.4229 32.7791ZM47.7982 48.0251H18.3952V46.4906H47.7982V48.0251ZM48.2684 42.5141C48.2684 44.0486 47.0227 45.2944 45.4882 45.3026H32.0819C31.7684 45.3026 31.4632 45.1954 31.2239 44.9974L30.1102 44.1064L21.4642 44.0734C20.9998 44.0734 20.5399 43.9818 20.111 43.8038C19.6821 43.6259 19.2924 43.365 18.9645 43.0363C18.6365 42.7075 18.3765 42.3173 18.1996 41.8879C18.0226 41.4586 17.9321 40.9985 17.9332 40.5341C17.9332 39.7751 18.5519 39.1564 19.3109 39.1564H36.9329V29.0501H26.6617L24.5992 32.7956C24.3599 33.2164 23.9227 33.4886 23.4359 33.5051L21.9427 33.5546V37.2589H20.4082V33.5711C19.7422 33.5 19.1246 33.1901 18.6695 32.6986C18.2145 32.2072 17.9529 31.5676 17.9332 30.8981V24.0094C17.9371 22.991 18.3434 22.0154 19.0635 21.2952C19.7837 20.5751 20.7593 20.1688 21.7777 20.1649H41.9654V18.2756H43.4999V20.1649H44.5972C46.6267 20.1731 48.2684 21.8149 48.2767 23.8444L48.2684 42.5141Z" fill="#4DABE9"/>
<path d="M42.7325 29.124C42.6101 29.124 42.4889 29.1481 42.3758 29.195C42.2627 29.2418 42.1599 29.3105 42.0733 29.3971C41.9868 29.4836 41.9181 29.5864 41.8713 29.6995C41.8244 29.8126 41.8003 29.9338 41.8003 30.0563C41.8003 30.1787 41.8244 30.2999 41.8713 30.413C41.9181 30.5261 41.9868 30.6289 42.0733 30.7155C42.1599 30.802 42.2627 30.8707 42.3758 30.9176C42.4889 30.9644 42.6101 30.9885 42.7325 30.9885C43.244 30.9885 43.6648 30.576 43.6648 30.0563C43.6565 29.5365 43.244 29.124 42.7325 29.124ZM42.8068 36.5985H42.7243C42.2128 36.5985 41.8003 37.011 41.8003 37.5308C41.8003 38.0423 42.2128 38.4548 42.7325 38.4548C43.244 38.4548 43.6565 38.0423 43.6565 37.5308C43.6565 37.044 43.2935 36.6398 42.8068 36.5985Z" fill="#4DABE9"/>
<path d="M44.589 21.6992H21.7612C20.4907 21.6992 19.4595 22.7305 19.4595 24.001V30.8155C19.4595 31.1455 19.5915 31.4672 19.8307 31.6982C20.0617 31.9375 20.3917 32.0695 20.7217 32.0447L23.2875 31.9705L25.35 28.225C25.5892 27.7877 26.0512 27.5155 26.5545 27.5155H37.0815C37.8405 27.5155 38.4592 28.1342 38.4592 28.8932V39.3212C38.4592 40.0802 37.8405 40.699 37.0815 40.699L19.4595 40.6907C19.5018 41.1893 19.7294 41.654 20.0975 41.9931C20.4655 42.3321 20.9473 42.5209 21.4477 42.5222H30.1267C30.4402 42.5222 30.7455 42.6295 30.9847 42.8275L32.0985 43.7185L45.4882 43.7515C46.173 43.7515 46.7257 43.1987 46.7257 42.514V23.8442C46.7257 22.6645 45.7687 21.7075 44.589 21.6992ZM42.7327 39.9895C41.3715 39.9895 40.266 38.884 40.266 37.5227C40.266 36.1615 41.3715 35.056 42.7327 35.056C44.094 35.056 45.1995 36.1615 45.1995 37.5227C45.1977 38.1764 44.9373 38.8028 44.4751 39.265C44.0128 39.7273 43.3864 39.9877 42.7327 39.9895ZM42.7327 32.515C42.079 32.5263 41.4474 32.2784 40.9759 31.8254C40.5045 31.3725 40.2314 30.7513 40.2165 30.0977C40.2052 29.444 40.4531 28.8124 40.906 28.3409C41.359 27.8695 41.9801 27.5964 42.6337 27.5815H42.7327C44.094 27.6062 45.1747 28.7365 45.15 30.0977C45.1379 30.735 44.8794 31.3429 44.4286 31.7936C43.9779 32.2444 43.37 32.5029 42.7327 32.515Z" fill="#4DABE9"/>
<path d="M33.008 65.9998C32.7935 65.9998 32.579 65.9338 32.3975 65.8183C32.0015 65.6038 31.5643 65.3728 31.1353 65.1418C30.2608 64.6798 29.3615 64.2013 28.4953 63.6733C26.2843 62.3368 24.5188 61.1983 22.9183 60.1011C20.3694 58.3458 17.9961 56.3482 15.8315 54.1363C13.9688 52.2574 12.3325 50.1669 10.9558 47.9076C9.54873 45.6547 8.59324 43.1497 8.14254 40.5321C8.04354 39.7236 8.00229 38.9151 8.02704 38.0983C8.01879 37.1001 8.01879 36.0771 8.02704 35.0541V9.28107L9.82554 8.95107C10.799 8.76957 11.7643 8.59632 12.713 8.40657C14.891 7.94457 17.036 7.34232 19.1315 6.59157C21.425 5.79957 23.6525 4.85907 25.8223 3.77007C27.0598 3.14307 28.2643 2.46657 29.477 1.79007L30.929 0.989816C31.1188 0.882566 31.3085 0.775316 31.4983 0.659816C31.82 0.470066 32.1335 0.288566 32.4635 0.123566C32.7935 -0.024934 33.173 -0.033184 33.503 0.107066C34.196 0.486566 34.8395 0.857816 35.4748 1.22907L36.2255 1.66632C38.4118 2.92857 40.6723 4.07532 42.9905 5.08182C45.3049 6.0879 47.6833 6.93952 50.1103 7.63107C52.379 8.28282 54.6973 8.76132 57.0403 9.08307L57.956 9.23157L57.9643 34.5673C57.9725 36.1183 57.9725 37.6528 57.956 39.1956C57.8983 40.7796 57.5683 42.3306 56.9825 43.8073C55.6196 47.3711 53.5515 50.6232 50.9023 53.3691C48.3695 56.0668 45.5398 58.4758 42.479 60.5466C39.8706 62.3359 37.157 63.9669 34.3528 65.4306C34.0805 65.5708 33.8083 65.7111 33.536 65.8596C33.3793 65.9503 33.1978 65.9998 33.008 65.9998ZM9.23979 10.2793L9.23154 35.0541C9.23154 36.0688 9.22329 37.0836 9.23154 38.0983C9.21504 38.8491 9.24804 39.5998 9.33879 40.3506C9.75954 42.8091 10.6588 45.1521 11.987 47.2723C13.3153 49.4586 14.8993 51.4716 16.6978 53.2866C18.8015 55.4481 21.1198 57.3951 23.603 59.1111C25.1788 60.1918 26.936 61.3138 29.1223 62.6421C29.9555 63.1536 30.8465 63.6238 31.6963 64.0776C32.1418 64.3168 32.579 64.5478 33.0163 64.7871C33.2555 64.6386 33.536 64.4901 33.8248 64.3416C34.0393 64.2343 34.2538 64.1188 34.46 64.0033C36.9928 62.6503 39.443 61.1571 41.8108 59.5318C44.8055 57.5023 47.5693 55.1511 50.0443 52.5111C52.5935 49.8793 54.5735 46.7608 55.877 43.3453C56.4133 42.0088 56.7103 40.5816 56.768 39.1461C56.7845 37.6281 56.7763 36.0853 56.7763 34.5426L56.768 10.2216C54.4085 9.89982 52.0738 9.40482 49.7885 8.75307C47.3135 8.05182 44.888 7.17732 42.5203 6.15432C40.1611 5.12596 37.8612 3.9664 35.6315 2.68107L34.8808 2.24382C34.2538 1.88082 33.6185 1.50957 32.9833 1.15482C32.7028 1.31982 32.4058 1.49307 32.117 1.66632C31.919 1.78182 31.7128 1.90557 31.5148 2.01282L30.071 2.81307C28.8418 3.49782 27.6208 4.18257 26.3668 4.81782C24.1564 5.93092 21.8744 6.89556 19.5358 7.70532C17.3908 8.47257 15.1963 9.09132 12.9605 9.56157C11.9953 9.75957 11.03 9.93282 10.04 10.1143L9.23979 10.2793Z" fill="#4DABE9"/>
</g>
<defs>
<clipPath id="clip0_1515_8869">
<rect width="66" height="66" fill="white"/>
</clipPath>
</defs>
</svg>
