<svg width="66" height="66" viewBox="0 0 66 66" fill="none" xmlns="http://www.w3.org/2000/svg">
<path d="M63.4219 39.3216L58.7812 36.6713V28.875C58.7788 28.0552 58.4521 27.2698 57.8724 26.6901C57.2927 26.1104 56.5073 25.7837 55.6875 25.7812H45.375V16.5C45.375 16.2265 45.2663 15.9642 45.073 15.7708C44.8796 15.5774 44.6173 15.4688 44.3438 15.4688H3.09375C2.82025 15.4688 2.55794 15.5774 2.36455 15.7708C2.17115 15.9642 2.0625 16.2265 2.0625 16.5V51.5625C2.0625 51.836 2.17115 52.0983 2.36455 52.2917C2.55794 52.4851 2.82025 52.5938 3.09375 52.5938H6.29063C6.50488 53.6533 7.04747 54.6183 7.84136 55.352C8.63524 56.0856 9.64006 56.5505 10.7131 56.6806C11.7862 56.8108 12.8731 56.5995 13.8193 56.077C14.7655 55.5544 15.5231 54.7469 15.9844 53.7694C16.4457 54.7469 17.2032 55.5544 18.1495 56.077C19.0957 56.5995 20.1825 56.8108 21.2556 56.6806C22.3287 56.5505 23.3335 56.0856 24.1274 55.352C24.9213 54.6183 25.4639 53.6533 25.6781 52.5938H49.6031C49.8398 53.7594 50.4722 54.8073 51.3931 55.56C52.314 56.3127 53.4669 56.7239 54.6562 56.7239C55.8456 56.7239 56.9985 56.3127 57.9194 55.56C58.8403 54.8073 59.4727 53.7594 59.7094 52.5938H62.9062C63.1798 52.5938 63.4421 52.4851 63.6355 52.2917C63.8288 52.0983 63.9375 51.836 63.9375 51.5625V40.2188C63.9382 40.037 63.8909 39.8584 63.8004 39.7008C63.7098 39.5432 63.5792 39.4124 63.4219 39.3216ZM11.3438 54.6562C10.7319 54.6562 10.1337 54.4748 9.62495 54.1349C9.11619 53.7949 8.71966 53.3117 8.4855 52.7464C8.25134 52.1811 8.19007 51.5591 8.30945 50.9589C8.42882 50.3588 8.72347 49.8076 9.15614 49.3749C9.58881 48.9422 10.1401 48.6476 10.7402 48.5282C11.3403 48.4088 11.9624 48.4701 12.5277 48.7043C13.093 48.9384 13.5762 49.3349 13.9161 49.8437C14.2561 50.3525 14.4375 50.9506 14.4375 51.5625C14.4351 52.3823 14.1083 53.1677 13.5287 53.7474C12.949 54.3271 12.1635 54.6538 11.3438 54.6562ZM20.625 54.6562C20.0131 54.6562 19.415 54.4748 18.9062 54.1349C18.3974 53.7949 18.0009 53.3117 17.7667 52.7464C17.5326 52.1811 17.4713 51.5591 17.5907 50.9589C17.7101 50.3588 18.0047 49.8076 18.4374 49.3749C18.8701 48.9422 19.4213 48.6476 20.0214 48.5282C20.6216 48.4088 21.2436 48.4701 21.8089 48.7043C22.3742 48.9384 22.8574 49.3349 23.1974 49.8437C23.5373 50.3525 23.7188 50.9506 23.7188 51.5625C23.7163 52.3823 23.3896 53.1677 22.8099 53.7474C22.2302 54.3271 21.4448 54.6538 20.625 54.6562ZM43.3125 50.5312H25.6781C25.4639 49.4717 24.9213 48.5067 24.1274 47.773C23.3335 47.0394 22.3287 46.5745 21.2556 46.4444C20.1825 46.3142 19.0957 46.5255 18.1495 47.0481C17.2032 47.5706 16.4457 48.3781 15.9844 49.3556C15.5231 48.3781 14.7655 47.5706 13.8193 47.0481C12.8731 46.5255 11.7862 46.3142 10.7131 46.4444C9.64006 46.5745 8.63524 47.0394 7.84136 47.773C7.04747 48.5067 6.50488 49.4717 6.29063 50.5312H4.125V44.3438H43.3125V50.5312ZM43.3125 42.2812H4.125V17.5312H43.3125V42.2812ZM52.5938 27.8438H55.6875C55.961 27.8438 56.2233 27.9524 56.4167 28.1458C56.6101 28.3392 56.7188 28.6015 56.7188 28.875V36.0938H52.5938V27.8438ZM54.6562 54.6562C54.0444 54.6562 53.4462 54.4748 52.9375 54.1349C52.4287 53.7949 52.0322 53.3117 51.798 52.7464C51.5638 52.1811 51.5026 51.5591 51.6219 50.9589C51.7413 50.3588 52.036 49.8076 52.4686 49.3749C52.9013 48.9422 53.4526 48.6476 54.0527 48.5282C54.6528 48.4088 55.2749 48.4701 55.8402 48.7043C56.4055 48.9384 56.8887 49.3349 57.2286 49.8437C57.5686 50.3525 57.75 50.9506 57.75 51.5625C57.7476 52.3823 57.4208 53.1677 56.8412 53.7474C56.2615 54.3271 55.476 54.6538 54.6562 54.6562ZM61.875 45.375H59.8125V43.3125H61.875V45.375ZM61.875 41.25H58.7812C58.5077 41.25 58.2454 41.3586 58.052 41.552C57.8587 41.7454 57.75 42.0077 57.75 42.2812V46.4062C57.75 46.6798 57.8587 46.9421 58.052 47.1355C58.2454 47.3289 58.5077 47.4375 58.7812 47.4375H61.875V50.5312H59.7094C59.4727 49.3656 58.8403 48.3177 57.9194 47.565C56.9985 46.8123 55.8456 46.4011 54.6562 46.4011C53.4669 46.4011 52.314 46.8123 51.3931 47.565C50.4722 48.3177 49.8398 49.3656 49.6031 50.5312H45.375V27.8438H50.5312V37.125C50.5312 37.3985 50.6399 37.6608 50.8333 37.8542C51.0267 38.0476 51.289 38.1562 51.5625 38.1562H57.2241C57.2268 38.1562 57.2294 38.1573 57.2314 38.1593C57.2333 38.1612 57.2344 38.1638 57.2344 38.1666L61.875 40.8169V41.25Z" fill="#4DABE9"/>
<path d="M51.5625 40.2188H55.6875V42.2812H51.5625V40.2188Z" fill="#4DABE9"/>
<path d="M11.3438 56.7188H2.0625V58.7812H63.9375V56.7188H54.6562H20.625H11.3438Z" fill="#4DABE9"/>
<path d="M20.625 11.3438H33V13.4062H20.625V11.3438Z" fill="#4DABE9"/>
<path d="M16.5 7.21875H28.875V9.28125H16.5V7.21875Z" fill="#4DABE9"/>
<path d="M12.375 7.21875H14.4375V9.28125H12.375V7.21875Z" fill="#4DABE9"/>
<path d="M7.21875 26.8125V36.0938H9.28125V31.9688H12.375V29.9062H9.28125V27.8438H13.4062V25.7812H8.25C7.9765 25.7812 7.71419 25.8899 7.5208 26.0833C7.3274 26.2767 7.21875 26.539 7.21875 26.8125Z" fill="#4DABE9"/>
<path d="M24.75 26.8125V35.0625C24.75 35.336 24.8586 35.5983 25.052 35.7917C25.2454 35.9851 25.5077 36.0938 25.7812 36.0938H30.9375V34.0312H26.8125V31.9688H29.9062V29.9062H26.8125V27.8438H30.9375V25.7812H25.7812C25.5077 25.7812 25.2454 25.8899 25.052 26.0833C24.8586 26.2767 24.75 26.539 24.75 26.8125Z" fill="#4DABE9"/>
<path d="M33 26.8125V35.0625C33 35.336 33.1086 35.5983 33.302 35.7917C33.4954 35.9851 33.7577 36.0938 34.0312 36.0938H39.1875V34.0312H35.0625V31.9688H38.1562V29.9062H35.0625V27.8438H39.1875V25.7812H34.0312C33.7577 25.7812 33.4954 25.8899 33.302 26.0833C33.1086 26.2767 33 26.539 33 26.8125Z" fill="#4DABE9"/>
<path d="M22.6875 28.875C22.6851 28.0552 22.3583 27.2698 21.7787 26.6901C21.199 26.1104 20.4135 25.7837 19.5938 25.7812H16.5C16.2265 25.7812 15.9642 25.8899 15.7708 26.0833C15.5774 26.2767 15.4688 26.539 15.4688 26.8125V36.0938H17.5312V31.9688H19.5938C19.8673 31.9688 20.1296 32.0774 20.323 32.2708C20.5164 32.4642 20.625 32.7265 20.625 33V36.0938H22.6875V33C22.6855 32.2363 22.3987 31.5009 21.8831 30.9375C22.3987 30.3741 22.6855 29.6387 22.6875 28.875ZM19.5938 29.9062H17.5312V27.8438H19.5938C19.8673 27.8438 20.1296 27.9524 20.323 28.1458C20.5164 28.3392 20.625 28.6015 20.625 28.875C20.625 29.1485 20.5164 29.4108 20.323 29.6042C20.1296 29.7976 19.8673 29.9062 19.5938 29.9062Z" fill="#4DABE9"/>
<path d="M53.625 50.5312H55.6875V52.5938H53.625V50.5312Z" fill="#4DABE9"/>
<path d="M19.5938 50.5312H21.6562V52.5938H19.5938V50.5312Z" fill="#4DABE9"/>
<path d="M10.3125 50.5312H12.375V52.5938H10.3125V50.5312Z" fill="#4DABE9"/>
</svg>
