<svg width="66" height="66" viewBox="0 0 66 66" fill="none" xmlns="http://www.w3.org/2000/svg">
<g clip-path="url(#clip0_1515_7331)">
<path d="M62.5451 35.9147L66.0019 33.0025L62.5451 30.0902L65.3749 26.5675L61.4149 24.3895L63.5021 20.38L59.1874 19.0187L60.4414 14.6792L55.9451 14.1842L56.3329 9.67974L51.8284 10.0675L51.3334 5.57124L46.9939 6.82524L45.6326 2.51049L41.6149 4.59774L39.4369 0.637742L35.9059 3.46749L32.9936 0.0107422L30.0814 3.46749L26.5504 0.637742L24.3724 4.59774L20.3629 2.51049L19.0016 6.82524L14.6622 5.57124L14.1672 10.0675L9.66265 9.67974L10.0504 14.1842L5.55415 14.6792L6.8164 19.0187L2.50165 20.38L4.58065 24.3895L0.620652 26.5675L3.4504 30.0985L-0.00634766 33.0107L3.4504 35.923L0.620652 39.4457L4.58065 41.6237L2.50165 45.6332L6.8164 46.9945L5.5624 51.3422L10.0587 51.829L9.6709 56.3335L14.1754 55.9457L14.6704 60.442L19.0099 59.188L20.3711 63.4945L24.3889 61.4155L26.5669 65.3755L30.0979 62.5457L33.0101 66.0025L35.9224 62.5457L39.4534 65.3755L41.6314 61.4155L45.6491 63.4945L47.0104 59.1797L51.3499 60.442L51.8449 55.9457L56.3494 56.3335L55.9617 51.829L60.4579 51.334L59.2039 46.9862L63.5186 45.625L61.4396 41.6155L65.3997 39.4375L62.5451 35.9147V35.9147ZM33.0101 60.0542C18.0777 60.0377 5.9749 47.935 5.9584 33.0025C5.9749 18.07 18.0777 5.96724 33.0101 5.95074C47.9426 5.96724 60.0454 18.07 60.0619 33.0025C60.0454 47.935 47.9426 60.0377 33.0101 60.0542V60.0542Z" fill="#4DABE9"/>
<path d="M33.0029 9.26709C19.9019 9.28359 9.29238 19.9013 9.27588 32.9941C9.29238 46.0951 19.9101 56.7128 33.0111 56.7293C46.1121 56.7128 56.7299 46.0951 56.7464 32.9941C56.7216 19.9013 46.1039 9.28359 33.0029 9.26709V9.26709ZM25.8254 47.7946C25.8254 48.3143 25.5779 48.5701 25.0994 48.5701H22.1459C22.0406 48.5849 21.9333 48.5751 21.8324 48.5414C21.7315 48.5077 21.6399 48.451 21.5647 48.3758C21.4895 48.3006 21.4328 48.2089 21.3991 48.1081C21.3654 48.0072 21.3555 47.8999 21.3704 47.7946V24.0676L16.4121 26.9303C15.8099 27.2026 15.5046 27.0541 15.5046 26.4766V23.7953C15.4881 23.3416 15.7356 22.9126 16.1399 22.7063L20.8671 19.8436C21.3044 19.5548 21.7994 19.3816 22.3191 19.3403H25.0499C25.4211 19.2908 25.7676 19.5466 25.8254 19.9178C25.8336 19.9838 25.8336 20.0498 25.8254 20.1076V47.7946V47.7946ZM48.6036 41.5246C48.7191 43.4303 48.0426 45.3031 46.7391 46.7056C46.0455 47.3491 45.2291 47.8459 44.3388 48.1663C43.4485 48.4867 42.5028 48.624 41.5581 48.5701H37.0124C35.0901 48.6856 33.2009 48.0173 31.7819 46.7056C31.1368 46.0131 30.6389 45.1968 30.3184 44.3063C29.9979 43.4157 29.8615 42.4694 29.9174 41.5246V26.3776C29.7936 24.4636 30.4701 22.5743 31.7819 21.1718C32.4864 20.5311 33.3123 20.0381 34.2108 19.7221C35.1092 19.4061 36.0618 19.2735 37.0124 19.3321H41.5581C43.4639 19.2166 45.3366 19.8848 46.7391 21.1718C47.3884 21.8666 47.8888 22.6868 48.2094 23.582C48.53 24.4773 48.6642 25.4286 48.6036 26.3776V41.5246Z" fill="#4DABE9"/>
<path d="M40.9228 23.2017H37.6888C35.5108 23.2017 34.4136 24.3237 34.4136 26.5677V41.3434C34.4136 43.5874 35.5026 44.7094 37.6888 44.7094H40.9146C43.1008 44.7094 44.1898 43.5874 44.1898 41.3434V26.5677C44.1981 24.3237 43.1008 23.2017 40.9228 23.2017V23.2017Z" fill="#4DABE9"/>
</g>
<defs>
<clipPath id="clip0_1515_7331">
<rect width="66" height="66" fill="white"/>
</clipPath>
</defs>
</svg>
