<svg width="66" height="66" viewBox="0 0 66 66" fill="none" xmlns="http://www.w3.org/2000/svg">
<path d="M6.336 14.652H59.664C63.162 14.652 66 17.49 66 20.988V45.012C66 48.51 63.162 51.348 59.664 51.348H6.336C2.838 51.348 0 48.51 0 45.012V20.988C0 17.49 2.838 14.652 6.336 14.652Z" fill="#FFB3C7"/>
<path d="M59.8055 36.168C58.9475 36.168 58.2215 36.894 58.2215 37.752C58.2215 38.61 58.9475 39.336 59.8055 39.336C60.6635 39.336 61.3895 38.61 61.3895 37.752C61.3895 36.828 60.6635 36.168 59.8055 36.168ZM54.6575 34.914C54.6575 33.726 53.6675 32.736 52.4135 32.736C51.1595 32.736 50.1695 33.726 50.1695 34.914C50.1695 36.102 51.1595 37.092 52.4135 37.092C53.6675 37.092 54.6575 36.102 54.6575 34.914ZM54.7235 30.756H57.2315V39.138H54.7235V38.61C53.9975 39.072 53.1395 39.402 52.2815 39.402C51.1088 39.402 49.984 38.9361 49.1547 38.1068C48.3254 37.2775 47.8595 36.1528 47.8595 34.98C47.8595 33.8072 48.3254 32.6824 49.1547 31.8532C49.984 31.0239 51.1088 30.558 52.2815 30.558C53.2055 30.558 54.0635 30.822 54.7235 31.35V30.756ZM34.7915 31.812V30.69H32.2175V39.072H34.7915V35.178C34.7915 33.858 36.2435 33.132 37.1675 33.132V30.69C36.1775 30.756 35.2535 31.152 34.7915 31.812ZM28.3895 34.914C28.3895 33.726 27.3995 32.736 26.1455 32.736C24.8915 32.736 23.9015 33.726 23.9015 34.914C23.9015 36.102 24.8915 37.092 26.1455 37.092C27.3995 37.092 28.3895 36.102 28.3895 34.914ZM28.3895 30.756H30.8975V39.138H28.3895V38.61C27.6635 39.072 26.8055 39.402 25.9475 39.402C24.7748 39.402 23.65 38.9361 22.8207 38.1068C21.9914 37.2775 21.5255 36.1528 21.5255 34.98C21.5255 33.8072 21.9914 32.6824 22.8207 31.8532C23.65 31.0239 24.7748 30.558 25.9475 30.558C26.8715 30.558 27.7295 30.822 28.3895 31.35V30.756ZM43.4375 30.492C42.4475 30.492 41.5235 30.822 40.8635 31.68V30.756H38.3555V39.138H40.8635V34.716C40.8635 33.462 41.7215 32.802 42.7115 32.802C43.8335 32.802 44.4275 33.462 44.4275 34.716V39.138H46.9355V33.792C46.9355 31.812 45.4175 30.492 43.4375 30.492ZM17.8955 39.138H20.5355V26.994H17.8955V39.138ZM6.47754 39.138H9.24954V26.994H6.47754V39.138ZM16.1135 26.994C16.1135 29.634 15.1235 32.076 13.2755 33.858L17.1035 39.138H13.6715L9.51354 33.462L10.5695 32.67C12.3515 31.35 13.3415 29.304 13.3415 27.06L16.1135 26.994Z" fill="black"/>
</svg>
