<svg xmlns="http://www.w3.org/2000/svg" width="39.828" height="22.759" viewBox="0 0 39.828 22.759"><path d="M44.117,24.286H5.711A.711.711,0,0,0,5,25V46.334a.711.711,0,0,0,.711.711H44.117a.711.711,0,0,0,.711-.711V25A.711.711,0,0,0,44.117,24.286ZM6.422,25.708h12.8v11.38H6.422ZM43.406,45.623H6.422V42.777H43.406v2.845Zm0-4.267H6.422V38.51H43.406v2.845Zm0-4.267H20.647V34.243H43.406v2.845Zm0-4.267H20.647V29.975H43.406V32.82Zm0-4.267H20.647V25.708H43.406v2.845Z" transform="translate(-5 -24.286)" fill="#fff"/><path d="M5.443,2,6.506,4.155,8.885,4.5,7.164,6.179,7.57,8.548,5.443,7.429,3.315,8.548l.406-2.368L2,4.5l2.379-.348Z" transform="translate(2.302 1.369)" fill="#fff"/></svg>