<svg xmlns="http://www.w3.org/2000/svg" width="39.956" height="22.394" viewBox="0 0 39.956 22.394"><g transform="translate(0.15 0.15)"><g transform="translate(0 0)"><path d="M49.01,23.9H10.4c-.3,0-.5.167-.5.418V45.575c0,.251.2.418.5.418H49.06c.3,0,.5-.167.5-.418V24.318A.515.515,0,0,0,49.01,23.9Zm-.5,21.215H10.893V24.737H48.564V45.115Z" transform="translate(-9.9 -23.9)" fill="#fff" stroke="#fff" stroke-width="0.3"/><path d="M40.585,47.686A6.445,6.445,0,1,0,34.3,41.243,6.4,6.4,0,0,0,40.585,47.686Zm0-12.054a5.613,5.613,0,1,1-5.474,5.612A5.574,5.574,0,0,1,40.585,35.631Z" transform="translate(-20.791 -30.196)" fill="#fff" stroke="#fff" stroke-width="0.3"/></g></g></svg>