<svg xmlns="http://www.w3.org/2000/svg" width="39.956" height="22.394" viewBox="0 0 39.956 22.394"><g transform="translate(0.15 0.15)"><g transform="translate(0 0)"><path d="M49.01,23.9H10.4c-.3,0-.5.167-.5.418V45.575c0,.251.2.418.5.418H49.06c.3,0,.5-.167.5-.418V24.318A.515.515,0,0,0,49.01,23.9Zm-.5,21.215H10.893V24.737H48.564V45.115Z" transform="translate(-9.9 -23.9)" fill="#fff" stroke="#fff" stroke-width="0.3"/><g transform="translate(13.367 4.535)"><path d="M45.249,9.931l-.225.693H44.3l.589.428-.225.693.589-.428.589.428-.225-.693.589-.428h-.728Z" transform="translate(-38.594 -9.931)" fill="#fff" stroke="#fff" stroke-width="0.3"/><path d="M62.913,14.068l-.225.693H61.96l.589.428-.225.693.589-.428.589.428-.225-.693.589-.428h-.728Z" transform="translate(-53.378 -13.393)" fill="#fff" stroke="#fff" stroke-width="0.3"/><path d="M74.91,28.606l.589-.428.589.428-.225-.693.589-.428h-.728l-.225-.693-.225.693h-.728l.589.428Z" transform="translate(-63.912 -24.044)" fill="#fff" stroke="#fff" stroke-width="0.3"/><path d="M80.888,45.019H80.16l-.225-.693-.225.693h-.728l.589.428-.225.693.589-.428.589.428-.225-.693Z" transform="translate(-67.625 -38.719)" fill="#fff" stroke="#fff" stroke-width="0.3"/><path d="M75.724,62.3l-.225-.693-.225.693h-.728l.589.428-.225.693.589-.428.589.428-.225-.693.589-.428Z" transform="translate(-63.912 -53.183)" fill="#fff" stroke="#fff" stroke-width="0.3"/><path d="M63.138,75.182l-.225-.693-.225.693H61.96l.589.428-.225.693.589-.428.589.428-.225-.693.589-.428Z" transform="translate(-53.378 -63.965)" fill="#fff" stroke="#fff" stroke-width="0.3"/><path d="M45.474,79.639l-.225-.693-.225.693H44.3l.589.428-.225.693.589-.428.589.428-.225-.693.589-.428Z" transform="translate(-38.594 -67.695)" fill="#fff" stroke="#fff" stroke-width="0.3"/><path d="M28.022,75.182,27.8,74.49l-.225.693h-.728l.589.428-.225.693.589-.428.589.428-.225-.693.589-.428Z" transform="translate(-23.987 -63.965)" fill="#fff" stroke="#fff" stroke-width="0.3"/><path d="M15.147,62.3l-.225-.693L14.7,62.3h-.728l.589.428-.225.693.589-.428.589.428-.225-.693.589-.428Z" transform="translate(-13.212 -53.183)" fill="#fff" stroke="#fff" stroke-width="0.3"/><path d="M10.277,45.712l.589.428-.225-.693.589-.428H10.5l-.225-.693-.225.693H9.324l.589.428-.225.693Z" transform="translate(-9.324 -38.719)" fill="#fff" stroke="#fff" stroke-width="0.3"/><path d="M14.922,26.793l-.225.693h-.728l.589.428-.225.693.589-.428.589.428-.225-.693.589-.428h-.728Z" transform="translate(-13.212 -24.044)" fill="#fff" stroke="#fff" stroke-width="0.3"/><path d="M27.8,14.068l-.225.693h-.728l.589.428-.225.693.589-.428.589.428-.225-.693.589-.428h-.728Z" transform="translate(-23.987 -13.393)" fill="#fff" stroke="#fff" stroke-width="0.3"/></g></g></g></svg>