<svg width="40" height="48" viewBox="0 0 40 48" fill="none" xmlns="http://www.w3.org/2000/svg">
<path d="M28.093 12.2572C25.7806 10.033 22.7433 8.88668 19.5296 9.00425C13.3667 9.2492 8.34035 14.4617 8.32075 20.6344C8.31096 23.368 9.27115 26.033 11.025 28.1298C13.5528 31.1671 14.9441 34.9981 14.9441 38.9271C14.9441 38.9271 14.6796 40.7299 15.9631 40.7299H24.0366C25.3495 40.7299 25.0556 38.9271 25.0556 38.9271C25.0556 35.0863 26.4665 31.2847 29.1413 27.9338C30.7972 25.8469 31.679 23.3386 31.679 20.6736C31.679 17.4697 30.4053 14.4715 28.093 12.2572ZM27.5443 26.6601C24.6343 30.3049 23.0764 34.4592 23.0176 38.6919H16.9821C16.9233 34.3711 15.3753 30.1678 12.5926 26.8267C11.1524 25.0924 10.3587 22.8977 10.3685 20.6442C10.3881 15.5493 14.5326 11.248 19.6178 11.0422C22.273 10.9442 24.7813 11.8946 26.6821 13.7269C28.5926 15.5591 29.641 18.0281 29.641 20.6736C29.6312 22.8781 28.916 24.9455 27.5443 26.6601Z" fill="#4E4CF7"/>
<path d="M33.4425 5.56514C33.0408 5.16343 32.3942 5.16343 32.0022 5.56514L29.5136 8.05381C29.1119 8.45553 29.1119 9.10219 29.5136 9.49411C29.9153 9.88602 30.5619 9.89582 30.9539 9.49411L33.4425 7.00543C33.8442 6.61352 33.8442 5.96686 33.4425 5.56514Z" fill="#4E4CF7"/>
<path d="M24.076 42.1212H15.9241C15.3559 42.1212 14.9052 42.5817 14.9052 43.1401C14.9052 43.7084 15.3657 44.1591 15.9241 44.1591H24.076C24.6443 44.1591 25.095 43.6986 25.095 43.1401C25.095 42.5817 24.6345 42.1212 24.076 42.1212Z" fill="#4E4CF7"/>
<path d="M22.5375 45.9621H17.472C16.9037 45.9621 16.453 46.4226 16.453 46.9811C16.453 47.5494 16.9135 48.0001 17.472 48.0001H22.5375C23.1058 48.0001 23.5565 47.5396 23.5565 46.9811C23.5565 46.4226 23.096 45.9621 22.5375 45.9621Z" fill="#4E4CF7"/>
<path d="M19.9998 5.55536C20.5681 5.55536 21.0188 5.09486 21.0188 4.53638V1.01892C21.0188 0.450643 20.5583 -6.10352e-05 19.9998 -6.10352e-05C19.4413 -6.10352e-05 18.9808 0.460441 18.9808 1.01892V4.53638C18.9808 5.10465 19.4315 5.55536 19.9998 5.55536Z" fill="#4E4CF7"/>
<path d="M10.4862 9.50393C10.8879 9.10222 10.8879 8.45556 10.4862 8.06364L7.99756 5.57497C7.59585 5.17325 6.94918 5.17325 6.55727 5.57497C6.16535 5.97668 6.15555 6.62334 6.55727 7.01526L9.04594 9.50393C9.44765 9.89585 10.0943 9.89585 10.4862 9.50393Z" fill="#4E4CF7"/>
<path d="M37.989 17.989H34.4715C33.9032 17.989 33.4525 18.4495 33.4525 19.0079C33.4525 19.5664 33.913 20.0269 34.4715 20.0269H37.989C38.5572 20.0269 39.0079 19.5664 39.0079 19.0079C39.0079 18.4495 38.5474 17.989 37.989 17.989Z" fill="#4E4CF7"/>
<path d="M5.5285 17.989H2.01105C1.44277 17.989 0.992065 18.4495 0.992065 19.0079C0.992065 19.5664 1.45257 20.0269 2.01105 20.0269H5.5285C6.09678 20.0269 6.54748 19.5664 6.54748 19.0079C6.54748 18.4495 6.09678 17.989 5.5285 17.989Z" fill="#4E4CF7"/>
</svg>
