<svg width="74" height="65" viewBox="0 0 74 65" fill="none" xmlns="http://www.w3.org/2000/svg">
<rect x="0.689666" y="0.289672" width="72.8207" height="64.4207" fill="#4E4CF7"/>
<g clip-path="url(#clip0_906_1702)">
<path d="M49.0735 32.8293V39.4143C49.0735 41.6189 48.1977 43.7333 46.6388 45.2922C45.0799 46.8511 42.9655 47.7269 40.7609 47.7269V41.142C40.7609 38.9373 41.6367 36.823 43.1956 35.2641C44.7545 33.7051 46.8689 32.8293 49.0735 32.8293Z" fill="#9AEAFF"/>
<path d="M38.6477 33.8129L38.6477 43.3471C36.1925 43.346 33.8382 42.37 32.1025 40.6335C30.3667 38.8971 29.3916 36.5423 29.3916 34.0871V24.553C31.8469 24.554 34.2012 25.53 35.9369 27.2665C37.6727 29.003 38.6477 31.3577 38.6477 33.8129Z" fill="#9AEAFF"/>
<path d="M46.9654 29.2466C47.3671 27.558 46.3237 25.8634 44.6351 25.4617C42.9464 25.0601 41.2519 26.1034 40.8502 27.792C40.4485 29.4807 41.4919 31.1752 43.1805 31.5769C44.8692 31.9786 46.5637 30.9353 46.9654 29.2466Z" fill="#9AEAFF"/>
</g>
<rect x="0.689666" y="0.289672" width="72.8207" height="64.4207" stroke="white" stroke-width="0.579345"/>
<defs>
<clipPath id="clip0_906_1702">
<rect width="19.6857" height="23.1738" fill="white" transform="translate(29.3878 24.553)"/>
</clipPath>
</defs>
</svg>
