<svg width="48" height="48" viewBox="0 0 48 48" fill="none" xmlns="http://www.w3.org/2000/svg">
<g clip-path="url(#clip0_639_2472)">
<path d="M1.09094 30.5455C0.488762 30.5455 0 30.0568 0 29.4546V18.5455C0 17.9433 0.488762 17.4545 1.09094 17.4545C1.69313 17.4545 2.18189 17.9433 2.18189 18.5455V29.4546C2.18179 30.0568 1.69313 30.5455 1.09094 30.5455Z" fill="#4E4CF7"/>
<path d="M7.63635 39.2728C7.03417 39.2728 6.54541 38.7841 6.54541 38.1819V9.81824C6.54541 9.21606 7.03417 8.72729 7.63635 8.72729C8.23854 8.72729 8.7272 9.21606 8.7272 9.81824V38.1819C8.7272 38.7841 8.23854 39.2728 7.63635 39.2728Z" fill="#4E4CF7"/>
<path d="M14.1819 48.0001C13.5797 48.0001 13.0909 47.5113 13.0909 46.9091V1.0909C13.0909 0.488823 13.5797 6.10352e-05 14.1819 6.10352e-05C14.7841 6.10352e-05 15.2728 0.488823 15.2728 1.091V46.9092C15.2727 47.5114 14.7841 48.0001 14.1819 48.0001Z" fill="#4E4CF7"/>
<path d="M20.7273 45.8182C20.1251 45.8182 19.6364 45.3295 19.6364 44.7273V3.27277C19.6364 2.67059 20.1251 2.18182 20.7273 2.18182C21.3295 2.18182 21.8181 2.67059 21.8181 3.27277V44.7273C21.8181 45.3295 21.3295 45.8182 20.7273 45.8182Z" fill="#4E4CF7"/>
<path d="M27.2728 37.0911C26.6706 37.0911 26.1819 36.6023 26.1819 36.0001V12.0001C26.1819 11.3979 26.6706 10.9091 27.2728 10.9091C27.875 10.9091 28.3638 11.3979 28.3638 12.0001V36.0001C28.3637 36.6023 27.875 37.0911 27.2728 37.0911Z" fill="#4E4CF7"/>
<path d="M33.8182 45.8182C33.2161 45.8182 32.7273 45.3295 32.7273 44.7273V3.27277C32.7273 2.67059 33.2161 2.18182 33.8182 2.18182C34.4204 2.18182 34.9092 2.67059 34.9092 3.27277V44.7273C34.9091 45.3295 34.4204 45.8182 33.8182 45.8182Z" fill="#4E4CF7"/>
<path d="M40.3636 37.0911C39.7615 37.0911 39.2727 36.6023 39.2727 36.0001V12.0001C39.2727 11.3979 39.7615 10.9091 40.3636 10.9091C40.9658 10.9091 41.4546 11.3979 41.4546 12.0001V36.0001C41.4545 36.6023 40.9658 37.0911 40.3636 37.0911Z" fill="#4E4CF7"/>
<path d="M46.9092 30.5455C46.307 30.5455 45.8182 30.0568 45.8182 29.4546V18.5455C45.8182 17.9433 46.307 17.4545 46.9092 17.4545C47.5114 17.4545 48.0001 17.9433 48.0001 18.5455V29.4546C48 30.0568 47.5114 30.5455 46.9092 30.5455Z" fill="#4E4CF7"/>
<path d="M1.09094 30.5455C0.488762 30.5455 0 30.0568 0 29.4546V18.5455C0 17.9433 0.488762 17.4545 1.09094 17.4545C1.69313 17.4545 2.18189 17.9433 2.18189 18.5455V29.4546C2.18179 30.0568 1.69313 30.5455 1.09094 30.5455Z" fill="#4E4CF7"/>
<path d="M7.63635 39.2728C7.03417 39.2728 6.54541 38.7841 6.54541 38.1819V9.81824C6.54541 9.21606 7.03417 8.72729 7.63635 8.72729C8.23854 8.72729 8.7272 9.21606 8.7272 9.81824V38.1819C8.7272 38.7841 8.23854 39.2728 7.63635 39.2728Z" fill="#4E4CF7"/>
<path d="M14.1819 48.0001C13.5797 48.0001 13.0909 47.5113 13.0909 46.9091V1.0909C13.0909 0.488823 13.5797 6.10352e-05 14.1819 6.10352e-05C14.7841 6.10352e-05 15.2728 0.488823 15.2728 1.091V46.9092C15.2727 47.5114 14.7841 48.0001 14.1819 48.0001Z" fill="#4E4CF7"/>
<path d="M20.7273 45.8182C20.1251 45.8182 19.6364 45.3295 19.6364 44.7273V3.27277C19.6364 2.67059 20.1251 2.18182 20.7273 2.18182C21.3295 2.18182 21.8181 2.67059 21.8181 3.27277V44.7273C21.8181 45.3295 21.3295 45.8182 20.7273 45.8182Z" fill="#4E4CF7"/>
<path d="M27.2728 37.0911C26.6706 37.0911 26.1819 36.6023 26.1819 36.0001V12.0001C26.1819 11.3979 26.6706 10.9091 27.2728 10.9091C27.875 10.9091 28.3638 11.3979 28.3638 12.0001V36.0001C28.3637 36.6023 27.875 37.0911 27.2728 37.0911Z" fill="#4E4CF7"/>
<path d="M33.8182 45.8182C33.2161 45.8182 32.7273 45.3295 32.7273 44.7273V3.27277C32.7273 2.67059 33.2161 2.18182 33.8182 2.18182C34.4204 2.18182 34.9092 2.67059 34.9092 3.27277V44.7273C34.9091 45.3295 34.4204 45.8182 33.8182 45.8182Z" fill="#4E4CF7"/>
<path d="M40.3636 37.0911C39.7615 37.0911 39.2727 36.6023 39.2727 36.0001V12.0001C39.2727 11.3979 39.7615 10.9091 40.3636 10.9091C40.9658 10.9091 41.4546 11.3979 41.4546 12.0001V36.0001C41.4545 36.6023 40.9658 37.0911 40.3636 37.0911Z" fill="#4E4CF7"/>
<path d="M46.9092 30.5455C46.307 30.5455 45.8182 30.0568 45.8182 29.4546V18.5455C45.8182 17.9433 46.307 17.4545 46.9092 17.4545C47.5114 17.4545 48.0001 17.9433 48.0001 18.5455V29.4546C48 30.0568 47.5114 30.5455 46.9092 30.5455Z" fill="#4E4CF7"/>
</g>
<defs>
<clipPath id="clip0_639_2472">
<rect width="48" height="48" fill="white"/>
</clipPath>
</defs>
</svg>
