<svg width="75" height="65" viewBox="0 0 75 65" fill="none" xmlns="http://www.w3.org/2000/svg">
<rect width="73.4" height="65" transform="translate(0.799988)" fill="#383851"/>
<g clip-path="url(#clip0_906_1595)">
<path d="M51.4118 38.2839C49.8834 36.7639 47.9061 35.7767 45.7728 35.4684C45.6435 35.4539 45.5137 35.4903 45.4107 35.5697C45.3076 35.6492 45.2395 35.7656 45.2207 35.8943C45.2018 36.023 45.2337 36.154 45.3096 36.2597C45.3854 36.3654 45.4994 36.4374 45.6274 36.4607C47.3726 36.7128 49.0057 37.4705 50.3252 38.6402C48.7258 40.0411 46.6922 40.8477 44.5674 40.9239C42.4425 41.0002 40.3563 40.3415 38.6606 39.0589C43.6492 38.4197 47.5449 34.1485 47.5721 29.0161C47.5725 28.8828 47.5202 28.7547 47.4266 28.6597C47.3796 28.6107 47.3226 28.5722 47.2595 28.5469C47.1964 28.5215 47.1286 28.5099 47.0607 28.5127C44.9514 28.5191 42.8978 29.19 41.1916 30.4302C41.1383 30.4689 41.0932 30.5176 41.0588 30.5738C41.0244 30.6299 41.0015 30.6922 40.9912 30.7573C40.981 30.8223 40.9837 30.8887 40.9991 30.9527C41.0146 31.0166 41.0426 31.0769 41.0814 31.1301C41.1597 31.2373 41.2772 31.3091 41.4083 31.3301C41.5394 31.351 41.6734 31.3194 41.7813 31.2419C43.1757 30.2272 44.8312 29.6323 46.5526 29.5274C46.4083 31.6482 45.5367 33.6543 44.085 35.2071C42.6332 36.7598 40.6902 37.7642 38.5839 38.0506C41.6598 34.075 41.4153 28.321 37.8265 24.6938C37.7315 24.6001 37.6034 24.5479 37.4701 24.5484C37.4041 24.5479 37.3386 24.5605 37.2774 24.5854C37.2163 24.6104 37.1606 24.6472 37.1138 24.6938C35.593 26.2209 34.6056 28.198 34.2983 30.3311C34.2887 30.3962 34.2921 30.4625 34.3082 30.5262C34.3243 30.59 34.3527 30.65 34.392 30.7027C34.4312 30.7555 34.4805 30.8 34.5369 30.8337C34.5934 30.8674 34.6559 30.8897 34.7209 30.8992C34.786 30.9087 34.8523 30.9054 34.916 30.8893C34.9798 30.8732 35.0398 30.8448 35.0925 30.8055C35.1453 30.7663 35.1898 30.717 35.2235 30.6606C35.2572 30.6041 35.2794 30.5416 35.289 30.4766C35.5429 28.7319 36.3003 27.0992 37.4685 25.7787C38.9668 27.4827 39.7694 29.6878 39.7168 31.9562C39.6836 33.9224 39.0217 35.8263 37.828 37.3891C37.1889 32.4356 32.9752 28.5607 27.9083 28.5095C27.8418 28.5084 27.7758 28.5205 27.7141 28.5452C27.6523 28.5699 27.5961 28.6067 27.5488 28.6534C27.4541 28.7479 27.4007 28.8759 27.4002 29.0097V29.9397C27.4002 29.9572 27.4002 29.9732 27.4002 29.9908C27.576 31.7 28.1848 33.3362 29.169 34.7445C29.2454 34.8533 29.3617 34.9274 29.4925 34.9508C29.6233 34.9741 29.7581 34.9448 29.8673 34.8692C29.9762 34.7928 30.0502 34.6764 30.0733 34.5455C30.0964 34.4146 30.0666 34.2798 29.9904 34.1709C29.1093 32.9091 28.5623 31.4446 28.4005 29.9141V29.5306C30.6565 29.6838 32.773 30.6777 34.3319 32.3157C35.6899 33.7224 36.5628 35.5263 36.823 37.4642C32.8762 34.4282 27.1557 34.7238 23.5604 38.2439C23.5127 38.2898 23.4747 38.3449 23.4489 38.4059C23.4231 38.4669 23.4099 38.5325 23.4102 38.5987C23.4097 38.7325 23.4619 38.8611 23.5556 38.9566L24.2124 39.6117L24.2523 39.6485C26.0552 41.1127 28.3069 41.9122 30.6295 41.9127H30.6487C32.4584 41.9127 34.2348 41.4265 35.7923 40.505C35.8491 40.4713 35.8987 40.4267 35.9382 40.3738C35.9777 40.3209 36.0063 40.2606 36.0224 40.1966C36.0388 40.1329 36.0424 40.0666 36.033 40.0015C36.0237 39.9365 36.0016 39.8738 35.9681 39.8173C35.9346 39.7608 35.8902 39.7114 35.8375 39.672C35.7849 39.6326 35.725 39.604 35.6613 39.5878C35.5975 39.5711 35.531 39.5672 35.4657 39.5766C35.4004 39.5859 35.3376 39.6082 35.281 39.6421C33.8778 40.4721 32.2775 40.9103 30.6471 40.9108H30.6215C28.5395 40.9086 26.521 40.1942 24.9011 38.8863L24.6342 38.6274C26.3725 37.1186 28.6151 36.3193 30.9159 36.3886C33.2167 36.4579 35.4071 37.3906 37.0515 39.0013C38.9595 40.8907 41.5393 41.9458 44.2244 41.9351C46.9115 41.945 49.4928 40.8888 51.4022 38.9982C51.4493 38.9515 51.4866 38.896 51.5121 38.8348C51.5376 38.7737 51.5507 38.7081 51.5507 38.6418C51.5507 38.5756 51.5376 38.51 51.5121 38.4488C51.4866 38.3876 51.4493 38.3321 51.4022 38.2855L51.4118 38.2839Z" fill="white"/>
</g>
<defs>
<clipPath id="clip0_906_1595">
<rect width="28.1454" height="17.3803" fill="white" transform="translate(23.415 24.553)"/>
</clipPath>
</defs>
</svg>
