<svg width="36" height="36" viewBox="0 0 36 36" fill="none" xmlns="http://www.w3.org/2000/svg">
<path d="M19.9888 18.0001L35.5881 2.40069C36.1373 1.85148 36.1373 0.961047 35.5881 0.411908C35.0389 -0.137232 34.1485 -0.137303 33.5993 0.411908L18 16.0113L2.40069 0.411908C1.85148 -0.137303 0.961047 -0.137303 0.411907 0.411908C-0.137232 0.961118 -0.137302 1.85155 0.411907 2.40069L16.0112 18L0.411907 33.5994C-0.137302 34.1486 -0.137302 35.039 0.411907 35.5881C0.686477 35.8627 1.04641 36 1.40633 36C1.76626 36 2.12612 35.8627 2.40076 35.5881L18 19.9888L33.5993 35.5881C33.8738 35.8627 34.2338 36 34.5937 36C34.9536 36 35.3135 35.8627 35.5881 35.5881C36.1373 35.0389 36.1373 34.1485 35.5881 33.5994L19.9888 18.0001Z" fill="white"/>
</svg>
