<svg width="40" height="48" viewBox="0 0 40 48" fill="none" xmlns="http://www.w3.org/2000/svg">
<path d="M28.0928 12.2572C25.7805 10.033 22.7432 8.88668 19.5294 9.00425C13.3666 9.2492 8.34023 14.4617 8.32063 20.6344C8.31083 23.368 9.27103 26.033 11.0249 28.1298C13.5527 31.1671 14.944 34.9981 14.944 38.9271C14.944 38.9271 14.6795 40.7299 15.963 40.7299H24.0365C25.3494 40.7299 25.0555 38.9271 25.0555 38.9271C25.0555 35.0863 26.4664 31.2847 29.1412 27.9338C30.7971 25.8469 31.6789 23.3386 31.6789 20.6736C31.6789 17.4697 30.4051 14.4715 28.0928 12.2572ZM27.5441 26.6601C24.6342 30.3049 23.0763 34.4592 23.0175 38.6919H16.982C16.9232 34.3711 15.3751 30.1678 12.5925 26.8267C11.1522 25.0924 10.3586 22.8977 10.3684 20.6442C10.388 15.5493 14.5325 11.248 19.6176 11.0422C22.2729 10.9442 24.7811 11.8946 26.6819 13.7269C28.5925 15.5591 29.6409 18.0281 29.6409 20.6736C29.6311 22.8781 28.9159 24.9455 27.5441 26.6601Z" fill="white"/>
<path d="M33.4424 5.56514C33.0407 5.16343 32.394 5.16343 32.0021 5.56514L29.5134 8.05381C29.1117 8.45553 29.1117 9.10219 29.5134 9.49411C29.9152 9.88602 30.5618 9.89582 30.9537 9.49411L33.4424 7.00543C33.8441 6.61352 33.8441 5.96686 33.4424 5.56514Z" fill="white"/>
<path d="M24.0759 42.1212H15.924C15.3557 42.1212 14.905 42.5817 14.905 43.1402C14.905 43.7085 15.3655 44.1592 15.924 44.1592H24.0759C24.6442 44.1592 25.0949 43.6987 25.0949 43.1402C25.0949 42.5817 24.6344 42.1212 24.0759 42.1212Z" fill="white"/>
<path d="M22.5374 45.9622H17.4719C16.9036 45.9622 16.4529 46.4227 16.4529 46.9811C16.4529 47.5494 16.9134 48.0001 17.4719 48.0001H22.5374C23.1057 48.0001 23.5564 47.5396 23.5564 46.9811C23.5564 46.4227 23.0959 45.9622 22.5374 45.9622Z" fill="white"/>
<path d="M19.9997 5.55536C20.568 5.55536 21.0187 5.09486 21.0187 4.53638V1.01892C21.0187 0.450643 20.5582 -6.10352e-05 19.9997 -6.10352e-05C19.4412 -6.10352e-05 18.9807 0.460441 18.9807 1.01892V4.53638C18.9807 5.10465 19.4314 5.55536 19.9997 5.55536Z" fill="white"/>
<path d="M10.4861 9.50393C10.8878 9.10222 10.8878 8.45556 10.4861 8.06364L7.99744 5.57497C7.59572 5.17325 6.94906 5.17325 6.55714 5.57497C6.16523 5.97668 6.15543 6.62334 6.55714 7.01526L9.04581 9.50393C9.44753 9.89585 10.0942 9.89585 10.4861 9.50393Z" fill="white"/>
<path d="M37.9888 17.989H34.4714C33.9031 17.989 33.4524 18.4495 33.4524 19.0079C33.4524 19.5664 33.9129 20.0269 34.4714 20.0269H37.9888C38.5571 20.0269 39.0078 19.5664 39.0078 19.0079C39.0078 18.4495 38.5473 17.989 37.9888 17.989Z" fill="white"/>
<path d="M5.52838 17.989H2.01093C1.44265 17.989 0.991943 18.4495 0.991943 19.0079C0.991943 19.5664 1.45245 20.0269 2.01093 20.0269H5.52838C6.09666 20.0269 6.54736 19.5664 6.54736 19.0079C6.54736 18.4495 6.09666 17.989 5.52838 17.989Z" fill="white"/>
</svg>
