<svg width="40" height="40" viewBox="0 0 40 40" fill="none" xmlns="http://www.w3.org/2000/svg">
<circle cx="20" cy="20" r="20" fill="#4E4CF7"/>
<path d="M16.5017 27C16.2522 26.9996 16.0072 26.9383 15.7907 26.8223C15.3031 26.5636 15 26.0615 15 25.5163V14.4838C15 13.9371 15.3031 13.4364 15.7907 13.1777C16.0124 13.0584 16.2642 12.9971 16.5199 13.0001C16.7755 13.0031 17.0256 13.0704 17.244 13.1948L27.3143 18.839C27.5242 18.9622 27.6972 19.1333 27.8172 19.3362C27.9371 19.5392 28 19.7673 28 19.9993C28 20.2312 27.9371 20.4594 27.8172 20.6623C27.6972 20.8653 27.5242 21.0364 27.3143 21.1596L17.2424 26.8052C17.0189 26.9317 16.7629 26.9991 16.5017 27Z" fill="white"/>
</svg>
