<svg width="26" height="26" viewBox="0 0 26 26" fill="none" xmlns="http://www.w3.org/2000/svg">
<path d="M14.4363 13.0002L25.7025 1.73396C26.0991 1.3373 26.0991 0.694212 25.7025 0.297611C25.3058 -0.0989901 24.6627 -0.0990409 24.2661 0.297611L12.9999 11.5638L1.73377 0.297611C1.33712 -0.0990409 0.694028 -0.0990409 0.297428 0.297611C-0.0991732 0.694263 -0.0992239 1.33736 0.297428 1.73396L11.5636 13.0001L0.297428 24.2663C-0.0992239 24.663 -0.0992239 25.3061 0.297428 25.7027C0.495728 25.901 0.755677 26.0001 1.01563 26.0001C1.27557 26.0001 1.53547 25.901 1.73382 25.7027L12.9999 14.4365L24.2661 25.7027C24.4644 25.901 24.7243 26.0001 24.9843 26.0001C25.2442 26.0001 25.5041 25.901 25.7025 25.7027C26.0991 25.306 26.0991 24.6629 25.7025 24.2663L14.4363 13.0002Z" fill="white"/>
</svg>
