<svg width="48" height="48" viewBox="0 0 48 48" fill="none" xmlns="http://www.w3.org/2000/svg">
<g clip-path="url(#clip0_843_11)">
<path d="M1.09094 30.5455C0.488762 30.5455 0 30.0568 0 29.4546V18.5455C0 17.9433 0.488762 17.4545 1.09094 17.4545C1.69313 17.4545 2.18189 17.9433 2.18189 18.5455V29.4546C2.18179 30.0568 1.69313 30.5455 1.09094 30.5455Z" fill="white"/>
<path d="M7.63635 39.2728C7.03417 39.2728 6.54541 38.7841 6.54541 38.1819V9.81824C6.54541 9.21606 7.03417 8.72729 7.63635 8.72729C8.23854 8.72729 8.7272 9.21606 8.7272 9.81824V38.1819C8.7272 38.7841 8.23854 39.2728 7.63635 39.2728Z" fill="white"/>
<path d="M14.1818 48.0001C13.5796 48.0001 13.0908 47.5113 13.0908 46.9091V1.0909C13.0908 0.488823 13.5796 6.10352e-05 14.1818 6.10352e-05C14.7839 6.10352e-05 15.2727 0.488823 15.2727 1.091V46.9092C15.2726 47.5114 14.7839 48.0001 14.1818 48.0001Z" fill="white"/>
<path d="M20.7274 45.8182C20.1252 45.8182 19.6365 45.3295 19.6365 44.7273V3.27277C19.6365 2.67059 20.1252 2.18182 20.7274 2.18182C21.3296 2.18182 21.8183 2.67059 21.8183 3.27277V44.7273C21.8183 45.3295 21.3296 45.8182 20.7274 45.8182Z" fill="white"/>
<path d="M27.2728 37.0911C26.6706 37.0911 26.1819 36.6023 26.1819 36.0001V12.0001C26.1819 11.3979 26.6706 10.9091 27.2728 10.9091C27.875 10.9091 28.3638 11.3979 28.3638 12.0001V36.0001C28.3637 36.6023 27.875 37.0911 27.2728 37.0911Z" fill="white"/>
<path d="M33.8182 45.8182C33.2161 45.8182 32.7273 45.3295 32.7273 44.7273V3.27277C32.7273 2.67059 33.2161 2.18182 33.8182 2.18182C34.4204 2.18182 34.9092 2.67059 34.9092 3.27277V44.7273C34.9091 45.3295 34.4204 45.8182 33.8182 45.8182Z" fill="white"/>
<path d="M40.3636 37.0911C39.7615 37.0911 39.2727 36.6023 39.2727 36.0001V12.0001C39.2727 11.3979 39.7615 10.9091 40.3636 10.9091C40.9658 10.9091 41.4546 11.3979 41.4546 12.0001V36.0001C41.4545 36.6023 40.9658 37.0911 40.3636 37.0911Z" fill="white"/>
<path d="M46.9091 30.5455C46.3069 30.5455 45.8181 30.0568 45.8181 29.4546V18.5455C45.8181 17.9433 46.3069 17.4545 46.9091 17.4545C47.5112 17.4545 48 17.9433 48 18.5455V29.4546C47.9999 30.0568 47.5112 30.5455 46.9091 30.5455Z" fill="white"/>
<path d="M1.09094 30.5455C0.488762 30.5455 0 30.0568 0 29.4546V18.5455C0 17.9433 0.488762 17.4545 1.09094 17.4545C1.69313 17.4545 2.18189 17.9433 2.18189 18.5455V29.4546C2.18179 30.0568 1.69313 30.5455 1.09094 30.5455Z" fill="white"/>
<path d="M7.63635 39.2728C7.03417 39.2728 6.54541 38.7841 6.54541 38.1819V9.81824C6.54541 9.21606 7.03417 8.72729 7.63635 8.72729C8.23854 8.72729 8.7272 9.21606 8.7272 9.81824V38.1819C8.7272 38.7841 8.23854 39.2728 7.63635 39.2728Z" fill="white"/>
<path d="M14.1818 48.0001C13.5796 48.0001 13.0908 47.5113 13.0908 46.9091V1.0909C13.0908 0.488823 13.5796 6.10352e-05 14.1818 6.10352e-05C14.7839 6.10352e-05 15.2727 0.488823 15.2727 1.091V46.9092C15.2726 47.5114 14.7839 48.0001 14.1818 48.0001Z" fill="white"/>
<path d="M20.7274 45.8182C20.1252 45.8182 19.6365 45.3295 19.6365 44.7273V3.27277C19.6365 2.67059 20.1252 2.18182 20.7274 2.18182C21.3296 2.18182 21.8183 2.67059 21.8183 3.27277V44.7273C21.8183 45.3295 21.3296 45.8182 20.7274 45.8182Z" fill="white"/>
<path d="M27.2728 37.0911C26.6706 37.0911 26.1819 36.6023 26.1819 36.0001V12.0001C26.1819 11.3979 26.6706 10.9091 27.2728 10.9091C27.875 10.9091 28.3638 11.3979 28.3638 12.0001V36.0001C28.3637 36.6023 27.875 37.0911 27.2728 37.0911Z" fill="white"/>
<path d="M33.8182 45.8182C33.2161 45.8182 32.7273 45.3295 32.7273 44.7273V3.27277C32.7273 2.67059 33.2161 2.18182 33.8182 2.18182C34.4204 2.18182 34.9092 2.67059 34.9092 3.27277V44.7273C34.9091 45.3295 34.4204 45.8182 33.8182 45.8182Z" fill="white"/>
<path d="M40.3636 37.0911C39.7615 37.0911 39.2727 36.6023 39.2727 36.0001V12.0001C39.2727 11.3979 39.7615 10.9091 40.3636 10.9091C40.9658 10.9091 41.4546 11.3979 41.4546 12.0001V36.0001C41.4545 36.6023 40.9658 37.0911 40.3636 37.0911Z" fill="white"/>
<path d="M46.9091 30.5455C46.3069 30.5455 45.8181 30.0568 45.8181 29.4546V18.5455C45.8181 17.9433 46.3069 17.4545 46.9091 17.4545C47.5112 17.4545 48 17.9433 48 18.5455V29.4546C47.9999 30.0568 47.5112 30.5455 46.9091 30.5455Z" fill="white"/>
</g>
<defs>
<clipPath id="clip0_843_11">
<rect width="48" height="48" fill="white"/>
</clipPath>
</defs>
</svg>
