<svg width="74" height="65" viewBox="0 0 74 65" fill="none" xmlns="http://www.w3.org/2000/svg">
<rect width="73.4" height="65" transform="translate(0.599976)" fill="#383851"/>
<g clip-path="url(#clip0_906_1601)">
<path d="M33.7945 33.283C33.7951 34.6711 34.1326 36.0384 34.7781 37.2673C35.4236 38.4962 36.3578 39.55 37.5004 40.3383C38.6319 39.5397 39.5561 38.4821 40.1958 37.2537C40.8355 36.0253 41.1721 34.6618 41.1777 33.2768C41.1832 31.8919 40.8574 30.5257 40.2275 29.2922C39.5976 28.0588 38.6819 26.9938 37.5567 26.1863C36.3978 26.9721 35.449 28.0297 34.7932 29.2668C34.1374 30.5039 33.7945 31.8828 33.7945 33.283Z" fill="white"/>
<path d="M32.594 33.2829C32.594 31.7779 32.9417 30.2933 33.6102 28.9449C34.2786 27.5965 35.2496 26.4208 36.4475 25.5097C35.1255 24.8324 33.652 24.5054 32.1677 24.5598C30.6834 24.6142 29.2378 25.0482 27.969 25.8203C26.7002 26.5925 25.6505 27.6771 24.9202 28.9704C24.1899 30.2638 23.8033 31.7228 23.7974 33.2081C23.7916 34.6934 24.1665 36.1554 24.8866 37.4545C25.6066 38.7536 26.6477 39.8464 27.9104 40.6286C29.173 41.4108 30.6152 41.8562 32.099 41.9224C33.5828 41.9885 35.0588 41.6731 36.3861 41.0064C35.206 40.0942 34.2507 38.9238 33.5933 37.5849C32.936 36.2461 32.5941 34.7744 32.594 33.2829Z" fill="white"/>
<path d="M42.3703 41.8157C40.6822 41.816 39.0319 41.3157 37.6282 40.3781C36.2245 39.4405 35.1304 38.1076 34.4842 36.5481C33.8381 34.9886 33.669 33.2725 33.9982 31.6168C34.3274 29.9612 35.1403 28.4404 36.3339 27.2467C37.5276 26.0531 39.0484 25.2402 40.704 24.911C42.3597 24.5817 44.0758 24.7509 45.6353 25.397C47.1948 26.0432 48.5277 27.1373 49.4653 28.541C50.4029 29.9447 50.9032 31.595 50.9029 33.283C50.9003 35.5452 50.0005 37.714 48.4008 39.3136C46.8012 40.9132 44.6324 41.8131 42.3703 41.8157ZM42.3703 25.9459C40.9193 25.9469 39.5012 26.378 38.2953 27.1848C37.0894 27.9916 36.1497 29.1379 35.5952 30.4787C35.0406 31.8194 34.896 33.2945 35.1797 34.7175C35.4633 36.1404 36.1625 37.4473 37.1888 38.4729C38.2151 39.4986 39.5225 40.1969 40.9457 40.4796C42.3688 40.7623 43.8438 40.6167 45.1842 40.0612C46.5246 39.5057 47.6702 38.5653 48.4762 37.3588C49.2822 36.1523 49.7124 34.734 49.7124 33.283C49.7102 31.3369 48.9358 29.4712 47.5592 28.0956C46.1826 26.7199 44.3164 25.9468 42.3703 25.9459Z" fill="white"/>
</g>
<defs>
<clipPath id="clip0_906_1601">
<rect width="27.1085" height="17.3803" fill="white" transform="translate(23.7944 24.553)"/>
</clipPath>
</defs>
</svg>
