<svg width="19" height="15" viewBox="0 0 19 15" fill="none" xmlns="http://www.w3.org/2000/svg">
<path d="M18.9932 7.74986C18.9932 8.28499 18.5554 8.72283 18.0203 8.72283H3.81487L8.21757 13.1499C8.60676 13.539 8.60676 14.1472 8.21757 14.5363C8.0473 14.7066 7.80406 14.8039 7.53649 14.8039C7.29325 14.8039 7.02568 14.7066 6.85541 14.512L0.798652 8.43094C0.409462 8.04175 0.409462 7.43364 0.798652 7.06877L6.85541 0.987693C7.2446 0.598503 7.85271 0.598503 8.24189 0.987693C8.63108 1.37688 8.63108 1.98499 8.24189 2.37418L3.81487 6.77688H18.0203C18.5554 6.77688 18.9932 7.21472 18.9932 7.74986Z" fill="white"/>
</svg>
