<svg width="74" height="65" viewBox="0 0 74 65" fill="none" xmlns="http://www.w3.org/2000/svg">
<rect x="0.489685" y="0.289672" width="72.8207" height="64.4207" fill="#4E4CF7"/>
<g clip-path="url(#clip0_906_1754)">
<path d="M38.8098 24.5529C37.6117 24.5359 36.4221 24.7573 35.3102 25.204C34.1983 25.6508 33.1864 26.3141 32.3331 27.1554C31.4798 27.9967 30.8022 28.9992 30.3397 30.1046C29.8773 31.21 29.6391 32.3963 29.6391 33.5946C29.6391 34.7929 29.8773 35.9792 30.3397 37.0846C30.8022 38.19 31.4798 39.1925 32.3331 40.0338C33.1864 40.8751 34.1983 41.5384 35.3102 41.9852C36.4221 42.4319 37.6117 42.6533 38.8098 42.6363V47.7194C38.8098 47.7194 47.8506 44.5007 47.8506 33.5864C47.8487 31.1899 46.8953 28.8922 45.2 27.1983C43.5048 25.5044 41.2063 24.5529 38.8098 24.5529ZM35.8398 33.5937C35.8398 33.0063 36.014 32.432 36.3403 31.9436C36.6667 31.4552 37.1305 31.0745 37.6732 30.8497C38.2159 30.625 38.8131 30.5661 39.3892 30.6807C39.9654 30.7953 40.4946 31.0782 40.9099 31.4936C41.3253 31.9089 41.6082 32.4381 41.7228 33.0143C41.8374 33.5904 41.7785 34.1876 41.5538 34.7303C41.329 35.273 40.9483 35.7368 40.4599 36.0632C39.9715 36.3895 39.3972 36.5637 38.8098 36.5637C38.0221 36.5637 37.2667 36.2508 36.7097 35.6938C36.1527 35.1368 35.8398 34.3814 35.8398 33.5937Z" fill="#9AEAFF"/>
</g>
<rect x="0.489685" y="0.289672" width="72.8207" height="64.4207" stroke="white" stroke-width="0.579345"/>
<defs>
<clipPath id="clip0_906_1754">
<rect width="18.0834" height="23.1738" fill="white" transform="translate(29.7672 24.553)"/>
</clipPath>
</defs>
</svg>
