<svg width="74" height="65" viewBox="0 0 74 65" fill="none" xmlns="http://www.w3.org/2000/svg">
<rect width="73.4" height="65" fill="#383851"/>
<g clip-path="url(#clip0_906_1585)">
<path d="M24.9323 23.9736C27.3637 23.9736 29.6954 24.9473 31.4146 26.6806C33.1338 28.4138 34.0997 30.7645 34.0997 33.2157V41.9977C31.6684 41.9977 29.3366 41.024 27.6174 39.2908C25.8982 37.5575 24.9323 35.2068 24.9323 32.7556V23.9736Z" fill="white"/>
<path d="M34.9034 34.5252V29.8618C34.9034 29.0883 35.0545 28.3224 35.3482 27.6078C35.6419 26.8932 36.0724 26.2439 36.6151 25.6971C37.1578 25.1503 37.802 24.7167 38.511 24.4209C39.22 24.1252 39.9798 23.9732 40.747 23.9736V28.6386C40.747 29.4121 40.5958 30.1779 40.3021 30.8924C40.0084 31.6069 39.5779 32.2561 39.0352 32.8027C38.4925 33.3494 37.8482 33.7829 37.1393 34.0785C36.4303 34.374 35.6705 34.5258 34.9034 34.5252Z" fill="white"/>
<path d="M34.9002 35.436H41.5974C43.3224 35.436 44.9767 36.1269 46.1965 37.3566C47.4162 38.5862 48.1015 40.2541 48.1015 41.9931H41.4043C39.6793 41.9931 38.025 41.3023 36.8052 40.0726C35.5855 38.8429 34.9002 37.1751 34.9002 35.436Z" fill="white"/>
</g>
<defs>
<clipPath id="clip0_906_1585">
<rect width="23.1738" height="18.0241" fill="white" transform="translate(24.9324 23.9736)"/>
</clipPath>
</defs>
</svg>
