<svg width="19" height="15" viewBox="0 0 19 15" fill="none" xmlns="http://www.w3.org/2000/svg">
<path d="M0.00675392 7.74986C0.00675392 8.28499 0.444592 8.72283 0.979727 8.72283H15.1851L10.7824 13.1499C10.3932 13.539 10.3932 14.1472 10.7824 14.5363C10.9527 14.7066 11.1959 14.8039 11.4635 14.8039C11.7068 14.8039 11.9743 14.7066 12.1446 14.512L18.2013 8.43094C18.5905 8.04175 18.5905 7.43364 18.2013 7.06877L12.1446 0.987693C11.7554 0.598503 11.1473 0.598503 10.7581 0.987693C10.3689 1.37688 10.3689 1.98499 10.7581 2.37418L15.1851 6.77688H0.979727C0.444592 6.77688 0.00675392 7.21472 0.00675392 7.74986Z" fill="white"/>
</svg>
