<svg width="47" height="46" viewBox="0 0 47 46" fill="none" xmlns="http://www.w3.org/2000/svg">
<path d="M0 11.2296V18.5288C0 19.2352 0.573384 19.8086 1.27988 19.8086H3.37247V40.5989C3.37247 43.5772 5.89895 46 9.00392 46H37.3916C40.4965 46 43.023 43.5772 43.023 40.5989V19.8074H44.9172C45.6237 19.8074 46.1971 19.234 46.1971 18.5275V11.2283C46.1971 10.5219 45.6237 9.94847 44.9172 9.94847H32.9568C35.2286 8.44718 36.145 6.50561 36.0963 4.67538C36.0298 2.09772 33.9743 0 31.5169 0C27.8155 0 24.7618 5.07726 23.1977 8.28975C21.6337 5.07598 18.58 0 14.8786 0C12.4212 0 10.3657 2.09772 10.2979 4.67538C10.2505 6.50561 11.1656 8.44718 13.4374 9.94847H1.2786C0.573384 9.94975 0 10.5219 0 11.2296ZM19.6269 43.4403H9.00392C7.30937 43.4403 5.93222 42.1655 5.93222 40.5989V19.8125L16.0791 19.8086L14.7915 28.6769C14.716 29.2004 14.9694 29.7161 15.4289 29.976C15.626 30.086 15.8423 30.1411 16.0586 30.1411C16.3491 30.1411 16.6371 30.0425 16.87 29.8505L19.6269 27.5877V43.4403ZM24.2088 43.4403H22.1866V25.4862L23.1977 24.6568L24.2088 25.4862V43.4403ZM40.4633 40.5989C40.4633 42.1655 39.0848 43.4403 37.3916 43.4403H26.7686V27.5864L29.5254 29.8493C29.7597 30.0412 30.0476 30.1398 30.3369 30.1398C30.5532 30.1398 30.7695 30.086 30.9666 29.9747C31.4261 29.7149 31.6795 29.1991 31.604 28.6756L30.3164 19.8074L40.4633 19.8125V40.5989ZM43.6386 12.5095V17.2489H40.9112C40.901 17.2489 40.8933 17.254 40.8831 17.254H29.9465L29.258 12.5095H43.6386ZM31.5169 2.55975C32.5997 2.55975 33.5071 3.53886 33.5379 4.74322C33.5891 6.68479 31.4171 9.03848 25.3185 9.77313C26.9529 6.32258 29.4973 2.55975 31.5169 2.55975ZM26.67 12.5095L28.5963 25.7767L24.0092 22.0126C23.9746 21.9844 23.9324 21.9767 23.8953 21.9524C23.821 21.9038 23.7481 21.8628 23.6675 21.8308C23.5919 21.8001 23.5177 21.7771 23.4396 21.763C23.359 21.7476 23.2809 21.74 23.1977 21.74C23.1146 21.74 23.0378 21.7464 22.9558 21.763C22.8765 21.7784 22.8023 21.8014 22.7267 21.8321C22.6461 21.8641 22.5732 21.9038 22.4989 21.9524C22.4618 21.9767 22.4196 21.9844 22.385 22.0139L17.7979 25.778L19.7242 12.5108H26.67V12.5095ZM12.8576 4.74322C12.8883 3.53886 13.7958 2.55975 14.8786 2.55975C16.8982 2.55975 19.4426 6.32258 21.077 9.77313C14.9784 9.03976 12.8064 6.68479 12.8576 4.74322ZM2.55975 12.5095H17.1388L16.4502 17.2489L5.1515 17.254C5.14254 17.254 5.13486 17.2489 5.12462 17.2489H2.55975V12.5095Z" fill="#4E4CF7"/>
</svg>
