<svg width="87" height="86" viewBox="0 0 87 86" fill="none" xmlns="http://www.w3.org/2000/svg">
<g clip-path="url(#clip0_328_980)">
<path d="M24 28C28.0468 28 31.9279 29.6207 34.7894 32.5055C37.6509 35.3904 39.2585 39.3031 39.2585 43.3829V58C35.2117 58 31.3306 56.3793 28.4691 53.4945C25.6076 50.6096 24 46.6969 24 42.6171V28Z" fill="#00C1FE"/>
<path d="M40.5962 45.5625V37.8005C40.5962 36.513 40.8478 35.2382 41.3367 34.0488C41.8255 32.8594 42.5421 31.7788 43.4453 30.8687C44.3486 29.9585 45.4209 29.2367 46.6009 28.7445C47.7809 28.2523 49.0456 27.9993 50.3227 28V35.7646C50.3227 37.052 50.071 38.3267 49.5821 39.5159C49.0932 40.7052 48.3767 41.7856 47.4734 42.6955C46.5701 43.6055 45.4978 44.327 44.3178 44.8189C43.1377 45.3109 41.8731 45.5635 40.5962 45.5625Z" fill="#00C1FE"/>
<path d="M40.5909 47.0781H51.738C54.6091 47.0781 57.3627 48.228 59.3929 50.2747C61.4231 52.3215 62.5636 55.0974 62.5636 57.992H51.4166C48.5454 57.992 45.7919 56.8421 43.7617 54.7954C41.7315 52.7486 40.5909 49.9727 40.5909 47.0781Z" fill="#00C1FE"/>
</g>
<circle cx="43.5" cy="43" r="42.5" stroke="#00C1FE"/>
<defs>
<clipPath id="clip0_328_980">
<rect width="38.5714" height="30" fill="white" transform="translate(24 28)"/>
</clipPath>
</defs>
</svg>
