<svg width="87" height="86" viewBox="0 0 87 86" fill="none" xmlns="http://www.w3.org/2000/svg">
<g clip-path="url(#clip0_328_1062)">
<path d="M43.7062 28.0002C42.1551 27.9782 40.6151 28.2647 39.1757 28.8431C37.7364 29.4215 36.4263 30.2802 35.3216 31.3693C34.217 32.4584 33.3398 33.7562 32.7411 35.1872C32.1424 36.6182 31.8341 38.154 31.8341 39.7053C31.8341 41.2565 32.1424 42.7923 32.7411 44.2233C33.3398 45.6544 34.217 46.9522 35.3216 48.0412C36.4263 49.1303 37.7364 49.989 39.1757 50.5674C40.6151 51.1458 42.1551 51.4323 43.7062 51.4103V57.9908C43.7062 57.9908 55.4101 53.8239 55.4101 39.6947C55.4076 36.5922 54.1734 33.6177 51.9788 31.4249C49.7841 29.232 46.8086 28.0002 43.7062 28.0002ZM39.8613 39.7041C39.8613 38.9436 40.0868 38.2003 40.5093 37.568C40.9318 36.9357 41.5323 36.4429 42.2348 36.1519C42.9374 35.8609 43.7105 35.7847 44.4563 35.9331C45.2021 36.0814 45.8872 36.4476 46.4249 36.9853C46.9627 37.5231 47.3289 38.2081 47.4772 38.954C47.6256 39.6998 47.5494 40.4729 47.2584 41.1755C46.9674 41.878 46.4746 42.4785 45.8423 42.901C45.21 43.3235 44.4666 43.549 43.7062 43.549C42.6865 43.549 41.7085 43.1439 40.9875 42.4228C40.2664 41.7018 39.8613 40.7238 39.8613 39.7041Z" fill="white"/>
</g>
<circle cx="43.5" cy="43" r="42.5" stroke="white"/>
<defs>
<clipPath id="clip0_328_1062">
<rect width="23.4101" height="30" fill="white" transform="translate(32 28)"/>
</clipPath>
</defs>
</svg>
