<svg width="87" height="86" viewBox="0 0 87 86" fill="none" xmlns="http://www.w3.org/2000/svg">
<g clip-path="url(#clip0_328_1020)">
<path d="M56.4845 38.7139V47.2385C56.4845 50.0926 55.3508 52.8297 53.3326 54.8479C51.3145 56.866 48.5773 57.9998 45.7233 57.9998V49.4751C45.7233 46.6211 46.857 43.8839 48.8752 41.8658C50.8933 39.8476 53.6305 38.7139 56.4845 38.7139Z" fill="#00C1FE"/>
<path d="M42.9875 39.9876V52.3302C39.8091 52.3289 36.7613 51.0653 34.5143 48.8173C32.2672 46.5694 31.0049 43.521 31.0049 40.3426V28C34.1834 28.0013 37.2312 29.2649 39.4782 31.5128C41.7253 33.7608 42.9875 36.8092 42.9875 39.9876Z" fill="#00C1FE"/>
<path d="M53.7553 34.0762C54.2753 31.8901 52.9247 29.6964 50.7386 29.1764C48.5526 28.6564 46.3589 30.0071 45.8389 32.1931C45.3189 34.3792 46.6695 36.5729 48.8556 37.0929C51.0417 37.6129 53.2354 36.2623 53.7553 34.0762Z" fill="#00C1FE"/>
</g>
<circle cx="43.5" cy="43" r="42.5" stroke="#00C1FE"/>
<defs>
<clipPath id="clip0_328_1020">
<rect width="25.4845" height="30" fill="white" transform="translate(31 28)"/>
</clipPath>
</defs>
</svg>
