<svg width="87" height="86" viewBox="0 0 87 86" fill="none" xmlns="http://www.w3.org/2000/svg">
<g clip-path="url(#clip0_328_1026)">
<path d="M67.3249 51.7005C64.6868 49.0769 61.2738 47.3728 57.5915 46.8407C57.3683 46.8157 57.1442 46.8785 56.9664 47.0156C56.7886 47.1528 56.671 47.3536 56.6384 47.5758C56.6059 47.798 56.6609 48.0241 56.7919 48.2065C56.9229 48.3889 57.1196 48.5133 57.3405 48.5535C60.3529 48.9887 63.1718 50.2965 65.4494 52.3155C62.6885 54.7336 59.1784 56.1258 55.5108 56.2574C51.8431 56.389 48.2422 55.2521 45.3151 53.0382C53.926 51.9349 60.6503 44.5625 60.6971 35.7034C60.698 35.4733 60.6077 35.2522 60.4461 35.0883C60.3649 35.0037 60.2665 34.9373 60.1576 34.8935C60.0487 34.8498 59.9318 34.8297 59.8145 34.8346C56.1737 34.8455 52.629 36.0036 49.684 38.1443C49.592 38.211 49.5141 38.2952 49.4547 38.3921C49.3954 38.489 49.3557 38.5966 49.338 38.7089C49.3204 38.8211 49.325 38.9357 49.3517 39.0461C49.3784 39.1566 49.4267 39.2606 49.4937 39.3524C49.6289 39.5374 49.8317 39.6614 50.058 39.6976C50.2842 39.7338 50.5156 39.6791 50.7017 39.5455C53.1087 37.7939 55.9662 36.7671 58.9375 36.586C58.6884 40.2467 57.184 43.7094 54.6781 46.3896C52.1723 49.0698 48.8185 50.8034 45.1828 51.2978C50.4921 44.4356 50.0701 34.5036 43.8754 28.2427C43.7116 28.0811 43.4904 27.9909 43.2603 27.9917C43.1463 27.9909 43.0333 28.0126 42.9277 28.0557C42.8222 28.0988 42.7261 28.1623 42.6453 28.2427C40.0203 30.8787 38.3159 34.2913 37.7855 37.9733C37.769 38.0856 37.7748 38.2 37.8025 38.3101C37.8303 38.4201 37.8794 38.5236 37.9472 38.6147C38.0149 38.7057 38.0999 38.7825 38.1974 38.8407C38.2948 38.8989 38.4027 38.9374 38.515 38.9538C38.6273 38.9703 38.7417 38.9645 38.8518 38.9368C38.9618 38.909 39.0653 38.8599 39.1564 38.7922C39.2474 38.7244 39.3242 38.6394 39.3824 38.542C39.4406 38.4445 39.479 38.3366 39.4955 38.2243C39.9337 35.2129 41.2412 32.3947 43.2576 30.1155C45.8438 33.0566 47.2291 36.8629 47.1383 40.7783C47.0811 44.1722 45.9386 47.4585 43.8781 50.1559C42.7749 41.6058 35.5018 34.9173 26.7558 34.8291C26.641 34.8271 26.5271 34.8481 26.4205 34.8907C26.3139 34.9333 26.217 34.9968 26.1352 35.0773C25.9719 35.2404 25.8797 35.4615 25.8787 35.6924V37.2976C25.8787 37.3279 25.8787 37.3555 25.8787 37.3859C26.1822 40.3361 27.233 43.1602 28.9319 45.5912C29.0638 45.7789 29.2645 45.9069 29.4902 45.9472C29.716 45.9875 29.9486 45.9369 30.1372 45.8064C30.3251 45.6746 30.453 45.4737 30.4928 45.2477C30.5326 45.0217 30.4811 44.7891 30.3496 44.6011C28.8288 42.4231 27.8846 39.8952 27.6053 37.2535V36.5915C31.4994 36.856 35.1527 38.5715 37.8434 41.3989C40.1876 43.8269 41.6942 46.9406 42.1433 50.2856C35.3308 45.0451 25.4567 45.5554 19.251 51.6315C19.1685 51.7107 19.1031 51.8058 19.0585 51.9111C19.0139 52.0163 18.9912 52.1295 18.9917 52.2438C18.9908 52.4748 19.0809 52.6968 19.2427 52.8616L20.3763 53.9925L20.4452 54.0559C23.5572 56.5833 27.4439 57.9632 31.4529 57.9641H31.486C34.6096 57.964 37.6759 57.1248 40.3643 55.5342C40.4624 55.4761 40.548 55.3992 40.6161 55.3078C40.6843 55.2164 40.7337 55.1125 40.7615 55.0019C40.7897 54.892 40.7959 54.7776 40.7798 54.6653C40.7637 54.5529 40.7256 54.4449 40.6677 54.3473C40.6098 54.2497 40.5332 54.1644 40.4424 54.0965C40.3515 54.0285 40.2481 53.9791 40.1382 53.9511C40.028 53.9222 39.9132 53.9156 39.8005 53.9317C39.6878 53.9479 39.5794 53.9863 39.4817 54.0449C37.0596 55.4776 34.2973 56.2339 31.4832 56.2348H31.4391C27.8454 56.2309 24.3612 54.9978 21.565 52.7403L21.1044 52.2935C24.1049 49.6891 27.9758 48.3095 31.9471 48.429C35.9185 48.5486 39.6993 50.1586 42.5377 52.9389C45.8312 56.2 50.284 58.0212 54.9189 58.0028C59.557 58.0198 64.0125 56.1968 67.3083 52.9333C67.3896 52.8528 67.454 52.757 67.498 52.6515C67.542 52.5459 67.5647 52.4327 67.5647 52.3183C67.5647 52.2039 67.542 52.0907 67.498 51.9851C67.454 51.8796 67.3896 51.7837 67.3083 51.7032L67.3249 51.7005Z" fill="white"/>
</g>
<circle cx="43.5" cy="43" r="42.5" stroke="white"/>
<defs>
<clipPath id="clip0_328_1026">
<rect width="48.5814" height="30" fill="white" transform="translate(19 28)"/>
</clipPath>
</defs>
</svg>
