<svg width="87" height="86" viewBox="0 0 87 86" fill="none" xmlns="http://www.w3.org/2000/svg">
<g clip-path="url(#clip0_328_1130)">
<path d="M37.261 43.0689C37.262 45.4649 37.8446 47.8249 38.9588 49.9461C40.073 52.0673 41.6854 53.8863 43.6577 55.2469C45.6108 53.8685 47.206 52.043 48.3102 49.9227C49.4144 47.8024 49.9954 45.4488 50.005 43.0582C50.0145 40.6677 49.4522 38.3095 48.3649 36.1805C47.2777 34.0514 45.6971 32.2133 43.755 30.8193C41.7546 32.1757 40.1168 34.0013 38.9848 36.1366C37.8528 38.272 37.2609 40.6521 37.261 43.0689Z" fill="#00C1FE"/>
<path d="M35.1889 43.0689C35.1888 40.4711 35.7891 37.9085 36.9429 35.5811C38.0967 33.2537 39.7728 31.2243 41.8403 29.6516C39.5585 28.4826 37.0152 27.9181 34.4531 28.012C31.8911 28.1059 29.3958 28.855 27.2057 30.1878C25.0156 31.5207 23.2038 33.3927 21.9432 35.6252C20.6826 37.8576 20.0154 40.376 20.0052 42.9397C19.9951 45.5035 20.6424 48.027 21.8852 50.2694C23.1281 52.5118 24.9251 54.3981 27.1045 55.7482C29.284 57.0984 31.7732 57.8672 34.3345 57.9814C36.8957 58.0955 39.4434 57.5512 41.7344 56.4003C39.6975 54.8258 38.0485 52.8055 36.9138 50.4946C35.7792 48.1836 35.1891 45.6434 35.1889 43.0689Z" fill="#00C1FE"/>
<path d="M52.0635 57.7969C49.1498 57.7975 46.3013 56.9339 43.8784 55.3155C41.4555 53.697 39.5669 51.3964 38.4516 48.7045C37.3363 46.0127 37.0443 43.0506 37.6126 40.1928C38.1809 37.335 39.584 34.7099 41.6443 32.6496C43.7046 30.5892 46.3297 29.1862 49.1875 28.6179C52.0453 28.0496 55.0075 28.3415 57.6993 29.4568C60.3912 30.5721 62.6918 32.4607 64.3102 34.8836C65.9287 37.3066 66.7922 40.155 66.7917 43.0688C66.7871 46.9735 65.2339 50.717 62.4729 53.4781C59.7118 56.2392 55.9683 57.7923 52.0635 57.7969ZM52.0635 30.4042C49.5591 30.4059 47.1114 31.1501 45.0298 32.5428C42.9483 33.9354 41.3264 35.9139 40.3691 38.2282C39.4119 40.5425 39.1623 43.0887 39.652 45.5448C40.1416 48.0009 41.3484 50.2567 43.1199 52.027C44.8915 53.7973 47.1481 55.0027 49.6046 55.4906C52.061 55.9786 54.607 55.7273 56.9206 54.7685C59.2343 53.8097 61.2117 52.1864 62.6029 50.1039C63.9941 48.0215 64.7367 45.5732 64.7367 43.0688C64.7329 39.7096 63.3962 36.4892 61.0201 34.1147C58.644 31.7403 55.4227 30.4057 52.0635 30.4042Z" fill="#00C1FE"/>
</g>
<circle cx="43.5" cy="43" r="42.5" stroke="#00C1FE"/>
<defs>
<clipPath id="clip0_328_1130">
<rect width="46.7916" height="30" fill="white" transform="translate(20 28)"/>
</clipPath>
</defs>
</svg>
