<svg xmlns="http://www.w3.org/2000/svg" width="208.327" height="27.74" viewBox="0 0 208.327 27.74"><g transform="translate(-21.236 -55.161)"><path d="M265.46,56.892h4.275l9.08,21.935H274.2l-6.584-17-6.615,17h-4.618Z" transform="translate(-144.146 -1.06)" fill="#fff"/><path d="M449.668,56.892h4.275l9.08,21.935H458.4l-6.584-17-6.615,17h-4.618Z" transform="translate(-257.104 -1.06)" fill="#fff"/><path d="M107.225,78.854H90.877V57.013h16.348v3.994H94.963V66.03h11.826v3.838H94.963V74.8h12.262Z" transform="translate(-42.65 -1.134)" fill="#fff"/><path d="M165.923,78.805h-4.9l-6.365-7.3H150.7v7.3h-4.118V56.933c3.463,0,6.926.031,10.391.031,5.148.032,7.862,3.463,7.862,7.239,0,3-1.372,6.022-5.522,6.864l6.614,7.458ZM150.7,60.8v6.989h6.272a3.5,3.5,0,1,0,0-6.989Z" transform="translate(-76.835 -1.085)" fill="#fff"/><path d="M212.187,60.757h-6.928V57.013h17.972v3.744H216.3v18.1h-4.118Z" transform="translate(-112.806 -1.134)" fill="#fff"/><path d="M338.624,61.12a8.374,8.374,0,0,0-5.554-2.184c-4.681,0-7.52,3.556-7.52,8.05,0,3.588,2.091,7.3,7.52,7.3A7.265,7.265,0,0,0,338,72.541v-3.87h-5.585V64.989h9.36v9.2a10.878,10.878,0,0,1-8.7,3.932c-8.206,0-11.545-5.4-11.545-11.139,0-6.146,3.838-11.825,11.545-11.825a11.536,11.536,0,0,1,8.112,3.338Z" transform="translate(-184.078)" fill="#fff"/><path d="M403.882,78.854h-16.35V57.013h16.35v3.994H391.62V66.03h11.826v3.838H391.62V74.8h12.262Z" transform="translate(-224.537 -1.134)" fill="#fff"/><path d="M528.911,78.805h-4.9l-6.365-7.3h-3.962v7.3h-4.118V56.933c3.463,0,6.926.031,10.39.031,5.149.032,7.863,3.463,7.863,7.239,0,3-1.374,6.022-5.522,6.864l6.614,7.458Zm-15.226-18v6.989h6.271a3.5,3.5,0,1,0,0-6.989Z" transform="translate(-299.347 -1.085)" fill="#fff"/><g transform="translate(21.236 55.848)"><path d="M26.458,56.933H21.236l7.453,17.9,2.571-6.247Z" transform="translate(-21.236 -56.933)" fill="#fff"/><path d="M43.885,89.168l2.556,6.054,8.313-20-5.168,0Z" transform="translate(-35.107 -68.169)" fill="#fff"/><path d="M44.009,61.684H54.6l1.968-4.752H42.082Z" transform="translate(-34.003 -56.933)" fill="#fff"/></g></g></svg>