<svg width="62" height="62" viewBox="0 0 62 62" fill="none" xmlns="http://www.w3.org/2000/svg">
<circle cx="31" cy="31" r="31" fill="white"/>
<path d="M25.5776 41.85C25.191 41.8494 24.8112 41.7544 24.4755 41.5746C23.7198 41.1737 23.25 40.3953 23.25 39.5503V22.4498C23.25 21.6025 23.7198 20.8265 24.4755 20.4255C24.8191 20.2406 25.2095 20.1455 25.6058 20.1502C26.0021 20.1549 26.3897 20.2591 26.7282 20.452L42.3372 29.2004C42.6625 29.3914 42.9307 29.6566 43.1166 29.9712C43.3025 30.2858 43.4 30.6394 43.4 30.9989C43.4 31.3584 43.3025 31.712 43.1166 32.0266C42.9307 32.3412 42.6625 32.6064 42.3372 32.7974L26.7257 41.5481C26.3793 41.7442 25.9825 41.8486 25.5776 41.85V41.85Z" fill="#080808"/>
</svg>
