<svg xmlns="http://www.w3.org/2000/svg" viewBox="0 0 243.02 243.02"><defs><style>.cls-1{fill:none;stroke:#000;stroke-linejoin:round;stroke-width:10px;}</style></defs><title>Asset 5</title><g id="Layer_2" data-name="Layer 2"><g id="Layer_1-2" data-name="Layer 1"><path class="cls-1" d="M200.06,5V121.51h0a78.76,78.76,0,0,1-78.55,78.55h0A78.76,78.76,0,0,1,43,121.51h0V5H5V121.51A116.61,116.61,0,0,0,121.51,238h0A116.61,116.61,0,0,0,238,121.51V5Z"/><polygon class="cls-1" points="112.86 123.76 157.59 53.11 130.15 53.11 130.15 5 85.43 75.66 112.86 75.66 112.86 123.76"/><line class="cls-1" x1="5" y1="42.96" x2="42.96" y2="42.96"/><line class="cls-1" x1="200.06" y1="42.96" x2="238.02" y2="42.96"/></g></g></svg>