<svg width="32" height="32" viewBox="0 0 32 32" fill="none" xmlns="http://www.w3.org/2000/svg">
<g clip-path="url(#clip0_1_3495)">
<path d="M16 20.8745C16.2524 20.8745 16.457 20.6699 16.457 20.4175C16.457 20.1651 16.2524 19.9604 16 19.9604C15.7476 19.9604 15.543 20.1651 15.543 20.4175C15.543 20.6699 15.7476 20.8745 16 20.8745Z" fill="white"/>
<path d="M16 18.4543C16.2524 18.4543 16.457 18.2497 16.457 17.9973C16.457 17.7449 16.2524 17.5403 16 17.5403C15.7476 17.5403 15.543 17.7449 15.543 17.9973C15.543 18.2497 15.7476 18.4543 16 18.4543Z" fill="white"/>
<path d="M16 16.0341C16.2524 16.0341 16.457 15.8295 16.457 15.5771C16.457 15.3247 16.2524 15.1201 16 15.1201C15.7476 15.1201 15.543 15.3247 15.543 15.5771C15.543 15.8295 15.7476 16.0341 16 16.0341Z" fill="white"/>
<path d="M10.5366 18.4543C10.789 18.4543 10.9936 18.2497 10.9936 17.9973C10.9936 17.7449 10.789 17.5403 10.5366 17.5403C10.2842 17.5403 10.0796 17.7449 10.0796 17.9973C10.0796 18.2497 10.2842 18.4543 10.5366 18.4543Z" fill="white"/>
<path d="M10.5366 16.0341C10.789 16.0341 10.9936 15.8295 10.9936 15.5771C10.9936 15.3247 10.789 15.1201 10.5366 15.1201C10.2842 15.1201 10.0796 15.3247 10.0796 15.5771C10.0796 15.8295 10.2842 16.0341 10.5366 16.0341Z" fill="white"/>
<path d="M13.2683 19.4721C13.5207 19.4721 13.7253 19.2675 13.7253 19.0151C13.7253 18.7627 13.5207 18.5581 13.2683 18.5581C13.0159 18.5581 12.8113 18.7627 12.8113 19.0151C12.8113 19.2675 13.0159 19.4721 13.2683 19.4721Z" fill="white"/>
<path d="M13.2683 17.052C13.5207 17.052 13.7253 16.8473 13.7253 16.5949C13.7253 16.3425 13.5207 16.1379 13.2683 16.1379C13.0159 16.1379 12.8113 16.3425 12.8113 16.5949C12.8113 16.8473 13.0159 17.052 13.2683 17.052Z" fill="white"/>
<path d="M13.2683 14.6318C13.5207 14.6318 13.7253 14.4272 13.7253 14.1748C13.7253 13.9224 13.5207 13.7178 13.2683 13.7178C13.0159 13.7178 12.8113 13.9224 12.8113 14.1748C12.8113 14.4272 13.0159 14.6318 13.2683 14.6318Z" fill="white"/>
<path d="M5.07322 16.0341C5.32562 16.0341 5.53023 15.8295 5.53023 15.5771C5.53023 15.3247 5.32562 15.1201 5.07322 15.1201C4.82082 15.1201 4.61621 15.3247 4.61621 15.5771C4.61621 15.8295 4.82082 16.0341 5.07322 16.0341Z" fill="white"/>
<path d="M7.80491 17.052C8.05731 17.052 8.26192 16.8473 8.26192 16.5949C8.26192 16.3425 8.05731 16.1379 7.80491 16.1379C7.55251 16.1379 7.3479 16.3425 7.3479 16.5949C7.3479 16.8473 7.55251 17.052 7.80491 17.052Z" fill="white"/>
<path d="M7.80491 14.6318C8.05731 14.6318 8.26192 14.4272 8.26192 14.1748C8.26192 13.9224 8.05731 13.7178 7.80491 13.7178C7.55251 13.7178 7.3479 13.9224 7.3479 14.1748C7.3479 14.4272 7.55251 14.6318 7.80491 14.6318Z" fill="white"/>
<path d="M21.4634 18.4543C21.7158 18.4543 21.9204 18.2497 21.9204 17.9973C21.9204 17.7449 21.7158 17.5403 21.4634 17.5403C21.211 17.5403 21.0063 17.7449 21.0063 17.9973C21.0063 18.2497 21.211 18.4543 21.4634 18.4543Z" fill="white"/>
<path d="M21.4634 16.0341C21.7158 16.0341 21.9204 15.8295 21.9204 15.5771C21.9204 15.3247 21.7158 15.1201 21.4634 15.1201C21.211 15.1201 21.0063 15.3247 21.0063 15.5771C21.0063 15.8295 21.211 16.0341 21.4634 16.0341Z" fill="white"/>
<path d="M18.7317 19.4721C18.9841 19.4721 19.1887 19.2675 19.1887 19.0151C19.1887 18.7627 18.9841 18.5581 18.7317 18.5581C18.4793 18.5581 18.2747 18.7627 18.2747 19.0151C18.2747 19.2675 18.4793 19.4721 18.7317 19.4721Z" fill="white"/>
<path d="M18.7317 17.052C18.9841 17.052 19.1887 16.8473 19.1887 16.5949C19.1887 16.3425 18.9841 16.1379 18.7317 16.1379C18.4793 16.1379 18.2747 16.3425 18.2747 16.5949C18.2747 16.8473 18.4793 17.052 18.7317 17.052Z" fill="white"/>
<path d="M18.7317 14.6318C18.9841 14.6318 19.1887 14.4272 19.1887 14.1748C19.1887 13.9224 18.9841 13.7178 18.7317 13.7178C18.4793 13.7178 18.2747 13.9224 18.2747 14.1748C18.2747 14.4272 18.4793 14.6318 18.7317 14.6318Z" fill="white"/>
<path d="M26.9267 16.0341C27.1791 16.0341 27.3837 15.8295 27.3837 15.5771C27.3837 15.3247 27.1791 15.1201 26.9267 15.1201C26.6743 15.1201 26.4697 15.3247 26.4697 15.5771C26.4697 15.8295 26.6743 16.0341 26.9267 16.0341Z" fill="white"/>
<path d="M24.195 17.052C24.4474 17.052 24.6521 16.8473 24.6521 16.5949C24.6521 16.3425 24.4474 16.1379 24.195 16.1379C23.9426 16.1379 23.738 16.3425 23.738 16.5949C23.738 16.8473 23.9426 17.052 24.195 17.052Z" fill="white"/>
<path d="M24.195 14.6318C24.4474 14.6318 24.6521 14.4272 24.6521 14.1748C24.6521 13.9224 24.4474 13.7178 24.195 13.7178C23.9426 13.7178 23.738 13.9224 23.738 14.1748C23.738 14.4272 23.9426 14.6318 24.195 14.6318Z" fill="white"/>
<path d="M1.32837 10.1515L9.12003 13.2905L9.12045 13.2907C9.12651 13.2924 9.19505 13.325 9.29374 13.325H22.7062C22.8048 13.325 22.8734 13.2925 22.8795 13.2907C22.8797 13.2906 22.8798 13.2906 22.8799 13.2905L30.6715 10.1515C31.7759 9.70656 31.7763 8.13966 30.6715 7.69452L17.5019 2.38886C16.5333 1.99864 15.4666 1.99864 14.498 2.38886L1.32837 7.69452C0.224118 8.13948 0.223634 9.70638 1.32837 10.1515ZM11.6362 12.4167L14.8375 11.127C15.5872 10.825 16.4128 10.825 17.1625 11.127L20.3638 12.4167H11.6362ZM1.6678 8.53703L14.8375 3.23137C15.5872 2.9293 16.4128 2.9293 17.1625 3.23137L30.3322 8.53703V8.53697C30.6796 8.67702 30.6798 9.16896 30.3322 9.30895L22.7063 12.3813L17.502 10.2846C16.5335 9.89443 15.4666 9.89443 14.498 10.2846L9.29374 12.3813L1.6678 9.30895C1.32038 9.16902 1.3202 8.67708 1.6678 8.53703Z" fill="white"/>
<path d="M30.6716 14.3442L26.4299 12.6354C26.1973 12.5415 25.9327 12.6543 25.839 12.8869C25.7453 13.1196 25.8579 13.3841 26.0905 13.4779L30.3322 15.1868C30.6797 15.3267 30.6797 15.8186 30.3322 15.9586L17.1625 21.2643C16.4128 21.5664 15.5871 21.5664 14.8375 21.2643L1.66778 15.9586C1.3203 15.8187 1.32024 15.3267 1.66778 15.1868L5.89535 13.4836C6.12797 13.3898 6.24058 13.1253 6.14686 12.8926C6.05313 12.6599 5.7886 12.5475 5.55592 12.6411L1.32842 14.3442C0.224043 14.7891 0.223679 16.3561 1.32842 16.8011L14.4981 22.1068C15.4664 22.497 16.5333 22.4971 17.502 22.1068L30.6716 16.8011C31.7759 16.3562 31.7763 14.7893 30.6716 14.3442Z" fill="white"/>
<path d="M30.6716 20.9914L26.4492 19.2903C26.2166 19.1965 25.952 19.3092 25.8583 19.5419C25.7645 19.7745 25.8772 20.0391 26.1098 20.1328L30.3322 21.834C30.6796 21.9739 30.6797 22.4658 30.3322 22.6059L17.1626 27.9115C16.4129 28.2136 15.5872 28.2136 14.8375 27.9115L1.66787 22.6059C1.32051 22.4658 1.32027 21.9739 1.66787 21.8339L5.89089 20.1325C6.12351 20.0388 6.23613 19.7742 6.1424 19.5416C6.04873 19.309 5.7842 19.1965 5.55146 19.29L1.32844 20.9914C0.224005 21.4363 0.223702 23.0032 1.32844 23.4483L14.4981 28.754C15.4664 29.1442 16.5333 29.1442 17.502 28.754L30.6717 23.4483C31.7759 23.0034 31.7764 21.4365 30.6716 20.9914Z" fill="white"/>
</g>
<defs>
<clipPath id="clip0_1_3495">
<rect width="31" height="31" fill="white" transform="translate(0.5 0.0714111)"/>
</clipPath>
</defs>
</svg>
