<svg width="31" height="32" viewBox="0 0 31 32" fill="none" xmlns="http://www.w3.org/2000/svg">
<g clip-path="url(#clip0_1_3518)">
<path d="M30.4834 5.23804H18.0834C17.7981 5.23804 17.5667 5.46937 17.5667 5.7547V10.4047C17.5669 10.69 17.7985 10.9212 18.0838 10.921C18.1392 10.9209 18.1942 10.912 18.2467 10.8945L18.8961 10.678C19.6013 10.4472 20.3599 10.8317 20.5907 11.5368C20.8214 12.242 20.437 13.0006 19.7318 13.2314C19.4603 13.3203 19.1676 13.3203 18.8961 13.2314L18.2466 13.0149C17.9759 12.9247 17.6833 13.0711 17.5932 13.3418C17.5757 13.3943 17.5667 13.4494 17.5667 13.5047V17.638H13.4333C13.148 17.6382 12.9169 17.8698 12.9171 18.1551C12.9171 18.2104 12.926 18.2655 12.9435 18.318L13.16 18.9674C13.3909 19.6725 13.0063 20.4312 12.3012 20.662C11.5961 20.8928 10.8374 20.5082 10.6067 19.8031C10.5178 19.5316 10.5178 19.2389 10.6067 18.9674L10.8231 18.3179C10.9133 18.0472 10.767 17.7546 10.4962 17.6645C10.4437 17.6469 10.3887 17.638 10.3333 17.638H5.68341C5.39809 17.638 5.16675 17.8693 5.16675 18.1546V30.5546C5.16675 30.84 5.39809 31.0713 5.68341 31.0713H30.4834C30.7687 31.0713 31.0001 30.84 31.0001 30.5546V5.7547C31.0001 5.46937 30.7687 5.23804 30.4834 5.23804ZM17.5932 25.7418C17.5757 25.7943 17.5668 25.8494 17.5667 25.9047V30.038H6.20008V18.6714H9.6168C9.222 19.9232 9.91679 21.2581 11.1686 21.6528C12.4204 22.0476 13.7553 21.3528 14.15 20.101C14.2968 19.6357 14.2968 19.1366 14.15 18.6713H17.5667V22.8046C17.5669 23.09 17.7985 23.3211 18.0838 23.3209C18.1392 23.3209 18.1942 23.3119 18.2467 23.2944L18.8961 23.078C19.6013 22.8472 20.3599 23.2317 20.5907 23.9368C20.8214 24.6419 20.437 25.4006 19.7318 25.6313C19.4603 25.7202 19.1676 25.7202 18.8961 25.6313L18.2466 25.4148C17.9759 25.3247 17.6834 25.4711 17.5932 25.7418ZM29.9667 30.038H18.6001V26.6213C19.8519 27.0161 21.1868 26.3213 21.5815 25.0695C21.9763 23.8177 21.2815 22.4828 20.0297 22.0881C19.5644 21.9414 19.0653 21.9414 18.6 22.0881V18.6714H22.7333C23.0187 18.6712 23.2498 18.4396 23.2496 18.1543C23.2496 18.099 23.2407 18.0439 23.2232 17.9914L23.0067 17.342C22.7759 16.6369 23.1604 15.8782 23.8655 15.6474C24.5706 15.4167 25.3293 15.8012 25.56 16.5063C25.6489 16.7778 25.6489 17.0705 25.56 17.3421L25.3435 17.9915C25.2534 18.2622 25.3997 18.5548 25.6705 18.645C25.723 18.6625 25.778 18.6714 25.8333 18.6714H29.9667V30.038H29.9667ZM29.9667 17.638H26.55C26.9448 16.3862 26.25 15.0513 24.9982 14.6566C23.7464 14.2618 22.4115 14.9566 22.0168 16.2084C21.8701 16.6737 21.8701 17.1728 22.0168 17.6381H18.6001V14.2214C19.3177 14.4539 20.1033 14.3285 20.7127 13.884C21.7813 13.1218 22.0297 11.6376 21.2675 10.569C20.6656 9.72516 19.5862 9.36872 18.6001 9.68815V6.27137H29.9667V17.638Z" fill="white"/>
<path d="M14.863 4.52146C14.3978 4.37473 13.8986 4.37473 13.4333 4.52146V0.588078C13.4333 0.302749 13.202 0.0714111 12.9167 0.0714111H0.516667C0.231337 0.0714111 0 0.302749 0 0.588078V12.9881C0 13.2734 0.231337 13.5047 0.516667 13.5047H4.45005C4.05525 14.7566 4.75004 16.0914 6.00186 16.4862C7.25368 16.8809 8.58855 16.1862 8.98328 14.9344C9.13002 14.4691 9.13002 13.9699 8.98328 13.5047H12.9167C13.202 13.5047 13.4333 13.2733 13.4333 12.988V9.05463C14.6852 9.44943 16.02 8.75464 16.4148 7.50282C16.8096 6.25107 16.1148 4.91626 14.863 4.52146ZM14.5652 8.06476C14.2936 8.15363 14.0009 8.15363 13.7294 8.06476L13.0799 7.84828C12.8092 7.75812 12.5166 7.90447 12.4265 8.1752C12.409 8.22771 12.4001 8.28273 12.4 8.33808V12.4714H8.26667C7.98134 12.4716 7.75019 12.7031 7.75039 12.9885C7.75045 13.0438 7.75936 13.0988 7.77687 13.1513L7.99335 13.8008C8.22417 14.5059 7.83964 15.2646 7.13452 15.4953C6.4294 15.7261 5.67074 15.3416 5.43998 14.6365C5.35112 14.365 5.35112 14.0722 5.43998 13.8007L5.65647 13.1513C5.74662 12.8805 5.60028 12.588 5.32955 12.4978C5.27704 12.4803 5.22201 12.4714 5.16667 12.4713H1.03333V1.10474H12.4V5.23808C12.4002 5.52341 12.6317 5.75455 12.9171 5.75436C12.9724 5.75429 13.0274 5.74538 13.0799 5.72788L13.7294 5.51139C14.4345 5.28064 15.1932 5.6651 15.4239 6.37022C15.6547 7.07528 15.2702 7.83401 14.5652 8.06476Z" fill="white"/>
</g>
<defs>
<clipPath id="clip0_1_3518">
<rect width="31" height="31" fill="white" transform="translate(0 0.0714111)"/>
</clipPath>
</defs>
</svg>
