<svg width="25" height="32" viewBox="0 0 25 32" fill="none" xmlns="http://www.w3.org/2000/svg">
<path d="M17.7268 8.13568C16.2335 6.69927 14.2719 5.95892 12.1963 6.03485C8.21614 6.19305 4.96998 9.55944 4.95732 13.546C4.951 15.3114 5.57112 17.0326 6.7038 18.3867C8.33637 20.3483 9.23492 22.8225 9.23492 25.36C9.23492 25.36 9.06407 26.5243 9.89301 26.5243H15.1071C15.9551 26.5243 15.7652 25.36 15.7652 25.36C15.7652 22.8795 16.6764 20.4243 18.4039 18.2602C19.4733 16.9123 20.0428 15.2924 20.0428 13.5713C20.0428 11.5021 19.2202 9.56577 17.7268 8.13568V8.13568ZM17.3725 17.4376C15.4931 19.7915 14.487 22.4745 14.449 25.2081H10.5511C10.5131 22.4175 9.51334 19.7029 7.71625 17.5451C6.78606 16.4251 6.27351 15.0077 6.27983 13.5523C6.29249 10.2618 8.96915 7.48392 12.2533 7.35103C13.9681 7.28776 15.588 7.90155 16.8156 9.08485C18.0496 10.2682 18.7266 11.8628 18.7266 13.5713C18.7203 14.995 18.2584 16.3302 17.3725 17.4376V17.4376Z" fill="white"/>
<path d="M21.1817 3.81372C20.9223 3.55428 20.5047 3.55428 20.2515 3.81372L18.6443 5.42098C18.3848 5.68042 18.3848 6.09806 18.6443 6.35117C18.9037 6.60428 19.3214 6.61061 19.5745 6.35117L21.1817 4.74391C21.4412 4.4908 21.4412 4.07316 21.1817 3.81372Z" fill="white"/>
<path d="M15.1323 27.4227H9.86756C9.50055 27.4227 9.20947 27.7201 9.20947 28.0808C9.20947 28.4478 9.50688 28.7389 9.86756 28.7389H15.1323C15.4993 28.7389 15.7904 28.4415 15.7904 28.0808C15.7904 27.7201 15.493 27.4227 15.1323 27.4227Z" fill="white"/>
<path d="M14.1388 29.9033H10.8673C10.5003 29.9033 10.2092 30.2007 10.2092 30.5614C10.2092 30.9284 10.5066 31.2195 10.8673 31.2195H14.1388C14.5058 31.2195 14.7969 30.9221 14.7969 30.5614C14.7969 30.2007 14.4995 29.9033 14.1388 29.9033Z" fill="white"/>
<path d="M12.4999 3.80735C12.8669 3.80735 13.158 3.50994 13.158 3.14926V0.877574C13.158 0.510561 12.8606 0.219482 12.4999 0.219482C12.1392 0.219482 11.8418 0.516889 11.8418 0.877574V3.14926C11.8418 3.51627 12.1329 3.80735 12.4999 3.80735Z" fill="white"/>
<path d="M6.35564 6.35752C6.61508 6.09808 6.61508 5.68044 6.35564 5.42733L4.74838 3.82007C4.48894 3.56063 4.0713 3.56063 3.81819 3.82007C3.56508 4.07951 3.55875 4.49714 3.81819 4.75026L5.42545 6.35752C5.68489 6.61063 6.10253 6.61063 6.35564 6.35752V6.35752Z" fill="white"/>
<path d="M24.118 11.8374H21.8463C21.4793 11.8374 21.1882 12.1348 21.1882 12.4955C21.1882 12.8562 21.4856 13.1536 21.8463 13.1536H24.118C24.485 13.1536 24.7761 12.8562 24.7761 12.4955C24.7761 12.1348 24.4787 11.8374 24.118 11.8374Z" fill="white"/>
<path d="M3.1539 11.8374H0.882213C0.5152 11.8374 0.224121 12.1348 0.224121 12.4955C0.224121 12.8562 0.521528 13.1536 0.882213 13.1536H3.1539C3.52091 13.1536 3.81199 12.8562 3.81199 12.4955C3.81199 12.1348 3.52091 11.8374 3.1539 11.8374V11.8374Z" fill="white"/>
</svg>
