<svg width="48" height="48" viewBox="0 0 48 48" fill="none" xmlns="http://www.w3.org/2000/svg">
<path d="M23.1424 2.27248C7.13257 3.39095 2.54759 24.8587 17.0393 32.1126C17.6808 32.421 18.2367 32.8822 18.6583 33.4556C19.0799 34.0291 19.3543 34.6972 19.4574 35.4015C19.1181 35.5328 18.8156 35.7443 18.5758 36.0179C18.336 36.2915 18.166 36.6191 18.0803 36.9726C17.9946 37.3262 17.9957 37.6953 18.0836 38.0483C18.1715 38.4013 18.3436 38.7279 18.5851 39C18.3375 39.2789 18.1631 39.615 18.0775 39.978C17.992 40.341 17.998 40.7196 18.0951 41.0797C18.1921 41.4398 18.3771 41.7702 18.6334 42.041C18.8898 42.3119 19.2095 42.5149 19.5637 42.6316C19.7122 43.5025 20.1635 44.2929 20.8379 44.8634C21.5124 45.4339 22.3667 45.7479 23.2501 45.75H24.7501C25.6334 45.7479 26.4877 45.4338 27.1621 44.8633C27.8365 44.2928 28.2877 43.5024 28.4362 42.6316C28.7905 42.5149 29.1102 42.312 29.3665 42.0411C29.6229 41.7702 29.8079 41.4399 29.905 41.0798C30.0021 40.7196 30.0081 40.341 29.9226 39.978C29.8371 39.615 29.6627 39.2789 29.4151 39C29.6566 38.7279 29.8286 38.4014 29.9165 38.0484C30.0044 37.6953 30.0056 37.3263 29.9199 36.9727C29.8342 36.6191 29.6642 36.2915 29.4245 36.0179C29.1847 35.7443 28.8822 35.5328 28.543 35.4015C28.6463 34.6972 28.9209 34.029 29.3426 33.4555C29.7644 32.882 30.3204 32.4208 30.9619 32.1123C33.6049 30.8235 35.8313 28.8161 37.3856 26.32C38.94 23.824 39.7595 20.9404 39.7501 18C39.9433 9.20645 31.9213 1.61128 23.1424 2.27248ZM28.5001 37.5C28.4999 37.6988 28.4208 37.8895 28.2802 38.0301C28.1396 38.1707 27.9489 38.2498 27.7501 38.25H20.2501C20.0512 38.25 19.8604 38.171 19.7197 38.0303C19.5791 37.8897 19.5001 37.6989 19.5001 37.5C19.5001 37.3011 19.5791 37.1103 19.7197 36.9696C19.8604 36.829 20.0512 36.75 20.2501 36.75H27.7501C27.9489 36.7502 28.1396 36.8292 28.2802 36.9698C28.4208 37.1105 28.4999 37.3011 28.5001 37.5ZM24.7501 44.25H23.2501C22.7849 44.2494 22.3312 44.1049 21.9513 43.8364C21.5715 43.5678 21.284 43.1884 21.1282 42.75H26.8719C26.7162 43.1884 26.4287 43.5678 26.0488 43.8364C25.6689 44.1049 25.2153 44.2494 24.7501 44.25ZM27.7501 41.25H20.2501C20.0512 41.25 19.8604 41.171 19.7197 41.0303C19.5791 40.8896 19.5001 40.6989 19.5001 40.5C19.5001 40.3011 19.5791 40.1103 19.7197 39.9696C19.8604 39.829 20.0512 39.75 20.2501 39.75H27.7501C27.949 39.75 28.1397 39.829 28.2804 39.9696C28.4211 40.1103 28.5001 40.3011 28.5001 40.5C28.5001 40.6989 28.4211 40.8896 28.2804 41.0303C28.1397 41.171 27.949 41.25 27.7501 41.25ZM30.2982 30.7668C29.4278 31.1868 28.6753 31.8162 28.1081 32.5987C27.5409 33.3811 27.1768 34.2921 27.0484 35.25H20.9517C20.8236 34.2922 20.4597 33.3812 19.8926 32.5988C19.3255 31.8163 18.573 31.187 17.7027 30.7671C4.58714 24.2034 8.74507 4.77905 23.2217 3.77053C38.6979 3.1784 44.1052 23.6967 30.2982 30.7668Z" fill="white"/>
<path d="M24 5.25C20.6196 5.25377 17.3788 6.59828 14.9886 8.98855C12.5983 11.3788 11.2538 14.6196 11.25 18C11.9501 34.9147 36.0525 34.9097 36.75 18C36.7462 14.6196 35.4017 11.3788 33.0114 8.98855C30.6212 6.59828 27.3804 5.25377 24 5.25ZM24 29.25C21.0173 29.2467 18.1578 28.0604 16.0487 25.9513C13.9396 23.8422 12.7533 20.9827 12.75 18C13.3678 3.075 34.6346 3.07965 35.25 18C35.2467 20.9827 34.0604 23.8422 31.9513 25.9513C29.8422 28.0604 26.9827 29.2467 24 29.25Z" fill="white"/>
<path d="M18 14.25H16.5C16.3011 14.25 16.1103 14.329 15.9697 14.4697C15.829 14.6103 15.75 14.8011 15.75 15V21C15.75 21.1989 15.829 21.3897 15.9697 21.5303C16.1103 21.671 16.3011 21.75 16.5 21.75C16.6989 21.75 16.8897 21.671 17.0303 21.5303C17.171 21.3897 17.25 21.1989 17.25 21V18.75H18C18.1989 18.7502 18.3895 18.8293 18.5301 18.9699C18.6707 19.1105 18.7498 19.3011 18.75 19.5V21C18.75 21.1989 18.829 21.3897 18.9697 21.5303C19.1103 21.671 19.3011 21.75 19.5 21.75C19.6989 21.75 19.8897 21.671 20.0303 21.5303C20.171 21.3897 20.25 21.1989 20.25 21C20.2378 20.0855 20.4117 18.6769 19.665 18C19.9506 17.6759 20.1373 17.2767 20.2028 16.8498C20.2683 16.4228 20.21 15.986 20.0347 15.5912C19.8594 15.1964 19.5745 14.8602 19.2139 14.6225C18.8532 14.3847 18.4319 14.2555 18 14.25ZM17.25 17.25V15.75H18C18.1989 15.75 18.3897 15.829 18.5303 15.9697C18.671 16.1103 18.75 16.3011 18.75 16.5C18.75 16.6989 18.671 16.8897 18.5303 17.0303C18.3897 17.171 18.1989 17.25 18 17.25H17.25Z" fill="white"/>
<path d="M23.2499 16.5C23.2501 16.3011 23.3292 16.1105 23.4698 15.9699C23.6104 15.8293 23.8011 15.7502 23.9999 15.75H25.4999C25.6989 15.75 25.8896 15.671 26.0303 15.5303C26.1709 15.3897 26.2499 15.1989 26.2499 15C26.2499 14.8011 26.1709 14.6103 26.0303 14.4697C25.8896 14.329 25.6989 14.25 25.4999 14.25H23.9999C23.4034 14.2507 22.8315 14.4879 22.4097 14.9097C21.9879 15.3315 21.7506 15.9035 21.7499 16.5C21.751 17.2474 21.7492 18.7528 21.7499 19.5C21.7499 20.0967 21.987 20.669 22.409 21.091C22.8309 21.5129 23.4032 21.75 23.9999 21.75C24.5967 21.75 25.169 21.5129 25.5909 21.091C26.0129 20.669 26.2499 20.0967 26.2499 19.5V18C26.2499 17.8011 26.1709 17.6103 26.0303 17.4697C25.8896 17.329 25.6989 17.25 25.4999 17.25C25.301 17.25 25.1103 17.329 24.9696 17.4697C24.829 17.6103 24.7499 17.8011 24.7499 18V19.5C24.7499 19.6989 24.6709 19.8897 24.5303 20.0303C24.3896 20.171 24.1989 20.25 23.9999 20.25C23.801 20.25 23.6103 20.171 23.4696 20.0303C23.329 19.8897 23.2499 19.6989 23.2499 19.5V16.5Z" fill="white"/>
<path d="M30 14.25H28.5C28.3011 14.25 28.1103 14.329 27.9697 14.4697C27.829 14.6103 27.75 14.8011 27.75 15V21C27.75 21.1989 27.829 21.3897 27.9697 21.5303C28.1103 21.671 28.3011 21.75 28.5 21.75H30C30.4319 21.7445 30.8532 21.6153 31.2139 21.3775C31.5745 21.1398 31.8594 20.8036 32.0347 20.4088C32.21 20.014 32.2683 19.5772 32.2028 19.1502C32.1372 18.7233 31.9506 18.3241 31.665 18C31.9506 17.6759 32.1372 17.2767 32.2028 16.8498C32.2683 16.4228 32.21 15.986 32.0347 15.5912C31.8594 15.1964 31.5745 14.8602 31.2139 14.6225C30.8532 14.3847 30.4319 14.2555 30 14.25ZM29.25 15.75H30C30.1989 15.75 30.3897 15.829 30.5303 15.9697C30.671 16.1103 30.75 16.3011 30.75 16.5C30.75 16.6989 30.671 16.8897 30.5303 17.0303C30.3897 17.171 30.1989 17.25 30 17.25H29.25V15.75ZM30 20.25H29.25V18.75H30C30.1989 18.75 30.3897 18.829 30.5303 18.9697C30.671 19.1103 30.75 19.3011 30.75 19.5C30.75 19.6989 30.671 19.8897 30.5303 20.0303C30.3897 20.171 30.1989 20.25 30 20.25Z" fill="white"/>
</svg>
