<svg width="42" height="27" viewBox="0 0 42 27" fill="none" xmlns="http://www.w3.org/2000/svg">
<path d="M27.6959 14.136L35.0326 10.2463L38.0972 16.1811C38.8843 17.7054 38.3088 19.602 36.7921 20.4061L34.9179 21.3998C33.4135 22.1974 31.5417 21.6142 30.7482 20.0774L27.6836 14.1426L27.6959 14.136Z" fill="black"/>
<path d="M32.9427 8.64781L27.6035 11.4785L30.7133 17.5008L36.0524 14.6701L32.9427 8.64781Z" fill="black"/>
<path d="M25.7741 3.63477C23.5197 4.83337 17.1181 8.24588 13.8616 9.98033C10.5912 11.7148 10.9391 13.7877 10.967 15.4798H21.5435C24.1459 14.0979 28.9471 11.5315 32.1061 9.85342C35.5157 8.03436 36.3646 5.79226 36.3924 3.63477H25.7741ZM31.5634 7.3857C30.6449 7.3857 29.9073 6.63833 29.9073 5.70765C29.9073 4.77697 30.6449 4.0296 31.5634 4.0296C32.4819 4.0296 33.2195 4.77697 33.2195 5.70765C33.2195 6.63833 32.4819 7.3857 31.5634 7.3857Z" fill="black"/>
<path d="M39.7177 3.91755H2.26839L0 0.660156H42L39.7177 3.91755Z" fill="black"/>
<path d="M21.2923 17.4961H11.1055V26.6619H21.2923V17.4961Z" fill="black"/>
<path d="M18.5795 15.0156H13.834V24.266H18.5795V15.0156Z" fill="black"/>
</svg>
