<svg width="42" height="41" viewBox="0 0 42 41" fill="none" xmlns="http://www.w3.org/2000/svg">
<path d="M39.2374 14.2415L27.2973 16.7546C25.9715 17.0338 24.7053 16.1115 24.5608 14.7746L23.2691 2.69185C22.9801 -0.0157723 19.0199 -0.0157723 18.7309 2.69185L17.4392 14.7746C17.2947 16.1115 16.02 17.0338 14.7027 16.7546L2.76255 14.2415C0.0855746 13.6831 -1.13819 17.423 1.36033 18.5314L12.5017 23.4898C13.7339 24.0397 14.2183 25.5289 13.5469 26.6966L7.46214 37.2309C6.1024 39.5916 9.29778 41.9016 11.1334 39.8878L19.3088 30.868C20.2181 29.8696 21.7903 29.8696 22.6912 30.868L30.8666 39.8878C32.7022 41.91 35.8976 39.5916 34.5379 37.2309L28.453 26.6966C27.7817 25.5289 28.2661 24.0397 29.4983 23.4898L40.6397 18.5314C43.1382 17.423 41.9144 13.6746 39.2374 14.2415ZM21 26.5781C18.8329 26.5781 17.0738 24.8266 17.0738 22.669C17.0738 20.5114 18.8329 18.7599 21 18.7599C23.1671 18.7599 24.9262 20.5114 24.9262 22.669C24.9262 24.8266 23.1671 26.5781 21 26.5781Z" fill="black"/>
</svg>
