<svg width="24" height="43" viewBox="0 0 24 43" fill="none" xmlns="http://www.w3.org/2000/svg">
<g id="Group 7">
<g id="Group">
<path id="Vector" d="M17.8891 9.38978C17.8337 8.40677 17.5763 6.91541 17.1818 5.46306C16.9594 4.64426 16.6975 3.85325 16.4119 3.1874C16.143 2.56027 15.8686 2.08172 15.6112 1.78991C15.1732 1.60321 14.5772 1.47771 13.9194 1.40059C13.2267 1.31937 12.5043 1.2959 11.9004 1.2959C11.2964 1.2959 10.5741 1.31937 9.88142 1.40059C9.22361 1.47771 8.62762 1.60321 8.18962 1.78991C7.93219 2.08172 7.65781 2.56027 7.38884 3.1874C7.10325 3.85325 6.84135 4.64426 6.61896 5.46305C6.22442 6.91562 5.96705 8.4072 5.91163 9.39021C7.31128 9.80391 9.43536 10.2959 11.9069 10.2959L11.9069 10.7959C14.66 10.794 16.9907 10.1953 18.4004 9.75742L17.8891 9.38978ZM17.8891 9.38978C16.484 9.80373 14.3599 10.2959 11.8939 10.2959M17.8891 9.38978L11.8939 10.2959M11.8939 10.2959L11.8939 10.7959C9.1343 10.794 6.80359 10.1953 5.40039 9.75742C5.40039 7.73425 6.53252 2.77356 7.89238 1.37513L11.8939 10.2959Z" stroke="#080808"/>
<path id="Vector_2" d="M20.3565 20.8447C21.0211 24.6928 21.4438 28.6985 21.4782 31.1429L12.0005 33.4658C8.03806 33.4658 4.65298 32.1709 2.50273 31.1435C2.53706 28.6992 2.95975 24.6931 3.62443 20.8447C3.97082 18.8391 4.38111 16.8871 4.8327 15.2313C5.27198 13.6206 5.73966 12.3314 6.20527 11.5424C6.906 11.054 7.8558 10.7392 8.88864 10.5488C9.95317 10.3525 11.0628 10.2958 11.9905 10.2958C12.9181 10.2958 14.0278 10.3525 15.0923 10.5488C16.1251 10.7392 17.0749 11.054 17.7757 11.5424C18.2413 12.3314 18.709 13.6206 19.1482 15.2313C19.5998 16.8871 20.0101 18.8391 20.3565 20.8447Z" stroke="#080808"/>
<path id="Vector_3" d="M11.9004 33.2959C9.85803 33.2937 8.07817 32.0879 6.90106 31.0768C6.91516 28.6415 7.15014 24.6021 7.52092 20.7302C7.89956 16.7763 8.41297 13.078 8.95597 11.4257C9.68918 10.5129 10.9185 10.2959 11.9004 10.2959C12.8823 10.2959 14.1116 10.5129 14.8448 11.4257C15.3878 13.078 15.9012 16.7763 16.2799 20.7302C16.6506 24.6018 16.8856 28.6408 16.8997 31.0761C15.7169 32.0882 13.9374 33.2937 11.9004 33.2959Z" stroke="#080808"/>
<path id="Vector 1" d="M7.90039 17.7959H15.9004" stroke="#080808"/>
<path id="Vector 2" d="M7.40039 24.7959L16.4004 24.7959" stroke="#080808"/>
<path id="Vector 3" d="M4.40039 35.7959H19.4004" stroke="#080808"/>
<path id="Vector 4" d="M1.40039 37.7959L22.4004 37.7959" stroke="#080808"/>
<path id="Vector_4" d="M6.37103 33.8371C6.16695 33.9805 5.83714 34.1901 5.43548 34.4455C3.65236 35.5789 0.453087 37.6126 0.551026 38.7471L17.631 33.8371L17.3436 34.2462C17.3439 34.2464 17.3443 34.2467 17.3447 34.2469C17.5571 34.3962 17.8979 34.6134 18.2991 34.8693C18.4439 34.9616 18.5967 35.059 18.7541 35.1601C19.3584 35.5479 20.0525 36.0021 20.7064 36.4729C21.3639 36.9462 21.9632 37.4238 22.3866 37.8569C22.5987 38.0738 22.7524 38.2652 22.8476 38.4263C22.9466 38.5938 22.9547 38.6814 22.9526 38.7073L23.451 38.7471L22.9529 38.7038C22.9331 38.932 22.9313 39.2116 22.9297 39.4783C22.9288 39.6281 22.9279 39.7739 22.9238 39.9042C22.9111 40.3082 22.871 40.6711 22.7554 40.9788C22.6453 41.2722 22.4665 41.5169 22.1541 41.6979C21.8299 41.8857 21.3226 42.0271 20.521 42.0271H3.48103C2.67948 42.0271 2.17138 41.8857 1.84616 41.6977C1.53274 41.5164 1.35317 41.2714 1.24263 40.9782C1.12669 40.6707 1.08626 40.308 1.07408 39.9048C1.07003 39.7708 1.06949 39.6189 1.06893 39.4628C1.068 39.2012 1.06703 38.9279 1.04944 38.7073L1.04946 38.7073L1.04917 38.7041C1.04683 38.6769 1.05456 38.5889 1.15251 38.4218C1.24694 38.2607 1.3999 38.0692 1.61154 37.8524C2.03421 37.4192 2.63347 36.9421 3.29148 36.4694C3.94587 35.9994 4.64079 35.5461 5.24591 35.1591C5.40013 35.0604 5.54989 34.9652 5.69217 34.8748C6.09808 34.6168 6.44316 34.3974 6.65757 34.2468M6.37103 33.8371L6.65664 34.2475C6.65695 34.2473 6.65726 34.247 6.65757 34.2468M6.37103 33.8371L6.6585 34.2462C6.65819 34.2464 6.65788 34.2466 6.65757 34.2468M6.37103 33.8371L6.65757 34.2468" stroke="#080808"/>
</g>
</g>
</svg>
