<svg width="34" height="43" viewBox="0 0 34 43" fill="none" xmlns="http://www.w3.org/2000/svg">
<path d="M26.9038 6.56955L20.7271 7.53811C20.1749 7.62307 19.784 7.01135 20.0984 6.55256L21.6277 4.27559C21.6872 4.19063 21.7212 4.08018 21.7297 3.97823L21.976 1.24247C22.027 0.690224 22.7152 0.460826 23.089 0.868641L27.2861 5.50753C27.626 5.88136 27.4136 6.48459 26.9123 6.56955H26.9038Z" fill="black"/>
<path d="M27.8733 14.2593C27.6014 13.2993 26.5989 12.662 25.6048 12.3307C24.6193 12.0078 23.5572 12.5686 23.2768 13.5626C22.8181 15.1684 22.2658 17.1735 21.7051 19.272C21.773 19.4844 21.841 19.6883 21.892 19.8668C22.5122 21.8294 23.4213 25.0154 23.8461 27.8871C24.4323 27.8022 25.0695 27.7342 25.7237 27.6747C27.2615 22.4326 28.2386 15.5167 27.8818 14.2593H27.8733Z" fill="black"/>
<path d="M24.9257 36.4167C23.2179 36.7056 21.0175 37.4108 19.1313 38.4728C18.1882 39.008 17.8909 39.3394 17.7464 39.5858C17.602 39.8406 17.5595 40.0361 17.6615 40.2655C17.7634 40.4949 18.0013 40.5628 18.2987 40.5628C18.7065 40.5628 19.0209 40.3674 19.1993 40.2739C21.5612 39.0845 23.6597 38.7616 24.9257 38.6342V36.4082V36.4167Z" fill="black"/>
<path d="M23.5742 37.6494C23.6422 38.567 23.8376 39.3401 24.1519 39.9349C24.3728 40.3427 25.5453 40.3427 25.7577 39.9349C26.0721 39.3401 26.2675 38.5585 26.3355 37.6494H23.5742Z" fill="black"/>
<path d="M18.6733 42.6609C19.3396 42.6609 19.8797 42.1208 19.8797 41.4545C19.8797 40.7882 19.3396 40.248 18.6733 40.248C18.007 40.248 17.4668 40.7882 17.4668 41.4545C17.4668 42.1208 18.007 42.6609 18.6733 42.6609Z" fill="black"/>
<path d="M24.9258 36.4167C26.6335 36.7056 28.834 37.4108 30.7202 38.4728C31.6632 39.008 31.9606 39.3394 32.105 39.5858C32.2495 39.8322 32.2919 40.0361 32.19 40.2655C32.088 40.4949 31.8501 40.5628 31.5528 40.5628C31.145 40.5628 30.8306 40.3674 30.6522 40.2739C28.2903 39.0845 26.1917 38.7616 24.9258 38.6342V36.4082V36.4167Z" fill="black"/>
<path d="M29.9727 41.4545C29.9727 42.1257 30.5164 42.6609 31.1791 42.6609C31.8418 42.6609 32.3856 42.1172 32.3856 41.4545C32.3856 40.7918 31.8418 40.248 31.1791 40.248C30.5164 40.248 29.9727 40.7918 29.9727 41.4545Z" fill="black"/>
<path d="M26.1649 41.3451C26.1649 42.0163 25.6211 42.5516 24.9584 42.5516C24.2957 42.5516 23.752 42.0078 23.752 41.3451C23.752 40.6824 24.2957 40.1387 24.9584 40.1387C25.6211 40.1387 26.1649 40.6824 26.1649 41.3451Z" fill="black"/>
<path d="M1.13611 12.6013L7.04944 10.5707C7.5762 10.3923 7.63566 9.6701 7.14288 9.40672L4.72998 8.10681C4.63653 8.05584 4.55157 7.97937 4.5006 7.89441L3.00527 5.59195C2.69941 5.12466 1.98572 5.24361 1.84978 5.77887L0.311983 11.8366C0.184541 12.3294 0.660326 12.7627 1.13611 12.6013Z" fill="black"/>
<path d="M4.61123 10.4184L2.25781 7.97156C7.64436 2.79741 15.1889 0.758338 22.4446 2.53403L21.6375 5.83903C15.5203 4.34371 9.15667 6.05993 4.61123 10.4269V10.4184Z" fill="black"/>
<path d="M11.7134 24.6059C11.3226 22.9831 10.9148 21.3264 10.5409 19.7631C8.73127 17.8005 7.15098 16.3392 6.53077 16.0843C5.61318 15.702 4.49169 16.0843 3.60809 16.6705C2.74149 17.2398 2.52909 18.4207 3.13231 19.2618C6.15694 23.4844 11.7134 30.7656 13.8629 33.8157C13.8459 33.7478 13.829 33.6798 13.812 33.6033C13.5231 32.0655 12.6395 28.4377 11.7049 24.5974L11.7134 24.6059Z" fill="black"/>
<path d="M28.6563 30.079C26.3453 30.079 23.6605 30.4528 21.5195 30.8776C21.647 25.9499 17.6113 14.4291 16.3624 13.1547C15.8696 12.6534 15.1304 12.458 14.3658 12.458C14.0514 12.458 13.7455 12.492 13.4397 12.543C12.4202 12.7299 11.7575 13.7239 11.9869 14.7435C13.2018 20.232 15.7506 30.181 16.3114 33.1376C16.6937 35.1682 17.3649 35.4146 19.1151 35.4655C19.3785 35.4655 20.8483 35.474 22.6835 35.474C26.3623 35.474 31.5195 35.4655 31.5195 35.4655C32.454 35.4485 32.8449 34.5904 33.2697 33.8003C34.7905 30.9456 32.1567 30.079 28.6478 30.079H28.6563Z" fill="black"/>
</svg>
