<svg width="30" height="43" viewBox="0 0 30 43" fill="none" xmlns="http://www.w3.org/2000/svg">
<path d="M26.5635 31.2346C27.8109 31.2193 28.3268 30.072 28.8812 29.0171C32.2383 22.7264 20.4268 23.712 13.2583 25.1287C13.2583 22.6263 12.8579 21.9564 12.8579 21.9564C12.8579 21.9564 9.99359 21.0093 8.17644 20.8707C9.6933 20.4858 16.0687 20.2163 19.7646 20.0931C21.5356 20.0392 23.1756 21.171 23.6376 22.8804C23.6376 22.8958 23.6376 22.9112 23.6453 22.9266L25.5318 23.0498C25.0005 21.1864 24.4692 20.224 23.7454 19.4386C22.8753 18.4992 21.6357 17.7677 19.1563 17.7677C16.3074 17.7677 13.805 17.7677 12.2111 17.7677C12.0726 16.197 10.4787 13.2711 9.35451 11.5001C9.701 6.01016 8.06096 3.26903 6.4055 1.58278C5.47383 0.635706 3.90307 0.527909 2.5248 0.774302C1.16964 1.0207 0.29186 2.34506 0.592151 3.69252C2.20911 10.9842 5.59701 24.2047 6.34389 28.1393C6.85208 30.842 7.73757 31.1654 10.0706 31.2346C11.1255 31.2654 26.5558 31.2346 26.5558 31.2346H26.5635Z" fill="black"/>
<path d="M17.7859 34.3535C15.5144 34.7308 12.5962 35.6702 10.0861 37.0869C8.8387 37.7953 8.4306 38.2342 8.24581 38.573C8.06101 38.9118 7.99942 39.1659 8.13031 39.4739C8.26121 39.7742 8.58461 39.8743 8.9773 39.8743C9.52398 39.8743 9.93977 39.6125 10.1785 39.4893C13.3123 37.9108 16.1073 37.4796 17.7859 37.3102V34.3535Z" fill="black"/>
<path d="M15.9922 35.9932C16.0846 37.2097 16.3387 38.2415 16.7622 39.0346C17.0471 39.5736 18.6101 39.5736 18.9027 39.0346C19.3262 38.2415 19.5803 37.2097 19.6727 35.9932H15.9999H15.9922Z" fill="black"/>
<path d="M9.47839 42.6609C10.3672 42.6609 11.0876 41.9404 11.0876 41.0516C11.0876 40.1629 10.3672 39.4424 9.47839 39.4424C8.58963 39.4424 7.86914 40.1629 7.86914 41.0516C7.86914 41.9404 8.58963 42.6609 9.47839 42.6609Z" fill="black"/>
<path d="M17.7852 34.3535C20.0566 34.7308 22.9748 35.6702 25.4849 37.0869C26.7323 37.7953 27.1404 38.2342 27.3252 38.573C27.51 38.9118 27.5716 39.1659 27.4407 39.4739C27.3098 39.7742 26.9864 39.8743 26.5937 39.8743C26.047 39.8743 25.6312 39.6125 25.3925 39.4893C22.2587 37.9108 19.4637 37.4796 17.7852 37.3102V34.3535Z" fill="black"/>
<path d="M24.4922 41.0516C24.4922 41.9371 25.2083 42.6609 26.1014 42.6609C26.9946 42.6609 27.7107 41.9448 27.7107 41.0516C27.7107 40.1585 26.9946 39.4424 26.1014 39.4424C25.2083 39.4424 24.4922 40.1585 24.4922 41.0516Z" fill="black"/>
<path d="M17.8319 42.5066C18.7207 42.5066 19.4412 41.7861 19.4412 40.8973C19.4412 40.0086 18.7207 39.2881 17.8319 39.2881C16.9431 39.2881 16.2227 40.0086 16.2227 40.8973C16.2227 41.7861 16.9431 42.5066 17.8319 42.5066Z" fill="black"/>
<path d="M19.9876 32.3428H15.6758V35.4689H19.9876V32.3428Z" fill="black"/>
</svg>
