<svg width="42" height="31" viewBox="0 0 42 31" fill="none" xmlns="http://www.w3.org/2000/svg">
<path d="M1.89436 16.0482C-0.18614 17.3139 -0.18614 28.2711 1.89436 29.5368C4.26959 30.9845 19.2492 31.4005 21.6677 30.0135C24.7451 28.2538 23.913 27.1009 28.1086 27.1009H41.9352V18.4928H28.1086C24.4417 18.4928 24.7451 17.3399 21.6677 15.5801C19.2492 14.1931 4.26959 14.6092 1.89436 16.0569V16.0482Z" fill="black"/>
<path d="M0.507121 6.75657L8.81178 11.247C9.54862 11.6457 10.4155 10.9782 10.1988 10.1634L9.1672 6.14975C9.12386 5.99371 9.12386 5.82901 9.1672 5.67298L10.1988 1.65935C10.4068 0.844489 9.54862 0.176996 8.81178 0.575758L0.507121 5.06616C-0.16904 5.43024 -0.16904 6.39248 0.507121 6.75657Z" fill="black"/>
<path d="M41.4931 6.75657L33.1884 11.247C32.4516 11.6457 31.5847 10.9782 31.8014 10.1634L32.833 6.14975C32.8763 5.99371 32.8763 5.82901 32.833 5.67298L31.8014 1.65935C31.5934 0.844489 32.4516 0.176996 33.1884 0.575758L41.4931 5.06616C42.1692 5.43024 42.1692 6.39248 41.4931 6.75657Z" fill="black"/>
<path d="M37.1242 3.80078H4.8418V8.13515H37.1242V3.80078Z" fill="black"/>
</svg>
