<svg width="34" height="43" viewBox="0 0 34 43" fill="none" xmlns="http://www.w3.org/2000/svg">
<path d="M28.8544 42.1204L25.4354 35.7983C25.1277 35.2327 25.6434 34.5839 26.259 34.7419L29.3119 35.5238C29.4283 35.5571 29.5531 35.5571 29.6779 35.5238L32.7307 34.7419C33.3463 34.5839 33.8621 35.241 33.5543 35.7983L30.1354 42.1204C29.8609 42.6361 29.1205 42.6361 28.846 42.1204H28.8544Z" fill="black"/>
<path d="M28.8544 15.4767L25.4354 21.7987C25.1277 22.3644 25.6434 23.0132 26.259 22.8551L29.3119 22.0732C29.4283 22.0399 29.5531 22.0399 29.6779 22.0732L32.7307 22.8551C33.3463 23.0132 33.8621 22.356 33.5543 21.7987L30.1354 15.4767C29.8609 14.9609 29.1205 14.9609 28.846 15.4767H28.8544Z" fill="black"/>
<path d="M31.1086 19.5107H27.7812V38.8429H31.1086V19.5107Z" fill="black"/>
<path d="M11.0693 33.6846C8.6153 34.0922 5.4626 35.107 2.75078 36.6376C1.40318 37.4029 0.96229 37.8771 0.762646 38.2431C0.563003 38.6091 0.49646 38.8836 0.637874 39.2164C0.779288 39.5408 1.12867 39.6489 1.55291 39.6489C2.14352 39.6489 2.59272 39.3661 2.85059 39.233C6.23621 37.5277 9.25583 37.0619 11.0693 36.8789V33.6846Z" fill="black"/>
<path d="M9.13086 35.4492C9.23068 36.7635 9.50519 37.8782 9.96271 38.735C10.2705 39.3173 11.9591 39.3173 12.2752 38.735C12.7328 37.8782 13.0073 36.7635 13.1071 35.4492H9.13919H9.13086Z" fill="black"/>
<path d="M2.09403 42.6617C3.05421 42.6617 3.83259 41.8833 3.83259 40.9231C3.83259 39.9629 3.05421 39.1846 2.09403 39.1846C1.13385 39.1846 0.355469 39.9629 0.355469 40.9231C0.355469 41.8833 1.13385 42.6617 2.09403 42.6617Z" fill="black"/>
<path d="M11.0703 33.6846C13.5243 34.0922 16.677 35.107 19.3888 36.6376C20.7364 37.4029 21.1773 37.8771 21.3769 38.2431C21.5765 38.6091 21.6431 38.8836 21.5017 39.2164C21.3603 39.5408 21.0109 39.6489 20.5867 39.6489C19.996 39.6489 19.5468 39.3661 19.289 39.233C15.9034 37.5277 12.8837 37.0619 11.0703 36.8789V33.6846Z" fill="black"/>
<path d="M18.3066 40.9231C18.3066 41.8798 19.0803 42.6617 20.0452 42.6617C21.0101 42.6617 21.7838 41.8881 21.7838 40.9231C21.7838 39.9582 21.0101 39.1846 20.0452 39.1846C19.0803 39.1846 18.3066 39.9582 18.3066 40.9231Z" fill="black"/>
<path d="M12.8502 40.7561C12.8502 41.7128 12.0765 42.4947 11.1116 42.4947C10.1467 42.4947 9.37305 41.7211 9.37305 40.7561C9.37305 39.7912 10.1467 39.0176 11.1116 39.0176C12.0765 39.0176 12.8502 39.7912 12.8502 40.7561Z" fill="black"/>
<path d="M13.4396 31.5146H8.78125V34.8919H13.4396V31.5146Z" fill="black"/>
<path d="M11.0704 0.661133C7.5434 0.661133 4.55706 1.86731 2.75195 2.74907C2.75195 6.8168 4.19936 18.288 5.93792 21.0996C7.26056 22.0729 9.48991 22.2642 11.0621 22.2642C12.6343 22.2642 14.8637 22.0729 16.1863 21.0996C17.9249 18.288 19.3723 6.8168 19.3723 2.74907C17.5755 1.86731 14.5891 0.661133 11.0538 0.661133H11.0704Z" fill="black"/>
<path d="M15.745 24.6762C14.5138 23.8194 12.7503 23.7695 11.0617 23.7695C9.373 23.7695 7.60948 23.8194 6.37835 24.6762C5.45499 25.3251 1.43716 27.6044 1.53698 28.7606C1.62849 29.9086 1.1294 31.905 3.97432 31.905H18.149C20.9939 31.905 20.4865 29.9086 20.5863 28.7606C20.6778 27.6127 16.6683 25.3251 15.745 24.6762Z" fill="black"/>
</svg>
