<svg width="36" height="43" viewBox="0 0 36 43" fill="none" xmlns="http://www.w3.org/2000/svg">
<path d="M7.40546 18.5232C9.02029 16.5944 10.985 14.5759 13.2817 13.4634C14.8068 12.7188 17.2918 11.5974 19.122 12.2613V10.4401C19.122 8.53818 17.5789 6.99512 15.677 6.99512H10.3122C8.41025 6.99512 6.86719 8.53818 6.86719 10.4401V16.8187C6.86719 17.4646 7.0466 18.0747 7.3606 18.586C7.37854 18.5681 7.39649 18.5412 7.41444 18.5143L7.40546 18.5232Z" fill="black"/>
<path d="M15.4256 5.29004H9.71094V9.57832H15.4256V5.29004Z" fill="black"/>
<path d="M21.9297 5.29032H3.07208L0.533203 0.661133H24.4686L21.9297 5.29032Z" fill="black"/>
<path d="M27.1755 34.0065C30.8024 29.2266 29.8676 22.4115 25.0877 18.7847C20.3077 15.1578 13.4927 16.0926 9.86583 20.8725C6.23897 25.6524 7.17373 32.4675 11.9537 36.0943C16.7336 39.7212 23.5486 38.7864 27.1755 34.0065Z" fill="black"/>
<path d="M18.521 10.1982C9.1729 10.1982 1.57422 17.8059 1.57422 27.145C1.57422 28.7509 1.80748 30.3478 2.25605 31.8908H6.50843C5.90735 30.3836 5.59337 28.7957 5.59337 27.145C5.59337 20.0218 11.3888 14.2174 18.521 14.2174C25.6532 14.2174 31.4486 20.0128 31.4486 27.145C31.4486 28.7957 31.1346 30.3836 30.5336 31.8908H34.786C35.2345 30.3567 35.4678 28.7509 35.4678 27.145C35.4678 17.7969 27.8601 10.1982 18.521 10.1982Z" fill="black"/>
</svg>
