<svg width="42" height="41" viewBox="0 0 42 41" fill="none" xmlns="http://www.w3.org/2000/svg">
<path d="M35.6599 2.39702C27.9238 1.68472 7.33035 0.323242 7.33035 0.323242C3.1287 0.891277 2.10083 2.58636 0 5.15604C0.00901642 5.19211 0.0270501 5.23719 0.0360665 5.27326C2.3082 11.5667 5.10329 11.7921 8.62871 11.8102C12.1541 11.8282 31.9001 11.8011 35.0648 11.8102C38.2296 11.8192 39.4829 9.88065 40.619 8.13146C42.6837 4.92162 43.405 3.11833 35.6599 2.40603V2.39702Z" fill="black"/>
<path d="M17.5992 27.291C13.8483 27.9131 9.04259 29.464 4.91307 31.7992C2.85733 32.9623 2.19011 33.6927 1.88356 34.2427C1.577 34.8017 1.47782 35.2255 1.69421 35.7214C1.91061 36.2173 2.44258 36.3796 3.09176 36.3796C3.98438 36.3796 4.67864 35.9468 5.06635 35.7484C10.2328 33.1427 14.8402 32.4304 17.6082 32.1599V27.291H17.5992Z" fill="black"/>
<path d="M14.6426 29.9873C14.7868 31.998 15.2106 33.6931 15.9049 35.0004C16.3827 35.8931 18.9524 35.8931 19.4303 35.0004C20.1246 33.6931 20.5483 31.998 20.6926 29.9873H14.6426Z" fill="black"/>
<path d="M6.55435 38.3371C6.55435 39.7978 5.3732 40.9789 3.90352 40.9789C2.43385 40.9789 1.26172 39.7978 1.26172 38.3371C1.26172 36.8765 2.44286 35.6953 3.90352 35.6953C5.36418 35.6953 6.55435 36.8765 6.55435 38.3371Z" fill="black"/>
<path d="M17.6009 27.291C21.3517 27.9131 26.1575 29.464 30.287 31.7992C32.3428 32.9623 33.01 33.6927 33.3165 34.2427C33.6231 34.8017 33.7223 35.2255 33.5059 35.7214C33.2895 36.2173 32.7575 36.3796 32.1083 36.3796C31.2157 36.3796 30.5214 35.9468 30.1337 35.7484C24.9673 33.1427 20.3599 32.4304 17.5919 32.1599V27.291H17.6009Z" fill="black"/>
<path d="M33.9292 38.3581C33.944 36.8991 32.7733 35.7045 31.3143 35.6897C29.8553 35.6749 28.6607 36.8457 28.6459 38.3046C28.6311 39.7636 29.8019 40.9583 31.2608 40.973C32.7198 40.9878 33.9145 39.8171 33.9292 38.3581Z" fill="black"/>
<path d="M17.7229 40.7157C19.1818 40.6905 20.3439 39.4875 20.3187 38.0286C20.2935 36.5698 19.0905 35.4077 17.6317 35.4329C16.1728 35.4581 15.0107 36.6611 15.0359 38.1199C15.0611 39.5787 16.2641 40.7409 17.7229 40.7157Z" fill="black"/>
<path d="M25.049 22.3015L29.8024 19.8143L31.7879 23.6091C32.2979 24.5837 31.925 25.7965 30.9424 26.3106L29.7281 26.946C28.7534 27.4559 27.5407 27.083 27.0265 26.1004L25.041 22.3057L25.049 22.3015Z" fill="black"/>
<path d="M28.4494 18.7926L24.9902 20.6025L27.005 24.4532L30.4642 22.6432L28.4494 18.7926Z" fill="black"/>
<path d="M23.8041 15.5879C22.3434 16.3543 18.1959 18.5363 16.086 19.6453C13.9672 20.7543 14.1926 22.0797 14.2106 23.1617H21.0631C22.7492 22.2781 25.8598 20.6371 27.9066 19.5641C30.1156 18.401 30.6656 16.9674 30.6836 15.5879H23.8041ZM27.5549 17.9863C26.9598 17.9863 26.482 17.5084 26.482 16.9133C26.482 16.3182 26.9598 15.8403 27.5549 15.8403C28.15 15.8403 28.6279 16.3182 28.6279 16.9133C28.6279 17.5084 28.15 17.9863 27.5549 17.9863Z" fill="black"/>
<path d="M32.8383 15.7683H8.57514L7.10547 13.6855H34.317L32.8383 15.7683Z" fill="black"/>
<path d="M20.9008 24.4502H14.3008V30.3109H20.9008V24.4502Z" fill="black"/>
<path d="M19.143 22.8643H16.0684V28.779H19.143V22.8643Z" fill="black"/>
</svg>
