<svg width="16" height="17" viewBox="0 0 16 17" fill="none" xmlns="http://www.w3.org/2000/svg">
<rect width="16" height="17" fill="#1E1E1E"/>
<g id="800 series page" clip-path="url(#clip0_0_1)">
<rect width="1440" height="18247.7" transform="translate(-764 -16625)" fill="#F6F6F6"/>
<g id="Specification">
<rect width="1440" height="1312" transform="translate(-764 -315.34)" fill="#F6F6F6"/>
<g id="Frame 191">
<g id="Frame 197">
<g id="Frame 81">
<rect width="1360" height="52" transform="translate(-724 -15.3398)" fill="#E7E7E7"/>
<g id="Frame 160">
<g id="checkbox-btn-checked 1" clip-path="url(#clip1_0_1)">
<g id="Group">
<g id="Group_2">
<path id="Vector" d="M14 0.660156H2C1.46957 0.660156 0.960859 0.87087 0.585786 1.24594C0.210714 1.62102 0 2.12972 0 2.66016L0 14.6602C0 15.1906 0.210714 15.6993 0.585786 16.0744C0.960859 16.4494 1.46957 16.6602 2 16.6602H14C14.5304 16.6602 15.0391 16.4494 15.4142 16.0744C15.7893 15.6993 16 15.1906 16 14.6602V2.66016C16 2.12972 15.7893 1.62102 15.4142 1.24594C15.0391 0.87087 14.5304 0.660156 14 0.660156ZM13.707 5.86716L6.707 12.8672C6.51947 13.0546 6.26516 13.1599 6 13.1599C5.73484 13.1599 5.48053 13.0546 5.293 12.8672L2.293 9.86716C2.19749 9.77491 2.12131 9.66456 2.0689 9.54256C2.01649 9.42056 1.9889 9.28934 1.98775 9.15656C1.9866 9.02378 2.0119 8.8921 2.06218 8.7692C2.11246 8.64631 2.18671 8.53465 2.28061 8.44076C2.3745 8.34687 2.48615 8.27262 2.60905 8.22233C2.73194 8.17205 2.86362 8.14675 2.9964 8.14791C3.12918 8.14906 3.2604 8.17665 3.3824 8.22905C3.50441 8.28146 3.61475 8.35765 3.707 8.45316L6 10.7462L12.293 4.45316C12.3852 4.35765 12.4956 4.28146 12.6176 4.22905C12.7396 4.17665 12.8708 4.14906 13.0036 4.14791C13.1364 4.14675 13.2681 4.17205 13.391 4.22233C13.5139 4.27262 13.6255 4.34687 13.7194 4.44076C13.8133 4.53465 13.8875 4.64631 13.9378 4.7692C13.9881 4.8921 14.0134 5.02378 14.0123 5.15656C14.0111 5.28934 13.9835 5.42056 13.9311 5.54256C13.8787 5.66456 13.8025 5.77491 13.707 5.86716Z" fill="#4E4CF7"/>
</g>
</g>
</g>
</g>
</g>
</g>
</g>
</g>
</g>
<defs>
<clipPath id="clip0_0_1">
<rect width="1440" height="18247.7" fill="white" transform="translate(-764 -16625)"/>
</clipPath>
<clipPath id="clip1_0_1">
<rect width="16" height="16" fill="white" transform="translate(0 0.660156)"/>
</clipPath>
</defs>
</svg>
