<svg width="213" height="30" viewBox="0 0 213 30" fill="none" xmlns="http://www.w3.org/2000/svg">
<g clip-path="url(#clip0_869_247)">
<path d="M102.325 1.44922H106.697L115.98 24.3811H111.258L104.524 6.60394L97.7594 24.3811H93.0371L102.325 1.44922Z" fill="black"/>
<path d="M175.171 1.44922H179.544L188.826 24.3811H184.104L177.376 6.60394L170.611 24.3811H165.889L175.171 1.44922Z" fill="black"/>
<path d="M44.3118 24.3333H27.5957V1.50293H44.3118V5.68013H31.7747V10.931H43.8678V14.9426H31.7747V20.0973H44.3118V24.3333Z" fill="black"/>
<path d="M69.3723 24.3336H64.3627L57.8539 16.7003H53.8002V24.3336H49.5898V1.46582C53.1316 1.46582 56.6733 1.49787 60.215 1.49787C65.4806 1.52992 68.2544 5.11953 68.2544 9.06703C68.2544 12.1973 66.8492 15.3649 62.6075 16.2409L69.3723 24.0398V24.3336ZM53.8054 5.51482V12.8222H60.2203C62.9001 12.8222 64.0493 10.9954 64.0493 9.16853C64.1015 7.1921 62.5762 5.55221 60.6434 5.49879C60.5023 5.49879 60.3613 5.49879 60.2255 5.51482H53.8107H53.8054Z" fill="black"/>
<path d="M79.8999 5.4135H72.8164V1.49805H91.1937V5.4135H84.1102V24.3337H79.8999V5.4135Z" fill="black"/>
<path d="M136.301 6.97794C134.744 5.53035 132.723 4.71841 130.623 4.69704C125.838 4.69704 122.933 8.41486 122.933 13.1155C122.933 16.8654 125.07 20.7488 130.623 20.7488C132.467 20.8022 134.264 20.1505 135.664 18.9273V14.8836H129.954V11.0323H139.524V20.6526C137.335 23.3502 134.05 24.8672 130.623 24.7657C122.233 24.7657 118.822 19.1249 118.822 13.1209C118.822 6.69483 122.745 0.754883 130.623 0.754883C133.731 0.754883 136.709 2.01018 138.918 4.243L136.301 6.98328V6.97794Z" fill="black"/>
<path d="M161.654 24.3333H144.938V1.50293H161.654V5.68013H149.117V10.931H161.21V14.9426H149.117V20.0973H161.654V24.3333Z" fill="black"/>
<path d="M213.003 24.3336H207.993L201.489 16.7003H197.441V24.3336H193.23V1.46582C196.772 1.46582 200.314 1.49787 203.856 1.49787C209.121 1.52992 211.895 5.11953 211.895 9.06703C211.895 12.1973 210.49 15.3649 206.248 16.2409L213.013 24.0398V24.3336H213.003ZM197.436 5.51482V12.8222H203.845C206.525 12.8222 207.674 10.9954 207.674 9.16853C207.721 7.1921 206.196 5.55221 204.263 5.49879C204.122 5.49879 203.986 5.49879 203.845 5.51482H197.436Z" fill="black"/>
<path d="M5.33871 1.46582H0L7.62151 20.1777L10.2543 13.6449L5.33871 1.46582Z" fill="black"/>
<path d="M8.97461 23.4202L11.5865 29.7501L20.0856 8.84277H14.8044L8.97461 23.4256V23.4202Z" fill="black"/>
<path d="M10.2272 6.43359H21.0561L23.0673 1.46582H8.25781L10.2272 6.43359Z" fill="black"/>
</g>
<defs>
<clipPath id="clip0_869_247">
<rect width="213" height="29" fill="white" transform="translate(0 0.75)"/>
</clipPath>
</defs>
</svg>
