<?xml version="1.0" encoding="utf-8"?>
<!-- Generator: Adobe Illustrator 25.0.0, SVG Export Plug-In . SVG Version: 6.00 Build 0)  -->
<svg version="1.1" id="Capa_1" xmlns="http://www.w3.org/2000/svg" xmlns:xlink="http://www.w3.org/1999/xlink" x="0px" y="0px"
	 viewBox="0 0 1135.79 661.03" style="enable-background:new 0 0 1135.79 661.03;" xml:space="preserve">
<style type="text/css">
	.st0{fill:#BF9CC3;}
	.st1{fill:#FFFFFF;}
	.st2{font-family:'Lato-Regular';}
	.st3{font-size:40.1339px;}
	.st4{letter-spacing:2;}
</style>
<g>
	<g>
		<g>
			<g>
				<path class="st0" d="M72.25,461.71H0V129.13h89.89c27.29,0,47.14,9.08,59,26.99c11.48,17.36,17.31,42.84,17.31,75.72
					c0,32.83-5.15,58.06-15.32,75c-10.58,17.64-29.58,26.58-56.46,26.58H72.25V461.71z M8.49,453.22h55.27V324.94h30.65
					c24.03,0,40.11-7.35,49.18-22.46c9.36-15.6,14.11-39.37,14.11-70.63c0-31.19-5.35-55.09-15.9-71.04
					c-10.33-15.6-27.31-23.19-51.92-23.19H8.49V453.22z M71.78,274.95h-8.02v-86.96h11.41c10.75,0,18.12,3.84,21.91,11.4
					c3.35,6.7,4.98,16.94,4.98,31.33c0,10.45-0.59,18.32-1.79,24.07c-1.33,6.38-4.25,11.39-8.69,14.91
					C87.12,273.23,80.64,274.95,71.78,274.95z M72.25,196.48v69.99c6.54-0.05,11.27-1.2,14.06-3.42c2.87-2.28,4.72-5.55,5.65-9.99
					c1.07-5.1,1.61-12.61,1.61-22.34c0-12.85-1.37-22.12-4.08-27.53c-2.26-4.52-6.94-6.71-14.31-6.71H72.25z"/>
			</g>
			<g>
				<path class="st0" d="M333.32,461.71H193.16V129.13h73.38v269.01h66.78V461.71z M201.65,453.22h123.19v-46.6h-66.78V137.62
					h-56.41V453.22z"/>
			</g>
			<g>
				<path class="st0" d="M517.81,461.71H443.3V410.4h-96.21v-55.37l0.15-0.55l61.98-225.72h108.59v219.2h17.36v62.44h-17.36V461.71z
					 M451.79,453.22h57.54v-51.31h17.36v-45.47h-17.36v-219.2h-93.63l-60.11,218.93v45.74h96.21V453.22z M451.79,356.45H403.7
					l48.09-204.13V356.45z M414.42,347.96h28.88v-122.6L414.42,347.96z"/>
			</g>
			<g>
				<path class="st0" d="M642.6,466.24c-26.81,0-48.53-6.74-64.58-20.03l0,0c0,0,0,0,0,0c-16.29-13.48-24.55-33.56-24.55-59.67
					v-52.16h76.02v31.79c0,10.53,1.06,18.81,3.14,24.59c1.65,4.58,4.72,6.63,9.97,6.63c6.56,0,8.67-2.42,9.69-4.24
					c2.02-3.62,3.04-9.27,3.04-16.79v-63.76c0-9.78-1-17.62-2.97-23.33c-1.53-4.42-4.43-6.39-9.38-6.39c-3.9,0-14.24,0-14.24,22.54
					v4.24h-67.72V128.76h162.8v69.23h-92.81v31.37c2.14-1.6,4.5-3.04,7.06-4.32c6.1-3.05,13.09-4.6,20.76-4.6
					c28.74,0,48.73,10.42,59.41,30.96c10.21,19.64,15.38,47.59,15.38,83.07c0,29.11-2.13,53.11-6.33,71.32
					c-4.35,18.86-13.29,33.8-26.57,44.43C687.42,460.85,667.87,466.24,642.6,466.24z M561.95,342.86v43.67
					c0,23.47,7.22,41.34,21.48,53.14l0,0c14.48,12,34.39,18.08,59.17,18.08c23.29,0,41.06-4.76,52.81-14.16
					c11.75-9.4,19.69-22.76,23.61-39.71c4.06-17.58,6.12-40.94,6.12-69.41c0-34.11-4.85-60.74-14.43-79.16
					c-9.23-17.76-26.21-26.39-51.88-26.39c-6.34,0-12.05,1.25-16.97,3.7c-4.93,2.47-8.88,5.61-11.73,9.34l-7.61,9.97V189.5h92.81
					v-52.26H569.5v163.93h50.87c1.3-22.01,12.84-26.79,22.61-26.79c8.64,0,14.65,4.18,17.4,12.09c2.28,6.6,3.44,15.38,3.44,26.1
					v63.76c0,9.12-1.35,15.97-4.12,20.93c-2.19,3.92-6.94,8.59-17.1,8.59c-8.86,0-15.07-4.23-17.95-12.24
					c-2.45-6.81-3.64-15.79-3.64-27.47v-23.3H561.95z"/>
			</g>
			<g>
				<path class="st0" d="M844.06,464.73c-28.49,0-50.85-8.25-66.45-24.51v0c-15.56-16.21-23.44-39.48-23.44-69.15V224.68
					c0-31.61,7.6-56.17,22.58-73c15.11-16.97,37.76-25.57,67.31-25.57c29.8,0,52.57,8.6,67.68,25.57
					c14.99,16.83,22.58,41.39,22.58,73v146.39c0,29.93-7.89,53.26-23.45,69.35C895.27,456.55,872.79,464.73,844.06,464.73z
					 M844.06,134.6c-27.02,0-47.54,7.65-60.97,22.73c-13.56,15.22-20.43,37.88-20.43,67.35v146.39c0,27.41,7.09,48.7,21.08,63.28v0
					c13.94,14.53,34.23,21.9,60.32,21.9c26.34,0,46.77-7.31,60.71-21.72c13.98-14.45,21.07-35.8,21.07-63.45V224.68
					c0-29.47-6.87-52.13-20.43-67.35C891.98,142.25,871.34,134.6,844.06,134.6z M844.06,405.12c-6.19,0-11.4-2.95-15.05-8.52
					c-3.34-5.07-5.04-11.13-5.04-17.99V218.64c0-9.96,1.09-17.46,3.34-22.93c1.87-4.55,6.29-9.99,16.75-9.99
					c10.4,0,14.93,5.39,16.9,9.9c2.4,5.51,3.56,13.03,3.56,23.01v159.97c0,6.89-1.77,12.96-5.27,18.06l0,0
					C855.47,402.2,850.22,405.12,844.06,405.12z M844.06,194.21c-6.17,0-8,2.52-8.9,4.72c-1.79,4.36-2.7,10.99-2.7,19.71v159.97
					c0,5.25,1.19,9.6,3.64,13.32c2.1,3.2,4.63,4.69,7.96,4.69c3.37,0,5.97-1.51,8.2-4.76l0,0c2.55-3.71,3.78-8.04,3.78-13.26V218.64
					c0-8.67-0.96-15.27-2.85-19.62C852.21,196.78,850.29,194.21,844.06,194.21z"/>
			</g>
			<g>
				<path class="st0" d="M1045.53,464.73c-28.49,0-50.85-8.25-66.45-24.51v0c-15.56-16.21-23.44-39.48-23.44-69.15V224.68
					c0-31.61,7.6-56.17,22.58-73c15.11-16.97,37.76-25.57,67.31-25.57c29.8,0,52.57,8.6,67.68,25.57
					c14.99,16.83,22.58,41.39,22.58,73v146.39c0,29.93-7.89,53.26-23.45,69.35C1096.74,456.55,1074.26,464.73,1045.53,464.73z
					 M1045.53,134.6c-27.02,0-47.54,7.65-60.97,22.73c-13.56,15.22-20.43,37.88-20.43,67.35v146.39c0,27.41,7.09,48.7,21.08,63.28v0
					c13.94,14.53,34.23,21.9,60.32,21.9c26.34,0,46.77-7.31,60.71-21.72c13.98-14.45,21.07-35.8,21.07-63.45V224.68
					c0-29.47-6.87-52.13-20.43-67.35C1093.44,142.25,1072.8,134.6,1045.53,134.6z M1045.53,405.12c-6.19,0-11.4-2.95-15.05-8.52
					c-3.34-5.07-5.04-11.13-5.04-17.99V218.64c0-9.96,1.09-17.46,3.34-22.93c1.87-4.55,6.29-9.99,16.75-9.99
					c10.4,0,14.93,5.39,16.9,9.9c2.4,5.51,3.56,13.03,3.56,23.01v159.97c0,6.89-1.77,12.96-5.27,18.06l0,0
					C1056.94,402.2,1051.68,405.12,1045.53,405.12z M1045.53,194.21c-6.17,0-8,2.52-8.9,4.72c-1.79,4.36-2.7,10.99-2.7,19.71v159.97
					c0,5.25,1.19,9.6,3.64,13.32c2.1,3.2,4.63,4.69,7.96,4.69c3.37,0,5.97-1.51,8.2-4.76l0,0c2.55-3.71,3.78-8.04,3.78-13.26V218.64
					c0-8.67-0.96-15.27-2.85-19.62C1053.68,196.78,1051.76,194.21,1045.53,194.21z"/>
			</g>
		</g>
	</g>
	<g>
		<text transform="matrix(1 0 0 1 176.9451 34.4448)" class="st1 st2 st3 st4">Vertagear x Swarovski / Limited Edition</text>
	</g>
	<g>
		<text transform="matrix(1 0 0 1 407.7645 604.8374)" class="st1 st2 st3 st4">COMING SOON</text>
	</g>
</g>
<rect x="410.17" y="539.39" class="st0" width="315.46" height="3.99"/>
</svg>
