<?xml version="1.0" encoding="utf-8"?>
<!-- Generator: Adobe Illustrator 25.0.0, SVG Export Plug-In . SVG Version: 6.00 Build 0)  -->
<svg version="1.1" id="Capa_1" xmlns="http://www.w3.org/2000/svg" xmlns:xlink="http://www.w3.org/1999/xlink" x="0px" y="0px"
	 viewBox="0 0 212.64 213.94" style="enable-background:new 0 0 212.64 213.94;" xml:space="preserve">
<style type="text/css">
	.st0{fill:#FFFFFF;}
</style>
<g>
	<path class="st0" d="M74.62,4.85c-0.77,0.24-1.53,0.48-2.29,0.74l7.07,17.86L74.62,4.85z"/>
	<path class="st0" d="M113.73,0.25l-0.31,19.2l2.69-19.04C115.33,0.34,114.53,0.3,113.73,0.25"/>
	<path class="st0" d="M66.7,7.68c-0.74,0.3-1.48,0.6-2.21,0.91l8.44,17.25L66.7,7.68z"/>
	<path class="st0" d="M5.15,72.79c-0.25,0.76-0.5,1.52-0.73,2.28L23,79.84L5.15,72.79z"/>
	<path class="st0" d="M132.68,3.22c-0.77-0.19-1.55-0.38-2.33-0.55l-3.31,18.94L132.68,3.22z"/>
	<path class="st0" d="M140.74,5.59c-0.76-0.26-1.52-0.5-2.29-0.74l-4.78,18.62L140.74,5.59z"/>
	<path class="st0" d="M122.09,1.12l-1.81,19.14l4.18-18.75C123.67,1.37,122.88,1.24,122.09,1.12"/>
	<path class="st0" d="M51.66,15.15c-0.69,0.41-1.38,0.8-2.06,1.23L60.65,32.1L51.66,15.15z"/>
	<path class="st0" d="M44.62,19.73c-0.65,0.46-1.29,0.94-1.93,1.42l12.22,14.78L44.62,19.73z"/>
	<path class="st0" d="M15.95,50.07c-0.42,0.68-0.85,1.35-1.26,2.03l16.96,8.98L15.95,50.07z"/>
	<path class="st0" d="M148.58,8.6c-0.73-0.31-1.46-0.64-2.2-0.94l-6.24,18.2L148.58,8.6z"/>
	<path class="st0" d="M20.7,43.14c-0.48,0.64-0.95,1.28-1.41,1.93l16.19,10.28L20.7,43.14z"/>
	<path class="st0" d="M8.16,64.94c-0.32,0.74-0.64,1.46-0.94,2.21l18.17,6.23L8.16,64.94z"/>
	<path class="st0" d="M11.74,57.34c-0.37,0.71-0.71,1.43-1.06,2.15l17.6,7.62L11.74,57.34z"/>
	<path class="st0" d="M37.97,24.86c-0.61,0.51-1.21,1.04-1.81,1.56L49.5,40.2L37.97,24.86z"/>
	<path class="st0" d="M31.75,30.51c-0.57,0.56-1.15,1.11-1.71,1.68l14.39,12.69L31.75,30.51z"/>
	<path class="st0" d="M25.97,36.6c-0.53,0.6-1.03,1.22-1.54,1.83l15.32,11.51L25.97,36.6z"/>
	<path class="st0" d="M59.03,11.1c-0.72,0.35-1.42,0.74-2.12,1.11l9.76,16.52L59.03,11.1z"/>
	<path class="st0" d="M90.98,1.14c-0.79,0.12-1.58,0.21-2.37,0.34l4.19,18.75L90.98,1.14z"/>
	<path class="st0" d="M82.73,2.66c-0.78,0.18-1.55,0.38-2.33,0.57l5.64,18.35L82.73,2.66z"/>
	<path class="st0" d="M99.34,0.23c-0.8,0.05-1.59,0.15-2.38,0.22l2.69,18.98L99.34,0.23z"/>
	<path class="st0" d="M208.66,75.07c-0.24-0.76-0.48-1.53-0.73-2.28l-17.88,7.07L208.66,75.07z"/>
	<path class="st0" d="M113.73,213.71c0.8-0.05,1.59-0.15,2.38-0.22l-2.69-18.97L113.73,213.71z"/>
	<path class="st0" d="M130.34,211.28c0.78-0.18,1.55-0.38,2.33-0.57l-5.63-18.34L130.34,211.28z"/>
	<path class="st0" d="M205.84,67.15c-0.3-0.74-0.6-1.48-0.92-2.22l-17.26,8.45L205.84,67.15z"/>
	<path class="st0" d="M122.09,212.8c0.79-0.11,1.58-0.21,2.37-0.34l-4.18-18.75L122.09,212.8z"/>
	<path class="st0" d="M163.45,16.4c-0.68-0.42-1.34-0.85-2.03-1.26l-9,16.98L163.45,16.4z"/>
	<path class="st0" d="M183.01,32.2c-0.56-0.57-1.11-1.15-1.68-1.71L168.63,44.9L183.01,32.2z"/>
	<path class="st0" d="M170.38,21.15c-0.64-0.48-1.28-0.95-1.93-1.41l-10.3,16.22L170.38,21.15z"/>
	<path class="st0" d="M176.93,26.41c-0.6-0.53-1.22-1.03-1.83-1.54l-11.53,15.34L176.93,26.41z"/>
	<path class="st0" d="M156.19,12.18c-0.71-0.37-1.43-0.71-2.15-1.07l-7.63,17.63L156.19,12.18z"/>
	<path class="st0" d="M193.79,45.07c-0.46-0.65-0.94-1.29-1.41-1.93l-14.8,12.23L193.79,45.07z"/>
	<path class="st0" d="M198.37,52.11c-0.41-0.68-0.8-1.38-1.23-2.06L181.4,61.11L198.37,52.11z"/>
	<path class="st0" d="M188.66,38.42c-0.51-0.61-1.04-1.22-1.56-1.82l-13.79,13.36L188.66,38.42z"/>
	<path class="st0" d="M202.43,59.48c-0.36-0.72-0.74-1.42-1.11-2.12l-16.54,9.77L202.43,59.48z"/>
	<path class="st0" d="M138.45,209.09c0.76-0.24,1.52-0.48,2.28-0.74l-7.06-17.86L138.45,209.09z"/>
	<path class="st0" d="M154.04,202.85c0.72-0.36,1.42-0.74,2.12-1.11l-9.76-16.52L154.04,202.85z"/>
	<path class="st0" d="M181.31,183.45c0.57-0.56,1.15-1.11,1.71-1.68l-14.39-12.7L181.31,183.45z"/>
	<path class="st0" d="M161.4,198.8c0.69-0.41,1.38-0.8,2.06-1.23l-11.04-15.72L161.4,198.8z"/>
	<path class="st0" d="M175.09,189.09c0.61-0.51,1.21-1.04,1.81-1.56l-13.34-13.77L175.09,189.09z"/>
	<path class="st0" d="M168.44,194.22c0.65-0.47,1.29-0.94,1.93-1.42l-12.22-14.78L168.44,194.22z"/>
	<path class="st0" d="M146.36,206.27c0.74-0.3,1.48-0.6,2.22-0.91l-8.44-17.25L146.36,206.27z"/>
	<path class="st0" d="M105.34,213.91c0.8,0.01,1.59,0.03,2.39,0.02l-1.2-19.15L105.34,213.91z"/>
	<path class="st0" d="M107.73,0.03c-0.8-0.01-1.59-0.03-2.39-0.02l1.2,19.15L107.73,0.03z"/>
	<path class="st0" d="M210.29,133.13c0.19-0.77,0.38-1.55,0.55-2.33l-18.92-3.31L210.29,133.13z"/>
	<path class="st0" d="M204.91,149.03c0.31-0.74,0.64-1.46,0.94-2.21l-18.18-6.23L204.91,149.03z"/>
	<path class="st0" d="M207.92,141.19c0.25-0.76,0.49-1.52,0.73-2.28l-18.6-4.78L207.92,141.19z"/>
	<path class="st0" d="M99.34,213.68l0.31-19.12l-2.7,18.97C97.75,213.6,98.54,213.63,99.34,213.68"/>
	<path class="st0" d="M187.09,177.36c0.52-0.6,1.03-1.22,1.54-1.83l-15.33-11.52L187.09,177.36z"/>
	<path class="st0" d="M210.85,83.18c-0.18-0.78-0.38-1.55-0.57-2.33l-18.36,5.64L210.85,83.18z"/>
	<path class="st0" d="M201.32,156.63c0.38-0.71,0.71-1.43,1.07-2.15l-17.61-7.63L201.32,156.63z"/>
	<path class="st0" d="M192.36,170.82c0.48-0.64,0.95-1.28,1.41-1.94l-16.19-10.29L192.36,170.82z"/>
	<path class="st0" d="M197.11,163.89c0.42-0.68,0.85-1.35,1.27-2.04l-16.97-8.99L197.11,163.89z"/>
	<path class="st0" d="M2.23,130.8c0.17,0.78,0.38,1.55,0.57,2.32l18.33-5.63L2.23,130.8z"/>
	<path class="st0" d="M14.72,161.85c0.41,0.68,0.8,1.38,1.22,2.05l15.7-11.02L14.72,161.85z"/>
	<path class="st0" d="M90.99,212.82l1.82-19.07l-4.18,18.68C89.42,212.56,90.2,212.7,90.99,212.82"/>
	<path class="st0" d="M19.3,168.89c0.46,0.65,0.94,1.29,1.41,1.93l14.76-12.2L19.3,168.89z"/>
	<path class="st0" d="M24.43,175.54c0.51,0.61,1.03,1.21,1.56,1.81l13.75-13.31L24.43,175.54z"/>
	<path class="st0" d="M7.25,146.82c0.3,0.74,0.6,1.48,0.91,2.21l17.23-8.43L7.25,146.82z"/>
	<path class="st0" d="M30.08,181.76c0.56,0.57,1.1,1.15,1.67,1.7l12.67-14.36L30.08,181.76z"/>
	<path class="st0" d="M2.78,80.85c-0.19,0.77-0.38,1.55-0.55,2.33l18.89,3.3L2.78,80.85z"/>
	<path class="st0" d="M4.43,138.91c0.24,0.76,0.48,1.52,0.73,2.28L23,134.13L4.43,138.91z"/>
	<path class="st0" d="M10.67,154.49c0.35,0.72,0.74,1.41,1.1,2.12l16.5-9.75L10.67,154.49z"/>
	<path class="st0" d="M36.17,187.54c0.6,0.52,1.22,1.03,1.83,1.54l11.5-15.29L36.17,187.54z"/>
	<path class="st0" d="M72.35,208.35c0.76,0.26,1.52,0.5,2.28,0.73l4.78-18.55L72.35,208.35z"/>
	<path class="st0" d="M80.41,210.72c0.77,0.19,1.55,0.38,2.33,0.55l3.31-18.87L80.41,210.72z"/>
	<path class="st0" d="M64.51,205.35c0.73,0.31,1.46,0.64,2.2,0.94l6.23-18.14L64.51,205.35z"/>
	<path class="st0" d="M42.71,192.81c0.64,0.48,1.28,0.95,1.93,1.41l10.27-16.16L42.71,192.81z"/>
	<path class="st0" d="M56.9,201.77c0.71,0.37,1.43,0.71,2.15,1.06l7.62-17.57L56.9,201.77z"/>
	<path class="st0" d="M49.64,197.55c0.68,0.42,1.35,0.85,2.03,1.26l8.97-16.93L49.64,197.55z"/>
	<path class="st0" d="M111.4,10.19c-0.63,0.14-1.28,0.26-1.94,0.37l0.44,14.72L111.4,10.19z"/>
	<path class="st0" d="M134.98,30.32l6.13-14c-0.58-0.45-1.13-0.92-1.63-1.4L134.98,30.32z"/>
	<path class="st0" d="M116.93,204.25c0.45,0.15,0.92,0.28,1.33,0.45l0.93,0.39l-3.2-16.93L116.93,204.25z"/>
	<path class="st0" d="M139.84,200.7l1.31-1.59c0.09-0.11,0.22-0.22,0.32-0.32l-6.78-15.07L139.84,200.7z"/>
	<path class="st0" d="M127.89,6.74c-0.88-0.19-1.76-0.27-2.64-0.33l-2.61,20.41L127.89,6.74z"/>
	<path class="st0" d="M118.46,7.5l-1.3,0.6l-0.86,17.7l3.34-18.68C119.25,7.25,118.83,7.33,118.46,7.5"/>
	<path class="st0" d="M135.1,10.4c-0.66-0.61-1.36-1.16-2.15-1.64l-4.08,19.57L135.1,10.4z"/>
	<path class="st0" d="M147.56,193.94l-6.94-12.67l5.35,13.68C146.49,194.6,147.01,194.26,147.56,193.94"/>
	<path class="st0" d="M133,205.89c0.83-0.32,1.64-0.7,2.39-1.15l-6.82-19.05L133,205.89z"/>
	<path class="st0" d="M181.42,167.28c0.35-0.51,0.69-1.02,1.07-1.51l-11.84-8.07L181.42,167.28z"/>
	<path class="st0" d="M177.87,174.44c0.2-0.69,0.44-1.4,0.74-2.11l-12.15-9.76L177.87,174.44z"/>
	<path class="st0" d="M181.48,46.82l-10.65,9.66l11.9-8.29C182.3,47.75,181.89,47.28,181.48,46.82"/>
	<path class="st0" d="M162.97,189.75c0.07,0,0.15-0.03,0.22-0.03l-11.37-14.69l8.7,14.85L162.97,189.75z"/>
	<path class="st0" d="M154.52,190.85l-8.18-12.49l6.36,13.12C153.31,191.26,153.92,191.03,154.52,190.85"/>
	<path class="st0" d="M168.72,188.05c0.79-0.41,1.54-0.88,2.26-1.42l-13.96-15.37L168.72,188.05z"/>
	<path class="st0" d="M174.78,182.78c0.52-0.74,0.97-1.51,1.34-2.31l-14.2-13.36L174.78,182.78z"/>
	<path class="st0" d="M125.06,206.92c0.88,0.1,1.77,0.14,2.67,0.09l-5.39-19.83L125.06,206.92z"/>
	<path class="st0" d="M199,151.11c0.43-0.78,0.8-1.59,1.1-2.43l-19.39-7.36L199,151.11z"/>
	<path class="st0" d="M200.87,140.73l-0.03-0.17l-17.66-5.16l17.94,7.85C201.11,142.4,201.04,141.55,200.87,140.73"/>
	<path class="st0" d="M199.13,79.95l-13.87,4.97l14.11-3.09C199.27,81.2,199.2,80.58,199.13,79.95"/>
	<path class="st0" d="M199.84,134.39c-0.04-0.67-0.06-1.34-0.04-2.03l-14.63-3.05L199.84,134.39z"/>
	<path class="st0" d="M194.55,56.27l-16.61,10.88l18.43-8.94C195.82,57.51,195.21,56.87,194.55,56.27"/>
	<path class="st0" d="M195.57,155.44l-17.78-8.4l15.58,9.98C194.16,156.59,194.88,156.05,195.57,155.44"/>
	<path class="st0" d="M199.21,73.78l0.41-2.31l-16.33,7.35l15.9-4.82C199.2,73.93,199.2,73.85,199.21,73.78"/>
	<path class="st0" d="M199,62.93l-18.16,9.95l18.88-7.39C199.56,64.63,199.3,63.77,199,62.93"/>
	<path class="st0" d="M157.27,42.86L171,27.42c-0.62-0.64-1.3-1.21-2.02-1.74L157.27,42.86z"/>
	<path class="st0" d="M152.08,39.08l12.03-15.88c-0.87-0.27-1.75-0.46-2.63-0.55L152.08,39.08z"/>
	<path class="st0" d="M188.67,52.71c-0.47-0.24-0.93-0.54-1.4-0.84l-12.68,9.81l14.74-8.63L188.67,52.71z"/>
	<path class="st0" d="M153.12,21.93l-6.51,13.78l8.6-13.42C154.54,22.21,153.83,22.09,153.12,21.93"/>
	<path class="st0" d="M174.69,33.54c-0.14-0.49-0.36-0.95-0.55-1.43l-12,14.93l12.87-12.36L174.69,33.54z"/>
	<path class="st0" d="M146,19.37l-5.09,13.42l6.76-12.64C147.1,19.9,146.55,19.64,146,19.37"/>
	<path class="st0" d="M31.58,167.11l10.68-9.68l-11.93,8.31C30.76,166.18,31.17,166.64,31.58,167.11"/>
	<path class="st0" d="M109.3,203.04c0.63,0.02,1.25,0.03,1.86,0.09l-1.58-14.47L109.3,203.04z"/>
	<path class="st0" d="M177.12,40.49l-10.44,11.1l11.41-9.36C177.74,41.65,177.42,41.07,177.12,40.49"/>
	<path class="st0" d="M38.38,180.4c0.13,0.48,0.35,0.94,0.54,1.4l12.01-14.94l-12.88,12.38L38.38,180.4z"/>
	<path class="st0" d="M11.97,70.66c0,0.86,0.07,1.72,0.24,2.55l0.03,0.14l17.68,5.17L11.97,70.66z"/>
	<path class="st0" d="M26.73,52.37c-0.52,0.47-1.05,0.89-1.58,1.3l13.53,7.75L26.73,52.37z"/>
	<path class="st0" d="M14.09,62.81c-0.43,0.78-0.8,1.58-1.11,2.42l19.4,7.36L14.09,62.81z"/>
	<path class="st0" d="M13.27,81.55l14.65,3.06l-14.68-5.1C13.27,80.18,13.29,80.86,13.27,81.55"/>
	<path class="st0" d="M13.94,133.96l13.89-4.97l-14.13,3.1C13.81,132.71,13.88,133.33,13.94,133.96"/>
	<path class="st0" d="M94.62,206.45l1.28-0.58l0.87-17.75l-3.36,18.75C93.81,206.73,94.23,206.62,94.62,206.45"/>
	<path class="st0" d="M103.78,10.91c-0.62-0.01-1.24-0.03-1.85-0.08l1.57,14.46L103.78,10.91z"/>
	<path class="st0" d="M96.16,9.71c-0.46-0.15-0.94-0.28-1.36-0.46L93.9,8.87l3.2,16.91L96.16,9.71z"/>
	<path class="st0" d="M14.07,150.98l18.18-9.96l-18.89,7.39C13.51,149.29,13.76,150.14,14.07,150.98"/>
	<path class="st0" d="M24.41,161.23c0.46,0.23,0.91,0.53,1.37,0.82l12.71-9.82l-14.76,8.65L24.41,161.23z"/>
	<path class="st0" d="M101.66,203.76c0.63-0.14,1.27-0.26,1.93-0.37l-0.43-14.77L101.66,203.76z"/>
	<path class="st0" d="M187.95,160.25l-13.53-7.74l11.94,9.04C186.89,161.09,187.42,160.66,187.95,160.25"/>
	<path class="st0" d="M18.5,157.64l16.65-10.89l-18.46,8.95C17.24,156.41,17.85,157.05,18.5,157.64"/>
	<path class="st0" d="M17.53,58.47l17.78,8.4L19.73,56.9C18.95,57.33,18.22,57.87,17.53,58.47"/>
	<path class="st0" d="M85.16,207.24c0.87,0.19,1.75,0.31,2.63,0.36l2.63-20.51L85.16,207.24z"/>
	<path class="st0" d="M13.87,140.15l-0.4,2.28l16.33-7.34l-15.91,4.82C13.88,139.99,13.88,140.08,13.87,140.15"/>
	<path class="st0" d="M58.58,23.08l8.18,12.49l-6.36-13.12C59.78,22.67,59.18,22.9,58.58,23.08"/>
	<path class="st0" d="M44.37,25.88c-0.79,0.41-1.54,0.88-2.25,1.41l13.96,15.39L44.37,25.88z"/>
	<path class="st0" d="M77.94,203.59c0.66,0.6,1.37,1.14,2.15,1.61l4.1-19.62L77.94,203.59z"/>
	<path class="st0" d="M88.03,7.03c-0.88-0.1-1.76-0.13-2.66-0.09l5.39,19.82L88.03,7.03z"/>
	<path class="st0" d="M35.2,39.46c-0.2,0.7-0.43,1.4-0.73,2.12l12.17,9.78L35.2,39.46z"/>
	<path class="st0" d="M36.97,33.44l14.22,13.4L38.31,31.14C37.8,31.88,37.34,32.64,36.97,33.44"/>
	<path class="st0" d="M65.54,20l6.94,12.67l-5.35-13.69C66.6,19.33,66.08,19.67,65.54,20"/>
	<path class="st0" d="M80.09,8.06c-0.83,0.32-1.64,0.7-2.39,1.14l6.83,19.06L80.09,8.06z"/>
	<path class="st0" d="M73.25,13.22l-1.34,1.61c-0.09,0.1-0.2,0.2-0.29,0.3l6.79,15.1L73.25,13.22z"/>
	<path class="st0" d="M50.1,24.2c-0.06,0-0.12,0.02-0.18,0.03l11.35,14.68l-8.7-14.84L50.1,24.2z"/>
	<path class="st0" d="M67.05,194.56l5.11-13.45l-6.78,12.68C65.95,194.03,66.51,194.29,67.05,194.56"/>
	<path class="st0" d="M78.09,183.58l-6.14,14.02c0.58,0.45,1.13,0.91,1.63,1.39L78.09,183.58z"/>
	<path class="st0" d="M30.61,48.15l11.85,8.08l-10.79-9.59C31.33,47.15,30.99,47.66,30.61,48.15"/>
	<path class="st0" d="M59.92,192.01l6.53-13.81l-8.62,13.45C58.52,191.73,59.21,191.85,59.92,192.01"/>
	<path class="st0" d="M60.99,174.83l-12.05,15.91c0.87,0.27,1.74,0.45,2.62,0.55L60.99,174.83z"/>
	<path class="st0" d="M35.94,173.43l10.47-11.1l-11.44,9.38C35.32,172.27,35.64,172.85,35.94,173.43"/>
	<path class="st0" d="M55.81,171.05l-13.75,15.46c0.62,0.63,1.3,1.21,2.01,1.74L55.81,171.05z"/>
	<path class="st0" d="M46.97,54.4c0,4.39,3.4,7.57,8.08,7.57c2.78,0,5.1-1.01,6.72-2.92l0.09-0.11l-1.56-1.7l-0.11,0.12
		c-1.62,1.62-2.97,2.22-5,2.22c-2.83,0-5.88-1.61-5.88-5.14c0-2.99,2.29-5.16,5.44-5.16c1.76,0,3.32,0.65,5.05,2.1l0.1,0.08
		l1.76-1.5l-0.12-0.12c-1.98-1.91-4.36-2.93-6.9-2.93C50.26,46.9,46.97,50.13,46.97,54.4"/>
	<path class="st0" d="M78.22,51.55c0-2.62-1.8-4.31-4.59-4.31h-8.49v14.38h2.37V55.8h4.99l2.79,5.74l0.04,0.09H78l-2.95-5.96
		C77.1,55.11,78.22,53.65,78.22,51.55 M73.64,53.43h-6.12V49.6h6.12c1.02,0,2.24,0.32,2.24,1.84
		C75.88,53.17,74.47,53.43,73.64,53.43"/>
	<polygon class="st0" points="86.45,53.09 82.28,47.31 82.23,47.24 79.37,47.24 85.24,55.43 85.24,61.63 87.59,61.63 87.59,55.43 
		93.55,47.24 90.61,47.24 	"/>
	<path class="st0" d="M101.12,61.95c3.14,0,6.81-1.2,6.81-4.59c0-1.54-0.75-2.86-2.06-3.65c-1.46-0.87-2.85-0.87-4.33-0.87h-2.09
		c-1.51,0-2.22-0.47-2.22-1.46c0-1.67,2.6-2.11,3.98-2.11c1.71,0,2.73,0.45,4.35,1.45l0.13,0.08l1.32-1.89l-0.12-0.09
		c-1.69-1.28-3.74-1.95-5.94-1.95c-0.87,0-1.7,0.12-2.48,0.37c-1.75,0.57-3.62,1.96-3.62,4.16c0,2.72,2.34,3.72,4.34,3.76l2.11,0.04
		c2.04,0.04,2.72,0.07,3.43,0.52c0.58,0.38,0.87,0.87,0.87,1.47c0,1.87-2.64,2.37-4.2,2.37c-2.52,0-4.09-0.58-5.78-2.15l-0.11-0.1
		l-1.66,1.59l0.11,0.11C95.99,61.07,98.13,61.95,101.12,61.95"/>
	<polygon class="st0" points="109.87,49.61 114.89,49.61 114.89,61.63 117.2,61.63 117.2,49.61 122.16,49.61 122.16,47.24 
		109.87,47.24 	"/>
	<path class="st0" d="M130.79,47.26h-2.47l-6.44,14.14l-0.1,0.22h2.57l2.1-4.58h6.11l1.98,4.49l0.04,0.09h2.64l-6.4-14.27
		L130.79,47.26z M127.53,54.66l1.98-4.37l1.99,4.37H127.53z"/>
	<polygon class="st0" points="140.11,61.63 151.04,61.63 151.04,59.26 142.48,59.26 142.48,47.24 140.11,47.24 	"/>
	<path class="st0" d="M160.2,59.56c-2.52,0-4.08-0.58-5.77-2.15l-0.11-0.1l-1.66,1.59l0.11,0.11c2.03,2.06,4.16,2.93,7.15,2.93
		c3.14,0,6.82-1.2,6.82-4.59c0-1.53-0.75-2.86-2.06-3.65c-1.47-0.87-2.86-0.87-4.33-0.87h-2.09c-1.51,0-2.22-0.47-2.22-1.46
		c0-1.67,2.6-2.11,3.98-2.11c1.71,0,2.72,0.45,4.35,1.45l0.12,0.08l1.32-1.89l-0.12-0.09c-1.7-1.28-3.75-1.95-5.94-1.95
		c-0.87,0-1.7,0.12-2.48,0.37c-1.75,0.57-3.62,1.96-3.62,4.16c0,2.72,2.34,3.73,4.34,3.76l2.11,0.04c2.05,0.04,2.73,0.07,3.43,0.52
		c0.58,0.38,0.87,0.87,0.87,1.47C164.41,59.06,161.77,59.56,160.2,59.56"/>
	<path class="st0" d="M161.08,143.17c0.8-0.52,1.63-1.02,2.43-1.55c0.12-0.07,0.17-0.27,0.24-0.41c-0.17-0.01-0.35-0.09-0.49-0.03
		c-0.4,0.17-0.78,0.38-1.17,0.6c-0.74,0.44-1.48,0.88-2.21,1.34c-0.11,0.07-0.19,0.28-0.19,0.43c0,0.07,0.18,0.15,0.3,0.23
		c0.18-0.08,0.33-0.12,0.47-0.2C160.68,143.46,160.86,143.3,161.08,143.17"/>
	<path class="st0" d="M159.17,147.33c0.04,0.04,0.18,0.02,0.26-0.01c0.39-0.18,0.53-0.5,0.58-0.92c0.07-0.57-0.43-1.2-1-1.22
		c-0.02-0.03-0.04-0.06-0.06-0.08c-0.2,0.14-0.5,0.25-0.58,0.43c-0.11,0.33,0.29,0.3,0.47,0.42c0.03,0.02,0.08,0.01,0.1,0.04
		c0.07,0.07,0.18,0.16,0.18,0.25c-0.01,0.26-0.07,0.52-0.09,0.77C159.04,147.12,159.09,147.24,159.17,147.33"/>
	<path class="st0" d="M116.04,153.9c0.1-0.03,0.23-0.04,0.3,0.01c0.19,0.13,0.36,0.11,0.57,0.09c0.62-0.04,1.25,0.02,1.87,0.02
		c0.52,0,1.03-0.02,1.55-0.02c0.45,0,0.9,0.02,1.37,0.03c0.32,0.01,0.65-0.01,0.97-0.01c0.34,0.01,0.68,0.08,1,0.08
		c0.65-0.01,1.31-0.07,1.95-0.09c0.38-0.02,0.76,0.01,1.14,0.01c0.52,0.02,1.04,0.06,1.56,0.08c0.2,0.01,0.39,0.04,0.59,0.02
		c0.41-0.02,0.83-0.08,1.24-0.09c0.39-0.01,0.79,0.05,1.17,0.05c0.76-0.02,1.5-0.09,2.26-0.1c0.49,0,0.97,0.1,1.46,0.1
		c0.98,0.01,1.94-0.03,2.92-0.03c0.81,0,1.61,0.05,2.42,0.04c0.64,0,1.29-0.07,1.93-0.07c1.36,0.01,2.7,0.05,4.06,0.07
		c1.22,0.02,2.42,0.05,3.64,0.07c0.69,0.01,1.39,0.02,2.08,0.03c0.77,0,1.54,0.01,2.31,0.01c1.02-0.01,2.07-0.03,3.11-0.03
		c1.27,0.01,2.55,0.05,3.83,0.07c0.58,0,1.16-0.05,1.73-0.04c0.4,0.01,0.81,0.1,1.21,0.1c0.99,0.01,1.99-0.02,2.98,0.09
		c0.75,0.08,1.5,0.08,2.25,0.13c0.55,0.03,1.09,0.09,1.64,0.14c0.05,0.01,0.11-0.03,0.17-0.02c0.49,0.12,0.98,0.23,1.47,0.35
		c0.04,0.01,0.07,0.08,0.12,0.15c-0.12,0.06-0.22,0.14-0.32,0.16c-0.78,0.11-1.56,0.25-2.34,0.32c-0.76,0.07-1.52,0.08-2.29,0.08
		c-1.82-0.01-3.64-0.03-5.46-0.08c-1.37-0.03-2.72-0.09-4.09-0.17c-1.07-0.06-2.15-0.19-3.23-0.26c-1.25-0.09-2.51-0.16-3.77-0.22
		c-0.46-0.02-0.91-0.01-1.37-0.02c-0.61-0.03-1.22-0.07-1.83-0.07c-1.17-0.03-2.35-0.03-3.54-0.03c-0.15,0-0.3,0.07-0.46,0.1
		c0.13,0.1,0.27,0.21,0.39,0.31c0.03,0.01,0.07,0.01,0.11,0.01c0.77,0.05,1.55,0.13,2.33,0.14c1.09,0.03,2.19,0,3.3,0.04
		c1.2,0.03,2.38,0.11,3.58,0.18c0.61,0.05,1.22,0.11,1.82,0.18c0.53,0.05,1.06,0.16,1.6,0.18c1.04,0.05,2.1,0.05,3.15,0.07
		c0.7,0.01,1.4,0.03,2.1,0.05c0.54,0.02,1.07,0.07,1.61,0.07c0.66,0.01,1.31-0.02,1.97,0c0.8,0.02,1.6,0.13,2.41,0.12
		c0.92-0.02,1.83-0.11,2.75-0.19c0.4-0.04,0.81-0.13,1.2-0.21c0.51-0.11,0.9-0.5,0.86-0.87c-0.03-0.33-0.46-0.61-0.96-0.65
		c-0.31-0.04-0.61-0.11-0.92-0.14c-1.03-0.07-2.05-0.13-3.07-0.2c-1.01-0.07-2.03-0.13-3.04-0.19c-0.37-0.03-0.74-0.09-1.1-0.09
		c-1.19,0.01-2.39,0.07-3.59,0.06c-1-0.01-2-0.08-3-0.11c-0.79-0.02-1.59-0.02-2.38-0.01c-0.98,0.01-1.94,0.06-2.91,0.04
		c-1.78-0.03-3.56-0.09-5.33-0.13c-0.93-0.02-1.87-0.05-2.81-0.07c-0.57-0.01-1.13-0.01-1.69-0.02c-0.54-0.01-1.07-0.02-1.61-0.02
		c-0.3,0-0.6-0.01-0.9-0.01c-0.86,0.01-1.73,0.04-2.6,0.04c-0.83,0-1.68-0.04-2.52-0.04c-0.95-0.01-1.9,0.01-2.84,0.01
		c-1.01,0-2.05-0.03-3.07-0.02c-1.26,0-2.51,0.04-3.78,0.04c-0.73,0-1.47-0.04-2.21-0.04c-0.31,0-0.64,0.05-0.97,0.04
		c-0.96-0.01-1.93-0.04-2.89-0.05c-0.95-0.02-1.89-0.03-2.84-0.04c-0.86-0.01-1.71-0.01-2.57,0.01c-0.9,0.02-1.81,0.09-2.71,0.09
		c-0.86,0.01-1.71-0.05-2.55-0.09c-0.16-0.01-0.25-0.08-0.14-0.25c0.08-0.14,0.18-0.26,0.25-0.4c0.04-0.11,0.04-0.21,0.06-0.32
		c-0.13-0.03-0.29-0.11-0.37-0.06c-0.24,0.14-0.49,0.29-0.63,0.51c-0.25,0.38-0.54,0.55-1,0.54c-0.65-0.02-1.31,0.03-1.97,0.03
		c-0.69,0.01-1.38-0.01-2.06-0.02c-0.33-0.01-0.66-0.05-0.98-0.04c-0.79,0.02-1.56,0.08-2.35,0.08c-1.42,0.01-2.83-0.01-4.25,0.01
		c-0.99,0.01-1.98,0.06-2.97,0.09c-1.7,0.07-3.41,0.15-5.12,0.22c-0.62,0.03-1.24,0.04-1.85,0.04c-0.77,0.01-1.55-0.03-2.31-0.02
		c-0.74,0-1.48,0.09-2.21,0.02c-0.75-0.06-1.49-0.26-2.23-0.41c-1.04-0.22-2.06-0.45-3.1-0.65c-0.67-0.12-1.36-0.18-2.03-0.29
		c-0.87-0.14-1.73-0.35-2.59-0.45c-1.59-0.19-3.19-0.33-4.78-0.48c-0.81-0.07-1.62-0.13-2.44-0.16c-0.43-0.02-0.85,0.05-1.27,0.03
		c-0.55-0.01-1.09-0.1-1.64-0.12c-1.03-0.03-2.06-0.03-3.08-0.03c-1.38-0.01-2.77-0.02-4.16,0.01c-1.49,0.05-2.97,0.11-4.46,0.22
		c-1.1,0.09-2.19,0.28-3.29,0.4c-0.52,0.06-1.05,0.04-1.58,0.12c-0.87,0.13-1.75,0.32-2.62,0.48c-0.44,0.09-0.88,0.17-1.3,0.33
		c-0.44,0.16-0.51,0.49-0.28,0.89c0.22,0.38,0.59,0.56,0.99,0.63c0.66,0.12,1.32,0.2,1.99,0.29c0.12,0.01,0.24,0.01,0.35,0
		c0.17,0,0.34-0.01,0.5,0c0.48,0.03,0.96,0.11,1.43,0.07c0.17-0.01,0.33,0,0.49,0.02c0.16,0.03,0.32,0.08,0.47,0.09
		c0.44,0.01,0.87,0.01,1.3,0.02c0.74,0.04,1.47,0.12,2.2,0.14c0.56,0.01,1.13-0.03,1.69-0.06c0.18-0.01,0.36-0.08,0.54-0.12
		c0.19,0.06,0.41,0.21,0.63,0.21c0.83-0.01,1.66-0.07,2.49-0.1c0.76-0.04,1.5-0.07,2.26-0.07c0.36-0.01,0.71,0.05,1.07,0.03
		c1.38-0.03,2.74-0.07,4.11-0.1c0.37-0.01,0.73,0.03,1.1,0.01c0.6-0.02,1.19-0.08,1.79-0.09c0.19-0.01,0.37,0.03,0.55,0.02
		c0.64-0.01,1.28-0.04,1.92-0.06c0.78-0.01,1.56-0.01,2.33-0.03c0.25-0.01,0.49-0.11,0.74-0.12c0.79-0.02,1.58,0,2.38-0.02
		c0.58-0.01,1.16-0.07,1.75-0.08c0.8-0.01,1.61,0.09,2.4,0.02c1.31-0.11,2.6,0.13,3.88,0.32c0.98,0.14,1.93,0.42,2.89,0.66
		c0.43,0.11,0.85,0.26,1.27,0.41c0.59,0.19,1.18,0.39,1.78,0.58c0.56,0.17,1.13,0.3,1.68,0.51c0.88,0.32,1.74,0.69,2.61,1.04
		c0.28,0.1,0.56,0.2,0.83,0.29c0.23,0.08,3.28,1.43,5.02,2.18c1.73,0.75,2.64,1.5,3.3,1.92c0.37,0.23,0.75,0.41,1.09,0.67
		c0.54,0.39,1.05,0.81,1.56,1.24c0.32,0.27,0.59,0.58,0.62,1.03c0.1,1.21,0.29,2.41,0.64,3.58c0.17,0.56,0.36,1.12,0.78,1.57
		c0.23,0.24,0.51,0.53,0.8,0.58c0.68,0.11,1.34-0.35,1.16-1.35c-0.22-1.25-0.98-2.22-1.59-3.27c-0.37-0.62-0.99-1.11-1.04-1.91
		c-0.01-0.21,0.02-0.42,0.03-0.61c0.06-0.68,0.07-1.38,0.2-2.05c0.16-0.79,0.43-1.57,0.65-2.35c0.07-0.28,0.16-0.55,0.26-0.81
		c0.29-0.75,0.6-1.49,0.9-2.24c0.1-0.25,0.18-0.51,0.31-0.75c0.23-0.46,0.55-0.89,0.73-1.35c0.13-0.36,0.34-0.43,0.64-0.43
		c0.4,0.01,0.81,0.03,1.2,0.03c0.37,0,0.75-0.03,1.12-0.04c0.45-0.02,0.89-0.04,1.33-0.05c0.12,0,0.23,0.08,0.36,0.11
		c0.6-0.07,1.24-0.1,1.86-0.09C114.78,153.89,115.4,154.1,116.04,153.9 M77.83,153.94c-1.65,0.04-3.31,0.09-4.96,0.14
		c-1.43,0.04-2.86,0.07-4.29,0.1c-1.21,0.04-2.42,0.06-3.64,0.09c-0.85,0.03-1.7,0.08-2.55,0.1c-0.69,0.01-1.38-0.02-2.07-0.01
		c-1.28,0.02-2.56-0.03-3.83,0.09c-1.08,0.1-2.14-0.03-3.22,0c-0.77,0.01-1.54-0.02-2.31-0.02c-0.71,0-1.43,0.04-2.14,0
		c-0.85-0.04-1.69-0.19-2.53-0.24c-1.22-0.07-2.45-0.05-3.67-0.14c-0.57-0.04-1.13-0.24-1.69-0.39c-0.09-0.03-0.15-0.14-0.23-0.21
		c0.08-0.06,0.16-0.14,0.24-0.17c0.75-0.32,1.55-0.47,2.35-0.59c0.61-0.08,1.22-0.11,1.83-0.18c0.59-0.07,1.17-0.21,1.76-0.27
		c0.73-0.08,1.46-0.13,2.2-0.17c0.56-0.04,1.13-0.06,1.69-0.08c0.45-0.02,0.91-0.04,1.36-0.06c0.41-0.02,0.82-0.05,1.22-0.07
		c0.47-0.02,0.95-0.04,1.42-0.04c0.35-0.01,0.71-0.02,1.07-0.01c1.17,0.01,2.34,0.04,3.51,0.04c0.67,0,1.35-0.05,2.02-0.05
		c0.27,0,0.54,0.09,0.82,0.11c1.28,0.09,2.54,0.2,3.82,0.23c1.1,0.02,2.16,0.27,3.25,0.38c0.84,0.08,1.7,0.13,2.54,0.23
		c0.58,0.07,1.15,0.21,1.73,0.31c0.83,0.13,1.67,0.26,2.49,0.4c0.48,0.08,0.96,0.15,1.43,0.25c0.14,0.02,0.27,0.08,0.41,0.13
		C77.84,153.87,77.83,153.9,77.83,153.94 M104.71,166.41c0.13,0.11,0.24,0.17,0.28,0.24c0.43,0.79,0.85,1.58,1.27,2.37
		c0.18,0.34,0.32,0.69,0.24,1.1c-0.06,0.32-0.19,0.41-0.46,0.21c-0.2-0.15-0.37-0.36-0.5-0.58c-0.19-0.32-0.34-0.66-0.49-1
		c-0.09-0.21-0.14-0.43-0.18-0.66c-0.08-0.44-0.13-0.89-0.18-1.33C104.68,166.66,104.7,166.57,104.71,166.41 M103.77,163.87
		c-0.01,0.08-0.13,0.05-0.13,0.05s-0.42-0.27-0.63-0.41c-0.29-0.21-0.59-0.44-0.87-0.66c-0.24-0.19-0.45-0.41-0.7-0.6
		c-0.54-0.38-1.09-0.75-1.65-1.1c-0.73-0.43-1.46-0.85-2.21-1.23c-0.44-0.24-0.97-0.35-1.34-0.64c-0.46-0.38-0.99-0.51-1.49-0.73
		c-0.78-0.33-1.57-0.65-2.36-0.97c-0.6-0.26-1.21-0.51-1.82-0.76c-0.31-0.12-0.62-0.23-0.94-0.32c-0.87-0.26-1.75-0.5-2.63-0.76
		c-0.9-0.27-1.79-0.59-2.71-0.84c-0.58-0.15-1.17-0.22-1.76-0.34c-0.09-0.01-0.19-0.04-0.29-0.13c0.06-0.02,0.12-0.05,0.17-0.05
		c1.39-0.03,2.79-0.06,4.18-0.09c0.7-0.02,1.4-0.04,2.1-0.04c0.76,0,1.53,0.04,2.29,0.02c0.55-0.01,1.1-0.08,1.64-0.09
		c0.32-0.01,0.64,0.04,0.96,0.05c0.19,0,0.38-0.05,0.58-0.05c1.08,0.01,2.17,0.04,3.25,0.05c0.48,0.01,0.95-0.01,1.43-0.04
		c0.23-0.01,0.48-0.08,0.72-0.08c0.61,0.01,1.23,0.03,1.85,0.05c0.11,0.01,0.21-0.01,0.31-0.02c0.86-0.09,1.72-0.11,2.58-0.03
		c0.31,0.03,0.64-0.08,0.96-0.1c0.5-0.02,1-0.01,1.56-0.01C105.39,157.16,104.1,160.37,103.77,163.87"/>
	<path class="st0" d="M152.67,141.25c0.79-0.74,1.53-1.56,2.48-2.13c0.31-0.2,0.62-0.44,0.91-0.68c0.36-0.29,0.71-0.58,1.03-0.89
		c0.08-0.07,0.06-0.25,0.08-0.37c-0.12,0.01-0.26-0.01-0.37,0.02c-0.1,0.04-0.19,0.14-0.28,0.21c-0.55,0.43-1.07,0.88-1.63,1.27
		c-0.44,0.29-0.92,0.53-1.4,0.77c-0.41,0.2-0.82,0.36-1.18,0.51c-0.15-0.16-0.23-0.25-0.31-0.35c-0.07,0.11-0.2,0.21-0.21,0.32
		c-0.04,0.31-0.25,0.4-0.47,0.5c-0.73,0.33-1.47,0.65-2.21,0.98c-1.02,0.45-2.03,0.93-3.06,1.37c-0.13,0.06-0.35,0.09-0.44,0.02
		c-0.5-0.4-1.11-0.49-1.7-0.67c-0.5-0.14-1.04-0.17-1.44-0.6c-0.08-0.1-0.35-0.11-0.47-0.05c-0.27,0.12-0.5,0.3-0.74,0.48
		c-0.43,0.29-0.82,0.6-1.26,0.85c-0.69,0.43-1.41,0.81-2.14,1.19c-0.4,0.2-0.83,0.35-1.25,0.47c-0.13,0.05-0.32-0.06-0.47-0.09
		c0.05-0.14,0.05-0.32,0.13-0.42c0.41-0.47,0.83-0.93,1.25-1.39c0.34-0.36,0.7-0.69,1.01-1.08c0.08-0.09,0.09-0.36,0.02-0.42
		c-0.11-0.08-0.32-0.11-0.47-0.08c-0.32,0.11-0.64,0.26-0.96,0.4c-0.31,0.14-0.63,0.32-0.95,0.42c-0.67,0.18-1.35,0.29-2.03,0.45
		c-0.68,0.16-0.77,0.11-0.9-0.58c-0.11-0.51-0.33-0.92-0.9-1.01c-0.15-0.02-0.29,0.02-0.45,0.04c0.08,0.12,0.13,0.31,0.25,0.36
		c0.57,0.32,0.63,0.84,0.35,1.31c-0.62,1.07-1.34,2.08-2.73,2.25c-0.51,0.07-0.73-0.1-0.63-0.61c0.02-0.16,0.11-0.33,0.2-0.47
		c0.26-0.36,0.52-0.72,0.79-1.08c0.21-0.28,0.36-0.66,0.63-0.81c0.45-0.26,0.54-0.75,0.83-1.1c0.03-0.03-0.07-0.23-0.16-0.27
		c-0.08-0.05-0.23-0.04-0.33-0.01c-0.39,0.13-0.78,0.27-1.17,0.42c-0.83,0.33-1.66,0.63-2.46,1c-1.08,0.49-2.13,1.03-3.21,1.53
		c-0.47,0.22-0.95,0.44-1.44,0.65c-0.07,0.03-0.18-0.05-0.28-0.07c0.04-0.08,0.04-0.18,0.1-0.24c0.38-0.33,0.73-0.69,1.14-0.97
		c0.48-0.33,0.99-0.59,1.13-1.22c0.07-0.3,0.18-0.6,0.24-0.9c0.02-0.18-0.01-0.42-0.11-0.55c-0.1-0.1-0.37-0.16-0.5-0.1
		c-0.61,0.25-1.2,0.54-1.79,0.83c-0.52,0.25-1.01,0.54-1.52,0.8c-0.79,0.39-1.58,0.77-2.35,1.15c-0.46,0.23-0.92,0.49-1.39,0.71
		c-0.32,0.14-0.67,0.24-0.99,0.38c-0.46,0.19-0.92,0.38-1.38,0.57c-0.07,0.02-0.23,0.01-0.24-0.03c-0.04-0.09-0.06-0.25,0-0.31
		c0.11-0.12,0.27-0.21,0.42-0.29c0.65-0.34,1.29-0.72,1.74-1.32c0.23-0.3,0.44-0.62,0.65-0.93c0.43-0.61,0.86-1.22,1.25-1.85
		c0.08-0.12,0.09-0.37,0.02-0.42c-0.13-0.1-0.32-0.12-0.5-0.13c-0.1-0.01-0.2,0.06-0.29,0.12c-0.83,0.5-1.68,0.98-2.51,1.49
		c-0.58,0.37-1.13,0.78-1.7,1.14c-0.65,0.4-1.34,0.78-2,1.16c-0.5,0.29-1.01,0.59-1.53,0.86c-0.2,0.1-0.45,0.13-0.68,0.19
		c-0.01-0.04-0.04-0.09-0.05-0.13c0.18-0.27,0.33-0.55,0.53-0.79c0.39-0.43,0.83-0.83,1.22-1.27c0.56-0.6,1.15-1.16,1.88-1.53
		c0.17-0.09,0.36-0.12,0.51-0.23c0.11-0.08,0.17-0.24,0.24-0.36c-0.13-0.07-0.25-0.18-0.39-0.21c-0.19-0.03-0.39-0.01-0.59,0.04
		c-0.47,0.1-0.8-0.11-1.06-0.47c-0.21-0.31-0.43-0.62-0.66-0.93c-0.36-0.47-0.85-0.63-1.4-0.42c-0.25,0.1-0.46,0.28-0.71,0.34
		c-0.81,0.2-1.47,0.66-2.18,1.04c-0.31,0.16-0.59,0.39-0.89,0.58c-0.5,0.34-1,0.66-1.5,1c-0.76,0.51-1.52,1.04-2.29,1.56
		c-0.63,0.43-1.24,0.87-1.89,1.25c-0.36,0.21-0.78,0.32-1.18,0.45c-0.08,0.03-0.19-0.04-0.29-0.05c0.03-0.09,0.04-0.2,0.1-0.27
		c0.24-0.25,0.49-0.49,0.74-0.72c0.29-0.28,0.6-0.52,0.88-0.81c0.32-0.33,0.61-0.68,0.92-1.03c0.16-0.17,0.35-0.32,0.52-0.5
		c0.57-0.56,1.13-1.13,1.71-1.67c0.18-0.18,0.32-0.68,0.21-0.9c-0.16-0.31-0.43-0.26-0.69-0.2c-0.25,0.07-0.48,0.18-0.73,0.22
		c-0.53,0.13-1.1,0.17-1.6,0.37c-1.28,0.53-2.54,1.15-3.8,1.72c-0.23,0.11-0.48,0.17-0.8,0.3c0.29-0.47,0.53-0.84,0.76-1.22
		c0.26-0.45,0.53-0.89,0.75-1.35c0.18-0.37,0.13-0.76-0.06-1.13c-0.13-0.27-0.35-0.37-0.63-0.33c-0.32,0.05-0.66,0.1-0.98,0.2
		c-1.02,0.34-2.03,0.69-3.04,1.07c-1.07,0.4-2.13,0.8-3.18,1.26c-0.65,0.28-1.25,0.65-1.86,0.99c-0.74,0.41-1.48,0.84-2.21,1.28
		c-0.53,0.32-1.04,0.67-1.54,1.01c-0.03-0.04-0.06-0.07-0.09-0.1c0.12-0.15,0.23-0.3,0.37-0.44c0.23-0.23,0.5-0.44,0.73-0.67
		c0.96-0.9,1.91-1.79,2.85-2.69c0.46-0.44,0.92-0.9,1.37-1.36c0.38-0.39,0.71-0.82,1.11-1.18c0.57-0.49,0.98-1.17,1.72-1.46
		c0.86-0.33,1.63-0.8,2.36-1.34c0.72-0.54,1.44-1.08,2.12-1.68c0.35-0.3,0.62-0.71,0.88-1.1c0.21-0.31,0.39-0.65,0.52-0.99
		c0.05-0.16,0.01-0.42-0.1-0.56c-0.05-0.08-0.32-0.06-0.48-0.02c-0.13,0.03-0.26,0.15-0.37,0.25c-0.38,0.33-0.74,0.65-1.11,0.98
		c-0.64,0.58-1.29,1.13-1.9,1.74c-0.63,0.62-1.21,1.28-1.83,1.93c-0.12,0.14-0.27,0.26-0.43,0.33c-1.03,0.5-2.07,0.98-3.11,1.43
		c-0.89,0.39-1.79,0.73-2.69,1.09c-0.47,0.19-0.94,0.4-1.42,0.54c-0.67,0.19-1.34,0.34-2.02,0.45c-0.86,0.17-1.73,0.3-2.6,0.42
		c-0.23,0.03-0.47-0.05-0.71-0.08c0.11-0.2,0.2-0.42,0.33-0.6c0.2-0.28,0.46-0.52,0.66-0.8c0.05-0.06-0.02-0.22-0.04-0.33
		c-0.1,0.02-0.22,0.02-0.29,0.08c-0.16,0.14-0.3,0.31-0.44,0.48c-0.17,0.19-0.29,0.23-0.39-0.05c-0.03-0.11-0.07-0.2-0.1-0.29
		c-0.08-0.32-0.1-0.65-0.25-0.93c-0.21-0.39-0.51-0.74-0.79-1.07c-0.2-0.26-0.41-0.54-0.67-0.73c-0.83-0.56-1.77-0.87-2.78-0.76
		c-0.71,0.08-1.36,0.39-1.57,1.16c-0.1,0.36-0.07,0.78-0.05,1.18c0.01,0.24,0.08,0.5,0.21,0.71c0.53,0.94,1.47,1.45,2.33,2.01
		c0.43,0.28,0.94,0.44,1.41,0.64c0.16,0.07,0.28,0.15,0.09,0.29c-0.49,0.38-0.99,0.74-1.49,1.12c-0.84,0.6-1.67,1.22-2.51,1.82
		c-0.51,0.36-1.03,0.69-1.55,1.04c-0.37,0.25-0.75,0.49-1.1,0.76c-0.37,0.3-0.76,0.54-1.23,0.56c-1.09,0.06-2.17,0.09-3.25,0.13
		c-0.82,0.03-1.65,0.1-2.46,0.06c-1.24-0.07-2.41,0.21-3.49,0.73c-0.93,0.45-1.64,1.17-1.77,2.28c-0.06,0.53,0.2,0.92,0.81,0.91
		c0.66-0.01,1.32-0.12,1.97-0.26c0.67-0.13,1.33-0.32,1.99-0.51c0.53-0.15,1.04-0.29,1.55-0.47c0.42-0.15,0.82-0.34,1.22-0.53
		c0.24-0.11,0.47-0.25,0.71-0.35c0.36-0.16,0.74-0.29,1.1-0.45c0.31-0.15,0.58-0.42,0.89-0.48c0.39-0.08,0.71-0.23,1.01-0.47
		c0.08-0.05,0.19-0.1,0.29-0.11c0.33-0.05,0.66-0.09,0.99-0.13c0.83-0.12,1.66-0.23,2.49-0.38c0.33-0.06,0.68-0.13,0.99-0.27
		c0.46-0.2,0.89-0.48,1.35-0.69c0.9-0.41,1.63-1.03,2.26-1.8c0.56-0.7,0.87-1.51,1.04-2.37c0.07-0.34,0.23-0.45,0.55-0.42
		c0.31,0.02,0.63,0.07,0.93,0.02c1.03-0.18,2.07-0.39,3.09-0.62c0.59-0.13,1.18-0.29,1.76-0.47c0.49-0.15,0.97-0.36,1.46-0.55
		c0.37-0.13,0.74-0.24,1.11-0.39c0.59-0.25,1.17-0.52,1.77-0.77c0.2-0.07,0.41-0.13,0.69-0.22c-0.11,0.17-0.18,0.3-0.27,0.4
		c-0.66,0.65-1.31,1.3-1.98,1.93c-0.76,0.73-1.53,1.46-2.29,2.18c-0.54,0.51-1.05,1.04-1.6,1.54c-0.43,0.39-0.89,0.74-1.35,1.11
		c-0.5,0.41-1.01,0.83-1.52,1.24c-0.77,0.63-1.57,1.25-2.33,1.89c-0.16,0.13-0.43,0.32-0.26,0.57c0.19,0.27,0.44,0.07,0.61-0.04
		c0.85-0.54,1.69-1.07,2.52-1.63c0.87-0.58,1.72-1.2,2.57-1.79c0.68-0.46,1.36-0.89,2.05-1.31c0.47-0.29,0.96-0.54,1.44-0.8
		c0.41-0.22,0.84-0.43,1.26-0.64c0.52-0.27,1.04-0.55,1.56-0.81c0.25-0.13,0.5-0.23,0.76-0.34c0.81-0.35,1.61-0.73,2.44-1.06
		c0.46-0.18,0.93-0.31,1.4-0.45c0.41-0.12,0.82-0.26,1.23-0.32c0.24-0.03,0.62-0.01,0.73,0.14c0.11,0.17,0.04,0.53-0.08,0.75
		c-0.3,0.6-0.61,1.21-1.02,1.73c-0.51,0.65-1.1,1.25-1.7,1.8c-0.79,0.74-1.61,1.44-2.45,2.11c-0.62,0.5-1.27,0.95-1.91,1.41
		c-0.18,0.13-0.34,0.28-0.18,0.51c0.15,0.23,0.38,0.19,0.55,0.07c0.8-0.58,1.58-1.18,2.36-1.78c0.45-0.35,0.87-0.75,1.34-1.08
		c0.47-0.34,1.01-0.57,1.46-0.93c0.8-0.64,1.7-1.12,2.62-1.57c1.34-0.68,2.71-1.25,4.16-1.61c0.28-0.07,0.55-0.11,0.83-0.18
		c-0.04,0.17-0.1,0.28-0.18,0.36c-0.56,0.54-1.12,1.1-1.69,1.64c-0.91,0.87-1.83,1.75-2.74,2.64c-0.22,0.21-0.43,0.43-0.58,0.68
		c-0.21,0.34-0.02,0.78,0.38,0.83c0.39,0.03,0.81,0.04,1.16-0.07c0.47-0.14,0.89-0.41,1.31-0.65c0.44-0.27,0.85-0.59,1.28-0.86
		c0.26-0.17,0.62-0.22,0.71-0.6c0.01-0.02,0.06-0.02,0.09-0.04c0.97-0.61,1.95-1.19,2.9-1.83c0.59-0.39,1.13-0.86,1.77-1.17
		c0.75-0.36,1.47-0.78,2.21-1.15c0.32-0.17,0.57-0.06,0.75,0.24c0.24,0.38,0.47,0.77,0.74,1.13c0.15,0.17,0.35,0.31,0.56,0.43
		c0.24,0.13,0.23,0.2,0.04,0.38c-1.03,0.97-2.1,1.89-2.87,3.08c-0.2,0.32-0.37,0.7-0.15,1.04c0.24,0.36,0.64,0.29,0.98,0.12
		c0.66-0.34,1.29-0.7,1.94-1.05c0.19-0.1,0.38-0.21,0.57-0.32c0.67-0.43,1.33-0.87,2-1.3c0.58-0.38,1.16-0.74,1.74-1.11
		c0.35-0.21,0.7-0.41,1.04-0.6c0.03,0.04,0.07,0.07,0.1,0.11c-0.07,0.14-0.17,0.27-0.22,0.42c-0.35,1.07-0.96,1.89-2.03,2.39
		c-0.46,0.2-0.9,0.49-1.11,1.01c-0.17,0.41,0.09,0.87,0.52,0.82c0.28-0.03,0.55-0.11,0.8-0.21c0.46-0.2,0.89-0.41,1.34-0.62
		c1.03-0.47,2.09-0.92,3.11-1.4c0.53-0.26,1.02-0.56,1.54-0.84c0.51-0.27,1.02-0.54,1.53-0.8c0.44-0.23,0.88-0.47,1.33-0.68
		c0.12-0.06,0.34-0.07,0.29,0.13c-0.15,0.56-0.26,1.14-0.78,1.5c-0.46,0.3-0.92,0.62-1.35,0.95c-0.25,0.19-0.47,0.41-0.67,0.65
		c-0.26,0.34-0.13,0.73,0.3,0.77c0.43,0.05,0.86,0.07,1.26-0.17c0.48-0.29,0.98-0.57,1.48-0.82c0.43-0.22,0.89-0.38,1.33-0.59
		c0.98-0.44,1.95-0.9,2.94-1.34c0.25-0.12,0.5-0.23,0.75-0.32c0.12-0.04,0.26-0.04,0.44-0.06c-0.28,0.41-0.52,0.78-0.79,1.13
		c-0.48,0.59-0.83,1.24-1,1.99c-0.11,0.45,0.13,0.89,0.54,1c0.38,0.08,0.82,0.2,1.16,0.08c0.53-0.18,1.04-0.49,1.47-0.85
		c0.39-0.32,0.68-0.78,0.97-1.2c0.28-0.4,0.37-0.45,0.86-0.33c0.1,0.03,0.22,0.06,0.3,0.04c0.79-0.2,1.57-0.41,2.34-0.63
		c0.31-0.09,0.63-0.23,0.93-0.35c0.02,0.03,0.02,0.06,0.05,0.09c-0.32,0.36-0.67,0.71-0.96,1.09c-0.28,0.34-0.55,0.7-0.76,1.1
		c-0.17,0.32,0.17,0.87,0.51,0.91c0.82,0.08,1.58-0.14,2.29-0.59c0.23-0.15,0.46-0.29,0.71-0.43c0.53-0.31,1.08-0.61,1.6-0.93
		c0.29-0.17,0.57-0.35,0.83-0.57c0.62-0.55,0.83-0.45,1.38-0.17c0.23,0.12,0.49,0.17,0.75,0.22c0.59,0.11,1.16,0.27,1.76,0.64
		c-0.5,0.38-0.95,0.69-1.36,1.05c-0.25,0.22-0.47,0.47-0.64,0.75c-0.15,0.27,0.06,0.59,0.35,0.54c0.76-0.14,1.45-0.38,1.88-1.1
		c0.22-0.36,0.43-0.78,0.75-1.03c0.39-0.32,0.89-0.49,1.34-0.7c0.86-0.41,1.73-0.79,2.61-1.18c0.58-0.26,1.17-0.52,1.76-0.78
		c0.22-0.1,0.45-0.19,0.67-0.29c-0.13,0.2-0.29,0.31-0.44,0.46c-0.82,0.82-1.63,1.64-2.42,2.46c-0.18,0.2-0.35,0.43-0.45,0.68
		c-0.12,0.34,0.11,0.58,0.46,0.49c0.23-0.05,0.45-0.15,0.68-0.26c0.13-0.05,0.24-0.16,0.35-0.25c-0.1-0.09-0.21-0.17-0.32-0.26
		c-0.04-0.02-0.07-0.05-0.12-0.08c0.05-0.08,0.07-0.16,0.12-0.21C151.21,142.78,151.91,141.98,152.67,141.25 M97.72,129.46
		c-0.87,1.41-2.15,2.31-3.57,3.17C94.33,132.01,97.29,129.4,97.72,129.46 M65.46,145.81c-0.76,0.3-1.51,0.64-2.28,0.87
		c-0.92,0.28-1.85,0.47-2.78,0.7c-0.17,0.03-0.34,0.04-0.51,0.08c-0.32,0.06-0.6-0.04-0.75-0.32c-0.17-0.3,0.01-0.58,0.15-0.84
		c0.44-0.85,1.28-1.13,2.09-1.44c0.3-0.11,0.6-0.27,0.91-0.31c0.67-0.07,1.34-0.09,2.01-0.13c0.55-0.02,1.09-0.03,1.64-0.03
		c0.55,0.01,1.1,0.03,1.66,0.06c0.22,0.01,0.44,0.02,0.67,0.05c0.01,0.04,0.02,0.08,0.03,0.12
		C67.36,145.02,66.41,145.41,65.46,145.81 M78.35,139.72c-0.41,0.93-1.15,1.6-1.9,2.21c-0.44,0.37-1.03,0.56-1.54,0.84
		c-1.12,0.6-2.38,0.68-3.56,1.01c-0.07,0.02-0.15,0-0.24,0c-0.01-0.03-0.03-0.07-0.04-0.11c0.11-0.1,0.22-0.22,0.35-0.3
		c0.47-0.32,0.95-0.61,1.41-0.93c0.62-0.43,1.22-0.89,1.83-1.33c1.01-0.74,2.03-1.48,3.04-2.23c0.3-0.22,0.54-0.55,1.07-0.46
		C78.63,138.87,78.53,139.32,78.35,139.72 M77.57,137.7c-1.04-0.28-2-0.71-2.74-1.52c-0.33-0.37-0.67-0.74-0.9-1.17
		c-0.33-0.59-0.17-1.22,0.38-1.61c0.19-0.14,0.48-0.17,0.63-0.23c1.34,0.12,2.4,0.47,3.21,1.53c0.49,0.64,0.62,1.31,0.78,2.02
		C79.08,137.35,78.3,137.9,77.57,137.7"/>
	<path class="st0" d="M153.96,143.61c-0.05,0.05-0.04,0.27,0.02,0.36c0.04,0.06,0.25,0.07,0.33,0.02c0.34-0.2,0.67-0.44,0.99-0.66
		c0.67-0.47,1.32-0.92,1.97-1.4c0.3-0.22,0.6-0.47,0.87-0.74c0.09-0.08,0.14-0.31,0.1-0.43c-0.04-0.12-0.22-0.23-0.36-0.27
		c-0.12-0.03-0.3,0-0.44,0.05c-0.76,0.29-1.52,0.6-2.28,0.88c-0.62,0.25-1.26,0.46-1.88,0.7c-0.11,0.05-0.16,0.19-0.25,0.28
		c0.12,0.03,0.27,0.13,0.38,0.08c0.79-0.27,1.56-0.54,2.35-0.82c0.27-0.11,0.54-0.2,0.82-0.31c0.03,0.06,0.06,0.12,0.09,0.17
		c-0.62,0.47-1.23,0.95-1.84,1.43C154.55,143.18,154.23,143.37,153.96,143.61"/>
	<rect x="61.98" y="75.71" class="st0" width="15.3" height="1.2"/>
	<rect x="135.82" y="75.71" class="st0" width="15.29" height="1.2"/>
	<path class="st0" d="M64.49,173.26c-0.68,0-1.49-0.39-2.02-0.75c-1.33-0.9-1.94-1.76-2.27-3.18l-0.03-0.13l-1.38,0.24l-0.14,0.02
		l0.02,0.14c0.33,1.8,1.18,3.08,2.75,4.14c0.5,0.34,1.8,1.12,3.15,1.12c0.94,0,1.66-0.38,2.16-1.11c0.56-0.83,0.64-1.81,0.22-2.71
		c-0.47-1-1.21-1.5-1.99-2.03l-1.11-0.75c-0.47-0.32-0.73-0.62-0.79-0.92c-0.04-0.19,0.01-0.39,0.15-0.59
		c0.19-0.27,0.47-0.41,0.85-0.41c0.65,0,1.46,0.39,1.95,0.72c0.9,0.61,1.28,1.21,1.77,2.31l0.06,0.12l1.45-0.56l-0.04-0.13
		c-0.44-1.29-1.29-2.39-2.46-3.19c-0.45-0.31-0.94-0.55-1.46-0.7c-0.39-0.11-0.79-0.17-1.17-0.17c-0.99,0-1.8,0.39-2.28,1.1
		c-0.99,1.46-0.1,2.86,0.96,3.61l1.1,0.78c1.06,0.74,1.41,1.01,1.61,1.49c0.17,0.39,0.14,0.74-0.06,1.05
		C65.27,173.1,64.93,173.26,64.49,173.26"/>
	<polygon class="st0" points="68.31,177.69 69.7,178.42 73.95,170.35 74.02,170.23 72.63,169.5 	"/>
	<polygon class="st0" points="73.69,180.47 75.15,181.04 77.54,174.9 80.01,182.93 81.42,183.47 84.72,174.97 84.78,174.83 
		83.28,174.25 80.89,180.4 78.45,172.43 78.43,172.37 77.05,171.82 73.73,180.33 	"/>
	<path class="st0" d="M91.09,177.88c0.27,0,0.55,0.03,0.82,0.09c1.09,0.23,1.97,0.84,2.86,1.96l0.07,0.1l1.23-0.67l0.14-0.07
		l-0.09-0.13c-0.99-1.47-2.36-2.43-3.96-2.76c-0.37-0.08-0.75-0.12-1.12-0.12c-2.34,0-4.23,1.54-4.72,3.83
		c-0.59,2.77,1.13,5.23,4.09,5.86c0.47,0.1,0.93,0.15,1.37,0.15c1.22,0,2.31-0.37,3.26-1.1l0.1-0.08l-0.8-1.33l-0.12,0.08
		c-1.24,0.81-2.13,0.98-3.39,0.72c-1.75-0.37-3.43-1.76-2.97-3.95C88.2,178.89,89.46,177.88,91.09,177.88"/>
	<polygon class="st0" points="106.32,179.8 106.46,179.81 106.55,178.2 99.02,177.75 98.88,177.74 98.33,186.87 98.32,187.01 
		106.09,187.48 106.23,187.48 106.32,185.89 100.01,185.51 100.16,183.09 103.08,183.27 103.22,183.28 103.31,181.7 100.25,181.51 
		100.37,179.45 	"/>
	<polygon class="st0" points="116.45,177.75 114.96,177.94 114.87,177.95 115.98,186.67 115.99,186.76 117.49,186.57 117.58,186.56 
		116.47,177.84 	"/>
	<path class="st0" d="M122.05,183.41c0.3,1.13,1.32,1.73,2.93,1.73c1,0,1.98-0.23,2.48-0.36c0.65-0.18,1.86-0.57,2.77-1.25
		c0.99-0.75,1.36-1.64,1.1-2.63c-0.13-0.5-0.47-0.96-0.93-1.29c-0.38-0.26-0.8-0.37-1.27-0.45c0.53-0.67,0.68-1.31,0.49-2.05
		c-0.29-1.08-1.16-1.64-2.56-1.64c-0.61,0-1.31,0.11-2.08,0.31c-2.64,0.71-3.82,1.9-3.41,3.43c0.2,0.74,0.66,1.23,1.47,1.59
		c-0.42,0.39-0.86,0.86-1,1.55C121.95,182.73,121.95,183.07,122.05,183.41 M129.7,181.26c0.24,0.9-1.69,1.68-2.75,1.97
		c-0.18,0.05-1.12,0.29-1.98,0.29c-0.78,0-1.22-0.19-1.33-0.57c-0.02-0.1,0.01-0.33,0.05-0.45c0.32-0.87,1.79-1.47,2.61-1.69
		c0.46-0.13,0.86-0.2,1.24-0.23c0.08-0.01,0.22-0.02,0.4-0.02C128.3,180.57,129.53,180.62,129.7,181.26 M123.26,178.47
		c0.23-0.4,0.95-0.78,2.03-1.06c0.69-0.19,1.3-0.29,1.76-0.29c0.59,0,0.94,0.16,1.02,0.47c0.04,0.16,0.02,0.31-0.07,0.47
		c-0.32,0.55-1.4,1.02-2.01,1.18c-0.14,0.04-0.84,0.22-1.55,0.22c-0.49,0-1.1-0.1-1.23-0.55
		C123.16,178.76,123.18,178.61,123.26,178.47"/>
	<path class="st0" d="M138.93,178.91c-0.68,0.31-1.34,0.46-2.11,0.46c-0.36,0-0.74-0.03-1.22-0.1l-0.1-0.02l-0.13,1.53l-0.01,0.09
		l0.08,0.02c0.58,0.1,0.98,0.15,1.38,0.15c0.34,0,0.68-0.03,1.06-0.1c0.64-0.11,1.24-0.29,1.78-0.53c1.24-0.57,2.29-1.56,2.87-2.72
		c0.64-1.27,0.68-2.65,0.11-3.89c-0.74-1.61-2.18-2.51-4.05-2.51c-0.9,0-1.83,0.21-2.72,0.62c-0.65,0.3-1.17,0.63-1.63,1.02
		c-0.98,0.83-1.91,2.27-1.29,3.63c0.41,0.88,1.31,1.37,2.54,1.37c0.32,0,0.65-0.03,0.99-0.1c0.5-0.11,1.02-0.28,1.54-0.52
		c1.55-0.71,2.19-1.26,3.23-2.5C141.79,176.56,140.51,178.18,138.93,178.91 M137.35,175.84c-0.36,0.17-0.74,0.29-1.13,0.38
		c-0.14,0.02-0.41,0.06-0.71,0.06c-0.4,0-0.93-0.07-1.09-0.42c-0.26-0.56,0.62-1.45,1.11-1.83c0.3-0.23,0.65-0.44,1.04-0.62
		c0.7-0.32,1.37-0.49,1.98-0.49c0.65,0,1.23,0.19,1.73,0.55C139.53,174.35,138.66,175.24,137.35,175.84"/>
	<path class="st0" d="M150.9,165.07l-0.81-1.19l-0.06-0.08l-6.66,4.54l-0.08,0.05l2.59,3.79l0.03,0.03l1.29,0.19l0.05,0.01
		l0.04-0.05c0.36-0.58,1.12-1.8,2.29-2.6c0.29-0.2,1.33-0.86,2.19-0.86c0.39,0,0.68,0.14,0.87,0.41c0.48,0.71-0.44,1.79-0.62,2
		c-0.3,0.34-0.65,0.63-1.01,0.89c-1.22,0.82-2.29,1.07-3.56,1.3l-0.08,0.01l0.15,1.45l0.01,0.09l0.09-0.01
		c1.4-0.11,2.66-0.41,4.29-1.52c0.57-0.39,1.06-0.82,1.44-1.28c0.85-0.99,1.53-2.6,0.67-3.86c-0.5-0.73-1.23-1.1-2.16-1.1
		c-0.95,0-2.12,0.41-3.14,1.11c-0.95,0.65-1.46,1.19-2.06,2l-1.13-1.67l5.31-3.62L150.9,165.07z"/>
	<polygon class="st0" points="93.9,73.38 93.9,71.9 86.58,71.9 86.58,80.79 88.06,80.79 88.06,77.07 91.61,77.07 91.61,75.57 
		88.06,75.57 88.06,73.38 	"/>
	<path class="st0" d="M104.03,74.57c0-1.62-1.12-2.67-2.84-2.67h-5.24v8.89h1.49V77.2h3.05l1.71,3.53l0.03,0.06h1.67l-1.82-3.68
		C103.34,76.77,104.03,75.87,104.03,74.57 M101.19,75.71h-3.76v-2.33h3.76c0.62,0,1.36,0.2,1.36,1.12
		C102.56,75.56,101.7,75.71,101.19,75.71"/>
	<path class="st0" d="M105.69,76.22c0,2.68,2.09,4.78,4.77,4.78c2.63,0,4.78-2.08,4.78-4.64c0-2.64-2.09-4.71-4.76-4.71
		C107.84,71.65,105.69,73.7,105.69,76.22 M110.46,73.15c1.85,0,3.3,1.38,3.3,3.14c0,1.8-1.44,3.21-3.29,3.21
		c-1.83,0-3.32-1.4-3.32-3.13C107.16,74.5,108.55,73.15,110.46,73.15"/>
	<polygon class="st0" points="126.54,80.79 126.54,71.91 125.1,71.91 122.08,77.19 119.19,71.96 119.16,71.91 117.74,71.91 
		117.74,80.79 119.19,80.79 119.19,75.04 121.98,80.03 122.08,80.19 125.05,75.03 125.05,80.79 	"/>
	<path class="st0" d="M21.12,113.05c0-6.32-4.28-7.5-9.93-8.69c-5.55-1.19-7.32-1.71-7.32-5.12c0-3,2.49-5.42,7.36-5.42
		c3.16,0,6.86,1.38,7.5,5.51h0.91c-0.14-2.18-0.23-4.42-0.18-6.61c-1.63-1.04-5.6-1.56-7.5-1.56C4.69,91.16,0,95.24,0,99.94
		c0,5.79,4.2,7.27,11.96,8.88c3.11,0.67,5.28,1.43,5.28,5.23c0,4.22-3.75,6.09-7.05,6.09c-4.42,0-7.76-2.38-8.84-6.93H0.45
		c0.18,2.46,0.27,4.89,0.27,7.36c2.58,1.67,5.42,2.22,8.22,2.22C17.33,122.79,21.12,118.33,21.12,113.05"/>
	<path class="st0" d="M47.98,122.32l7.76-26.75c0.59-2.09,1.18-2.95,2.62-3.28v-0.66c-1.21,0-2.44,0.28-3.65,0.28
		c-1.4,0-2.8-0.28-4.2-0.28v0.66c2.43,0.28,2.8,0.95,2.8,1.99c0,0.39-0.28,1.62-0.64,2.9l-5.55,19.91h-0.09l-6.18-20.52
		c-0.5-1.52-0.63-2.24-0.63-2.76c0-0.8,0.85-1.47,2.67-1.52v-0.66c-1.4,0-2.84,0.28-4.29,0.28c-2.08,0-4.2-0.28-6.27-0.28v0.66
		c1.67,0.28,2.93,0.52,3.52,2.14c0.36,1,2.4,6.89,2.4,7.74c0,0.86-2.8,9.74-4.2,14.64h-0.09l-6.45-20.72
		c-0.41-1.28-0.55-1.99-0.55-2.57c0-0.95,1.36-1.19,2.35-1.23v-0.66c-1.66,0-3.34,0.28-5.01,0.28c-1.36,0-2.66-0.28-4.06-0.28v0.66
		c1.66,0.19,2.26,1.33,2.8,3.04l8.62,26.99h3.2l4.65-17.16h0.09l5.06,17.16H47.98z"/>
	<path class="st0" d="M59.5,122.32v-0.67c-1.89-0.05-2.34-0.48-2.34-1.18c0-0.68,0.27-1.9,0.73-3.2l2.21-6.55h9.7l1.85,5.23
		c0.95,2.61,1.22,3.41,1.22,4.28c0,0.89-0.5,1.28-2.07,1.42v0.67c1.76,0,3.52-0.29,5.28-0.29c1.17,0,2.3,0.29,3.48,0.29v-0.67
		c-1.63-0.33-1.85-0.66-3.03-3.85L68.9,96.85c-0.82-2.23-1.35-3.89-1.54-5.22c-0.77,0.13-1.58,0.28-2.34,0.28
		c-1.14,0-2.31-0.14-3.43-0.28v0.66c0.99,0.24,1.44,0.38,1.44,1.47c0,0.57-0.13,1.1-0.27,1.57l-8.03,23.18
		c-0.91,2.61-1.32,3.09-2.85,3.14v0.67c1.35,0,2.71-0.29,4.06-0.29C57.11,122.03,58.34,122.32,59.5,122.32 M64.88,96.57h0.09
		l4.02,11.78h-8.13L64.88,96.57z"/>
	<path class="st0" d="M79.68,121.65v0.67c0.95,0,2.8-0.29,4.51-0.29c1.72,0,3.57,0.29,4.51,0.29l0.01-0.67
		c-1.77-0.29-2.31-0.66-2.31-1.99V94.57h2.45c3.79,0,7.62,0.67,7.62,5.17c0,4.19-3.3,6.23-7.98,6.23c-0.37,0-0.86,0.18-0.86,0.47
		c0,0.2,0.37,0.62,0.91,1.38l5.83,8.22c3.65,5.37,4.1,6.12,4.59,6.27c1.13,0,2.31-0.29,3.47-0.29c0.77,0,1.54,0.29,2.35,0.29v-0.67
		c-1.31-0.14-2.45-1.33-3.79-3.14l-8.31-11.31c4.33-0.37,8.22-3.23,8.22-8.07c0-3.94-2.12-7.22-8.13-7.22H79.68v0.66
		c1.76,0.29,2.3,0.66,2.3,2v25.09C81.99,120.99,81.44,121.36,79.68,121.65"/>
	<path class="st0" d="M116.81,122.79c8.94,0,14.68-8.02,14.68-16.19c0-6.94-3.98-15.44-14-15.44c-6.99,0-14.8,6.6-14.8,15.91
		C102.68,115.67,107.73,122.79,116.81,122.79 M116.17,94.38c5.74,0,11.16,5.61,11.16,13.92c0,7.56-4.64,11.26-9.45,11.26
		c-6.94,0-11.05-6.98-11.05-13.69C106.83,97.14,112.89,94.38,116.17,94.38"/>
	<path class="st0" d="M148.96,92.29c0.91,0.19,2.11,0.47,2.11,1.43c0,0.56-0.22,1.47-0.58,2.66l-6.47,20.43h-0.09l-7.22-21.1
		c-0.18-0.52-0.48-1.52-0.48-2.04c0-0.9,0.57-1.33,2.3-1.38v-0.66c-1.36,0-2.62,0.28-3.94,0.28c-1.79,0-3.65-0.28-5.46-0.28v0.66
		c2.04,0.19,2.39,1.09,2.81,2.14l9.93,27.89h3.02l8.85-27.46c0.45-1.43,1.26-2.38,2.7-2.57v-0.66c-1.13,0-2.26,0.28-3.38,0.28
		c-1.35,0-2.75-0.28-4.11-0.28V92.29z"/>
	<path class="st0" d="M176.3,113.05c0-6.32-4.29-7.5-9.93-8.69c-5.55-1.19-7.31-1.71-7.31-5.12c0-3,2.48-5.42,7.36-5.42
		c3.15,0,6.85,1.38,7.5,5.51h0.89c-0.13-2.18-0.23-4.42-0.18-6.61c-1.63-1.04-5.6-1.56-7.49-1.56c-7.28,0-11.98,4.08-11.98,8.79
		c0,5.79,4.21,7.27,11.98,8.88c3.1,0.67,5.27,1.43,5.27,5.23c0,4.22-3.75,6.09-7.04,6.09c-4.43,0-7.76-2.38-8.85-6.93h-0.9
		c0.18,2.46,0.26,4.89,0.26,7.36c2.58,1.67,5.43,2.22,8.21,2.22C172.52,122.79,176.3,118.33,176.3,113.05"/>
	<path class="st0" d="M191.73,115.62l5.37,6.7c0.72-0.15,1.67-0.29,2.84-0.29c0.94,0,2.26,0.14,3.51,0.29v-0.67
		c-1.4-0.14-2.06-0.71-3.02-1.85l-7.01-8.46c-1.85-2.23-3.74-3.94-5.59-5.89l10.43-11.35c0.9-1,1.53-1.52,3.39-1.81v-0.66
		c-1.4,0-2.71,0.28-4.07,0.28c-1.67,0-3.29-0.28-4.97-0.28v0.66c1.4,0.1,1.99,0.38,1.99,1c0,0.43-0.23,0.81-1.45,2.19l-9.57,10.78
		h-0.09V94.28c0-1.33,0.54-1.71,2.3-1.99v-0.66c-0.95,0-2.8,0.28-4.51,0.28c-1.72,0-3.57-0.28-4.52-0.28v0.66
		c1.76,0.29,2.31,0.67,2.31,1.99v25.38c0,1.33-0.55,1.7-2.31,1.99v0.67c0.95,0,2.8-0.29,4.52-0.29c1.71,0,3.56,0.29,4.51,0.29v-0.67
		c-1.76-0.29-2.3-0.66-2.3-1.99v-12.73C186.36,109.73,189.19,112.48,191.73,115.62"/>
	<path class="st0" d="M212.64,92.29v-0.66c-0.94,0-2.79,0.28-4.51,0.28c-1.72,0-3.56-0.28-4.5-0.28v0.66
		c1.76,0.28,2.3,0.67,2.3,1.99v25.38c0,1.33-0.54,1.7-2.3,1.99v0.67c0.95,0,2.79-0.29,4.5-0.29c1.72,0,3.57,0.29,4.51,0.29v-0.67
		c-1.76-0.29-2.3-0.66-2.3-1.99V94.28C210.33,92.96,210.87,92.58,212.64,92.29"/>
</g>
</svg>
