<svg version="1.1" id="Capa_1" xmlns="http://www.w3.org/2000/svg" x="0" y="0" viewBox="0 0 1135.79 661.03" xml:space="preserve">
  <style>
    .st0{fill:#bf9cc3}.st1{fill:#fff}.st2{font-family:&apos;Lato-Regular&apos;}.st3{font-size:40.1339px}.st4{letter-spacing:2}
  </style>
  <path class="st0" d="M72.25 461.71H0V129.13h89.89c27.29 0 47.14 9.08 59 26.99 11.48 17.36 17.31 42.84 17.31 75.72 0 32.83-5.15 58.06-15.32 75-10.58 17.64-29.58 26.58-56.46 26.58H72.25v128.29zm-63.76-8.49h55.27V324.94h30.65c24.03 0 40.11-7.35 49.18-22.46 9.36-15.6 14.11-39.37 14.11-70.63 0-31.19-5.35-55.09-15.9-71.04-10.33-15.6-27.31-23.19-51.92-23.19H8.49v315.6zm63.29-178.27h-8.02v-86.96h11.41c10.75 0 18.12 3.84 21.91 11.4 3.35 6.7 4.98 16.94 4.98 31.33 0 10.45-.59 18.32-1.79 24.07-1.33 6.38-4.25 11.39-8.69 14.91-4.46 3.53-10.94 5.25-19.8 5.25zm.47-78.47v69.99c6.54-.05 11.27-1.2 14.06-3.42 2.87-2.28 4.72-5.55 5.65-9.99 1.07-5.1 1.61-12.61 1.61-22.34 0-12.85-1.37-22.12-4.08-27.53-2.26-4.52-6.94-6.71-14.31-6.71h-2.93zM333.32 461.71H193.16V129.13h73.38v269.01h66.78v63.57zm-131.67-8.49h123.19v-46.6h-66.78v-269h-56.41v315.6zM517.81 461.71H443.3V410.4h-96.21v-55.37l.15-.55 61.98-225.72h108.59v219.2h17.36v62.44h-17.36v51.31zm-66.02-8.49h57.54v-51.31h17.36v-45.47h-17.36v-219.2H415.7l-60.11 218.93v45.74h96.21v51.31zm0-96.77H403.7l48.09-204.13v204.13zm-37.37-8.49h28.88v-122.6l-28.88 122.6zM642.6 466.24c-26.81 0-48.53-6.74-64.58-20.03-16.29-13.48-24.55-33.56-24.55-59.67v-52.16h76.02v31.79c0 10.53 1.06 18.81 3.14 24.59 1.65 4.58 4.72 6.63 9.97 6.63 6.56 0 8.67-2.42 9.69-4.24 2.02-3.62 3.04-9.27 3.04-16.79V312.6c0-9.78-1-17.62-2.97-23.33-1.53-4.42-4.43-6.39-9.38-6.39-3.9 0-14.24 0-14.24 22.54v4.24h-67.72v-180.9h162.8v69.23h-92.81v31.37c2.14-1.6 4.5-3.04 7.06-4.32 6.1-3.05 13.09-4.6 20.76-4.6 28.74 0 48.73 10.42 59.41 30.96 10.21 19.64 15.38 47.59 15.38 83.07 0 29.11-2.13 53.11-6.33 71.32-4.35 18.86-13.29 33.8-26.57 44.43-13.3 10.63-32.85 16.02-58.12 16.02zm-80.65-123.38v43.67c0 23.47 7.22 41.34 21.48 53.14 14.48 12 34.39 18.08 59.17 18.08 23.29 0 41.06-4.76 52.81-14.16s19.69-22.76 23.61-39.71c4.06-17.58 6.12-40.94 6.12-69.41 0-34.11-4.85-60.74-14.43-79.16-9.23-17.76-26.21-26.39-51.88-26.39-6.34 0-12.05 1.25-16.97 3.7-4.93 2.47-8.88 5.61-11.73 9.34l-7.61 9.97V189.5h92.81v-52.26H569.5v163.93h50.87c1.3-22.01 12.84-26.79 22.61-26.79 8.64 0 14.65 4.18 17.4 12.09 2.28 6.6 3.44 15.38 3.44 26.1v63.76c0 9.12-1.35 15.97-4.12 20.93-2.19 3.92-6.94 8.59-17.1 8.59-8.86 0-15.07-4.23-17.95-12.24-2.45-6.81-3.64-15.79-3.64-27.47v-23.3h-59.06zM844.06 464.73c-28.49 0-50.85-8.25-66.45-24.51-15.56-16.21-23.44-39.48-23.44-69.15V224.68c0-31.61 7.6-56.17 22.58-73 15.11-16.97 37.76-25.57 67.31-25.57 29.8 0 52.57 8.6 67.68 25.57 14.99 16.83 22.58 41.39 22.58 73v146.39c0 29.93-7.89 53.26-23.45 69.35-15.6 16.13-38.08 24.31-66.81 24.31zm0-330.13c-27.02 0-47.54 7.65-60.97 22.73-13.56 15.22-20.43 37.88-20.43 67.35v146.39c0 27.41 7.09 48.7 21.08 63.28 13.94 14.53 34.23 21.9 60.32 21.9 26.34 0 46.77-7.31 60.71-21.72 13.98-14.45 21.07-35.8 21.07-63.45v-146.4c0-29.47-6.87-52.13-20.43-67.35-13.43-15.08-34.07-22.73-61.35-22.73zm0 270.52c-6.19 0-11.4-2.95-15.05-8.52-3.34-5.07-5.04-11.13-5.04-17.99V218.64c0-9.96 1.09-17.46 3.34-22.93 1.87-4.55 6.29-9.99 16.75-9.99 10.4 0 14.93 5.39 16.9 9.9 2.4 5.51 3.56 13.03 3.56 23.01V378.6c0 6.89-1.77 12.96-5.27 18.06-3.78 5.54-9.03 8.46-15.19 8.46zm0-210.91c-6.17 0-8 2.52-8.9 4.72-1.79 4.36-2.7 10.99-2.7 19.71v159.97c0 5.25 1.19 9.6 3.64 13.32 2.1 3.2 4.63 4.69 7.96 4.69 3.37 0 5.97-1.51 8.2-4.76 2.55-3.71 3.78-8.04 3.78-13.26V218.64c0-8.67-.96-15.27-2.85-19.62-.98-2.24-2.9-4.81-9.13-4.81zM1045.53 464.73c-28.49 0-50.85-8.25-66.45-24.51-15.56-16.21-23.44-39.48-23.44-69.15V224.68c0-31.61 7.6-56.17 22.58-73 15.11-16.97 37.76-25.57 67.31-25.57 29.8 0 52.57 8.6 67.68 25.57 14.99 16.83 22.58 41.39 22.58 73v146.39c0 29.93-7.89 53.26-23.45 69.35-15.6 16.13-38.08 24.31-66.81 24.31zm0-330.13c-27.02 0-47.54 7.65-60.97 22.73-13.56 15.22-20.43 37.88-20.43 67.35v146.39c0 27.41 7.09 48.7 21.08 63.28 13.94 14.53 34.23 21.9 60.32 21.9 26.34 0 46.77-7.31 60.71-21.72 13.98-14.45 21.07-35.8 21.07-63.45v-146.4c0-29.47-6.87-52.13-20.43-67.35-13.44-15.08-34.08-22.73-61.35-22.73zm0 270.52c-6.19 0-11.4-2.95-15.05-8.52-3.34-5.07-5.04-11.13-5.04-17.99V218.64c0-9.96 1.09-17.46 3.34-22.93 1.87-4.55 6.29-9.99 16.75-9.99 10.4 0 14.93 5.39 16.9 9.9 2.4 5.51 3.56 13.03 3.56 23.01V378.6c0 6.89-1.77 12.96-5.27 18.06-3.78 5.54-9.04 8.46-15.19 8.46zm0-210.91c-6.17 0-8 2.52-8.9 4.72-1.79 4.36-2.7 10.99-2.7 19.71v159.97c0 5.25 1.19 9.6 3.64 13.32 2.1 3.2 4.63 4.69 7.96 4.69 3.37 0 5.97-1.51 8.2-4.76 2.55-3.71 3.78-8.04 3.78-13.26V218.64c0-8.67-.96-15.27-2.85-19.62-.98-2.24-2.9-4.81-9.13-4.81z"/>
  <g>
    <text transform="translate(176.945 34.445)" class="st1 st2 st3 st4">
      Vertagear x Swarovski / Limited Edition
    </text>
  </g>
  <g>
    <text transform="translate(407.764 604.837)" class="st1 st2 st3 st4">
      COMING SOON
    </text>
  </g>
  <path class="st0" d="M410.17 539.39h315.46v3.99H410.17z"/>
</svg>