<svg width="41" height="40" viewBox="0 0 41 40" fill="none" xmlns="http://www.w3.org/2000/svg">
<circle cx="20.0834" cy="20" r="20" fill="white"/>
<path d="M16.5851 27C16.3356 26.9996 16.0906 26.9383 15.874 26.8223C15.3865 26.5636 15.0834 26.0615 15.0834 25.5163V14.4838C15.0834 13.9371 15.3865 13.4364 15.874 13.1777C16.0957 13.0584 16.3476 12.9971 16.6032 13.0001C16.8589 13.0031 17.109 13.0704 17.3274 13.1948L27.3977 18.839C27.6076 18.9622 27.7806 19.1333 27.9005 19.3362C28.0205 19.5392 28.0834 19.7673 28.0834 19.9993C28.0834 20.2312 28.0205 20.4594 27.9005 20.6623C27.7806 20.8653 27.6076 21.0364 27.3977 21.1596L17.3258 26.8052C17.1023 26.9317 16.8463 26.9991 16.5851 27Z" fill="#080808"/>
</svg>
