<svg xmlns="http://www.w3.org/2000/svg" width="49.767" height="48.794" viewBox="0 0 49.767 48.794">
  <g id="Group_828" data-name="Group 828" transform="translate(-597.186 -15.75)">
    <g id="Group_803" data-name="Group 803" transform="translate(597.436 16)">
      <g id="Group_793" data-name="Group 793" transform="translate(0 3.138)">
        <path id="Path_528" data-name="Path 528" d="M1307.858,710.37h-22.2a1.788,1.788,0,0,1-1.114-.391l-1.987-1.587-14.5-.051a5.361,5.361,0,0,1-5.355-5.355,1.784,1.784,0,0,1,1.782-1.781h29.46a.23.23,0,0,0,.23-.228V683.7a.23.23,0,0,0-.23-.228H1276.5a.23.23,0,0,0-.2.118l-3.5,6.338a1.788,1.788,0,0,1-1.506.921l-4.383.134a4.1,4.1,0,0,1-4.219-4.093V675.6a5.873,5.873,0,0,1,5.866-5.866h37.808a5.6,5.6,0,0,1,5.593,5.593v30.938A4.111,4.111,0,0,1,1307.858,710.37Zm-43.378-7.613a.23.23,0,0,0-.23.229,3.808,3.808,0,0,0,3.8,3.8h14.358a1.789,1.789,0,0,1,1.114.393l1.987,1.587,22.345.05a2.556,2.556,0,0,0,2.554-2.553V675.326a4.044,4.044,0,0,0-4.04-4.04h-37.808a4.318,4.318,0,0,0-4.314,4.313v11.287a2.519,2.519,0,0,0,.772,1.823,2.4,2.4,0,0,0,1.848.717l4.384-.134a.227.227,0,0,0,.194-.116l3.5-6.34a1.785,1.785,0,0,1,1.561-.921h17.436a1.784,1.784,0,0,1,1.783,1.781v17.279a1.784,1.784,0,0,1-1.783,1.781Z" transform="translate(-1262.697 -669.733)" fill="#fff" stroke="#fff" stroke-width="0.5"/>
      </g>
      <g id="Group_794" data-name="Group 794" transform="translate(4.11 23.587)">
        <rect id="Rectangle_121" data-name="Rectangle 121" width="1.553" height="6.858" fill="#fff" stroke="#fff" stroke-width="0.5"/>
      </g>
      <g id="Group_795" data-name="Group 795" transform="translate(37.003 15.428)">
        <path id="Path_529" data-name="Path 529" d="M1290.117,684.823a3.588,3.588,0,1,1,3.585-3.587A3.592,3.592,0,0,1,1290.117,684.823Zm0-5.622a2.035,2.035,0,1,0,2.032,2.035A2.038,2.038,0,0,0,1290.117,679.2Z" transform="translate(-1286.528 -677.648)" fill="#fff" stroke="#fff" stroke-width="0.5"/>
      </g>
      <g id="Group_796" data-name="Group 796" transform="translate(37.003 27.81)">
        <path id="Path_530" data-name="Path 530" d="M1290.117,692.8a3.587,3.587,0,1,1,3.585-3.585A3.59,3.59,0,0,1,1290.117,692.8Zm0-5.621a2.034,2.034,0,1,0,2.032,2.036A2.038,2.038,0,0,0,1290.117,687.175Z" transform="translate(-1286.528 -685.622)" fill="#fff" stroke="#fff" stroke-width="0.5"/>
      </g>
      <g id="Group_797" data-name="Group 797" transform="translate(39.815)">
        <rect id="Rectangle_122" data-name="Rectangle 122" width="1.553" height="3.915" fill="#fff" stroke="#fff" stroke-width="0.5"/>
      </g>
      <g id="Group_798" data-name="Group 798" transform="translate(0.777 46.742)">
        <rect id="Rectangle_123" data-name="Rectangle 123" width="47.714" height="1.553" fill="#fff" stroke="#fff" stroke-width="0.5"/>
      </g>
    </g>
  </g>
</svg>
