<svg width="34" height="35" viewBox="0 0 34 35" fill="none" xmlns="http://www.w3.org/2000/svg">
<path d="M29.5714 4.21191H24.4286C24.3149 4.21191 24.2059 4.25472 24.1255 4.3309C24.0452 4.40709 24 4.51042 24 4.61816V29.8057C24 29.9134 24.0452 30.0167 24.1255 30.0929C24.2059 30.1691 24.3149 30.2119 24.4286 30.2119H29.5714C29.6851 30.2119 29.7941 30.1691 29.8745 30.0929C29.9548 30.0167 30 29.9134 30 29.8057V4.61816C30 4.51042 29.9548 4.40709 29.8745 4.3309C29.7941 4.25472 29.6851 4.21191 29.5714 4.21191V4.21191ZM29.1429 29.3994H24.8571V26.5557H26.1429C26.2565 26.5557 26.3655 26.5129 26.4459 26.4367C26.5263 26.3605 26.5714 26.2572 26.5714 26.1494C26.5714 26.0417 26.5263 25.9383 26.4459 25.8622C26.3655 25.786 26.2565 25.7432 26.1429 25.7432H24.8571V22.8994H26.1429C26.2565 22.8994 26.3655 22.8566 26.4459 22.7804C26.5263 22.7042 26.5714 22.6009 26.5714 22.4932C26.5714 22.3854 26.5263 22.2821 26.4459 22.2059C26.3655 22.1297 26.2565 22.0869 26.1429 22.0869H24.8571V19.4463H26.1429C26.2565 19.4463 26.3655 19.4035 26.4459 19.3273C26.5263 19.2511 26.5714 19.1478 26.5714 19.04C26.5714 18.9323 26.5263 18.829 26.4459 18.7528C26.3655 18.6766 26.2565 18.6338 26.1429 18.6338H24.8571V15.79H26.1429C26.2565 15.79 26.3655 15.7472 26.4459 15.6711C26.5263 15.5949 26.5714 15.4915 26.5714 15.3838C26.5714 15.276 26.5263 15.1727 26.4459 15.0965C26.3655 15.0203 26.2565 14.9775 26.1429 14.9775H24.8571V12.3369H26.1429C26.2565 12.3369 26.3655 12.2941 26.4459 12.2179C26.5263 12.1417 26.5714 12.0384 26.5714 11.9307C26.5714 11.8229 26.5263 11.7196 26.4459 11.6434C26.3655 11.5672 26.2565 11.5244 26.1429 11.5244H24.8571V8.68066H26.1429C26.2565 8.68066 26.3655 8.63786 26.4459 8.56168C26.5263 8.48549 26.5714 8.38216 26.5714 8.27441C26.5714 8.16667 26.5263 8.06334 26.4459 7.98715C26.3655 7.91097 26.2565 7.86816 26.1429 7.86816H24.8571V5.02441H29.1429V29.3994Z" fill="#4E4CF7"/>
<path d="M22.2746 8.32306C22.314 8.3608 22.3609 8.39074 22.4124 8.41117C22.464 8.43159 22.5192 8.4421 22.575 8.4421C22.6309 8.4421 22.6861 8.43159 22.7377 8.41117C22.7892 8.39074 22.8361 8.3608 22.8755 8.32306C22.915 8.28532 22.9463 8.24052 22.9677 8.19121C22.989 8.1419 23 8.08904 23 8.03567C23 7.9823 22.989 7.92945 22.9677 7.88013C22.9463 7.83082 22.915 7.78602 22.8755 7.74828L19.2994 4.33004C19.2198 4.25438 19.1122 4.21191 19 4.21191C18.8878 4.21191 18.7802 4.25438 18.7006 4.33004L15.1245 7.74828C15.0448 7.8245 15 7.92788 15 8.03567C15 8.14346 15.0448 8.24684 15.1245 8.32306C15.2042 8.39928 15.3122 8.4421 15.425 8.4421C15.5377 8.4421 15.6457 8.39928 15.7254 8.32306L18.5753 5.59741V28.8244L15.7254 26.0987C15.686 26.061 15.6391 26.0311 15.5876 26.0106C15.536 25.9902 15.4808 25.9797 15.425 25.9797C15.3691 25.9797 15.3139 25.9902 15.2623 26.0106C15.2108 26.0311 15.1639 26.061 15.1245 26.0987C15.085 26.1365 15.0537 26.1813 15.0323 26.2306C15.011 26.2799 15 26.3328 15 26.3861C15 26.4395 15.011 26.4924 15.0323 26.5417C15.0537 26.591 15.085 26.6358 15.1245 26.6735L18.6985 30.0918C18.7379 30.1298 18.7849 30.1601 18.8367 30.1807C18.8884 30.2013 18.9439 30.2119 19 30.2119C19.0561 30.2119 19.1116 30.2013 19.1633 30.1807C19.2151 30.1601 19.2621 30.1298 19.3015 30.0918L22.8755 26.6735C22.915 26.6358 22.9463 26.591 22.9677 26.5417C22.989 26.4924 23 26.4395 23 26.3861C23 26.3328 22.989 26.2799 22.9677 26.2306C22.9463 26.1813 22.915 26.1365 22.8755 26.0987C22.8361 26.061 22.7892 26.0311 22.7377 26.0106C22.6861 25.9902 22.6309 25.9797 22.575 25.9797C22.5192 25.9797 22.464 25.9902 22.4124 26.0106C22.3609 26.0311 22.314 26.061 22.2746 26.0987L19.4247 28.8244V5.59741L22.2746 8.32306Z" fill="#4E4CF7"/>
<path d="M11.9444 10.6138H11.8262C12.4169 10.1465 12.8454 9.51079 13.0526 8.79437C13.2598 8.07794 13.2355 7.31607 12.9831 6.61375C12.7307 5.91144 12.2626 5.30328 11.6433 4.8731C11.0241 4.44293 10.2841 4.21191 9.52546 4.21191C8.76682 4.21191 8.02686 4.44293 7.40758 4.8731C6.7883 5.30328 6.32019 5.91144 6.06779 6.61375C5.81539 7.31607 5.79112 8.07794 5.99833 8.79437C6.20553 9.51079 6.63401 10.1465 7.2247 10.6138H7.05563C6.65317 10.6095 6.2539 10.6842 5.88122 10.8334C5.50854 10.9826 5.16998 11.2034 4.88538 11.4828C4.60078 11.7622 4.37588 12.0945 4.22387 12.4604C4.07187 12.8262 3.99581 13.2182 4.00018 13.6133V20.812C4.00018 20.9181 4.0431 21.0198 4.1195 21.0948C4.1959 21.1698 4.29952 21.2119 4.40757 21.2119C4.51562 21.2119 4.61924 21.1698 4.69564 21.0948C4.77204 21.0198 4.81497 20.9181 4.81497 20.812V13.6133C4.81169 13.3235 4.86741 13.036 4.97886 12.7677C5.0903 12.4994 5.25523 12.2556 5.46395 12.0507C5.67267 11.8458 5.92098 11.6839 6.19431 11.5745C6.46764 11.4651 6.76048 11.4104 7.05563 11.4137H11.9444C12.2395 11.4104 12.5324 11.4651 12.8057 11.5745C13.079 11.6839 13.3273 11.8458 13.5361 12.0507C13.7448 12.2556 13.9097 12.4994 14.0211 12.7677C14.1326 13.036 14.1883 13.3235 14.185 13.6133V20.812C14.185 20.9181 14.228 21.0198 14.3044 21.0948C14.3808 21.1698 14.4844 21.2119 14.5924 21.2119C14.7005 21.2119 14.8041 21.1698 14.8805 21.0948C14.9569 21.0198 14.9998 20.9181 14.9998 20.812V13.6133C15.0042 13.2182 14.9281 12.8262 14.7761 12.4604C14.6241 12.0945 14.3992 11.7622 14.1146 11.4828C13.83 11.2034 13.4915 10.9826 13.1188 10.8334C12.7461 10.6842 12.3468 10.6095 11.9444 10.6138V10.6138ZM6.67268 7.81429C6.67268 7.2606 6.83994 6.71935 7.15329 6.25897C7.46665 5.7986 7.91203 5.43978 8.43312 5.22789C8.95421 5.016 9.52761 4.96056 10.0808 5.06858C10.634 5.1766 11.1421 5.44323 11.5409 5.83475C11.9398 6.22626 12.2114 6.72509 12.3214 7.26814C12.4314 7.81119 12.375 8.37408 12.1591 8.88562C11.9433 9.39716 11.5778 9.83438 11.1088 10.142C10.6398 10.4496 10.0885 10.6138 9.52444 10.6138H9.51018C8.75632 10.6101 8.03463 10.3135 7.5029 9.78891C6.97117 9.2643 6.67267 8.55435 6.67268 7.81429V7.81429Z" fill="#4E4CF7"/>
<path d="M6.5 14.2119C6.36739 14.2119 6.24021 14.2551 6.14645 14.3321C6.05268 14.409 6 14.5134 6 14.6222V29.8017C6 29.9105 6.05268 30.0148 6.14645 30.0918C6.24021 30.1687 6.36739 30.2119 6.5 30.2119C6.63261 30.2119 6.75979 30.1687 6.85355 30.0918C6.94732 30.0148 7 29.9105 7 29.8017V14.6222C7 14.5134 6.94732 14.409 6.85355 14.3321C6.75979 14.2551 6.63261 14.2119 6.5 14.2119Z" fill="#4E4CF7"/>
<path d="M12.5 14.2119C12.3674 14.2119 12.2402 14.2551 12.1464 14.3321C12.0527 14.409 12 14.5134 12 14.6222V29.8017C12 29.9105 12.0527 30.0148 12.1464 30.0918C12.2402 30.1687 12.3674 30.2119 12.5 30.2119C12.6326 30.2119 12.7598 30.1687 12.8536 30.0918C12.9473 30.0148 13 29.9105 13 29.8017V14.6222C13 14.5134 12.9473 14.409 12.8536 14.3321C12.7598 14.2551 12.6326 14.2119 12.5 14.2119Z" fill="#4E4CF7"/>
<path d="M9.5 19.2119C9.36739 19.2119 9.24021 19.2565 9.14645 19.3358C9.05268 19.4152 9 19.5228 9 19.635V29.7888C9 29.901 9.05268 30.0087 9.14645 30.088C9.24021 30.1673 9.36739 30.2119 9.5 30.2119C9.63261 30.2119 9.75979 30.1673 9.85355 30.088C9.94732 30.0087 10 29.901 10 29.7888V19.635C10 19.5228 9.94732 19.4152 9.85355 19.3358C9.75979 19.2565 9.63261 19.2119 9.5 19.2119Z" fill="#4E4CF7"/>
</svg>
