<?xml version="1.0" encoding="utf-8"?>
<!-- Generator: Adobe Illustrator 25.4.1, SVG Export Plug-In . SVG Version: 6.00 Build 0)  -->
<svg version="1.1" id="Layer_1" xmlns="http://www.w3.org/2000/svg" xmlns:xlink="http://www.w3.org/1999/xlink" x="0px" y="0px"
	 viewBox="0 0 53.55 53" style="enable-background:new 0 0 53.55 53;" xml:space="preserve">
<style type="text/css">
	.st0{fill:#009ADE;}
	.st1{fill:#002F87;}
	.st2{fill:#002169;}
</style>
<g>
	<g>
		<g>
			<g>
				<g>
					<path class="st0" d="M36.13,38.73h-4.17c-0.28,0-0.53,0.21-0.57,0.49L29.71,49.9c-0.03,0.21,0.13,0.4,0.34,0.4h2.14
						c0.2,0,0.37-0.15,0.4-0.34l0.48-3.03c0.04-0.28,0.29-0.49,0.57-0.49h1.32c2.74,0,4.33-1.33,4.74-3.96
						c0.19-1.15,0.01-2.06-0.53-2.69C38.58,39.1,37.53,38.73,36.13,38.73z M36.61,42.63c-0.23,1.5-1.37,1.5-2.47,1.5h-0.63
						l0.44-2.79c0.03-0.17,0.17-0.29,0.34-0.29h0.29c0.75,0,1.46,0,1.83,0.43C36.63,41.73,36.7,42.11,36.61,42.63z"/>
					<path class="st1" d="M6.43,38.73H2.26c-0.28,0-0.53,0.21-0.57,0.49L0,49.9c-0.03,0.21,0.13,0.4,0.34,0.4h1.99
						c0.28,0,0.53-0.21,0.57-0.49l0.45-2.88c0.04-0.28,0.29-0.49,0.57-0.49h1.32c2.74,0,4.33-1.33,4.74-3.96
						c0.19-1.15,0.01-2.06-0.53-2.69C8.87,39.1,7.82,38.73,6.43,38.73z M6.91,42.63c-0.23,1.5-1.37,1.5-2.47,1.5H3.8l0.44-2.79
						c0.03-0.17,0.17-0.29,0.34-0.29h0.29c0.75,0,1.46,0,1.83,0.43C6.92,41.73,6.99,42.11,6.91,42.63z"/>
					<path class="st1" d="M18.87,42.58h-1.99c-0.17,0-0.32,0.12-0.34,0.29l-0.09,0.56l-0.14-0.2c-0.43-0.63-1.39-0.84-2.36-0.84
						c-2.2,0-4.09,1.67-4.45,4.01c-0.19,1.17,0.08,2.28,0.74,3.06c0.61,0.72,1.48,1.01,2.51,1.01c1.78,0,2.76-1.14,2.76-1.14
						l-0.09,0.55c-0.03,0.21,0.13,0.4,0.34,0.4h1.8c0.28,0,0.53-0.21,0.57-0.49l1.08-6.83C19.25,42.77,19.09,42.58,18.87,42.58z
						 M16.09,46.47c-0.19,1.14-1.1,1.9-2.25,1.9c-0.58,0-1.04-0.19-1.34-0.54c-0.3-0.35-0.41-0.85-0.31-1.4
						c0.18-1.13,1.1-1.92,2.24-1.92c0.57,0,1.03,0.19,1.33,0.54C16.06,45.41,16.18,45.91,16.09,46.47z"/>
					<path class="st0" d="M48.58,42.58h-1.99c-0.17,0-0.32,0.12-0.34,0.29l-0.09,0.56l-0.14-0.2c-0.43-0.63-1.39-0.84-2.36-0.84
						c-2.2,0-4.09,1.67-4.45,4.01c-0.19,1.17,0.08,2.28,0.74,3.06c0.61,0.72,1.48,1.01,2.51,1.01c1.78,0,2.76-1.14,2.76-1.14
						l-0.09,0.55c-0.03,0.21,0.13,0.4,0.34,0.4h1.8c0.28,0,0.53-0.21,0.57-0.49l1.08-6.83C48.96,42.77,48.79,42.58,48.58,42.58z
						 M45.8,46.47c-0.19,1.14-1.1,1.9-2.25,1.9c-0.58,0-1.04-0.19-1.34-0.54c-0.3-0.35-0.41-0.85-0.31-1.4
						c0.18-1.13,1.1-1.92,2.24-1.92c0.57,0,1.03,0.19,1.33,0.54C45.77,45.41,45.89,45.91,45.8,46.47z"/>
					<path class="st1" d="M29.5,42.58h-2c-0.19,0-0.37,0.1-0.48,0.25l-2.77,4.07L23.08,43c-0.07-0.24-0.3-0.41-0.55-0.41h-1.97
						c-0.24,0-0.41,0.23-0.33,0.46l2.21,6.48l-2.08,2.93c-0.16,0.23,0,0.55,0.28,0.55h2c0.19,0,0.37-0.09,0.48-0.25l6.67-9.62
						C29.94,42.9,29.78,42.58,29.5,42.58z"/>
					<path class="st0" d="M50.93,39.02L49.22,49.9c-0.03,0.21,0.13,0.4,0.34,0.4h1.72c0.28,0,0.53-0.21,0.57-0.49l1.69-10.68
						c0.03-0.21-0.13-0.4-0.34-0.4h-1.92C51.1,38.73,50.96,38.86,50.93,39.02z"/>
				</g>
			</g>
		</g>
	</g>
	<g>
		<path class="st0" d="M39.76,8.78c0.42-2.69,0-4.52-1.46-6.17C36.7,0.78,33.81,0,30.11,0H19.37c-0.76,0-1.4,0.55-1.52,1.3
			l-4.47,28.36c-0.09,0.56,0.34,1.07,0.91,1.07h6.63l-0.46,2.9c-0.08,0.49,0.3,0.93,0.8,0.93h5.59c0.66,0,1.22-0.48,1.33-1.13
			l0.05-0.28l1.05-6.68l0.07-0.37c0.1-0.65,0.67-1.13,1.33-1.13h0.84c5.41,0,9.65-2.2,10.89-8.56c0.52-2.66,0.25-4.88-1.12-6.44
			C40.88,9.49,40.36,9.1,39.76,8.78L39.76,8.78"/>
		<path class="st2" d="M39.76,8.78c0.42-2.69,0-4.52-1.46-6.17C36.7,0.78,33.81,0,30.11,0H19.37c-0.76,0-1.4,0.55-1.52,1.3
			l-4.47,28.36c-0.09,0.56,0.34,1.07,0.91,1.07h6.63l1.67-10.56l-0.05,0.33c0.12-0.75,0.76-1.3,1.51-1.3h3.15
			c6.19,0,11.04-2.51,12.45-9.79C39.69,9.19,39.73,8.98,39.76,8.78"/>
		<path class="st1" d="M24.37,8.82c0.07-0.45,0.36-0.82,0.75-1c0.18-0.08,0.37-0.13,0.58-0.13h8.42c1,0,1.93,0.07,2.78,0.2
			c0.24,0.04,0.48,0.08,0.71,0.14c0.23,0.05,0.45,0.11,0.67,0.17c0.11,0.03,0.21,0.06,0.32,0.1c0.42,0.14,0.81,0.3,1.16,0.49
			c0.42-2.69,0-4.52-1.46-6.17C36.7,0.78,33.81,0,30.11,0H19.37c-0.76,0-1.4,0.55-1.52,1.3l-4.47,28.36
			c-0.09,0.56,0.34,1.07,0.91,1.07h6.63l1.67-10.56L24.37,8.82z"/>
	</g>
</g>
</svg>
