<svg version="1.1" id="Capa_1" xmlns="http://www.w3.org/2000/svg" x="0" y="0" viewBox="0 0 35 35" xml:space="preserve"><style>.st0{fill:#4e4cf7}.st1{fill:#fff}</style><circle class="st0" cx="17.5" cy="17.5" r="17.5"/><path class="st1" d="M17.5 8.05l2.87 5.82 6.43.93-4.65 4.54 1.1 6.4-5.75-3.02-5.75 3.02 1.1-6.4L8.2 14.8l6.43-.93z"/><circle class="st1" cx="23.99" cy="19.89" r="4.14"/><path class="st0" d="M23.99 24.71c-2.65 0-4.81-2.16-4.81-4.81 0-2.65 2.16-4.81 4.81-4.81 2.65 0 4.81 2.16 4.81 4.81 0 2.65-2.16 4.81-4.81 4.81zm0-8.29c-1.92 0-3.48 1.56-3.48 3.48s1.56 3.48 3.48 3.48 3.48-1.56 3.48-3.48-1.56-3.48-3.48-3.48z"/><path class="st0" d="M23.44 22.31l-1.96-1.77.89-.99.97.87 2.22-2.45.99.9z"/></svg>