<svg width="25" height="13" viewBox="0 0 25 13" fill="none" xmlns="http://www.w3.org/2000/svg">
<path d="M24.225 5.83639C24.2248 5.83611 24.2245 5.83578 24.2242 5.8355L19.3256 0.960497C18.9586 0.595294 18.365 0.596653 17.9997 0.963684C17.6345 1.33067 17.6359 1.92425 18.0028 2.2895L21.2918 5.5625H1.4375C0.919719 5.5625 0.5 5.98221 0.5 6.5C0.5 7.01778 0.919719 7.4375 1.4375 7.4375H21.2917L18.0029 10.7105C17.6359 11.0757 17.6345 11.6693 17.9998 12.0363C18.365 12.4034 18.9587 12.4047 19.3256 12.0395L24.2242 7.1645C24.2245 7.16421 24.2248 7.16389 24.2251 7.16361C24.5923 6.79714 24.5911 6.20164 24.225 5.83639Z" fill="white"/>
</svg>
