<svg xmlns="http://www.w3.org/2000/svg" width="12.242" height="34.29" viewBox="0 0 12.242 34.29"><g transform="translate(-34 -4.75)"><path d="M47.726,15.36a.565.565,0,0,0-.163-.4l-2.772-2.8a.559.559,0,0,0-.792,0l-2.772,2.8a.565.565,0,0,0-.163.4.539.539,0,0,0,.163.388.533.533,0,0,0,.792,0l1.817-1.821V38.644l-1.817-1.821a.533.533,0,0,0-.792,0,.539.539,0,0,0-.163.388.565.565,0,0,0,.163.4L44,40.407a.559.559,0,0,0,.792,0l2.772-2.8a.565.565,0,0,0,.163-.4.539.539,0,0,0-.163-.388.569.569,0,0,0-.4-.176.841.841,0,0,0-.4.176l-1.817,1.821V13.927l1.817,1.821a.533.533,0,0,0,.792,0A.539.539,0,0,0,47.726,15.36Z" transform="translate(-4.273 -4.391)" fill="#4e4cf7" stroke="#4e4cf7" stroke-width="0.5"/><path d="M45.433,6.118a.559.559,0,1,0,0-1.118H34.809a.559.559,0,0,0,0,1.118Z" fill="#4e4cf7" stroke="#4e4cf7" stroke-width="0.5"/><path d="M45.433,93.118a.559.559,0,0,0,0-1.118H34.809a.559.559,0,0,0,0,1.118Z" transform="translate(0 -54.328)" fill="#4e4cf7" stroke="#4e4cf7" stroke-width="0.5"/></g></svg>