<svg xmlns="http://www.w3.org/2000/svg" width="34.29" height="34.29" viewBox="0 0 34.29 34.29"><g transform="translate(-1480.855 -1048.855)"><path d="M29.038,0H4.752A4.752,4.752,0,0,0,0,4.752V29.038A4.752,4.752,0,0,0,4.752,33.79H29.038a4.752,4.752,0,0,0,4.752-4.752V4.752A4.752,4.752,0,0,0,29.038,0Zm3.7,29.038a3.7,3.7,0,0,1-3.7,3.7H4.752a3.7,3.7,0,0,1-3.7-3.7V4.752a3.7,3.7,0,0,1,3.7-3.7H29.038a3.7,3.7,0,0,1,3.7,3.7Z" transform="translate(1481.105 1049.105)" fill="#4e4cf7" stroke="#4e4cf7" stroke-width="0.5"/><path d="M34,11.18a14.469,14.469,0,0,0-10.62,4.662.528.528,0,0,0-.018.694l5.6,6.776a.527.527,0,0,0,.792.026,5.829,5.829,0,0,1,8.5,0,.528.528,0,0,0,.385.166h.016a.528.528,0,0,0,.391-.193l5.6-6.776a.528.528,0,0,0-.018-.694A14.469,14.469,0,0,0,34,11.18Zm-.356,9.279L34,18.223l.356,2.236c-.119,0-.238-.016-.356-.016S33.763,20.454,33.644,20.459Zm4.95,1.74a6.792,6.792,0,0,0-3.144-1.6l-.921-5.8a.528.528,0,0,0-1.043,0L32.559,20.6A6.792,6.792,0,0,0,29.407,22.2l-4.931-5.974a13.365,13.365,0,0,1,19.049,0Z" transform="translate(1463.999 1040.877)" fill="#4e4cf7" stroke="#4e4cf7" stroke-width="0.5"/></g></svg>