<?xml version="1.0" encoding="utf-8"?>
<!-- Generator: Adobe Illustrator 26.1.0, SVG Export Plug-In . SVG Version: 6.00 Build 0)  -->
<svg version="1.1" id="Layer_1" xmlns="http://www.w3.org/2000/svg" xmlns:xlink="http://www.w3.org/1999/xlink" x="0px" y="0px"
	 viewBox="0 0 80 14" style="enable-background:new 0 0 80 14;" xml:space="preserve">
<style type="text/css">
	.st0{fill-rule:evenodd;clip-rule:evenodd;fill:#F89132;}
</style>
<g>
	<path class="st0" d="M72,11.4l-3.9,2.4c-0.5,0.3-0.8,0.1-0.6-0.4l1.1-4.5l-3.5-3c-0.4-0.4-0.3-0.7,0.2-0.7l4.6-0.4l1.8-4.3
		c0.2-0.5,0.6-0.5,0.8,0l1.8,4.3l4.6,0.4c0.6,0,0.7,0.4,0.2,0.7l-3.5,3l1.1,4.5c0.1,0.5-0.1,0.7-0.6,0.4L72,11.4L72,11.4z M56,11.4
		l-3.9,2.4c-0.5,0.3-0.8,0.1-0.6-0.4l1.1-4.5l-3.5-3c-0.4-0.4-0.3-0.7,0.2-0.7l4.6-0.4l1.8-4.3c0.2-0.5,0.5-0.5,0.8,0l1.8,4.3
		l4.6,0.4c0.6,0,0.7,0.4,0.2,0.7l-3.5,3l1.1,4.5c0.1,0.5-0.1,0.7-0.6,0.4L56,11.4L56,11.4z M40.1,11.4l-3.9,2.4
		c-0.5,0.3-0.8,0.1-0.6-0.4l1.1-4.5l-3.5-3c-0.4-0.4-0.3-0.7,0.2-0.7L38,4.7l1.8-4.3c0.2-0.5,0.5-0.5,0.8,0l1.8,4.3l4.6,0.4
		c0.6,0,0.7,0.4,0.2,0.7l-3.5,3l1.1,4.5c0.1,0.5-0.1,0.7-0.6,0.4L40.1,11.4L40.1,11.4z M24.1,11.4l-3.9,2.4
		c-0.5,0.3-0.8,0.1-0.6-0.4l1.1-4.5l-3.5-3c-0.4-0.4-0.3-0.7,0.2-0.7l4.6-0.4l1.8-4.3c0.2-0.5,0.5-0.5,0.8,0l1.8,4.3l4.6,0.4
		c0.6,0,0.7,0.4,0.2,0.7l-3.5,3l1.1,4.5c0.1,0.5-0.1,0.7-0.6,0.4L24.1,11.4L24.1,11.4z M8.1,11.4l-3.9,2.4c-0.5,0.3-0.8,0.1-0.6-0.4
		l1.1-4.5l-3.5-3C0.7,5.4,0.8,5.1,1.4,5.1L6,4.7l1.8-4.3c0.2-0.5,0.5-0.5,0.8,0l1.8,4.3l4.6,0.4c0.6,0,0.7,0.4,0.2,0.7l-3.5,3
		l1.1,4.5c0.1,0.5-0.1,0.7-0.6,0.4L8.1,11.4L8.1,11.4z"/>
</g>
</svg>
