<?xml version="1.0" encoding="utf-8"?>
<!-- Generator: Adobe Illustrator 25.0.0, SVG Export Plug-In . SVG Version: 6.00 Build 0)  -->
<svg version="1.1" id="Capa_1" xmlns="http://www.w3.org/2000/svg" xmlns:xlink="http://www.w3.org/1999/xlink" x="0px" y="0px"
	 viewBox="0 0 191.73 192.91" style="enable-background:new 0 0 191.73 192.91;" xml:space="preserve">
<style type="text/css">
	.st0{fill:#FFFFFF;}
</style>
<g>
	<path class="st0" d="M67.28,4.38c-0.69,0.22-1.38,0.43-2.06,0.66l6.37,16.11L67.28,4.38z"/>
	<path class="st0" d="M102.55,0.23l-0.28,17.31l2.43-17.17C103.99,0.31,103.27,0.27,102.55,0.23"/>
	<path class="st0" d="M60.14,6.92c-0.67,0.27-1.33,0.54-2,0.82l7.61,15.55L60.14,6.92z"/>
	<path class="st0" d="M4.65,65.63C4.42,66.31,4.2,67,3.99,67.69L20.74,72L4.65,65.63z"/>
	<path class="st0" d="M119.64,2.9c-0.7-0.17-1.4-0.34-2.1-0.5l-2.98,17.08L119.64,2.9z"/>
	<path class="st0" d="M126.91,5.04c-0.69-0.23-1.37-0.45-2.06-0.66l-4.31,16.79L126.91,5.04z"/>
	<path class="st0" d="M110.09,1.01l-1.63,17.26l3.77-16.91C111.51,1.24,110.8,1.12,110.09,1.01"/>
	<path class="st0" d="M46.59,13.66c-0.62,0.37-1.25,0.73-1.86,1.11l9.96,14.18L46.59,13.66z"/>
	<path class="st0" d="M40.24,17.79c-0.59,0.42-1.16,0.85-1.74,1.28L49.51,32.4L40.24,17.79z"/>
	<path class="st0" d="M14.39,45.15c-0.38,0.61-0.77,1.22-1.14,1.83l15.29,8.1L14.39,45.15z"/>
	<path class="st0" d="M133.98,7.75c-0.66-0.28-1.32-0.58-1.98-0.85l-5.63,16.41L133.98,7.75z"/>
	<path class="st0" d="M18.67,38.9c-0.43,0.58-0.85,1.16-1.27,1.74l14.6,9.27L18.67,38.9z"/>
	<path class="st0" d="M7.36,58.56c-0.28,0.66-0.58,1.32-0.85,1.99l16.38,5.62L7.36,58.56z"/>
	<path class="st0" d="M10.59,51.7c-0.34,0.64-0.64,1.29-0.96,1.94l15.87,6.87L10.59,51.7z"/>
	<path class="st0" d="M34.24,22.42c-0.55,0.46-1.09,0.93-1.63,1.41l12.03,12.42L34.24,22.42z"/>
	<path class="st0" d="M28.63,27.51c-0.51,0.5-1.04,1-1.54,1.51l12.97,11.44L28.63,27.51z"/>
	<path class="st0" d="M23.42,33c-0.47,0.54-0.93,1.1-1.39,1.65l13.81,10.38L23.42,33z"/>
	<path class="st0" d="M53.22,10.01c-0.65,0.32-1.28,0.67-1.92,1l8.8,14.9L53.22,10.01z"/>
	<path class="st0" d="M82.04,1.03c-0.71,0.11-1.43,0.19-2.14,0.31l3.77,16.91L82.04,1.03z"/>
	<path class="st0" d="M74.59,2.4c-0.7,0.16-1.4,0.34-2.1,0.52l5.08,16.54L74.59,2.4z"/>
	<path class="st0" d="M89.57,0.2c-0.72,0.05-1.43,0.13-2.15,0.2l2.43,17.11L89.57,0.2z"/>
	<path class="st0" d="M188.15,67.69c-0.22-0.69-0.43-1.38-0.66-2.06L171.37,72L188.15,67.69z"/>
	<path class="st0" d="M102.55,192.7c0.73-0.05,1.43-0.13,2.15-0.2l-2.42-17.11L102.55,192.7z"/>
	<path class="st0" d="M117.53,190.51c0.7-0.16,1.4-0.34,2.1-0.52l-5.08-16.54L117.53,190.51z"/>
	<path class="st0" d="M185.61,60.55c-0.27-0.67-0.54-1.34-0.83-2l-15.57,7.62L185.61,60.55z"/>
	<path class="st0" d="M110.09,191.88c0.71-0.1,1.43-0.19,2.14-0.31l-3.77-16.9L110.09,191.88z"/>
	<path class="st0" d="M147.38,14.79c-0.61-0.38-1.21-0.77-1.83-1.14l-8.11,15.31L147.38,14.79z"/>
	<path class="st0" d="M165.02,29.03c-0.5-0.51-1-1.04-1.51-1.54l-11.46,12.99L165.02,29.03z"/>
	<path class="st0" d="M153.63,19.07c-0.58-0.43-1.15-0.86-1.74-1.27l-9.29,14.62L153.63,19.07z"/>
	<path class="st0" d="M159.53,23.82c-0.54-0.47-1.1-0.93-1.65-1.39l-10.4,13.83L159.53,23.82z"/>
	<path class="st0" d="M140.83,10.99c-0.64-0.33-1.29-0.64-1.94-0.96l-6.88,15.9L140.83,10.99z"/>
	<path class="st0" d="M174.74,40.64c-0.42-0.59-0.85-1.16-1.27-1.74l-13.34,11.03L174.74,40.64z"/>
	<path class="st0" d="M178.87,46.99c-0.37-0.62-0.72-1.25-1.11-1.85l-14.19,9.96L178.87,46.99z"/>
	<path class="st0" d="M170.11,34.65c-0.46-0.55-0.94-1.1-1.41-1.64l-12.43,12.04L170.11,34.65z"/>
	<path class="st0" d="M182.53,53.63c-0.32-0.65-0.67-1.28-1-1.92l-14.91,8.81L182.53,53.63z"/>
	<path class="st0" d="M124.84,188.53c0.69-0.22,1.37-0.43,2.06-0.66l-6.37-16.1L124.84,188.53z"/>
	<path class="st0" d="M138.9,182.91c0.65-0.32,1.28-0.67,1.92-1l-8.8-14.9L138.9,182.91z"/>
	<path class="st0" d="M163.48,165.42c0.51-0.5,1.04-1,1.54-1.52l-12.97-11.45L163.48,165.42z"/>
	<path class="st0" d="M145.53,179.26c0.62-0.37,1.25-0.73,1.86-1.11l-9.95-14.17L145.53,179.26z"/>
	<path class="st0" d="M157.88,170.5c0.55-0.46,1.09-0.93,1.63-1.41l-12.03-12.42L157.88,170.5z"/>
	<path class="st0" d="M151.88,175.13c0.59-0.42,1.16-0.85,1.74-1.28l-11.02-13.33L151.88,175.13z"/>
	<path class="st0" d="M131.98,185.99c0.67-0.27,1.33-0.54,2-0.82l-7.61-15.55L131.98,185.99z"/>
	<path class="st0" d="M94.99,192.89c0.72,0.01,1.43,0.03,2.16,0.02l-1.08-17.26L94.99,192.89z"/>
	<path class="st0" d="M97.14,0.02C96.43,0.02,95.71-0.01,94.99,0l1.08,17.27L97.14,0.02z"/>
	<path class="st0" d="M189.62,120.04c0.17-0.7,0.34-1.4,0.5-2.1l-17.06-2.98L189.62,120.04z"/>
	<path class="st0" d="M184.77,134.38c0.28-0.66,0.58-1.32,0.85-1.99l-16.4-5.62L184.77,134.38z"/>
	<path class="st0" d="M187.48,127.31c0.23-0.68,0.44-1.37,0.66-2.06l-16.77-4.31L187.48,127.31z"/>
	<path class="st0" d="M89.57,192.68l0.28-17.24l-2.43,17.1C88.14,192.6,88.86,192.63,89.57,192.68"/>
	<path class="st0" d="M168.7,159.93c0.47-0.54,0.93-1.1,1.39-1.65l-13.82-10.38L168.7,159.93z"/>
	<path class="st0" d="M190.13,75c-0.16-0.7-0.34-1.4-0.51-2.1l-16.56,5.08L190.13,75z"/>
	<path class="st0" d="M181.53,141.23c0.34-0.64,0.64-1.29,0.96-1.94l-15.88-6.88L181.53,141.23z"/>
	<path class="st0" d="M173.45,154.03c0.43-0.58,0.86-1.16,1.27-1.75l-14.6-9.27L173.45,154.03z"/>
	<path class="st0" d="M177.73,147.78c0.38-0.61,0.77-1.22,1.14-1.84l-15.3-8.11L177.73,147.78z"/>
	<path class="st0" d="M2.01,117.94c0.16,0.7,0.34,1.4,0.51,2.09l16.53-5.07L2.01,117.94z"/>
	<path class="st0" d="M13.27,145.94c0.37,0.61,0.72,1.24,1.1,1.85l14.16-9.94L13.27,145.94z"/>
	<path class="st0" d="M82.04,191.9l1.64-17.19l-3.77,16.84C80.63,191.67,81.33,191.79,82.04,191.9"/>
	<path class="st0" d="M17.4,152.29c0.42,0.58,0.84,1.16,1.27,1.74l13.31-11L17.4,152.29z"/>
	<path class="st0" d="M22.03,158.28c0.46,0.55,0.93,1.09,1.4,1.63l12.4-12L22.03,158.28z"/>
	<path class="st0" d="M6.54,132.39c0.27,0.67,0.54,1.33,0.82,1.99l15.54-7.6L6.54,132.39z"/>
	<path class="st0" d="M27.12,163.89c0.5,0.51,1,1.03,1.51,1.53l11.43-12.95L27.12,163.89z"/>
	<path class="st0" d="M2.51,72.9c-0.17,0.7-0.34,1.4-0.5,2.1l17.04,2.98L2.51,72.9z"/>
	<path class="st0" d="M3.99,125.25c0.21,0.69,0.43,1.37,0.66,2.05l16.08-6.36L3.99,125.25z"/>
	<path class="st0" d="M9.62,139.3c0.32,0.65,0.66,1.27,1,1.91l14.88-8.79L9.62,139.3z"/>
	<path class="st0" d="M32.61,169.11c0.54,0.47,1.1,0.93,1.65,1.39l10.37-13.79L32.61,169.11z"/>
	<path class="st0" d="M65.24,187.87c0.68,0.23,1.37,0.45,2.05,0.66l4.31-16.73L65.24,187.87z"/>
	<path class="st0" d="M72.5,190.01c0.7,0.17,1.4,0.34,2.1,0.5l2.98-17.01L72.5,190.01z"/>
	<path class="st0" d="M58.16,185.16c0.66,0.28,1.31,0.58,1.98,0.84l5.61-16.36L58.16,185.16z"/>
	<path class="st0" d="M38.51,173.86c0.58,0.43,1.16,0.85,1.74,1.27l9.26-14.57L38.51,173.86z"/>
	<path class="st0" d="M51.31,181.93c0.64,0.33,1.29,0.64,1.93,0.96l6.87-15.84L51.31,181.93z"/>
	<path class="st0" d="M44.76,178.13c0.61,0.38,1.21,0.77,1.83,1.14l8.09-15.26L44.76,178.13z"/>
	<path class="st0" d="M100.45,9.19c-0.57,0.13-1.15,0.24-1.75,0.33l0.4,13.28L100.45,9.19z"/>
	<path class="st0" d="M121.71,27.34l5.53-12.62c-0.52-0.41-1.02-0.83-1.47-1.26L121.71,27.34z"/>
	<path class="st0" d="M105.44,184.17c0.4,0.13,0.83,0.25,1.2,0.41l0.84,0.35l-2.88-15.26L105.44,184.17z"/>
	<path class="st0" d="M126.09,180.97l1.19-1.43c0.08-0.1,0.19-0.19,0.28-0.29l-6.12-13.59L126.09,180.97z"/>
	<path class="st0" d="M115.32,6.07c-0.79-0.17-1.58-0.25-2.38-0.29l-2.35,18.4L115.32,6.07z"/>
	<path class="st0" d="M106.81,6.76l-1.17,0.54l-0.78,15.96l3.01-16.84C107.53,6.54,107.15,6.61,106.81,6.76"/>
	<path class="st0" d="M121.82,9.38c-0.59-0.55-1.22-1.05-1.93-1.48l-3.68,17.65L121.82,9.38z"/>
	<path class="st0" d="M133.05,174.87l-6.26-11.43l4.83,12.34C132.09,175.47,132.56,175.17,133.05,174.87"/>
	<path class="st0" d="M119.93,185.65c0.75-0.29,1.48-0.63,2.16-1.04l-6.15-17.18L119.93,185.65z"/>
	<path class="st0" d="M163.58,150.83c0.32-0.46,0.62-0.92,0.96-1.36l-10.68-7.28L163.58,150.83z"/>
	<path class="st0" d="M160.39,157.3c0.18-0.62,0.4-1.26,0.67-1.9l-10.96-8.8L160.39,157.3z"/>
	<path class="st0" d="M163.64,42.21l-9.6,8.71l10.73-7.48C164.38,43.06,164.01,42.64,163.64,42.21"/>
	<path class="st0" d="M146.95,171.1c0.07,0,0.13-0.02,0.2-0.03l-10.25-13.25l7.84,13.39L146.95,171.1z"/>
	<path class="st0" d="M139.33,172.09l-7.38-11.26l5.74,11.83C138.24,172.46,138.79,172.26,139.33,172.09"/>
	<path class="st0" d="M152.13,169.57c0.71-0.37,1.39-0.8,2.04-1.28l-12.58-13.86L152.13,169.57z"/>
	<path class="st0" d="M157.6,164.81c0.47-0.67,0.87-1.36,1.21-2.08L146,150.68L157.6,164.81z"/>
	<path class="st0" d="M112.76,186.58c0.79,0.09,1.6,0.12,2.41,0.08l-4.86-17.88L112.76,186.58z"/>
	<path class="st0" d="M179.44,136.26c0.39-0.71,0.72-1.43,0.99-2.19l-17.49-6.63L179.44,136.26z"/>
	<path class="st0" d="M181.12,126.89l-0.03-0.15l-15.93-4.65l16.17,7.08C181.34,128.4,181.28,127.63,181.12,126.89"/>
	<path class="st0" d="M179.55,72.09l-12.5,4.48l12.72-2.79C179.68,73.22,179.62,72.66,179.55,72.09"/>
	<path class="st0" d="M180.2,121.18c-0.03-0.6-0.05-1.2-0.03-1.83l-13.19-2.75L180.2,121.18z"/>
	<path class="st0" d="M175.43,50.74l-14.98,9.81l16.62-8.06C176.57,51.86,176.02,51.28,175.43,50.74"/>
	<path class="st0" d="M176.35,140.16l-16.04-7.58l14.05,9C175.07,141.2,175.73,140.71,176.35,140.16"/>
	<path class="st0" d="M179.63,66.53l0.37-2.09l-14.72,6.62l14.34-4.35C179.62,66.66,179.62,66.59,179.63,66.53"/>
	<path class="st0" d="M179.44,56.74l-16.37,8.97l17.02-6.66C179.94,58.28,179.71,57.5,179.44,56.74"/>
	<path class="st0" d="M141.81,38.65l12.38-13.92c-0.56-0.57-1.17-1.09-1.82-1.57L141.81,38.65z"/>
	<path class="st0" d="M137.13,35.24l10.85-14.32c-0.79-0.25-1.57-0.41-2.37-0.5L137.13,35.24z"/>
	<path class="st0" d="M170.13,47.53c-0.42-0.21-0.84-0.49-1.26-0.75l-11.43,8.84l13.29-7.78L170.13,47.53z"/>
	<path class="st0" d="M138.07,19.78l-5.87,12.43l7.75-12.1C139.35,20.03,138.71,19.92,138.07,19.78"/>
	<path class="st0" d="M157.52,30.24c-0.13-0.44-0.32-0.86-0.5-1.29L146.2,42.42l11.61-11.15L157.52,30.24z"/>
	<path class="st0" d="M131.65,17.46l-4.59,12.1l6.1-11.4C132.64,17.95,132.14,17.71,131.65,17.46"/>
	<path class="st0" d="M28.47,150.68l9.63-8.73l-10.75,7.49C27.73,149.84,28.1,150.26,28.47,150.68"/>
	<path class="st0" d="M98.56,183.08c0.57,0.01,1.12,0.03,1.68,0.08l-1.42-13.05L98.56,183.08z"/>
	<path class="st0" d="M159.71,36.51l-9.42,10.01l10.29-8.44C160.27,37.56,159.98,37.04,159.71,36.51"/>
	<path class="st0" d="M34.61,162.67c0.12,0.43,0.31,0.84,0.49,1.26l10.83-13.47l-11.61,11.16L34.61,162.67z"/>
	<path class="st0" d="M10.79,63.71c0,0.78,0.06,1.55,0.21,2.3l0.02,0.12l15.94,4.66L10.79,63.71z"/>
	<path class="st0" d="M24.1,47.22c-0.47,0.42-0.95,0.81-1.43,1.17l12.2,6.99L24.1,47.22z"/>
	<path class="st0" d="M12.71,56.63c-0.39,0.7-0.72,1.43-1,2.18l17.5,6.64L12.71,56.63z"/>
	<path class="st0" d="M11.97,73.54l13.21,2.76l-13.24-4.6C11.96,72.3,11.98,72.91,11.97,73.54"/>
	<path class="st0" d="M12.57,120.79l12.52-4.48l-12.74,2.79C12.45,119.67,12.51,120.23,12.57,120.79"/>
	<path class="st0" d="M85.31,186.15l1.15-0.52l0.79-16.01l-3.03,16.91C84.59,186.41,84.97,186.31,85.31,186.15"/>
	<path class="st0" d="M93.58,9.84c-0.56-0.01-1.12-0.03-1.67-0.08l1.42,13.04L93.58,9.84z"/>
	<path class="st0" d="M86.71,8.76c-0.42-0.14-0.84-0.26-1.23-0.42L84.67,8l2.88,15.25L86.71,8.76z"/>
	<path class="st0" d="M12.68,136.14l16.39-8.98l-17.04,6.66C12.19,134.61,12.41,135.38,12.68,136.14"/>
	<path class="st0" d="M22.01,145.38c0.41,0.21,0.82,0.48,1.23,0.74l11.46-8.85l-13.31,7.8L22.01,145.38z"/>
	<path class="st0" d="M91.67,183.73c0.57-0.13,1.15-0.24,1.74-0.33l-0.39-13.32L91.67,183.73z"/>
	<path class="st0" d="M169.48,144.5l-12.2-6.98l10.77,8.15C168.52,145.25,169,144.87,169.48,144.5"/>
	<path class="st0" d="M16.68,142.15l15.01-9.82l-16.64,8.07C15.55,141.03,16.09,141.61,16.68,142.15"/>
	<path class="st0" d="M15.81,52.73l16.04,7.58l-14.05-9C17.08,51.7,16.43,52.19,15.81,52.73"/>
	<path class="st0" d="M76.79,186.87c0.78,0.17,1.58,0.28,2.38,0.32l2.38-18.49L76.79,186.87z"/>
	<path class="st0" d="M12.5,126.38l-0.36,2.06l14.73-6.62l-14.35,4.35C12.51,126.23,12.51,126.31,12.5,126.38"/>
	<path class="st0" d="M52.82,20.81l7.37,11.26l-5.74-11.83C53.91,20.45,53.36,20.65,52.82,20.81"/>
	<path class="st0" d="M40.01,23.33c-0.71,0.37-1.39,0.79-2.03,1.27l12.58,13.88L40.01,23.33z"/>
	<path class="st0" d="M70.28,183.58c0.59,0.54,1.23,1.03,1.94,1.45l3.7-17.69L70.28,183.58z"/>
	<path class="st0" d="M79.38,6.34c-0.79-0.09-1.59-0.12-2.4-0.08l4.86,17.87L79.38,6.34z"/>
	<path class="st0" d="M31.74,35.58c-0.18,0.63-0.39,1.26-0.66,1.91l10.98,8.82L31.74,35.58z"/>
	<path class="st0" d="M33.34,30.15l12.82,12.08L34.55,28.08C34.08,28.74,33.67,29.43,33.34,30.15"/>
	<path class="st0" d="M59.1,18.03l6.26,11.43l-4.83-12.34C60.06,17.43,59.59,17.74,59.1,18.03"/>
	<path class="st0" d="M72.21,7.26c-0.75,0.29-1.48,0.63-2.16,1.03l6.16,17.19L72.21,7.26z"/>
	<path class="st0" d="M66.05,11.92l-1.21,1.45c-0.08,0.09-0.18,0.18-0.26,0.27l6.12,13.61L66.05,11.92z"/>
	<path class="st0" d="M45.18,21.82c-0.05,0-0.11,0.02-0.16,0.02l10.24,13.24L47.41,21.7L45.18,21.82z"/>
	<path class="st0" d="M60.46,175.44l4.61-12.13l-6.11,11.43C59.47,174.96,59.97,175.19,60.46,175.44"/>
	<path class="st0" d="M70.41,165.54l-5.54,12.65c0.52,0.41,1.01,0.82,1.47,1.26L70.41,165.54z"/>
	<path class="st0" d="M27.6,43.42l10.68,7.29l-9.73-8.64C28.25,42.51,27.94,42.97,27.6,43.42"/>
	<path class="st0" d="M54.03,173.13l5.89-12.46l-7.77,12.13C52.76,172.88,53.39,172.99,54.03,173.13"/>
	<path class="st0" d="M54.99,157.64l-10.87,14.35c0.78,0.25,1.57,0.41,2.36,0.5L54.99,157.64z"/>
	<path class="st0" d="M32.41,156.38l9.44-10.01l-10.31,8.45C31.85,155.34,32.14,155.86,32.41,156.38"/>
	<path class="st0" d="M50.32,154.23l-12.4,13.94c0.56,0.57,1.17,1.09,1.81,1.57L50.32,154.23z"/>
	<path class="st0" d="M42.35,49.05c0,3.96,3.06,6.82,7.29,6.82c2.5,0,4.6-0.91,6.06-2.64l0.08-0.09l-1.41-1.53l-0.1,0.11
		c-1.46,1.46-2.68,2-4.51,2c-2.55,0-5.3-1.45-5.3-4.64c0-2.69,2.06-4.65,4.91-4.65c1.59,0,2.99,0.58,4.55,1.89l0.09,0.08l1.59-1.35
		l-0.11-0.11c-1.78-1.73-3.93-2.64-6.22-2.64C45.32,42.29,42.35,45.2,42.35,49.05"/>
	<path class="st0" d="M70.54,46.48c0-2.36-1.62-3.88-4.14-3.88h-7.66v12.97h2.13v-5.25h4.5l2.51,5.18l0.04,0.08h2.41l-2.66-5.37
		C69.52,49.69,70.54,48.38,70.54,46.48 M66.4,48.18h-5.52v-3.46h5.52c0.92,0,2.02,0.29,2.02,1.66
		C68.42,47.95,67.15,48.18,66.4,48.18"/>
	<polygon class="st0" points="77.95,47.87 74.19,42.66 74.15,42.6 71.57,42.6 76.86,49.98 76.86,55.57 78.98,55.57 78.98,49.98 
		84.35,42.6 81.71,42.6 	"/>
	<path class="st0" d="M91.18,55.86c2.84,0,6.14-1.08,6.14-4.14c0-1.39-0.67-2.58-1.85-3.29c-1.32-0.78-2.57-0.78-3.9-0.78h-1.89
		c-1.36,0-2-0.42-2-1.32c0-1.5,2.34-1.9,3.58-1.9c1.54,0,2.46,0.4,3.92,1.31l0.11,0.07l1.19-1.7l-0.11-0.08
		c-1.53-1.15-3.38-1.76-5.35-1.76c-0.78,0-1.53,0.11-2.24,0.33c-1.58,0.51-3.26,1.77-3.26,3.76c0,2.45,2.11,3.36,3.91,3.39l1.9,0.03
		c1.84,0.04,2.45,0.07,3.09,0.47c0.52,0.34,0.79,0.78,0.79,1.33c0,1.69-2.38,2.14-3.79,2.14c-2.28,0-3.68-0.52-5.21-1.93l-0.1-0.09
		l-1.49,1.43l0.1,0.1C86.55,55.07,88.48,55.86,91.18,55.86"/>
	<polygon class="st0" points="99.07,44.74 103.59,44.74 103.59,55.57 105.68,55.57 105.68,44.74 110.15,44.74 110.15,42.6 
		99.07,42.6 	"/>
	<path class="st0" d="M117.93,42.62h-2.23l-5.81,12.75l-0.09,0.2h2.32l1.89-4.13h5.51l1.78,4.05l0.04,0.08h2.38l-5.77-12.87
		L117.93,42.62z M114.99,49.28l1.79-3.94l1.79,3.94H114.99z"/>
	<polygon class="st0" points="126.34,55.57 136.19,55.57 136.19,53.43 128.47,53.43 128.47,42.6 126.34,42.6 	"/>
	<path class="st0" d="M144.46,53.71c-2.27,0-3.68-0.52-5.21-1.94l-0.1-0.09l-1.5,1.43l0.1,0.1c1.83,1.85,3.76,2.64,6.45,2.64
		c2.84,0,6.15-1.08,6.15-4.14c0-1.38-0.67-2.58-1.85-3.29c-1.33-0.78-2.58-0.78-3.9-0.78h-1.89c-1.36,0-2-0.42-2-1.32
		c0-1.5,2.34-1.9,3.58-1.9c1.54,0,2.45,0.4,3.92,1.3l0.11,0.07l1.19-1.7l-0.11-0.08c-1.53-1.15-3.38-1.76-5.35-1.76
		c-0.78,0-1.54,0.11-2.24,0.33c-1.58,0.51-3.26,1.77-3.26,3.76c0,2.45,2.11,3.36,3.91,3.39l1.9,0.03c1.85,0.04,2.46,0.06,3.09,0.47
		c0.52,0.34,0.78,0.78,0.78,1.33C148.24,53.26,145.86,53.71,144.46,53.71"/>
	<path class="st0" d="M145.24,129.1c0.73-0.47,1.47-0.92,2.19-1.39c0.11-0.07,0.15-0.25,0.21-0.37c-0.15-0.01-0.32-0.08-0.44-0.03
		c-0.36,0.15-0.7,0.34-1.05,0.54c-0.67,0.39-1.33,0.8-1.99,1.21c-0.1,0.07-0.17,0.25-0.17,0.39c0,0.06,0.16,0.13,0.27,0.21
		c0.17-0.07,0.3-0.11,0.42-0.18C144.88,129.36,145.05,129.22,145.24,129.1"/>
	<path class="st0" d="M143.52,132.84c0.03,0.04,0.16,0.01,0.24-0.01c0.35-0.16,0.48-0.45,0.52-0.83c0.06-0.52-0.39-1.08-0.9-1.1
		c-0.02-0.03-0.04-0.05-0.06-0.07c-0.18,0.13-0.45,0.22-0.52,0.39c-0.1,0.3,0.26,0.27,0.42,0.38c0.02,0.02,0.07,0.01,0.09,0.03
		c0.06,0.07,0.16,0.14,0.16,0.22c-0.01,0.24-0.07,0.47-0.08,0.7C143.4,132.65,143.45,132.77,143.52,132.84"/>
	<path class="st0" d="M104.64,138.77c0.09-0.03,0.21-0.04,0.27,0.01c0.17,0.12,0.32,0.1,0.52,0.08c0.56-0.04,1.12,0.02,1.69,0.02
		c0.47,0,0.93-0.02,1.4-0.02c0.41,0,0.81,0.02,1.23,0.02c0.29,0.01,0.58-0.01,0.87-0.01c0.31,0.01,0.61,0.08,0.9,0.07
		c0.59-0.01,1.18-0.06,1.76-0.08c0.34-0.02,0.69,0.01,1.03,0.01c0.47,0.02,0.94,0.05,1.41,0.08c0.18,0.01,0.35,0.03,0.54,0.02
		c0.37-0.02,0.75-0.07,1.12-0.08c0.35-0.01,0.71,0.05,1.06,0.04c0.68-0.02,1.36-0.08,2.04-0.09c0.44,0,0.88,0.09,1.32,0.09
		c0.88,0.01,1.75-0.02,2.63-0.02c0.73,0,1.46,0.04,2.18,0.04c0.58,0,1.16-0.06,1.74-0.06c1.23,0.01,2.44,0.04,3.66,0.06
		c1.1,0.02,2.19,0.04,3.28,0.06c0.62,0.01,1.25,0.02,1.87,0.02c0.7,0,1.39,0.01,2.08,0.01c0.92-0.01,1.86-0.03,2.8-0.03
		c1.15,0.01,2.3,0.05,3.46,0.06c0.52,0,1.04-0.05,1.56-0.04c0.36,0.01,0.73,0.09,1.09,0.09c0.9,0.01,1.79-0.02,2.69,0.08
		c0.68,0.07,1.35,0.07,2.03,0.11c0.49,0.03,0.98,0.08,1.48,0.13c0.05,0.01,0.1-0.03,0.16-0.02c0.44,0.11,0.88,0.21,1.33,0.31
		c0.04,0.01,0.07,0.07,0.11,0.14c-0.11,0.06-0.19,0.13-0.29,0.15c-0.7,0.1-1.41,0.23-2.11,0.29c-0.69,0.06-1.37,0.08-2.06,0.07
		c-1.64-0.01-3.28-0.03-4.92-0.08c-1.23-0.02-2.45-0.08-3.68-0.15c-0.97-0.06-1.94-0.17-2.91-0.24c-1.13-0.08-2.27-0.14-3.4-0.2
		c-0.42-0.02-0.82-0.01-1.23-0.02c-0.55-0.02-1.1-0.06-1.65-0.06c-1.05-0.03-2.12-0.03-3.19-0.03c-0.13,0-0.27,0.06-0.42,0.09
		c0.12,0.09,0.24,0.19,0.35,0.28c0.03,0.01,0.06,0.01,0.1,0.01c0.69,0.05,1.4,0.12,2.1,0.13c0.98,0.03,1.98,0,2.97,0.03
		c1.08,0.03,2.15,0.09,3.22,0.16c0.55,0.04,1.1,0.1,1.64,0.17c0.48,0.04,0.96,0.15,1.44,0.16c0.94,0.05,1.89,0.05,2.84,0.06
		c0.63,0.01,1.26,0.03,1.89,0.04c0.49,0.01,0.97,0.06,1.45,0.06c0.6,0.01,1.18-0.02,1.77,0c0.72,0.02,1.44,0.12,2.17,0.11
		c0.83-0.02,1.65-0.1,2.48-0.17c0.36-0.03,0.73-0.11,1.08-0.19c0.46-0.1,0.81-0.45,0.77-0.78c-0.03-0.3-0.41-0.55-0.87-0.59
		c-0.28-0.04-0.55-0.1-0.83-0.12c-0.93-0.07-1.85-0.12-2.77-0.18c-0.91-0.06-1.83-0.11-2.74-0.17c-0.33-0.02-0.66-0.08-1-0.08
		c-1.07,0.01-2.16,0.06-3.24,0.05c-0.9-0.01-1.8-0.07-2.71-0.1c-0.71-0.02-1.43-0.02-2.14-0.01c-0.88,0.01-1.75,0.05-2.63,0.04
		c-1.6-0.03-3.21-0.08-4.81-0.12c-0.84-0.01-1.68-0.05-2.53-0.06c-0.51-0.01-1.02-0.01-1.52-0.02c-0.48-0.01-0.97-0.02-1.45-0.02
		c-0.27,0-0.54-0.01-0.81-0.01c-0.78,0.01-1.56,0.03-2.34,0.03c-0.75,0-1.52-0.03-2.28-0.03c-0.85-0.01-1.71,0.01-2.56,0.01
		c-0.91,0-1.85-0.02-2.77-0.02c-1.14,0-2.26,0.03-3.41,0.04c-0.66,0-1.33-0.03-1.99-0.03c-0.28,0-0.58,0.04-0.87,0.04
		c-0.87-0.01-1.74-0.03-2.61-0.04c-0.85-0.02-1.7-0.03-2.56-0.04c-0.78-0.01-1.54-0.01-2.32,0.01c-0.81,0.02-1.63,0.08-2.44,0.08
		c-0.77,0.01-1.54-0.05-2.3-0.08c-0.15-0.01-0.22-0.07-0.13-0.23c0.07-0.12,0.17-0.23,0.22-0.36c0.04-0.09,0.04-0.19,0.06-0.29
		c-0.12-0.02-0.26-0.09-0.34-0.05c-0.21,0.12-0.44,0.26-0.57,0.46c-0.23,0.35-0.49,0.5-0.9,0.48c-0.58-0.02-1.18,0.03-1.77,0.03
		c-0.62,0.01-1.24-0.01-1.86-0.02c-0.29-0.01-0.59-0.05-0.88-0.04c-0.71,0.02-1.41,0.07-2.12,0.08c-1.28,0.01-2.55-0.01-3.83,0.01
		c-0.89,0.01-1.79,0.05-2.68,0.08c-1.54,0.06-3.07,0.14-4.61,0.19c-0.56,0.03-1.12,0.04-1.67,0.04c-0.7,0.01-1.39-0.03-2.09-0.02
		c-0.66,0-1.34,0.08-1.99,0.02c-0.68-0.06-1.34-0.24-2.01-0.37c-0.93-0.19-1.86-0.41-2.79-0.59c-0.61-0.11-1.23-0.17-1.83-0.26
		c-0.78-0.13-1.56-0.31-2.34-0.4c-1.44-0.17-2.87-0.3-4.31-0.43c-0.73-0.06-1.46-0.12-2.2-0.14c-0.38-0.02-0.77,0.05-1.15,0.03
		c-0.5-0.01-0.98-0.09-1.48-0.11c-0.93-0.03-1.85-0.03-2.78-0.03c-1.25-0.01-2.49-0.02-3.75,0.01c-1.34,0.04-2.68,0.1-4.02,0.2
		c-0.99,0.08-1.98,0.25-2.97,0.36c-0.47,0.05-0.95,0.03-1.42,0.11c-0.79,0.12-1.57,0.28-2.36,0.43c-0.4,0.08-0.8,0.16-1.17,0.29
		c-0.4,0.14-0.46,0.44-0.25,0.8c0.2,0.35,0.53,0.51,0.89,0.57c0.59,0.11,1.19,0.18,1.79,0.26c0.11,0.01,0.21,0.01,0.31,0
		c0.15,0,0.3-0.01,0.45,0c0.43,0.02,0.86,0.1,1.29,0.06c0.15-0.01,0.3,0,0.44,0.02c0.14,0.03,0.29,0.08,0.43,0.08
		c0.39,0.01,0.79,0.01,1.17,0.02c0.66,0.04,1.32,0.11,1.98,0.13c0.51,0.01,1.01-0.02,1.52-0.06c0.17-0.01,0.32-0.07,0.49-0.11
		c0.17,0.06,0.37,0.19,0.57,0.19c0.75-0.01,1.5-0.06,2.24-0.09c0.68-0.04,1.36-0.06,2.04-0.06c0.32-0.01,0.64,0.04,0.96,0.03
		c1.24-0.02,2.47-0.06,3.71-0.09c0.33-0.01,0.66,0.03,0.99,0.01c0.54-0.02,1.07-0.07,1.61-0.08c0.17-0.01,0.34,0.03,0.5,0.02
		c0.58-0.01,1.16-0.04,1.73-0.05c0.7-0.01,1.41-0.01,2.1-0.03c0.23-0.01,0.44-0.1,0.67-0.11c0.71-0.01,1.43,0,2.14-0.01
		c0.52-0.01,1.04-0.07,1.58-0.08c0.72-0.01,1.45,0.08,2.17,0.02c1.19-0.1,2.34,0.12,3.5,0.28c0.88,0.12,1.74,0.38,2.61,0.6
		c0.39,0.09,0.77,0.24,1.15,0.37c0.53,0.17,1.07,0.35,1.6,0.52c0.51,0.16,1.02,0.27,1.51,0.46c0.79,0.28,1.57,0.62,2.35,0.94
		c0.25,0.09,0.5,0.18,0.75,0.27c0.21,0.07,2.95,1.29,4.52,1.97c1.56,0.68,2.38,1.35,2.98,1.73c0.33,0.2,0.67,0.37,0.98,0.6
		c0.49,0.35,0.95,0.73,1.4,1.12c0.29,0.25,0.53,0.52,0.56,0.93c0.09,1.09,0.27,2.18,0.58,3.23c0.15,0.51,0.32,1.01,0.7,1.41
		c0.21,0.21,0.46,0.48,0.73,0.52c0.61,0.1,1.21-0.31,1.05-1.22c-0.2-1.12-0.88-2-1.44-2.95c-0.34-0.56-0.9-1-0.93-1.72
		c-0.01-0.19,0.01-0.38,0.03-0.55c0.05-0.62,0.06-1.24,0.18-1.85c0.15-0.71,0.38-1.41,0.59-2.12c0.07-0.25,0.14-0.5,0.23-0.73
		c0.26-0.68,0.54-1.34,0.81-2.02c0.09-0.22,0.17-0.46,0.28-0.68c0.21-0.41,0.49-0.8,0.65-1.22c0.12-0.32,0.3-0.39,0.58-0.39
		c0.36,0.01,0.73,0.02,1.08,0.02c0.33,0,0.68-0.02,1.01-0.04c0.41-0.02,0.8-0.04,1.2-0.04c0.11,0,0.21,0.07,0.32,0.1
		c0.54-0.06,1.11-0.09,1.68-0.08C103.49,138.76,104.06,138.95,104.64,138.77 M70.18,138.8c-1.49,0.03-2.98,0.08-4.47,0.12
		c-1.29,0.04-2.58,0.06-3.87,0.09c-1.09,0.03-2.19,0.05-3.28,0.08c-0.76,0.03-1.53,0.08-2.3,0.09c-0.62,0.01-1.24-0.01-1.87-0.01
		c-1.15,0.01-2.31-0.03-3.45,0.08c-0.97,0.09-1.93-0.02-2.9,0c-0.69,0.01-1.39-0.02-2.08-0.02c-0.64,0-1.29,0.04-1.93,0
		c-0.76-0.04-1.52-0.17-2.28-0.21c-1.1-0.06-2.21-0.04-3.31-0.12c-0.51-0.03-1.02-0.21-1.53-0.35c-0.08-0.02-0.14-0.13-0.21-0.19
		c0.07-0.05,0.14-0.12,0.22-0.15c0.68-0.29,1.4-0.43,2.12-0.53c0.55-0.08,1.1-0.09,1.65-0.16c0.53-0.06,1.06-0.19,1.59-0.24
		c0.66-0.07,1.32-0.11,1.98-0.15c0.51-0.04,1.02-0.05,1.52-0.07c0.41-0.02,0.82-0.03,1.23-0.05c0.37-0.02,0.74-0.04,1.1-0.06
		c0.42-0.02,0.85-0.04,1.28-0.04c0.32-0.01,0.64-0.02,0.96-0.01c1.06,0.01,2.11,0.04,3.17,0.04c0.6,0,1.21-0.05,1.82-0.05
		c0.25,0,0.49,0.08,0.74,0.1c1.15,0.08,2.29,0.18,3.45,0.21c0.99,0.02,1.95,0.25,2.93,0.34c0.76,0.07,1.53,0.11,2.29,0.2
		c0.52,0.06,1.04,0.19,1.56,0.28c0.74,0.12,1.5,0.23,2.25,0.36c0.43,0.07,0.86,0.14,1.29,0.22c0.12,0.02,0.25,0.08,0.37,0.12
		C70.19,138.75,70.18,138.77,70.18,138.8 M94.41,150.05c0.12,0.1,0.21,0.15,0.25,0.22c0.39,0.71,0.76,1.42,1.15,2.14
		c0.17,0.31,0.29,0.62,0.22,0.99c-0.05,0.29-0.17,0.37-0.42,0.19c-0.18-0.13-0.33-0.32-0.45-0.52c-0.17-0.29-0.31-0.6-0.44-0.9
		c-0.08-0.19-0.13-0.39-0.16-0.6c-0.07-0.4-0.11-0.8-0.17-1.2C94.39,150.28,94.41,150.2,94.41,150.05 M93.57,147.76
		c-0.01,0.07-0.12,0.04-0.12,0.04s-0.38-0.24-0.57-0.37c-0.27-0.19-0.53-0.39-0.78-0.6c-0.21-0.17-0.41-0.37-0.63-0.54
		c-0.49-0.34-0.98-0.68-1.49-0.99c-0.66-0.39-1.32-0.77-1.99-1.11c-0.4-0.22-0.87-0.31-1.21-0.58c-0.41-0.35-0.89-0.46-1.35-0.65
		c-0.71-0.3-1.42-0.59-2.13-0.88c-0.54-0.24-1.09-0.46-1.64-0.68c-0.28-0.11-0.56-0.21-0.84-0.29c-0.79-0.24-1.58-0.45-2.37-0.68
		c-0.81-0.25-1.62-0.53-2.44-0.76c-0.52-0.14-1.06-0.2-1.59-0.3c-0.08-0.01-0.17-0.04-0.26-0.12c0.05-0.01,0.11-0.04,0.15-0.04
		c1.26-0.03,2.52-0.05,3.77-0.08c0.63-0.02,1.27-0.04,1.9-0.04c0.69,0,1.38,0.04,2.07,0.02c0.5-0.01,0.99-0.07,1.48-0.08
		c0.29-0.01,0.58,0.04,0.87,0.04c0.17,0,0.35-0.05,0.52-0.04c0.98,0.01,1.95,0.04,2.93,0.04c0.43,0.01,0.86-0.01,1.29-0.04
		c0.21-0.01,0.43-0.07,0.65-0.07c0.55,0.01,1.11,0.03,1.66,0.04c0.1,0.01,0.19-0.01,0.28-0.01c0.78-0.08,1.55-0.1,2.33-0.03
		c0.28,0.02,0.58-0.08,0.87-0.09c0.45-0.02,0.9-0.01,1.41-0.01C95.03,141.72,93.87,144.6,93.57,147.76"/>
	<path class="st0" d="M137.66,127.37c0.71-0.67,1.38-1.41,2.23-1.92c0.28-0.18,0.56-0.39,0.82-0.61c0.32-0.26,0.64-0.52,0.93-0.81
		c0.07-0.06,0.05-0.22,0.08-0.33c-0.11,0.01-0.23-0.01-0.34,0.02c-0.09,0.04-0.17,0.12-0.26,0.19c-0.49,0.39-0.97,0.79-1.47,1.14
		c-0.4,0.26-0.83,0.48-1.26,0.7c-0.37,0.18-0.74,0.32-1.06,0.46c-0.13-0.14-0.21-0.22-0.28-0.31c-0.07,0.09-0.18,0.19-0.19,0.29
		c-0.03,0.28-0.22,0.36-0.43,0.45c-0.66,0.29-1.33,0.58-1.99,0.88c-0.92,0.41-1.83,0.84-2.76,1.24c-0.12,0.05-0.32,0.08-0.4,0.02
		c-0.45-0.36-1-0.44-1.53-0.6c-0.45-0.13-0.94-0.16-1.3-0.54c-0.07-0.09-0.31-0.1-0.42-0.05c-0.24,0.11-0.45,0.27-0.67,0.43
		c-0.38,0.26-0.74,0.54-1.14,0.77c-0.62,0.38-1.27,0.73-1.93,1.07c-0.36,0.18-0.74,0.31-1.13,0.43c-0.12,0.04-0.29-0.05-0.43-0.08
		c0.04-0.13,0.04-0.29,0.12-0.38c0.37-0.43,0.75-0.84,1.13-1.25c0.31-0.33,0.63-0.63,0.91-0.97c0.07-0.08,0.08-0.33,0.02-0.38
		c-0.09-0.08-0.29-0.1-0.42-0.07c-0.29,0.09-0.57,0.23-0.86,0.36c-0.28,0.12-0.57,0.29-0.86,0.38c-0.6,0.16-1.22,0.26-1.83,0.4
		c-0.61,0.15-0.69,0.1-0.81-0.52c-0.09-0.46-0.3-0.83-0.81-0.91c-0.13-0.02-0.27,0.02-0.4,0.04c0.07,0.11,0.12,0.28,0.22,0.33
		c0.51,0.28,0.57,0.75,0.31,1.18c-0.56,0.97-1.21,1.87-2.46,2.03c-0.46,0.06-0.66-0.09-0.57-0.55c0.02-0.15,0.1-0.3,0.18-0.43
		c0.23-0.33,0.47-0.65,0.71-0.97c0.19-0.25,0.32-0.59,0.57-0.73c0.41-0.23,0.49-0.67,0.75-0.99c0.03-0.03-0.06-0.21-0.14-0.25
		c-0.07-0.05-0.21-0.04-0.3-0.01c-0.35,0.12-0.71,0.24-1.05,0.38c-0.75,0.3-1.5,0.57-2.22,0.9c-0.98,0.44-1.92,0.93-2.89,1.38
		c-0.42,0.2-0.86,0.4-1.3,0.59c-0.06,0.03-0.16-0.04-0.25-0.07c0.03-0.07,0.04-0.17,0.09-0.22c0.34-0.29,0.66-0.62,1.03-0.87
		c0.43-0.3,0.89-0.53,1.02-1.1c0.06-0.27,0.17-0.54,0.22-0.81c0.02-0.16-0.01-0.38-0.1-0.5c-0.09-0.09-0.33-0.14-0.45-0.09
		c-0.55,0.23-1.08,0.48-1.62,0.75c-0.47,0.23-0.91,0.49-1.37,0.73c-0.71,0.35-1.42,0.69-2.12,1.03c-0.42,0.21-0.83,0.44-1.25,0.64
		c-0.29,0.13-0.6,0.22-0.89,0.34c-0.41,0.17-0.83,0.35-1.25,0.51c-0.06,0.02-0.21,0.01-0.21-0.03c-0.04-0.08-0.05-0.23,0-0.28
		c0.09-0.11,0.24-0.19,0.38-0.26c0.59-0.31,1.16-0.65,1.57-1.19c0.21-0.27,0.4-0.55,0.58-0.84c0.38-0.55,0.77-1.1,1.13-1.67
		c0.07-0.11,0.08-0.33,0.02-0.38c-0.12-0.09-0.29-0.11-0.45-0.12c-0.09-0.01-0.18,0.06-0.27,0.11c-0.75,0.45-1.51,0.89-2.26,1.35
		c-0.52,0.33-1.01,0.71-1.53,1.03c-0.59,0.36-1.2,0.7-1.81,1.04c-0.45,0.26-0.91,0.54-1.38,0.77c-0.18,0.09-0.4,0.12-0.61,0.17
		c-0.01-0.04-0.03-0.08-0.05-0.11c0.16-0.24,0.3-0.5,0.48-0.71c0.35-0.39,0.74-0.75,1.1-1.14c0.51-0.54,1.04-1.04,1.7-1.38
		c0.15-0.08,0.32-0.11,0.46-0.21c0.1-0.07,0.15-0.22,0.22-0.33c-0.12-0.06-0.23-0.16-0.35-0.19c-0.17-0.02-0.35-0.01-0.53,0.04
		c-0.43,0.09-0.72-0.1-0.96-0.43c-0.19-0.28-0.39-0.56-0.6-0.84c-0.32-0.43-0.77-0.57-1.26-0.38c-0.22,0.09-0.42,0.25-0.64,0.3
		c-0.73,0.18-1.32,0.6-1.96,0.94c-0.28,0.15-0.53,0.35-0.8,0.52c-0.45,0.3-0.9,0.6-1.35,0.9c-0.69,0.46-1.37,0.93-2.06,1.4
		c-0.57,0.39-1.12,0.78-1.7,1.13c-0.33,0.19-0.7,0.29-1.07,0.41c-0.08,0.02-0.17-0.03-0.26-0.05c0.03-0.08,0.04-0.18,0.09-0.24
		c0.22-0.23,0.44-0.44,0.67-0.65c0.26-0.25,0.54-0.47,0.79-0.73c0.29-0.29,0.55-0.62,0.83-0.93c0.15-0.16,0.31-0.29,0.47-0.45
		c0.51-0.5,1.02-1.02,1.54-1.51c0.16-0.17,0.29-0.61,0.19-0.81c-0.14-0.28-0.39-0.24-0.63-0.18c-0.22,0.06-0.44,0.16-0.65,0.2
		c-0.48,0.12-0.99,0.15-1.44,0.34c-1.16,0.48-2.29,1.04-3.43,1.55c-0.21,0.09-0.43,0.16-0.72,0.27c0.26-0.42,0.48-0.76,0.68-1.1
		c0.23-0.41,0.47-0.8,0.68-1.22c0.17-0.33,0.12-0.68-0.05-1.02c-0.12-0.24-0.32-0.33-0.57-0.29c-0.29,0.05-0.6,0.09-0.88,0.18
		c-0.92,0.31-1.83,0.62-2.74,0.96c-0.96,0.36-1.92,0.72-2.87,1.14c-0.58,0.25-1.13,0.58-1.68,0.89c-0.67,0.37-1.33,0.76-1.99,1.16
		c-0.48,0.28-0.93,0.6-1.39,0.91c-0.03-0.03-0.06-0.06-0.08-0.09c0.11-0.13,0.21-0.27,0.34-0.4c0.21-0.21,0.45-0.4,0.66-0.6
		c0.87-0.81,1.72-1.61,2.57-2.43c0.42-0.4,0.83-0.81,1.23-1.23c0.34-0.35,0.64-0.74,1-1.06c0.51-0.44,0.88-1.06,1.55-1.32
		c0.77-0.3,1.47-0.72,2.13-1.21c0.65-0.48,1.3-0.97,1.91-1.52c0.31-0.27,0.55-0.64,0.79-0.99c0.19-0.28,0.35-0.58,0.47-0.9
		c0.05-0.15,0.01-0.38-0.09-0.51c-0.05-0.08-0.29-0.05-0.44-0.02c-0.12,0.03-0.24,0.14-0.33,0.22c-0.34,0.29-0.67,0.58-1,0.88
		c-0.58,0.52-1.16,1.02-1.72,1.57c-0.57,0.56-1.09,1.16-1.65,1.74c-0.11,0.12-0.24,0.24-0.39,0.3c-0.93,0.45-1.86,0.88-2.8,1.29
		c-0.8,0.35-1.62,0.66-2.42,0.98c-0.42,0.17-0.84,0.36-1.28,0.48c-0.6,0.17-1.21,0.3-1.82,0.41c-0.78,0.15-1.56,0.27-2.34,0.38
		c-0.21,0.03-0.43-0.05-0.64-0.07c0.1-0.18,0.18-0.38,0.3-0.54c0.18-0.25,0.41-0.47,0.6-0.72c0.05-0.05-0.02-0.2-0.04-0.3
		c-0.09,0.02-0.2,0.02-0.26,0.07c-0.14,0.13-0.27,0.28-0.4,0.44c-0.15,0.17-0.27,0.2-0.35-0.05c-0.02-0.09-0.06-0.18-0.09-0.27
		c-0.07-0.28-0.09-0.59-0.22-0.84c-0.19-0.35-0.46-0.67-0.71-0.97c-0.18-0.23-0.37-0.49-0.61-0.66c-0.74-0.5-1.6-0.78-2.5-0.68
		c-0.64,0.07-1.23,0.35-1.41,1.05c-0.09,0.33-0.06,0.7-0.05,1.06c0.01,0.21,0.08,0.45,0.19,0.64c0.47,0.85,1.32,1.3,2.1,1.82
		c0.38,0.25,0.84,0.39,1.27,0.58c0.14,0.06,0.25,0.14,0.08,0.26c-0.44,0.34-0.9,0.67-1.34,1.01c-0.76,0.54-1.51,1.1-2.26,1.64
		c-0.46,0.32-0.93,0.62-1.4,0.94c-0.33,0.22-0.67,0.44-0.99,0.69c-0.33,0.27-0.68,0.48-1.11,0.5c-0.98,0.06-1.95,0.08-2.93,0.11
		c-0.74,0.03-1.49,0.09-2.22,0.05c-1.12-0.06-2.17,0.19-3.15,0.65c-0.84,0.41-1.47,1.06-1.59,2.06c-0.05,0.48,0.18,0.83,0.73,0.82
		c0.59-0.01,1.19-0.11,1.77-0.23c0.61-0.12,1.2-0.29,1.8-0.46c0.47-0.13,0.94-0.26,1.4-0.43c0.38-0.13,0.74-0.31,1.1-0.48
		c0.21-0.1,0.42-0.23,0.64-0.31c0.33-0.15,0.67-0.26,0.99-0.41c0.28-0.14,0.52-0.38,0.8-0.44c0.35-0.07,0.64-0.21,0.91-0.42
		c0.07-0.05,0.17-0.09,0.26-0.1c0.29-0.05,0.6-0.08,0.89-0.12c0.75-0.11,1.5-0.21,2.24-0.34c0.3-0.05,0.61-0.12,0.89-0.24
		c0.41-0.18,0.8-0.43,1.22-0.62c0.81-0.37,1.47-0.93,2.03-1.62c0.51-0.63,0.79-1.36,0.94-2.13c0.06-0.3,0.2-0.4,0.5-0.38
		c0.28,0.02,0.57,0.06,0.84,0.02c0.93-0.17,1.86-0.35,2.79-0.56c0.54-0.12,1.07-0.26,1.59-0.43c0.44-0.14,0.88-0.33,1.31-0.5
		c0.33-0.12,0.67-0.22,1-0.35c0.53-0.22,1.06-0.47,1.59-0.7c0.18-0.07,0.37-0.12,0.62-0.19c-0.1,0.16-0.16,0.27-0.24,0.36
		c-0.6,0.58-1.19,1.17-1.79,1.74c-0.68,0.66-1.38,1.32-2.06,1.97c-0.48,0.46-0.95,0.94-1.44,1.39c-0.39,0.35-0.81,0.67-1.22,1
		c-0.45,0.37-0.91,0.75-1.37,1.12c-0.7,0.57-1.41,1.13-2.1,1.71c-0.14,0.12-0.38,0.28-0.23,0.51c0.17,0.25,0.39,0.06,0.55-0.03
		c0.77-0.48,1.53-0.97,2.27-1.47c0.78-0.52,1.55-1.08,2.32-1.62c0.61-0.41,1.23-0.81,1.85-1.19c0.42-0.27,0.87-0.48,1.3-0.73
		c0.37-0.2,0.75-0.38,1.14-0.58c0.47-0.24,0.93-0.5,1.4-0.73c0.22-0.12,0.45-0.21,0.68-0.31c0.73-0.32,1.46-0.65,2.2-0.96
		c0.41-0.16,0.84-0.28,1.26-0.41c0.37-0.11,0.74-0.23,1.11-0.29c0.22-0.03,0.56-0.01,0.65,0.12c0.1,0.15,0.03,0.48-0.07,0.68
		c-0.27,0.54-0.55,1.09-0.92,1.56c-0.46,0.58-0.99,1.12-1.53,1.63c-0.71,0.67-1.45,1.3-2.21,1.9c-0.55,0.45-1.15,0.85-1.73,1.27
		c-0.16,0.12-0.3,0.25-0.17,0.46c0.13,0.21,0.34,0.17,0.49,0.06c0.72-0.52,1.42-1.06,2.13-1.6c0.41-0.32,0.79-0.67,1.2-0.97
		c0.42-0.31,0.91-0.52,1.32-0.84c0.72-0.58,1.53-1.01,2.36-1.41c1.21-0.61,2.44-1.13,3.75-1.45c0.25-0.06,0.5-0.1,0.75-0.16
		c-0.03,0.15-0.09,0.25-0.17,0.33c-0.5,0.49-1.01,0.99-1.52,1.48c-0.82,0.79-1.65,1.58-2.47,2.38c-0.19,0.19-0.38,0.38-0.52,0.61
		c-0.19,0.31-0.02,0.7,0.34,0.75c0.35,0.03,0.73,0.04,1.05-0.06c0.42-0.13,0.8-0.37,1.18-0.59c0.4-0.24,0.76-0.53,1.15-0.78
		c0.24-0.16,0.56-0.2,0.64-0.54c0.01-0.02,0.06-0.02,0.08-0.03c0.87-0.55,1.76-1.07,2.61-1.65c0.53-0.35,1.02-0.77,1.6-1.05
		c0.67-0.33,1.32-0.7,1.99-1.04c0.29-0.15,0.51-0.05,0.68,0.21c0.21,0.35,0.42,0.7,0.67,1.02c0.13,0.16,0.32,0.28,0.51,0.39
		c0.22,0.12,0.21,0.18,0.03,0.34c-0.93,0.87-1.9,1.7-2.59,2.78c-0.18,0.29-0.34,0.63-0.13,0.94c0.21,0.32,0.58,0.26,0.88,0.11
		c0.6-0.3,1.17-0.63,1.75-0.95c0.17-0.09,0.34-0.19,0.51-0.29c0.6-0.39,1.2-0.78,1.8-1.17c0.52-0.34,1.05-0.67,1.57-1
		c0.31-0.19,0.63-0.37,0.94-0.54c0.03,0.04,0.06,0.06,0.09,0.1c-0.06,0.12-0.15,0.24-0.19,0.38c-0.32,0.96-0.87,1.71-1.83,2.15
		c-0.41,0.18-0.81,0.44-1,0.91c-0.15,0.37,0.08,0.79,0.47,0.74c0.25-0.03,0.49-0.1,0.72-0.19c0.41-0.18,0.8-0.37,1.21-0.55
		c0.93-0.42,1.88-0.83,2.8-1.26c0.48-0.23,0.92-0.51,1.39-0.76c0.46-0.24,0.92-0.48,1.38-0.72c0.4-0.21,0.79-0.42,1.2-0.62
		c0.11-0.06,0.3-0.06,0.26,0.12c-0.13,0.5-0.23,1.03-0.7,1.36c-0.42,0.27-0.83,0.56-1.22,0.86c-0.23,0.17-0.42,0.37-0.6,0.58
		c-0.24,0.31-0.12,0.65,0.27,0.7c0.39,0.05,0.78,0.06,1.14-0.16c0.43-0.26,0.88-0.51,1.34-0.74c0.39-0.2,0.8-0.35,1.2-0.53
		c0.88-0.4,1.76-0.81,2.65-1.21c0.22-0.11,0.45-0.21,0.68-0.29c0.11-0.04,0.24-0.04,0.4-0.05c-0.25,0.37-0.47,0.7-0.71,1.01
		c-0.43,0.53-0.75,1.12-0.9,1.79c-0.09,0.41,0.12,0.81,0.49,0.9c0.34,0.08,0.74,0.18,1.04,0.08c0.48-0.16,0.94-0.44,1.32-0.76
		c0.35-0.29,0.61-0.7,0.88-1.08c0.25-0.36,0.33-0.41,0.77-0.3c0.09,0.03,0.19,0.05,0.27,0.04c0.71-0.18,1.41-0.37,2.11-0.57
		c0.28-0.08,0.57-0.21,0.84-0.31c0.02,0.03,0.02,0.05,0.05,0.08c-0.29,0.32-0.6,0.64-0.87,0.98c-0.25,0.31-0.49,0.63-0.69,0.99
		c-0.15,0.28,0.15,0.78,0.46,0.82c0.74,0.07,1.43-0.12,2.06-0.53c0.2-0.14,0.41-0.26,0.64-0.38c0.48-0.28,0.97-0.55,1.44-0.84
		c0.26-0.15,0.52-0.32,0.74-0.51c0.56-0.5,0.75-0.4,1.24-0.15c0.21,0.11,0.44,0.15,0.68,0.19c0.53,0.09,1.04,0.24,1.59,0.57
		c-0.45,0.34-0.85,0.62-1.23,0.94c-0.22,0.19-0.42,0.42-0.58,0.67c-0.14,0.24,0.06,0.53,0.32,0.48c0.68-0.12,1.31-0.34,1.7-1
		c0.2-0.32,0.39-0.7,0.67-0.93c0.35-0.28,0.8-0.44,1.21-0.63c0.77-0.37,1.56-0.71,2.35-1.06c0.52-0.23,1.06-0.47,1.59-0.71
		c0.2-0.09,0.41-0.17,0.6-0.26c-0.12,0.18-0.27,0.28-0.39,0.41c-0.74,0.74-1.47,1.47-2.18,2.22c-0.17,0.18-0.31,0.39-0.41,0.62
		c-0.11,0.31,0.09,0.52,0.42,0.44c0.21-0.04,0.41-0.13,0.61-0.23c0.12-0.05,0.22-0.14,0.31-0.22c-0.09-0.08-0.19-0.16-0.29-0.24
		c-0.03-0.02-0.06-0.04-0.11-0.07c0.04-0.07,0.06-0.14,0.11-0.19C136.35,128.74,136.97,128.02,137.66,127.37 M88.11,116.73
		c-0.78,1.27-1.93,2.09-3.22,2.86C85.06,119.04,87.72,116.68,88.11,116.73 M59.03,131.48c-0.69,0.27-1.36,0.58-2.06,0.78
		c-0.83,0.25-1.67,0.43-2.5,0.63c-0.15,0.03-0.31,0.04-0.46,0.07c-0.29,0.05-0.54-0.04-0.67-0.28c-0.15-0.27,0.01-0.52,0.14-0.76
		c0.4-0.77,1.16-1.01,1.89-1.3c0.27-0.1,0.54-0.25,0.82-0.28c0.6-0.07,1.21-0.08,1.81-0.11c0.49-0.02,0.98-0.03,1.48-0.03
		c0.5,0.01,1,0.03,1.5,0.06c0.2,0.01,0.4,0.02,0.61,0.04c0.01,0.04,0.02,0.08,0.03,0.11C60.74,130.77,59.88,131.12,59.03,131.48
		 M70.65,125.99c-0.37,0.84-1.04,1.44-1.71,2c-0.4,0.34-0.93,0.51-1.39,0.76c-1.01,0.54-2.14,0.61-3.21,0.91
		c-0.07,0.02-0.14,0-0.21,0c-0.01-0.03-0.02-0.06-0.04-0.09c0.1-0.09,0.2-0.19,0.32-0.27c0.42-0.29,0.86-0.55,1.27-0.84
		c0.55-0.39,1.1-0.8,1.65-1.2c0.91-0.67,1.83-1.34,2.74-2.01c0.27-0.2,0.49-0.5,0.96-0.41C70.9,125.22,70.82,125.63,70.65,125.99
		 M69.95,124.17c-0.93-0.26-1.81-0.64-2.47-1.37c-0.3-0.33-0.6-0.67-0.81-1.05c-0.3-0.54-0.15-1.1,0.34-1.45
		c0.17-0.13,0.43-0.16,0.57-0.21c1.21,0.11,2.16,0.42,2.9,1.38c0.44,0.57,0.55,1.19,0.7,1.82C71.31,123.85,70.6,124.35,69.95,124.17
		"/>
	<path class="st0" d="M138.83,129.49c-0.05,0.04-0.03,0.24,0.02,0.32c0.03,0.05,0.22,0.07,0.29,0.02c0.31-0.18,0.6-0.39,0.89-0.6
		c0.6-0.42,1.19-0.83,1.78-1.26c0.27-0.2,0.54-0.42,0.78-0.67c0.08-0.08,0.13-0.28,0.09-0.38c-0.04-0.11-0.2-0.21-0.32-0.25
		c-0.11-0.03-0.27,0-0.39,0.05c-0.68,0.26-1.37,0.54-2.06,0.8c-0.56,0.22-1.13,0.42-1.7,0.63c-0.09,0.04-0.14,0.17-0.23,0.25
		c0.11,0.02,0.24,0.11,0.34,0.08c0.71-0.24,1.41-0.48,2.12-0.74c0.24-0.09,0.49-0.18,0.74-0.28c0.03,0.05,0.06,0.11,0.08,0.15
		c-0.56,0.43-1.11,0.86-1.66,1.29C139.35,129.11,139.07,129.28,138.83,129.49"/>
	<rect x="55.89" y="68.27" class="st0" width="13.8" height="1.08"/>
	<rect x="122.47" y="68.27" class="st0" width="13.79" height="1.08"/>
	<path class="st0" d="M58.15,156.23c-0.61,0-1.34-0.35-1.82-0.68c-1.2-0.81-1.75-1.59-2.05-2.87l-0.03-0.12l-1.25,0.21l-0.13,0.02
		l0.02,0.13c0.3,1.62,1.06,2.78,2.48,3.74c0.45,0.3,1.62,1.01,2.84,1.01c0.84,0,1.5-0.34,1.95-1c0.51-0.74,0.58-1.63,0.2-2.44
		c-0.42-0.9-1.09-1.35-1.79-1.83l-1-0.68c-0.43-0.29-0.66-0.56-0.71-0.83c-0.04-0.18,0.01-0.35,0.13-0.53
		c0.17-0.25,0.42-0.37,0.77-0.37c0.58,0,1.31,0.35,1.76,0.65c0.81,0.55,1.15,1.09,1.59,2.09l0.05,0.11l1.31-0.5l-0.04-0.12
		c-0.4-1.16-1.17-2.16-2.22-2.87c-0.41-0.28-0.85-0.49-1.31-0.63c-0.35-0.1-0.71-0.16-1.06-0.16c-0.89,0-1.63,0.35-2.06,0.99
		c-0.9,1.32-0.09,2.58,0.87,3.25l1,0.7c0.96,0.67,1.27,0.91,1.45,1.34c0.15,0.35,0.13,0.67-0.05,0.95
		C58.85,156.09,58.55,156.23,58.15,156.23"/>
	<polygon class="st0" points="61.6,160.22 62.85,160.89 66.69,153.6 66.75,153.49 65.49,152.83 	"/>
	<polygon class="st0" points="66.44,162.73 67.76,163.24 69.91,157.71 72.14,164.95 73.42,165.44 76.4,157.77 76.44,157.65 
		75.09,157.12 72.94,162.66 70.74,155.48 70.72,155.42 69.47,154.93 66.49,162.61 	"/>
	<path class="st0" d="M82.14,160.4c0.25,0,0.5,0.02,0.74,0.08c0.98,0.21,1.78,0.75,2.58,1.77l0.07,0.09l1.11-0.6l0.12-0.07
		l-0.08-0.12c-0.89-1.33-2.12-2.19-3.57-2.49c-0.34-0.07-0.67-0.11-1.01-0.11c-2.11,0-3.82,1.39-4.25,3.45
		c-0.53,2.5,1.02,4.72,3.68,5.28c0.42,0.09,0.84,0.14,1.24,0.14c1.1,0,2.08-0.34,2.94-0.99l0.09-0.07l-0.72-1.2l-0.11,0.07
		c-1.12,0.73-1.92,0.88-3.06,0.65c-1.58-0.34-3.09-1.59-2.68-3.56C79.53,161.31,80.67,160.4,82.14,160.4"/>
	<polygon class="st0" points="95.87,162.13 95.99,162.13 96.08,160.69 89.28,160.28 89.16,160.27 88.66,168.5 88.65,168.63 
		95.66,169.05 95.79,169.06 95.87,167.62 90.18,167.27 90.31,165.1 92.94,165.25 93.07,165.26 93.16,163.84 90.4,163.67 
		90.51,161.81 	"/>
	<polygon class="st0" points="105.01,160.28 103.66,160.45 103.58,160.46 104.58,168.32 104.59,168.4 105.94,168.23 106.02,168.22 
		105.02,160.36 	"/>
	<path class="st0" d="M110.05,165.38c0.27,1.02,1.19,1.56,2.65,1.56c0.9,0,1.79-0.2,2.24-0.32c0.58-0.16,1.67-0.51,2.5-1.13
		c0.9-0.68,1.23-1.47,0.99-2.37c-0.12-0.45-0.42-0.86-0.84-1.16c-0.34-0.24-0.72-0.33-1.15-0.4c0.48-0.61,0.62-1.18,0.44-1.85
		c-0.27-0.98-1.04-1.47-2.31-1.47c-0.55,0-1.18,0.1-1.87,0.28c-2.38,0.64-3.44,1.71-3.08,3.09c0.18,0.67,0.59,1.11,1.33,1.43
		c-0.38,0.35-0.77,0.78-0.9,1.4C109.97,164.77,109.97,165.07,110.05,165.38 M116.95,163.45c0.22,0.81-1.52,1.52-2.48,1.77
		c-0.16,0.04-1.01,0.26-1.79,0.26c-0.7,0-1.1-0.17-1.2-0.51c-0.02-0.09,0.01-0.3,0.05-0.4c0.28-0.78,1.61-1.33,2.35-1.52
		c0.42-0.11,0.78-0.18,1.11-0.2c0.07-0.01,0.2-0.02,0.36-0.02C115.69,162.82,116.8,162.87,116.95,163.45 M111.14,160.93
		c0.21-0.36,0.86-0.7,1.83-0.96c0.62-0.17,1.17-0.26,1.58-0.26c0.53,0,0.85,0.14,0.92,0.43c0.04,0.14,0.02,0.28-0.07,0.42
		c-0.29,0.5-1.27,0.92-1.82,1.06c-0.12,0.03-0.76,0.2-1.4,0.2c-0.44,0-1-0.09-1.11-0.5C111.05,161.19,111.07,161.06,111.14,160.93"
		/>
	<path class="st0" d="M125.27,161.32c-0.61,0.28-1.21,0.41-1.9,0.41c-0.33,0-0.67-0.03-1.1-0.09l-0.09-0.01l-0.12,1.38l-0.01,0.08
		l0.08,0.01c0.52,0.09,0.89,0.13,1.24,0.13c0.31,0,0.61-0.03,0.96-0.09c0.58-0.1,1.11-0.26,1.6-0.48c1.12-0.51,2.06-1.41,2.59-2.45
		c0.58-1.15,0.61-2.39,0.1-3.5c-0.67-1.46-1.97-2.26-3.65-2.26c-0.81,0-1.65,0.19-2.45,0.56c-0.58,0.27-1.06,0.57-1.47,0.92
		c-0.88,0.74-1.72,2.05-1.16,3.27c0.37,0.8,1.18,1.24,2.29,1.24c0.29,0,0.59-0.03,0.89-0.09c0.45-0.09,0.92-0.25,1.39-0.47
		c1.4-0.64,1.98-1.14,2.91-2.25C127.86,159.21,126.7,160.67,125.27,161.32 M123.85,158.56c-0.33,0.15-0.67,0.27-1.01,0.34
		c-0.12,0.02-0.37,0.06-0.64,0.06c-0.37,0-0.84-0.06-0.98-0.38c-0.24-0.51,0.55-1.3,1-1.65c0.27-0.21,0.59-0.4,0.94-0.56
		c0.63-0.29,1.23-0.44,1.78-0.44c0.58,0,1.11,0.17,1.56,0.5C125.82,157.21,125.03,158.02,123.85,158.56"/>
	<path class="st0" d="M136.07,148.84l-0.73-1.07l-0.05-0.07l-6,4.09l-0.07,0.05l2.33,3.42l0.02,0.03l1.16,0.17l0.05,0.01l0.03-0.05
		c0.33-0.52,1.01-1.62,2.06-2.34c0.27-0.18,1.2-0.77,1.98-0.77c0.35,0,0.61,0.12,0.78,0.37c0.43,0.64-0.4,1.62-0.56,1.8
		c-0.27,0.3-0.58,0.57-0.91,0.8c-1.1,0.74-2.06,0.96-3.21,1.17l-0.07,0.01l0.13,1.31l0.01,0.08l0.08-0.01
		c1.26-0.1,2.4-0.37,3.87-1.37c0.51-0.35,0.95-0.74,1.3-1.15c0.76-0.9,1.38-2.35,0.6-3.48c-0.45-0.66-1.11-1-1.95-1
		c-0.85,0-1.92,0.37-2.84,1c-0.85,0.58-1.31,1.08-1.86,1.8l-1.02-1.51l4.79-3.27L136.07,148.84z"/>
	<polygon class="st0" points="84.67,66.17 84.67,64.84 78.07,64.84 78.07,72.85 79.4,72.85 79.4,69.5 82.61,69.5 82.61,68.14 
		79.4,68.14 79.4,66.17 	"/>
	<path class="st0" d="M93.81,67.24c0-1.46-1.01-2.41-2.56-2.41h-4.73v8.01h1.34v-3.24h2.75l1.54,3.18l0.03,0.06h1.51l-1.64-3.31
		C93.18,69.22,93.81,68.41,93.81,67.24 M91.25,68.27h-3.39v-2.1h3.39c0.56,0,1.23,0.18,1.23,1.01
		C92.48,68.13,91.71,68.27,91.25,68.27"/>
	<path class="st0" d="M95.3,68.73c0,2.42,1.89,4.31,4.3,4.31c2.38,0,4.31-1.88,4.31-4.18c0-2.38-1.89-4.25-4.3-4.25
		C97.24,64.61,95.3,66.46,95.3,68.73 M99.6,65.96c1.67,0,2.98,1.24,2.98,2.83c0,1.62-1.3,2.89-2.97,2.89
		c-1.65,0-2.99-1.27-2.99-2.82C96.62,67.18,97.88,65.96,99.6,65.96"/>
	<polygon class="st0" points="114.1,72.85 114.1,64.84 112.81,64.84 110.08,69.61 107.47,64.89 107.44,64.84 106.16,64.84 
		106.16,72.85 107.48,72.85 107.48,67.66 109.99,72.16 110.08,72.31 112.76,67.65 112.76,72.85 	"/>
	<path class="st0" d="M19.05,101.94c0-5.7-3.86-6.76-8.95-7.84c-5.01-1.07-6.6-1.54-6.6-4.62c0-2.7,2.25-4.89,6.64-4.89
		c2.85,0,6.19,1.24,6.76,4.97h0.82c-0.12-1.97-0.21-3.98-0.16-5.96c-1.47-0.94-5.05-1.41-6.76-1.41C4.23,82.2,0,85.88,0,90.12
		c0,5.22,3.79,6.56,10.78,8.01c2.81,0.6,4.76,1.29,4.76,4.71c0,3.81-3.38,5.49-6.36,5.49c-3.98,0-7-2.15-7.97-6.25H0.4
		c0.16,2.22,0.24,4.41,0.24,6.64c2.32,1.5,4.89,2,7.41,2C15.63,110.72,19.05,106.69,19.05,101.94"/>
	<path class="st0" d="M43.27,110.3l6.99-24.12c0.53-1.89,1.06-2.66,2.36-2.95v-0.6c-1.09,0-2.2,0.25-3.29,0.25
		c-1.26,0-2.53-0.25-3.79-0.25v0.6c2.19,0.25,2.53,0.85,2.53,1.79c0,0.35-0.25,1.46-0.58,2.62l-5.01,17.95H42.4l-5.57-18.51
		c-0.45-1.37-0.57-2.02-0.57-2.49c0-0.73,0.77-1.32,2.41-1.37v-0.6c-1.26,0-2.56,0.25-3.87,0.25c-1.88,0-3.79-0.25-5.66-0.25v0.6
		c1.5,0.25,2.65,0.47,3.17,1.93c0.33,0.9,2.16,6.21,2.16,6.98c0,0.77-2.53,8.78-3.79,13.2H30.6l-5.81-18.68
		c-0.37-1.15-0.49-1.8-0.49-2.31c0-0.86,1.22-1.07,2.12-1.11v-0.6c-1.5,0-3.01,0.25-4.52,0.25c-1.22,0-2.4-0.25-3.66-0.25v0.6
		c1.5,0.17,2.03,1.2,2.52,2.74l7.77,24.34h2.89l4.19-15.47h0.08l4.56,15.47H43.27z"/>
	<path class="st0" d="M53.65,110.3v-0.6c-1.7-0.04-2.11-0.43-2.11-1.07c0-0.61,0.24-1.72,0.66-2.88l1.99-5.91h8.75l1.67,4.72
		c0.85,2.36,1.1,3.08,1.1,3.86c0,0.81-0.45,1.15-1.87,1.28v0.6c1.58,0,3.17-0.26,4.76-0.26c1.06,0,2.07,0.26,3.14,0.26v-0.6
		c-1.47-0.3-1.67-0.6-2.73-3.47l-6.88-18.89c-0.74-2.01-1.22-3.51-1.39-4.7c-0.69,0.12-1.42,0.25-2.11,0.25
		c-1.03,0-2.08-0.13-3.1-0.25v0.6c0.89,0.21,1.3,0.34,1.3,1.32c0,0.51-0.12,0.99-0.24,1.42l-7.24,20.91
		c-0.82,2.35-1.19,2.79-2.57,2.83v0.6c1.22,0,2.44-0.26,3.66-0.26C51.5,110.03,52.6,110.3,53.65,110.3 M58.5,87.07h0.08l3.62,10.62
		h-7.33L58.5,87.07z"/>
	<path class="st0" d="M71.85,109.7v0.6c0.85,0,2.53-0.26,4.07-0.26c1.55,0,3.22,0.26,4.07,0.26l0.01-0.6
		c-1.59-0.26-2.08-0.6-2.08-1.8V85.28h2.21c3.42,0,6.87,0.6,6.87,4.66c0,3.77-2.97,5.62-7.2,5.62c-0.33,0-0.78,0.17-0.78,0.42
		c0,0.18,0.33,0.56,0.82,1.25l5.25,7.41c3.29,4.84,3.7,5.52,4.14,5.65c1.02,0,2.08-0.26,3.13-0.26c0.7,0,1.39,0.26,2.12,0.26v-0.6
		c-1.18-0.13-2.21-1.2-3.41-2.83l-7.49-10.2c3.9-0.34,7.41-2.91,7.41-7.28c0-3.55-1.92-6.51-7.33-6.51h-11.8v0.6
		c1.59,0.26,2.08,0.6,2.08,1.8v22.62C73.93,109.1,73.44,109.43,71.85,109.7"/>
	<path class="st0" d="M105.32,110.72c8.07,0,13.23-7.23,13.23-14.6c0-6.26-3.58-13.92-12.62-13.92c-6.31,0-13.35,5.95-13.35,14.35
		C92.59,104.3,97.14,110.72,105.32,110.72 M104.75,85.1c5.18,0,10.06,5.06,10.06,12.55c0,6.82-4.19,10.16-8.52,10.16
		c-6.26,0-9.96-6.3-9.96-12.34C96.33,87.59,101.79,85.1,104.75,85.1"/>
	<path class="st0" d="M134.32,83.22c0.82,0.17,1.9,0.43,1.9,1.29c0,0.51-0.2,1.33-0.52,2.4l-5.83,18.42h-0.08l-6.51-19.03
		c-0.16-0.47-0.44-1.37-0.44-1.84c0-0.81,0.51-1.2,2.07-1.24v-0.6c-1.23,0-2.36,0.25-3.55,0.25c-1.62,0-3.29-0.25-4.92-0.25v0.6
		c1.84,0.17,2.16,0.98,2.53,1.93l8.95,25.15h2.73l7.98-24.76c0.4-1.29,1.14-2.14,2.44-2.31v-0.6c-1.01,0-2.03,0.25-3.05,0.25
		c-1.22,0-2.48-0.25-3.71-0.25V83.22z"/>
	<path class="st0" d="M158.97,101.94c0-5.7-3.87-6.76-8.95-7.84c-5-1.07-6.59-1.54-6.59-4.62c0-2.7,2.23-4.89,6.64-4.89
		c2.84,0,6.18,1.24,6.76,4.97h0.8c-0.12-1.97-0.21-3.98-0.16-5.96c-1.47-0.94-5.05-1.41-6.75-1.41c-6.57,0-10.8,3.68-10.8,7.92
		c0,5.22,3.8,6.56,10.8,8.01c2.79,0.6,4.76,1.29,4.76,4.71c0,3.81-3.38,5.49-6.35,5.49c-4,0-7-2.15-7.98-6.25h-0.81
		c0.16,2.22,0.24,4.41,0.24,6.64c2.32,1.5,4.89,2,7.41,2C155.56,110.72,158.97,106.69,158.97,101.94"/>
	<path class="st0" d="M172.89,104.26l4.84,6.04c0.65-0.14,1.51-0.27,2.56-0.27c0.85,0,2.04,0.13,3.17,0.27v-0.6
		c-1.26-0.13-1.86-0.64-2.72-1.67l-6.32-7.62c-1.67-2.01-3.37-3.55-5.04-5.31l9.4-10.24c0.81-0.9,1.38-1.37,3.06-1.63v-0.6
		c-1.26,0-2.44,0.25-3.67,0.25c-1.5,0-2.97-0.25-4.48-0.25v0.6c1.26,0.09,1.79,0.34,1.79,0.9c0,0.39-0.21,0.73-1.3,1.97l-8.63,9.72
		h-0.08v-10.8c0-1.2,0.49-1.54,2.07-1.8v-0.6c-0.85,0-2.53,0.25-4.07,0.25c-1.55,0-3.22-0.25-4.07-0.25v0.6
		c1.59,0.26,2.08,0.6,2.08,1.8v22.88c0,1.2-0.5,1.53-2.08,1.8v0.6c0.85,0,2.52-0.27,4.07-0.27c1.54,0,3.21,0.27,4.07,0.27v-0.6
		c-1.59-0.26-2.07-0.6-2.07-1.8V96.42C168.04,98.94,170.6,101.42,172.89,104.26"/>
	<path class="st0" d="M191.73,83.22v-0.6c-0.85,0-2.52,0.25-4.07,0.25c-1.55,0-3.21-0.25-4.06-0.25v0.6
		c1.58,0.25,2.07,0.6,2.07,1.79v22.88c0,1.2-0.49,1.53-2.07,1.8v0.6c0.85,0,2.51-0.26,4.06-0.26c1.55,0,3.22,0.26,4.07,0.26v-0.6
		c-1.59-0.26-2.08-0.6-2.08-1.8V85.01C189.66,83.82,190.15,83.48,191.73,83.22"/>
</g>
</svg>
