<svg width="71" height="71" viewBox="0 0 71 71" fill="none" xmlns="http://www.w3.org/2000/svg">
<g opacity="0.5">
<path d="M29.0315 50.68C28.5406 50.6791 28.0585 50.5496 27.6325 50.3042C26.6733 49.757 26.0769 48.6947 26.0769 47.5414V24.2034C26.0769 23.0469 26.6733 21.9878 27.6325 21.4406C28.0687 21.1883 28.5641 21.0585 29.0672 21.0649C29.5702 21.0712 30.0622 21.2135 30.4919 21.4768L50.3048 33.4163C50.7177 33.6769 51.0581 34.0389 51.2941 34.4682C51.5301 34.8975 51.6538 35.3801 51.6538 35.8708C51.6538 36.3614 51.5301 36.8441 51.2941 37.2734C51.0581 37.7027 50.7177 38.0647 50.3048 38.3253L30.4887 50.268C30.049 50.5356 29.5453 50.678 29.0315 50.68Z" fill="white"/>
<circle cx="35.5" cy="35.8723" r="33" stroke="white" stroke-width="4"/>
</g>
</svg>
