<?xml version="1.0" encoding="UTF-8"?>
<svg id="Layer_1" data-name="Layer 1" xmlns="http://www.w3.org/2000/svg" viewBox="0 0 110.02 145.39">
  <defs>
    <style>
      .cls-1 {
        fill: #6852a5;
      }
    </style>
  </defs>
  <path class="cls-1" d="m55.02,145.39c-.48,0-.94-.14-1.34-.4-.87-.47-1.83-.98-2.79-1.5-1.92-1.02-3.9-2.07-5.81-3.23-4.86-2.95-8.77-5.45-12.28-7.86-5.62-3.86-10.84-8.26-15.6-13.15-4.1-4.14-7.71-8.74-10.74-13.71-3.11-4.98-5.19-10.45-6.19-16.25-.22-1.81-.3-3.59-.26-5.36-.02-2.2-.02-4.45,0-6.7V20.46s3.97-.73,3.97-.73c2.15-.39,4.26-.78,6.37-1.21,4.77-1.01,9.53-2.35,14.14-3.99,5.05-1.74,9.97-3.82,14.73-6.22,2.72-1.39,5.39-2.88,8.06-4.36l3.19-1.77c.42-.24.84-.48,1.26-.73.7-.41,1.4-.82,2.12-1.18.76-.34,1.58-.34,2.29-.03,1.53.84,2.94,1.66,4.35,2.47l1.65.96c4.8,2.78,9.81,5.31,14.9,7.52,5.1,2.21,10.33,4.09,15.68,5.6,4.99,1.43,10.13,2.5,15.26,3.2l2.02.33v55.81c.02,3.4.03,6.81,0,10.2-.14,3.52-.86,6.92-2.14,10.15-3.01,7.88-7.52,14.97-13.4,21.05-5.59,5.94-11.81,11.24-18.56,15.82-5.29,3.63-10.78,6.97-16.43,10-.48.26-.96.51-1.45.76-.6.31-1.21.62-1.8.95-.35.22-.77.33-1.2.33h0ZM2.66,22.65v54.58c-.02,2.24-.03,4.47,0,6.71-.04,1.68.03,3.34.23,4.96.93,5.4,2.9,10.55,5.83,15.25,2.93,4.81,6.41,9.25,10.38,13.25,4.64,4.76,9.73,9.06,15.21,12.82,3.47,2.38,7.33,4.85,12.16,7.78,1.84,1.13,3.79,2.16,5.67,3.16.97.52,1.95,1.03,2.91,1.57.52-.32,1.15-.65,1.78-.97.47-.24.94-.48,1.41-.74,5.57-2.99,10.98-6.27,16.2-9.85,6.6-4.47,12.68-9.65,18.13-15.46,5.64-5.84,9.96-12.63,12.85-20.19,1.17-2.95,1.84-6.08,1.96-9.25.03-3.35.02-6.74,0-10.13V22.57c-5.2-.72-10.34-1.8-15.38-3.24-5.46-1.55-10.8-3.46-16-5.72-5.2-2.26-10.26-4.82-15.17-7.66l-1.66-.97c-1.39-.81-2.78-1.62-4.18-2.39-.62.36-1.26.74-1.91,1.12-.44.26-.88.52-1.33.77l-3.18,1.76c-2.7,1.51-5.4,3.01-8.15,4.41-4.85,2.45-9.92,4.59-15.05,6.36-4.73,1.69-9.56,3.05-14.48,4.09-2.13.43-4.26.82-6.43,1.22l-1.79.33h0Z"/>
</svg>