<?xml version="1.0" encoding="UTF-8"?>
<svg id="Layer_1" data-name="Layer 1" xmlns="http://www.w3.org/2000/svg" viewBox="0 0 91.59 121.75">
  <defs>
    <style>
      .cls-1 {
        fill: #fff;
      }

      .cls-2 {
        fill: #6852a5;
      }
    </style>
  </defs>
  <g id="Stroke">
    <g id="Group_817" data-name="Group 817">
      <path id="Path_538" data-name="Path 538" class="cls-2" d="m0,17.27c2.7-.5,5.31-.96,7.9-1.49,4.14-.87,8.22-2.03,12.21-3.45,4.35-1.5,8.59-3.29,12.7-5.36,3.26-1.66,6.43-3.49,9.63-5.25.95-.52,1.88-1.12,2.85-1.61.32-.14.68-.14,1,0,1.69.93,3.34,1.91,5.01,2.86,4.15,2.4,8.43,4.56,12.82,6.47,4.4,1.91,8.91,3.53,13.53,4.83,4.32,1.24,8.72,2.16,13.17,2.76.23.03.46.07.75.12v42.3c0,4.35.04,8.69,0,13.04-.11,2.83-.71,5.62-1.75,8.25-2.51,6.56-6.31,12.54-11.18,17.59-4.71,5.01-9.96,9.49-15.65,13.34-4.48,3.08-9.13,5.9-13.92,8.47-.92.5-1.86.95-2.78,1.47-.31.19-.7.19-1.01-.01-2.45-1.35-4.97-2.6-7.36-4.05-3.52-2.14-7.02-4.34-10.42-6.67-4.73-3.25-9.13-6.96-13.14-11.07-3.44-3.47-6.46-7.33-9-11.5-2.57-4.11-4.31-8.69-5.14-13.47-.17-1.44-.24-2.9-.2-4.35-.03-2.86,0-5.74,0-8.61V17.26h-.02Z"/>
    </g>
    <g id="Group_799" data-name="Group 799">
      <g id="Group_793" data-name="Group 793">
        <g id="Path_528" data-name="Path 528">
          <path class="cls-1" d="m72.17,85.97h-29.09c-.53,0-1.05-.19-1.46-.52l-2.6-2.08-18.99-.07c-3.88,0-7.02-3.14-7.02-7.02,0-1.29,1.05-2.34,2.34-2.34h38.6c.17,0,.3-.13.3-.3v-22.63c0-.16-.14-.3-.3-.3h-22.85c-.11,0-.21.06-.26.15l-4.58,8.31c-.4.72-1.15,1.18-1.97,1.21l-5.74.17c-2.96.09-5.44-2.25-5.53-5.21,0-.05,0-.11,0-.15v-14.79c0-4.24,3.44-7.68,7.69-7.69h49.54c4.05,0,7.33,3.28,7.33,7.33v40.54c0,2.98-2.41,5.39-5.38,5.39,0,0,0,0-.01,0h0Zm-56.84-9.98c-.17,0-.3.13-.3.3,0,2.75,2.23,4.98,4.98,4.98h18.81c.53,0,1.05.19,1.46.52l2.6,2.08,29.28.07c1.85,0,3.35-1.5,3.35-3.35v-40.54c0-2.92-2.37-5.29-5.29-5.29H20.68c-3.12,0-5.65,2.53-5.65,5.65v14.79c0,.9.36,1.76,1.01,2.39.63.65,1.52.99,2.42.94l5.74-.17c.11,0,.21-.06.26-.15l4.58-8.31c.41-.74,1.19-1.2,2.04-1.21h22.85c1.29,0,2.34,1.05,2.34,2.34v22.63c0,1.29-1.05,2.34-2.34,2.34,0,0-38.6-.01-38.6-.01Z"/>
          <path class="cls-1" d="m72.18,86.62h-29.1c-.68,0-1.34-.24-1.87-.67l-2.42-1.94-18.76-.07c-4.23,0-7.67-3.44-7.67-7.68,0-1.65,1.34-2.99,2.99-2.99h38.25v-21.93h-22.29l-4.48,8.12c-.51.92-1.47,1.51-2.52,1.54l-5.74.18c-1.61.04-3.14-.54-4.31-1.64s-1.84-2.6-1.89-4.2v-14.96c0-4.59,3.74-8.34,8.34-8.34h49.54c4.4,0,7.98,3.58,7.98,7.98v40.54c0,3.33-2.7,6.05-6.03,6.05h0Zm-56.84-12.03c-.93,0-1.69.76-1.69,1.69,0,3.51,2.86,6.37,6.37,6.37l19.22.07,2.78,2.22c.3.24.67.37,1.06.38h29.11c2.61,0,4.74-2.13,4.73-4.74v-40.54c0-3.68-3-6.67-6.68-6.68H20.7c-3.88,0-7.03,3.16-7.04,7.04v14.79c.04,1.4.56,2.56,1.48,3.43.92.87,2.12,1.31,3.38,1.28l5.74-.18c.6-.02,1.14-.35,1.43-.87l4.58-8.3c.16-.3.48-.49.82-.49h22.85c.52,0,.95.42.95.95v22.63c0,.52-.43.95-.95.95H15.34Zm56.82,10l-29.51-.07-2.78-2.22c-.3-.24-.67-.37-1.06-.38h-18.81c-3.1,0-5.62-2.53-5.63-5.63,0-.54.43-.95.95-.95h38.6c.93,0,1.69-.75,1.69-1.68v-22.63c0-.93-.76-1.69-1.69-1.69h-22.85c-.61,0-1.18.33-1.48.87l-4.58,8.3c-.16.3-.48.49-.83.49l-5.72.17c-1.09.06-2.14-.35-2.91-1.13-.76-.73-1.2-1.77-1.2-2.84v-14.79c0-3.47,2.83-6.3,6.3-6.3h49.54c3.27,0,5.94,2.67,5.94,5.94v40.54c0,2.21-1.79,4-4,4Zm-29.05-1.37l29.05.07c1.48,0,2.69-1.21,2.69-2.69v-40.54c0-2.56-2.08-4.64-4.64-4.64H20.68c-2.75,0-5,2.25-5,5v14.79c0,.72.29,1.42.81,1.92.52.53,1.2.8,1.94.76l5.57-.17,4.48-8.13c.53-.95,1.53-1.54,2.61-1.54h22.85c1.65,0,2.99,1.34,2.99,2.99v22.63c0,1.65-1.34,2.99-2.99,2.99H15.7c.18,2.21,2.05,3.97,4.32,3.97h18.81c.68,0,1.34.24,1.87.66l2.42,1.94h0Zm-18.93-25.52h-.02.02Z"/>
        </g>
      </g>
      <g id="Group_794" data-name="Group 794">
        <g id="Rectangle_121" data-name="Rectangle 121">
          <path class="cls-1" d="m18.38,59.53h2.03v8.99h-2.03v-8.99Z"/>
          <path class="cls-1" d="m21.07,69.16h-3.34v-10.29h3.34v10.29Zm-2.03-1.3h.73v-7.69h-.73v7.69h0Z"/>
        </g>
      </g>
      <g id="Group_795" data-name="Group 795">
        <g id="Path_529" data-name="Path 529">
          <path class="cls-1" d="m66.19,58.24c-2.6,0-4.7-2.1-4.7-4.7s2.1-4.7,4.7-4.7,4.7,2.1,4.7,4.7h0c0,2.6-2.1,4.7-4.7,4.7h0Zm0-7.37c-1.47,0-2.67,1.19-2.67,2.66,0,1.47,1.19,2.67,2.66,2.67,1.47,0,2.67-1.19,2.67-2.66h0c0-1.47-1.19-2.67-2.66-2.67Z"/>
          <path class="cls-1" d="m66.18,58.89c-2.95,0-5.35-2.4-5.35-5.35,0-2.95,2.4-5.35,5.35-5.36h0c1.43,0,2.77.56,3.78,1.56,1.01,1,1.57,2.36,1.57,3.78,0,2.95-2.4,5.35-5.35,5.36h0Zm0-9.4c-2.24,0-4.05,1.82-4.05,4.05,0,2.23,1.82,4.05,4.05,4.05,2.23,0,4.05-1.82,4.05-4.05,0-1.08-.42-2.1-1.19-2.87-.76-.76-1.79-1.19-2.86-1.19h0Zm0,7.37c-1.83,0-3.32-1.49-3.32-3.32,0-1.83,1.49-3.31,3.32-3.31h0c1.83,0,3.31,1.49,3.31,3.32,0,.89-.35,1.72-.97,2.35-.62.62-1.47.97-2.34.97h0Zm0-5.33c-1.11,0-2.01.9-2.02,2.01,0,1.11.9,2.02,2.01,2.02h0c.54,0,1.04-.21,1.42-.59.38-.38.59-.89.59-1.42,0-1.11-.9-2.01-2.01-2.02Z"/>
        </g>
      </g>
      <g id="Group_796" data-name="Group 796">
        <g id="Path_530" data-name="Path 530">
          <path class="cls-1" d="m66.19,74.46c-2.6,0-4.7-2.1-4.7-4.7s2.1-4.7,4.7-4.7,4.7,2.1,4.7,4.7h0c0,2.6-2.11,4.7-4.7,4.7h0Zm0-7.36c-1.47,0-2.67,1.19-2.67,2.66,0,1.47,1.19,2.67,2.66,2.67,1.47,0,2.67-1.19,2.67-2.66h0c0-1.48-1.19-2.68-2.66-2.68h0Z"/>
          <path class="cls-1" d="m66.19,75.11c-2.95,0-5.35-2.4-5.36-5.35,0-2.95,2.4-5.35,5.35-5.35h0c1.43,0,2.77.56,3.78,1.56,1.01,1.01,1.57,2.35,1.57,3.78,0,2.95-2.4,5.35-5.35,5.36Zm0-9.4h0c-2.23,0-4.05,1.82-4.05,4.05,0,2.23,1.82,4.05,4.05,4.05,2.22,0,4.04-1.82,4.05-4.05,0-1.09-.42-2.1-1.19-2.87-.76-.76-1.79-1.19-2.86-1.18Zm0,7.37c-1.83,0-3.31-1.49-3.31-3.32,0-1.61,1.15-2.95,2.67-3.25v-.07h.65c.89,0,1.72.35,2.35.98.63.63.97,1.46.97,2.35,0,1.82-1.49,3.31-3.32,3.31h0Zm0-5.33c-1.11,0-2.01.9-2.01,2.01s.9,2.02,2.01,2.02c1.11,0,2.02-.9,2.02-2.01,0-.55-.2-1.05-.59-1.43-.33-.34-.78-.55-1.26-.59h-.17s0,0,0,0Z"/>
        </g>
      </g>
      <g id="Group_797" data-name="Group 797">
        <g id="Rectangle_122" data-name="Rectangle 122">
          <path class="cls-1" d="m65.17,28.62h2.03v5.13h-2.03v-5.13Z"/>
          <path class="cls-1" d="m67.85,34.4h-3.34v-6.43h3.34v6.43Zm-2.03-1.3h.73v-3.83h-.73v3.83Z"/>
        </g>
      </g>
      <g id="Group_798" data-name="Group 798">
        <g id="Rectangle_123" data-name="Rectangle 123">
          <path class="cls-1" d="m14.01,89.87h62.52v2.03H14.01v-2.03Z"/>
          <path class="cls-1" d="m77.18,92.55H13.36v-3.34h63.82v3.34h0Zm-62.52-1.3h61.22v-.73H14.66v.73Z"/>
        </g>
      </g>
    </g>
  </g>
</svg>