<svg xmlns="http://www.w3.org/2000/svg" viewBox="0 0 340.45 242.39"><title>Asset 1</title><g id="Layer_2" data-name="Layer 2"><g id="Layer_1-2" data-name="Layer 1"><path d="M170,12.4C108.73,13,55.74,34.11,11.51,76.72c-1.72,1.66-3.43,3.21-6,3A5.69,5.69,0,0,1,.44,75.94a6.26,6.26,0,0,1,1.68-7,227,227,0,0,1,30.44-25.6C76.45,12.81,125.1-1.82,178.47.18c61.84,2.31,114.93,25.54,159.34,68.6,3.19,3.08,3.49,6.74.89,9.41s-6.35,2.47-9.54-.73a220.71,220.71,0,0,0-49.26-37,224.39,224.39,0,0,0-97.35-28C178.37,12.2,174.2,12.4,170,12.4Z"/><path d="M170.53,48.43c51.48.67,96.06,18.38,133.19,54.32,2.47,2.38,3.43,5,1.71,8.11-1.58,2.83-4.19,3.46-7.23,2.66a6.42,6.42,0,0,1-2.83-2c-27-26.38-59.14-43.22-96.42-48.84-57.77-8.71-108.4,7-151.52,46.62-.86.78-1.68,1.61-2.55,2.39-3,2.76-6.52,2.84-9,.24s-2.3-6.08.57-9A162.24,162.24,0,0,1,53.18,88.27q50.21-38.49,113.47-39.83C168,48.4,169.25,48.43,170.53,48.43Z"/><path d="M170.21,96.6c37.32.67,69.89,13.3,97.32,38.94a14.14,14.14,0,0,1,3.61,4.65c1.22,2.77,1.39,5.15-1.27,7.13a6.22,6.22,0,0,1-8.28-.5A125.73,125.73,0,0,0,230.5,124C181.59,97.69,119.62,106.48,80,145.32c-3.48,3.41-7,3.78-9.77,1s-2.34-6.46,1.4-10C99.19,110.16,132.12,97.15,170.21,96.6Z"/><path d="M170,145c24.78.44,46.36,8.84,64.5,25.85,2.41,2.26,3.88,4.72,2.66,8-1.63,4.5-6.85,5-10.84,1.12a76.17,76.17,0,0,0-33.73-19.53C162.8,152.59,136.4,159,113.69,180c-2.52,2.32-5.14,3.21-8.19,1.49-2.71-1.52-3.28-4.06-2.61-6.95a7.15,7.15,0,0,1,2.33-3.41C123.38,153.91,145.05,145.43,170,145Z"/><path d="M170.24,202.82a14.79,14.79,0,1,1-14.79,14.78,14.8,14.8,0,0,1,14.79-14.78m0-10A24.79,24.79,0,1,0,195,217.6a24.79,24.79,0,0,0-24.78-24.78Z"/></g></g></svg>